<svg width="48" height="48" viewBox="0 0 48 48" fill="none" xmlns="http://www.w3.org/2000/svg">
<circle cx="24" cy="24" r="24" fill="#E84142"/>
<path fill-rule="evenodd" clip-rule="evenodd" d="M17.0127 33.5504H12.3549C11.3762 33.5504 10.8928 33.5504 10.598 33.3618C10.2796 33.1554 10.085 32.8134 10.0615 32.436C10.0437 32.0883 10.2855 31.6637 10.769 30.8147L22.2695 10.5435C22.7588 9.68265 23.0064 9.25225 23.3189 9.09307C23.655 8.9221 24.0559 8.9221 24.392 9.09307C24.7045 9.25225 24.9521 9.68265 25.4414 10.5435L27.8057 14.6706L27.8177 14.6916C28.3463 15.6151 28.6143 16.0834 28.7313 16.5749C28.861 17.1114 28.861 17.6774 28.7313 18.214C28.6134 18.7092 28.3481 19.1809 27.8116 20.1183L21.7706 30.797L21.755 30.8244C21.223 31.7554 20.9534 32.2273 20.5797 32.5833C20.1729 32.9726 19.6835 33.2554 19.147 33.4149C18.6576 33.5504 18.1093 33.5504 17.0127 33.5504ZM28.775 33.5504H35.4489C36.4336 33.5504 36.9289 33.5504 37.2239 33.3561C37.5422 33.1496 37.7425 32.8016 37.7604 32.4245C37.7774 32.088 37.5409 31.6799 37.0775 30.8802C37.0615 30.853 37.0455 30.8253 37.0292 30.7971L33.6862 25.0782L33.6481 25.0138C33.1784 24.2194 32.9412 23.8182 32.6367 23.6631C32.3008 23.4921 31.9055 23.4921 31.5696 23.6631C31.263 23.8223 31.0154 24.2409 30.526 25.084L27.1949 30.803L27.1835 30.8227C26.6958 31.6645 26.4521 32.0851 26.4697 32.4303C26.4933 32.8077 26.6878 33.1554 27.0062 33.3618C27.2951 33.5504 27.7904 33.5504 28.775 33.5504Z" fill="white"/>
</svg>
