<svg width="30" height="30" viewBox="0 0 30 30" fill="none" xmlns="http://www.w3.org/2000/svg">
<circle cx="14.7778" cy="14.7778" r="14.7778" fill="white"/>
<path fill-rule="evenodd" clip-rule="evenodd" d="M10.4753 20.6583H7.60733C7.00469 20.6583 6.70701 20.6583 6.5255 20.5422C6.32946 20.4151 6.20966 20.2046 6.19514 19.9722C6.18424 19.7581 6.3331 19.4966 6.63078 18.9738L13.7121 6.49204C14.0134 5.962 14.1659 5.69699 14.3583 5.59898C14.5652 5.4937 14.8121 5.4937 15.019 5.59898C15.2114 5.69699 15.3639 5.962 15.6652 6.49204L17.121 9.03326L17.1284 9.04623C17.4539 9.61485 17.6189 9.9032 17.691 10.2058C17.7708 10.5362 17.7708 10.8847 17.691 11.2151C17.6183 11.52 17.455 11.8105 17.1246 12.3877L13.405 18.963L13.3953 18.9798C13.0677 19.5531 12.9017 19.8437 12.6716 20.0629C12.4211 20.3026 12.1198 20.4767 11.7895 20.5749C11.4881 20.6583 11.1505 20.6583 10.4753 20.6583ZM17.7178 20.6583H21.8273C22.4335 20.6583 22.7385 20.6583 22.9201 20.5387C23.1161 20.4116 23.2395 20.1973 23.2505 19.9651C23.261 19.7579 23.1153 19.5066 22.83 19.0142C22.8202 18.9975 22.8103 18.9804 22.8003 18.963L20.7418 15.4416L20.7184 15.402C20.4292 14.9128 20.2832 14.6658 20.0956 14.5704C19.8888 14.4651 19.6454 14.4651 19.4386 14.5704C19.2498 14.6684 19.0973 14.9261 18.796 15.4453L16.7449 18.9667L16.7379 18.9788C16.4376 19.4971 16.2875 19.7561 16.2984 19.9686C16.3129 20.201 16.4327 20.4151 16.6287 20.5422C16.8066 20.6583 17.1115 20.6583 17.7178 20.6583Z" fill="#E84142"/>
</svg>
