<svg width="30" height="30" viewBox="0 0 30 30" fill="none" xmlns="http://www.w3.org/2000/svg">
<rect x="5.24097" y="9.14795" width="1.05556" height="1.05556" fill="white"/>
<rect x="5.24097" y="10.9075" width="1.05556" height="1.05556" fill="white"/>
<path d="M14.7778 29.5556C22.9393 29.5556 29.5556 22.9393 29.5556 14.7778C29.5556 6.61624 22.9393 0 14.7778 0C6.61624 0 0 6.61624 0 14.7778C0 22.9393 6.61624 29.5556 14.7778 29.5556Z" fill="white"/>
<path fill-rule="evenodd" clip-rule="evenodd" d="M11.6884 13.5076L14.7793 10.418L17.8716 13.5102L19.6691 11.7114L14.7793 6.82056L9.88957 11.7102L11.6884 13.5076ZM6.82056 14.7781L8.61868 12.98L10.4168 14.7781L8.61868 16.5762L6.82056 14.7781ZM14.7793 19.1389L11.6884 16.048L9.88705 17.8442L9.88957 17.8467L14.7793 22.7351L19.6691 17.8442L19.6704 17.8429L17.8716 16.0467L14.7793 19.1389ZM19.1388 14.7785L20.937 12.9805L22.7351 14.7785L20.937 16.5766L19.1388 14.7785ZM14.7793 12.9521L16.6033 14.7772H16.6045L16.6033 14.7785L14.7793 16.6036L12.9554 14.781L12.9529 14.7772L12.9554 14.7747L13.2747 14.4554L13.4306 14.3008L14.7793 12.9521Z" fill="#F3BA2F"/>
</svg>
