<svg width="48" height="48" viewBox="0 0 48 48" fill="none" xmlns="http://www.w3.org/2000/svg">
<circle cx="24" cy="24" r="24" fill="white"/>
<path d="M23.9984 8.57141L23.7861 9.27461V29.6781L23.9984 29.8846L33.7084 24.2863L23.9984 8.57141Z" fill="#219EE1"/>
<path d="M23.996 8.57141L14.2858 24.2863L23.996 29.8846V19.9813V8.57141Z" fill="#32B1F7"/>
<path d="M23.9984 31.6777L23.8788 31.82V39.088L23.9984 39.4286L33.7144 26.0823L23.9984 31.6777Z" fill="#1D91D0"/>
<path d="M23.996 39.4286V31.6777L14.2858 26.0823L23.996 39.4286Z" fill="#21A1E7"/>
<path d="M23.9946 29.8842L33.7047 24.2859L23.9946 19.981V29.8842Z" fill="#1D91D0"/>
<path d="M14.2858 24.2859L23.996 29.8842V19.981L14.2858 24.2859Z" fill="#21A1E7"/>
<rect x="21.1431" y="14.8569" width="1.71429" height="1.71429" fill="white"/>
<rect x="21.1431" y="17.7144" width="1.71429" height="1.71429" fill="white"/>
</svg>
