<svg width="649" height="639" viewBox="0 0 649 639" fill="none" xmlns="http://www.w3.org/2000/svg">
<g filter="url(#filter0_di_407_744)">
<g clip-path="url(#clip0_407_744)">
<rect x="191" y="154" width="241" height="240" rx="120" fill="#F3715E"/>
<g filter="url(#filter1_f_407_744)">
<ellipse cx="301.258" cy="253.412" rx="130.742" ry="127.647" fill="#FF4229"/>
</g>
<g filter="url(#filter2_f_407_744)">
<ellipse cx="282.11" cy="218.286" rx="80.8232" ry="78.5714" fill="#FF7360"/>
</g>
<g opacity="0.45" filter="url(#filter3_f_407_744)">
<ellipse rx="34.2301" ry="20.4032" transform="matrix(0.982139 -0.188159 0.197044 0.980395 331.064 361.62)" fill="#FF7360"/>
</g>
</g>
</g>
<g filter="url(#filter4_b_407_744)">
<path fill-rule="evenodd" clip-rule="evenodd" d="M309 115C309 115 309 115 309 115C343.202 115 374.736 126.422 399.996 145.66L309 273.523L309 115Z" fill="url(#paint0_linear_407_744)" fill-opacity="0.2"/>
<path d="M309 115L309 114.75L308.75 114.75L308.75 115L309 115ZM399.996 145.66L400.2 145.805L400.34 145.608L400.148 145.461L399.996 145.66ZM309 273.523L308.75 273.523L308.75 274.306L309.204 273.668L309 273.523ZM309 115.25C309 115.25 309 115.25 309 115.25C309 115.25 309 115.25 309 115.25L309 114.75C309 114.75 309 114.75 309 114.75C309 114.75 309 114.75 309 114.75L309 115.25ZM309 115.25C343.146 115.25 374.627 126.653 399.845 145.859L400.148 145.461C374.846 126.191 343.259 114.75 309 114.75L309 115.25ZM399.792 145.515L308.796 273.379L309.204 273.668L400.2 145.805L399.792 145.515ZM309.25 273.523L309.25 115L308.75 115L308.75 273.523L309.25 273.523Z" fill="#FCA593" fill-opacity="0.6"/>
</g>
<g filter="url(#filter5_b_407_744)">
<path fill-rule="evenodd" clip-rule="evenodd" d="M406.015 150C406.015 150 406.016 150 406.016 150C434.247 170.795 453.102 199.593 461.755 230.96L312.002 277.636L406.015 150Z" fill="url(#paint1_linear_407_744)" fill-opacity="0.2"/>
<path d="M406.015 150L406.164 149.799L405.962 149.65L405.814 149.852L406.015 150ZM461.755 230.96L461.829 231.198L462.06 231.126L461.996 230.893L461.755 230.96ZM312.002 277.636L311.8 277.488L311.348 278.102L312.076 277.875L312.002 277.636ZM405.867 150.201C405.867 150.201 405.867 150.201 405.867 150.201C405.867 150.201 405.867 150.201 405.867 150.201L406.164 149.799C406.164 149.799 406.164 149.799 406.164 149.799C406.164 149.799 406.164 149.799 406.164 149.799L405.867 150.201ZM405.867 150.201C434.052 170.962 452.875 199.711 461.514 231.026L461.996 230.893C453.328 199.474 434.442 170.628 406.164 149.799L405.867 150.201ZM461.68 230.721L311.927 277.398L312.076 277.875L461.829 231.198L461.68 230.721ZM312.203 277.785L406.217 150.148L405.814 149.852L311.8 277.488L312.203 277.785Z" fill="#FCA593" fill-opacity="0.6"/>
</g>
<path d="M270.248 321V309.72H275.176C276.413 309.72 277.368 310.013 278.04 310.6C278.723 311.187 279.064 312.003 279.064 313.048C279.064 313.741 278.909 314.333 278.6 314.824C278.301 315.315 277.869 315.693 277.304 315.96C276.739 316.216 276.072 316.344 275.304 316.344L275.528 316.04H276.072C276.52 316.04 276.92 316.157 277.272 316.392C277.624 316.627 277.912 316.984 278.136 317.464L279.784 321H277.512L275.848 317.336C275.699 316.963 275.469 316.717 275.16 316.6C274.861 316.483 274.499 316.424 274.072 316.424H272.312V321H270.248ZM272.312 314.904H274.84C275.565 314.904 276.115 314.755 276.488 314.456C276.872 314.147 277.064 313.699 277.064 313.112C277.064 312.525 276.872 312.083 276.488 311.784C276.115 311.485 275.565 311.336 274.84 311.336H272.312V314.904ZM285.023 321.16C283.669 321.16 282.607 320.787 281.839 320.04C281.071 319.293 280.687 318.269 280.687 316.968C280.687 316.125 280.853 315.389 281.183 314.76C281.514 314.131 281.973 313.64 282.559 313.288C283.157 312.936 283.85 312.76 284.639 312.76C285.418 312.76 286.069 312.925 286.591 313.256C287.114 313.587 287.509 314.051 287.775 314.648C288.053 315.245 288.191 315.944 288.191 316.744V317.272H282.303V316.216H286.767L286.495 316.44C286.495 315.693 286.335 315.123 286.015 314.728C285.706 314.333 285.253 314.136 284.655 314.136C283.994 314.136 283.482 314.371 283.119 314.84C282.767 315.309 282.591 315.965 282.591 316.808V317.016C282.591 317.891 282.805 318.547 283.231 318.984C283.669 319.411 284.282 319.624 285.071 319.624C285.53 319.624 285.957 319.565 286.351 319.448C286.757 319.32 287.141 319.117 287.503 318.84L288.095 320.184C287.711 320.493 287.253 320.733 286.719 320.904C286.186 321.075 285.621 321.16 285.023 321.16ZM292.765 321.16C292.072 321.16 291.432 321.08 290.845 320.92C290.269 320.749 289.784 320.515 289.389 320.216L289.949 318.872C290.354 319.149 290.802 319.363 291.293 319.512C291.784 319.661 292.28 319.736 292.781 319.736C293.314 319.736 293.709 319.645 293.965 319.464C294.232 319.283 294.365 319.037 294.365 318.728C294.365 318.483 294.28 318.291 294.109 318.152C293.949 318.003 293.688 317.891 293.325 317.816L291.725 317.512C291.042 317.363 290.52 317.107 290.157 316.744C289.805 316.381 289.629 315.907 289.629 315.32C289.629 314.819 289.762 314.376 290.029 313.992C290.306 313.608 290.696 313.309 291.197 313.096C291.709 312.872 292.306 312.76 292.989 312.76C293.586 312.76 294.146 312.84 294.669 313C295.202 313.16 295.65 313.4 296.013 313.72L295.437 315.016C295.106 314.749 294.728 314.541 294.301 314.392C293.874 314.243 293.458 314.168 293.053 314.168C292.498 314.168 292.093 314.269 291.837 314.472C291.581 314.664 291.453 314.915 291.453 315.224C291.453 315.459 291.528 315.656 291.677 315.816C291.837 315.965 292.082 316.077 292.413 316.152L294.013 316.456C294.728 316.595 295.266 316.84 295.629 317.192C296.002 317.533 296.189 318.003 296.189 318.6C296.189 319.133 296.045 319.592 295.757 319.976C295.469 320.36 295.069 320.653 294.557 320.856C294.045 321.059 293.448 321.16 292.765 321.16ZM301.805 321.16C300.45 321.16 299.389 320.787 298.621 320.04C297.853 319.293 297.469 318.269 297.469 316.968C297.469 316.125 297.634 315.389 297.965 314.76C298.295 314.131 298.754 313.64 299.341 313.288C299.938 312.936 300.631 312.76 301.421 312.76C302.199 312.76 302.85 312.925 303.373 313.256C303.895 313.587 304.29 314.051 304.557 314.648C304.834 315.245 304.973 315.944 304.973 316.744V317.272H299.085V316.216H303.549L303.277 316.44C303.277 315.693 303.117 315.123 302.797 314.728C302.487 314.333 302.034 314.136 301.437 314.136C300.775 314.136 300.263 314.371 299.901 314.84C299.549 315.309 299.373 315.965 299.373 316.808V317.016C299.373 317.891 299.586 318.547 300.013 318.984C300.45 319.411 301.063 319.624 301.853 319.624C302.311 319.624 302.738 319.565 303.133 319.448C303.538 319.32 303.922 319.117 304.285 318.84L304.877 320.184C304.493 320.493 304.034 320.733 303.501 320.904C302.967 321.075 302.402 321.16 301.805 321.16ZM306.65 321V314.984C306.65 314.643 306.639 314.296 306.618 313.944C306.607 313.592 306.581 313.251 306.538 312.92H308.474L308.698 315.128H308.378C308.485 314.595 308.661 314.152 308.906 313.8C309.162 313.448 309.471 313.187 309.834 313.016C310.197 312.845 310.591 312.76 311.018 312.76C311.21 312.76 311.365 312.771 311.482 312.792C311.599 312.803 311.717 312.829 311.834 312.872L311.818 314.632C311.615 314.547 311.439 314.493 311.29 314.472C311.151 314.451 310.975 314.44 310.762 314.44C310.303 314.44 309.914 314.536 309.594 314.728C309.285 314.92 309.05 315.187 308.89 315.528C308.741 315.869 308.666 316.259 308.666 316.696V321H306.65ZM315.8 321L312.312 312.92H314.44L316.968 319.24H316.472L319.064 312.92H321.064L317.56 321H315.8ZM325.883 321.16C324.528 321.16 323.467 320.787 322.699 320.04C321.931 319.293 321.547 318.269 321.547 316.968C321.547 316.125 321.712 315.389 322.043 314.76C322.373 314.131 322.832 313.64 323.419 313.288C324.016 312.936 324.709 312.76 325.499 312.76C326.277 312.76 326.928 312.925 327.451 313.256C327.973 313.587 328.368 314.051 328.635 314.648C328.912 315.245 329.051 315.944 329.051 316.744V317.272H323.163V316.216H327.627L327.355 316.44C327.355 315.693 327.195 315.123 326.875 314.728C326.565 314.333 326.112 314.136 325.515 314.136C324.853 314.136 324.341 314.371 323.979 314.84C323.627 315.309 323.451 315.965 323.451 316.808V317.016C323.451 317.891 323.664 318.547 324.091 318.984C324.528 319.411 325.141 319.624 325.931 319.624C326.389 319.624 326.816 319.565 327.211 319.448C327.616 319.32 328 319.117 328.363 318.84L328.955 320.184C328.571 320.493 328.112 320.733 327.579 320.904C327.045 321.075 326.48 321.16 325.883 321.16ZM333.624 321.16C332.931 321.16 332.291 321.08 331.704 320.92C331.128 320.749 330.643 320.515 330.248 320.216L330.808 318.872C331.214 319.149 331.662 319.363 332.152 319.512C332.643 319.661 333.139 319.736 333.64 319.736C334.174 319.736 334.568 319.645 334.824 319.464C335.091 319.283 335.224 319.037 335.224 318.728C335.224 318.483 335.139 318.291 334.968 318.152C334.808 318.003 334.547 317.891 334.184 317.816L332.584 317.512C331.902 317.363 331.379 317.107 331.016 316.744C330.664 316.381 330.488 315.907 330.488 315.32C330.488 314.819 330.622 314.376 330.888 313.992C331.166 313.608 331.555 313.309 332.056 313.096C332.568 312.872 333.166 312.76 333.848 312.76C334.446 312.76 335.006 312.84 335.528 313C336.062 313.16 336.51 313.4 336.872 313.72L336.296 315.016C335.966 314.749 335.587 314.541 335.16 314.392C334.734 314.243 334.318 314.168 333.912 314.168C333.358 314.168 332.952 314.269 332.696 314.472C332.44 314.664 332.312 314.915 332.312 315.224C332.312 315.459 332.387 315.656 332.536 315.816C332.696 315.965 332.942 316.077 333.272 316.152L334.872 316.456C335.587 316.595 336.126 316.84 336.488 317.192C336.862 317.533 337.048 318.003 337.048 318.6C337.048 319.133 336.904 319.592 336.616 319.976C336.328 320.36 335.928 320.653 335.416 320.856C334.904 321.059 334.307 321.16 333.624 321.16ZM339.434 323.128L338.618 322.488C338.959 322.136 339.194 321.805 339.322 321.496C339.46 321.197 339.53 320.877 339.53 320.536L339.962 321H338.458V318.776H340.698V320.248C340.698 320.792 340.602 321.288 340.41 321.736C340.228 322.195 339.903 322.659 339.434 323.128ZM270.264 341V329.72H272.072L276.216 339.048H275.72L279.864 329.72H281.656V341H279.784V332.632H280.36L276.568 341H275.336L271.544 332.632H272.136V341H270.264ZM287.13 341.16C286.426 341.16 285.807 340.995 285.274 340.664C284.741 340.323 284.325 339.837 284.026 339.208C283.727 338.579 283.578 337.827 283.578 336.952C283.578 336.077 283.727 335.331 284.026 334.712C284.325 334.083 284.741 333.603 285.274 333.272C285.807 332.931 286.426 332.76 287.13 332.76C287.813 332.76 288.41 332.931 288.922 333.272C289.445 333.603 289.791 334.051 289.962 334.616H289.786L289.962 332.92H291.882C291.85 333.251 291.818 333.587 291.786 333.928C291.765 334.269 291.754 334.605 291.754 334.936V341H289.77L289.754 339.336H289.946C289.775 339.891 289.429 340.333 288.906 340.664C288.383 340.995 287.791 341.16 287.13 341.16ZM287.69 339.624C288.319 339.624 288.826 339.405 289.21 338.968C289.594 338.52 289.786 337.848 289.786 336.952C289.786 336.056 289.594 335.389 289.21 334.952C288.826 334.515 288.319 334.296 287.69 334.296C287.061 334.296 286.554 334.515 286.17 334.952C285.786 335.389 285.594 336.056 285.594 336.952C285.594 337.848 285.781 338.52 286.154 338.968C286.538 339.405 287.05 339.624 287.69 339.624ZM293.916 341V334.984C293.916 334.643 293.905 334.296 293.884 333.944C293.873 333.592 293.846 333.251 293.804 332.92H295.74L295.964 335.128H295.644C295.75 334.595 295.926 334.152 296.172 333.8C296.428 333.448 296.737 333.187 297.1 333.016C297.462 332.845 297.857 332.76 298.284 332.76C298.476 332.76 298.63 332.771 298.748 332.792C298.865 332.803 298.982 332.829 299.1 332.872L299.084 334.632C298.881 334.547 298.705 334.493 298.556 334.472C298.417 334.451 298.241 334.44 298.028 334.44C297.569 334.44 297.18 334.536 296.86 334.728C296.55 334.92 296.316 335.187 296.156 335.528C296.006 335.869 295.932 336.259 295.932 336.696V341H293.916ZM300.213 341V329.224H302.213V336.36H302.245L305.525 332.92H307.941L303.861 337.192L303.877 336.392L308.229 341H305.749L302.245 337.384H302.213V341H300.213ZM312.789 341.16C311.434 341.16 310.373 340.787 309.605 340.04C308.837 339.293 308.453 338.269 308.453 336.968C308.453 336.125 308.618 335.389 308.949 334.76C309.28 334.131 309.738 333.64 310.325 333.288C310.922 332.936 311.616 332.76 312.405 332.76C313.184 332.76 313.834 332.925 314.357 333.256C314.88 333.587 315.274 334.051 315.541 334.648C315.818 335.245 315.957 335.944 315.957 336.744V337.272H310.069V336.216H314.533L314.261 336.44C314.261 335.693 314.101 335.123 313.781 334.728C313.472 334.333 313.018 334.136 312.421 334.136C311.76 334.136 311.248 334.371 310.885 334.84C310.533 335.309 310.357 335.965 310.357 336.808V337.016C310.357 337.891 310.57 338.547 310.997 338.984C311.434 339.411 312.048 339.624 312.837 339.624C313.296 339.624 313.722 339.565 314.117 339.448C314.522 339.32 314.906 339.117 315.269 338.84L315.861 340.184C315.477 340.493 315.018 340.733 314.485 340.904C313.952 341.075 313.386 341.16 312.789 341.16ZM321.075 341.16C320.115 341.16 319.39 340.909 318.899 340.408C318.409 339.907 318.163 339.155 318.163 338.152V334.424H316.611V332.92H318.163V330.856L320.163 330.344V332.92H322.323V334.424H320.163V338.024C320.163 338.579 320.27 338.968 320.483 339.192C320.697 339.416 320.99 339.528 321.363 339.528C321.566 339.528 321.737 339.512 321.875 339.48C322.025 339.448 322.169 339.405 322.307 339.352V340.936C322.126 341.011 321.923 341.064 321.699 341.096C321.486 341.139 321.278 341.16 321.075 341.16ZM323.682 341V332.92H325.682V341H323.682ZM323.57 331.4V329.448H325.794V331.4H323.57ZM327.854 341V334.936C327.854 334.605 327.843 334.269 327.822 333.928C327.8 333.587 327.768 333.251 327.726 332.92H329.662L329.822 334.52H329.63C329.886 333.955 330.264 333.523 330.766 333.224C331.267 332.915 331.848 332.76 332.51 332.76C333.459 332.76 334.174 333.027 334.654 333.56C335.134 334.093 335.374 334.925 335.374 336.056V341H333.374V336.152C333.374 335.501 333.246 335.037 332.99 334.76C332.744 334.472 332.371 334.328 331.87 334.328C331.251 334.328 330.76 334.52 330.398 334.904C330.035 335.288 329.854 335.8 329.854 336.44V341H327.854ZM341.238 344.584C340.492 344.584 339.814 344.504 339.206 344.344C338.609 344.184 338.076 343.939 337.606 343.608L338.038 342.168C338.348 342.371 338.668 342.536 338.998 342.664C339.329 342.792 339.67 342.888 340.022 342.952C340.374 343.016 340.732 343.048 341.094 343.048C341.841 343.048 342.396 342.861 342.758 342.488C343.132 342.125 343.318 341.603 343.318 340.92V338.984H343.478C343.308 339.539 342.961 339.981 342.438 340.312C341.926 340.643 341.334 340.808 340.662 340.808C339.937 340.808 339.302 340.648 338.758 340.328C338.225 339.997 337.809 339.528 337.51 338.92C337.212 338.312 337.062 337.597 337.062 336.776C337.062 335.955 337.212 335.245 337.51 334.648C337.809 334.04 338.225 333.576 338.758 333.256C339.302 332.925 339.937 332.76 340.662 332.76C341.345 332.76 341.937 332.925 342.438 333.256C342.95 333.576 343.292 334.013 343.462 334.568L343.318 334.472L343.478 332.92H345.414C345.372 333.251 345.34 333.587 345.318 333.928C345.297 334.269 345.286 334.605 345.286 334.936V340.68C345.286 341.949 344.94 342.915 344.246 343.576C343.564 344.248 342.561 344.584 341.238 344.584ZM341.206 339.272C341.846 339.272 342.353 339.059 342.726 338.632C343.11 338.195 343.302 337.576 343.302 336.776C343.302 335.976 343.11 335.363 342.726 334.936C342.353 334.509 341.846 334.296 341.206 334.296C340.556 334.296 340.038 334.509 339.654 334.936C339.27 335.363 339.078 335.976 339.078 336.776C339.078 337.576 339.27 338.195 339.654 338.632C340.038 339.059 340.556 339.272 341.206 339.272ZM348.199 343.128L347.383 342.488C347.725 342.136 347.959 341.805 348.087 341.496C348.226 341.197 348.295 340.877 348.295 340.536L348.727 341H347.223V338.776H349.463V340.248C349.463 340.792 349.367 341.288 349.175 341.736C348.994 342.195 348.669 342.659 348.199 343.128ZM270.248 361V349.72H277.848V351.336H272.232V354.456H277.48V356.088H272.232V359.368H277.848V361H270.248ZM283.269 361.16C282.437 361.16 281.706 360.989 281.077 360.648C280.458 360.307 279.978 359.821 279.637 359.192C279.295 358.552 279.125 357.795 279.125 356.92C279.125 356.045 279.295 355.299 279.637 354.68C279.989 354.061 280.474 353.587 281.093 353.256C281.711 352.925 282.437 352.76 283.269 352.76C283.802 352.76 284.319 352.845 284.821 353.016C285.333 353.176 285.749 353.411 286.069 353.72L285.461 355.112C285.173 354.845 284.847 354.648 284.485 354.52C284.133 354.381 283.786 354.312 283.445 354.312C282.73 354.312 282.17 354.536 281.765 354.984C281.37 355.432 281.173 356.083 281.173 356.936C281.173 357.789 281.37 358.445 281.765 358.904C282.17 359.363 282.73 359.592 283.445 359.592C283.775 359.592 284.117 359.528 284.469 359.4C284.831 359.272 285.162 359.075 285.461 358.808L286.069 360.184C285.738 360.493 285.317 360.733 284.805 360.904C284.303 361.075 283.791 361.16 283.269 361.16ZM291.111 361.16C290.279 361.16 289.559 360.989 288.951 360.648C288.343 360.307 287.868 359.821 287.527 359.192C287.196 358.563 287.031 357.816 287.031 356.952C287.031 356.088 287.196 355.347 287.527 354.728C287.868 354.099 288.343 353.613 288.951 353.272C289.559 352.931 290.279 352.76 291.111 352.76C291.943 352.76 292.663 352.931 293.271 353.272C293.89 353.613 294.364 354.099 294.695 354.728C295.036 355.347 295.207 356.088 295.207 356.952C295.207 357.816 295.036 358.563 294.695 359.192C294.364 359.821 293.89 360.307 293.271 360.648C292.663 360.989 291.943 361.16 291.111 361.16ZM291.111 359.624C291.74 359.624 292.242 359.405 292.615 358.968C292.988 358.52 293.175 357.848 293.175 356.952C293.175 356.056 292.988 355.389 292.615 354.952C292.242 354.515 291.74 354.296 291.111 354.296C290.482 354.296 289.98 354.515 289.607 354.952C289.234 355.389 289.047 356.056 289.047 356.952C289.047 357.848 289.234 358.52 289.607 358.968C289.98 359.405 290.482 359.624 291.111 359.624ZM299.812 361.16C299.118 361.16 298.478 361.08 297.892 360.92C297.316 360.749 296.83 360.515 296.436 360.216L296.996 358.872C297.401 359.149 297.849 359.363 298.34 359.512C298.83 359.661 299.326 359.736 299.828 359.736C300.361 359.736 300.756 359.645 301.012 359.464C301.278 359.283 301.412 359.037 301.412 358.728C301.412 358.483 301.326 358.291 301.156 358.152C300.996 358.003 300.734 357.891 300.372 357.816L298.772 357.512C298.089 357.363 297.566 357.107 297.204 356.744C296.852 356.381 296.676 355.907 296.676 355.32C296.676 354.819 296.809 354.376 297.076 353.992C297.353 353.608 297.742 353.309 298.244 353.096C298.756 352.872 299.353 352.76 300.036 352.76C300.633 352.76 301.193 352.84 301.716 353C302.249 353.16 302.697 353.4 303.06 353.72L302.484 355.016C302.153 354.749 301.774 354.541 301.348 354.392C300.921 354.243 300.505 354.168 300.1 354.168C299.545 354.168 299.14 354.269 298.884 354.472C298.628 354.664 298.5 354.915 298.5 355.224C298.5 355.459 298.574 355.656 298.724 355.816C298.884 355.965 299.129 356.077 299.46 356.152L301.06 356.456C301.774 356.595 302.313 356.84 302.676 357.192C303.049 357.533 303.236 358.003 303.236 358.6C303.236 359.133 303.092 359.592 302.804 359.976C302.516 360.36 302.116 360.653 301.604 360.856C301.092 361.059 300.494 361.16 299.812 361.16ZM304.631 364.632L304.167 363.048C304.668 362.941 305.09 362.819 305.431 362.68C305.772 362.541 306.055 362.36 306.279 362.136C306.503 361.912 306.69 361.624 306.839 361.272L307.239 360.328L307.191 361.112L303.671 352.92H305.799L308.327 359.224H307.863L310.407 352.92H312.423L308.743 361.448C308.498 362.024 308.231 362.499 307.943 362.872C307.655 363.256 307.346 363.56 307.015 363.784C306.684 364.019 306.322 364.2 305.927 364.328C305.532 364.456 305.1 364.557 304.631 364.632ZM316.202 361.16C315.509 361.16 314.869 361.08 314.282 360.92C313.706 360.749 313.221 360.515 312.826 360.216L313.386 358.872C313.792 359.149 314.24 359.363 314.73 359.512C315.221 359.661 315.717 359.736 316.218 359.736C316.752 359.736 317.146 359.645 317.402 359.464C317.669 359.283 317.802 359.037 317.802 358.728C317.802 358.483 317.717 358.291 317.546 358.152C317.386 358.003 317.125 357.891 316.762 357.816L315.162 357.512C314.48 357.363 313.957 357.107 313.594 356.744C313.242 356.381 313.066 355.907 313.066 355.32C313.066 354.819 313.2 354.376 313.466 353.992C313.744 353.608 314.133 353.309 314.634 353.096C315.146 352.872 315.744 352.76 316.426 352.76C317.024 352.76 317.584 352.84 318.106 353C318.64 353.16 319.088 353.4 319.45 353.72L318.874 355.016C318.544 354.749 318.165 354.541 317.738 354.392C317.312 354.243 316.896 354.168 316.49 354.168C315.936 354.168 315.53 354.269 315.274 354.472C315.018 354.664 314.89 354.915 314.89 355.224C314.89 355.459 314.965 355.656 315.114 355.816C315.274 355.965 315.52 356.077 315.85 356.152L317.45 356.456C318.165 356.595 318.704 356.84 319.066 357.192C319.44 357.533 319.626 358.003 319.626 358.6C319.626 359.133 319.482 359.592 319.194 359.976C318.906 360.36 318.506 360.653 317.994 360.856C317.482 361.059 316.885 361.16 316.202 361.16ZM324.716 361.16C323.756 361.16 323.031 360.909 322.54 360.408C322.049 359.907 321.804 359.155 321.804 358.152V354.424H320.252V352.92H321.804V350.856L323.804 350.344V352.92H325.964V354.424H323.804V358.024C323.804 358.579 323.911 358.968 324.124 359.192C324.337 359.416 324.631 359.528 325.004 359.528C325.207 359.528 325.377 359.512 325.516 359.48C325.665 359.448 325.809 359.405 325.948 359.352V360.936C325.767 361.011 325.564 361.064 325.34 361.096C325.127 361.139 324.919 361.16 324.716 361.16ZM331.148 361.16C329.794 361.16 328.732 360.787 327.964 360.04C327.196 359.293 326.812 358.269 326.812 356.968C326.812 356.125 326.978 355.389 327.308 354.76C327.639 354.131 328.098 353.64 328.684 353.288C329.282 352.936 329.975 352.76 330.764 352.76C331.543 352.76 332.194 352.925 332.716 353.256C333.239 353.587 333.634 354.051 333.9 354.648C334.178 355.245 334.316 355.944 334.316 356.744V357.272H328.428V356.216H332.892L332.62 356.44C332.62 355.693 332.46 355.123 332.14 354.728C331.831 354.333 331.378 354.136 330.78 354.136C330.119 354.136 329.607 354.371 329.244 354.84C328.892 355.309 328.716 355.965 328.716 356.808V357.016C328.716 357.891 328.93 358.547 329.356 358.984C329.794 359.411 330.407 359.624 331.196 359.624C331.655 359.624 332.082 359.565 332.476 359.448C332.882 359.32 333.266 359.117 333.628 358.84L334.22 360.184C333.836 360.493 333.378 360.733 332.844 360.904C332.311 361.075 331.746 361.16 331.148 361.16ZM336.01 361V354.936C336.01 354.605 335.999 354.269 335.978 353.928C335.957 353.587 335.925 353.251 335.882 352.92H337.818L337.978 354.52H337.786C338.01 353.965 338.351 353.533 338.81 353.224C339.279 352.915 339.834 352.76 340.474 352.76C341.114 352.76 341.642 352.915 342.058 353.224C342.485 353.523 342.783 353.992 342.954 354.632H342.698C342.922 354.056 343.29 353.603 343.802 353.272C344.314 352.931 344.901 352.76 345.562 352.76C346.469 352.76 347.146 353.027 347.594 353.56C348.042 354.093 348.266 354.925 348.266 356.056V361H346.266V356.136C346.266 355.496 346.159 355.037 345.946 354.76C345.733 354.472 345.391 354.328 344.922 354.328C344.367 354.328 343.93 354.525 343.61 354.92C343.29 355.304 343.13 355.827 343.13 356.488V361H341.13V356.136C341.13 355.496 341.023 355.037 340.81 354.76C340.597 354.472 340.255 354.328 339.786 354.328C339.231 354.328 338.794 354.525 338.474 354.92C338.165 355.304 338.01 355.827 338.01 356.488V361H336.01Z" fill="white"/>
<path d="M317.278 168.13C316.325 168.13 315.506 167.939 314.821 167.558C314.145 167.168 313.625 166.622 313.261 165.92C312.897 165.209 312.715 164.373 312.715 163.411C312.715 162.449 312.897 161.617 313.261 160.915C313.625 160.213 314.145 159.671 314.821 159.29C315.506 158.9 316.325 158.705 317.278 158.705C317.919 158.705 318.496 158.796 319.007 158.978C319.527 159.16 319.973 159.429 320.346 159.784L319.8 161.11C319.393 160.781 318.998 160.547 318.617 160.408C318.244 160.261 317.815 160.187 317.33 160.187C316.403 160.187 315.692 160.469 315.198 161.032C314.713 161.587 314.47 162.38 314.47 163.411C314.47 164.442 314.713 165.24 315.198 165.803C315.692 166.366 316.403 166.648 317.33 166.648C317.815 166.648 318.244 166.579 318.617 166.44C318.998 166.293 319.393 166.05 319.8 165.712L320.346 167.038C319.973 167.385 319.527 167.653 319.007 167.844C318.496 168.035 317.919 168.13 317.278 168.13ZM324.29 168.13C323.614 168.13 323.029 167.991 322.535 167.714C322.041 167.437 321.656 167.042 321.378 166.531C321.11 166.02 320.975 165.413 320.975 164.711C320.975 164.009 321.11 163.407 321.378 162.904C321.656 162.393 322.041 161.998 322.535 161.721C323.029 161.444 323.614 161.305 324.29 161.305C324.966 161.305 325.551 161.444 326.045 161.721C326.548 161.998 326.934 162.393 327.202 162.904C327.48 163.407 327.618 164.009 327.618 164.711C327.618 165.413 327.48 166.02 327.202 166.531C326.934 167.042 326.548 167.437 326.045 167.714C325.551 167.991 324.966 168.13 324.29 168.13ZM324.29 166.882C324.802 166.882 325.209 166.704 325.512 166.349C325.816 165.985 325.967 165.439 325.967 164.711C325.967 163.983 325.816 163.441 325.512 163.086C325.209 162.731 324.802 162.553 324.29 162.553C323.779 162.553 323.372 162.731 323.068 163.086C322.765 163.441 322.613 163.983 322.613 164.711C322.613 165.439 322.765 165.985 323.068 166.349C323.372 166.704 323.779 166.882 324.29 166.882ZM329.02 168L329.02 163.073C329.02 162.804 329.011 162.531 328.994 162.254C328.976 161.977 328.95 161.704 328.916 161.435H330.489L330.619 162.735H330.463C330.645 162.284 330.922 161.933 331.295 161.682C331.676 161.431 332.127 161.305 332.647 161.305C333.167 161.305 333.596 161.431 333.934 161.682C334.28 161.925 334.523 162.306 334.662 162.826H334.454C334.636 162.358 334.935 161.99 335.351 161.721C335.767 161.444 336.243 161.305 336.781 161.305C337.517 161.305 338.068 161.522 338.432 161.955C338.796 162.388 338.978 163.064 338.978 163.983L338.978 168H337.353L337.353 164.048C337.353 163.528 337.266 163.155 337.093 162.93C336.919 162.696 336.642 162.579 336.261 162.579C335.81 162.579 335.455 162.739 335.195 163.06C334.935 163.372 334.805 163.797 334.805 164.334L334.805 168H333.18L333.18 164.048C333.18 163.528 333.093 163.155 332.92 162.93C332.746 162.696 332.469 162.579 332.088 162.579C331.637 162.579 331.282 162.739 331.022 163.06C330.77 163.372 330.645 163.797 330.645 164.334L330.645 168H329.02ZM340.712 168L340.712 163.073C340.712 162.804 340.703 162.531 340.686 162.254C340.669 161.977 340.643 161.704 340.608 161.435H342.181L342.311 162.735H342.155C342.337 162.284 342.614 161.933 342.987 161.682C343.368 161.431 343.819 161.305 344.339 161.305C344.859 161.305 345.288 161.431 345.626 161.682C345.973 161.925 346.215 162.306 346.354 162.826H346.146C346.328 162.358 346.627 161.99 347.043 161.721C347.459 161.444 347.936 161.305 348.473 161.305C349.21 161.305 349.76 161.522 350.124 161.955C350.488 162.388 350.67 163.064 350.67 163.983L350.67 168H349.045L349.045 164.048C349.045 163.528 348.958 163.155 348.785 162.93C348.612 162.696 348.334 162.579 347.953 162.579C347.502 162.579 347.147 162.739 346.887 163.06C346.627 163.372 346.497 163.797 346.497 164.334L346.497 168H344.872L344.872 164.048C344.872 163.528 344.785 163.155 344.612 162.93C344.439 162.696 344.161 162.579 343.78 162.579C343.329 162.579 342.974 162.739 342.714 163.06C342.463 163.372 342.337 163.797 342.337 164.334L342.337 168H340.712ZM354.771 168.13C353.965 168.13 353.362 167.909 352.964 167.467C352.565 167.025 352.366 166.349 352.366 165.439V161.435L353.991 161.435V165.426C353.991 165.911 354.09 166.271 354.29 166.505C354.489 166.73 354.792 166.843 355.2 166.843C355.659 166.843 356.032 166.687 356.318 166.375C356.612 166.063 356.76 165.651 356.76 165.14V161.435H358.385L358.385 168H356.799V166.661H356.981C356.79 167.129 356.5 167.493 356.11 167.753C355.728 168.004 355.282 168.13 354.771 168.13ZM360.149 168L360.149 163.073C360.149 162.804 360.14 162.531 360.123 162.254C360.105 161.977 360.079 161.704 360.045 161.435H361.618L361.748 162.735H361.592C361.8 162.276 362.107 161.925 362.515 161.682C362.922 161.431 363.394 161.305 363.932 161.305C364.703 161.305 365.284 161.522 365.674 161.955C366.064 162.388 366.259 163.064 366.259 163.983L366.259 168H364.634L364.634 164.061C364.634 163.532 364.53 163.155 364.322 162.93C364.122 162.696 363.819 162.579 363.412 162.579C362.909 162.579 362.51 162.735 362.216 163.047C361.921 163.359 361.774 163.775 361.774 164.295L361.774 168H360.149ZM367.982 168L367.982 161.435L369.607 161.435L369.607 168L367.982 168ZM367.891 160.2V158.614L369.698 158.614V160.2L367.891 160.2ZM374.179 168.13C373.399 168.13 372.81 167.926 372.411 167.519C372.013 167.112 371.813 166.501 371.813 165.686L371.813 162.657H370.552V161.435H371.813V159.758L373.438 159.342V161.435H375.193V162.657H373.438V165.582C373.438 166.033 373.525 166.349 373.698 166.531C373.872 166.713 374.11 166.804 374.413 166.804C374.578 166.804 374.717 166.791 374.829 166.765C374.951 166.739 375.068 166.704 375.18 166.661V167.948C375.033 168.009 374.868 168.052 374.686 168.078C374.513 168.113 374.344 168.13 374.179 168.13ZM376.269 170.951L375.892 169.664C376.299 169.577 376.641 169.478 376.919 169.365C377.196 169.252 377.426 169.105 377.608 168.923C377.79 168.741 377.941 168.507 378.063 168.221L378.388 167.454L378.349 168.091L375.489 161.435H377.218L379.272 166.557H378.895L380.962 161.435H382.6L379.61 168.364C379.41 168.832 379.194 169.218 378.96 169.521C378.726 169.833 378.474 170.08 378.206 170.262C377.937 170.453 377.642 170.6 377.322 170.704C377.001 170.808 376.65 170.89 376.269 170.951Z" fill="white"/>
<path d="M313.524 153V152.148H315.516V145.392H316.044L313.716 146.844V145.848L315.792 144.54H316.512V152.148H318.384V153H313.524ZM320.719 153V152.148L322.711 152.148V145.392H323.239L320.911 146.844V145.848L322.987 144.54H323.707V152.148H325.579V153L320.719 153ZM329.943 153H329.067L334.095 144.54H334.971L329.943 153ZM329.091 149.616C328.443 149.616 327.931 149.388 327.555 148.932C327.187 148.468 327.003 147.832 327.003 147.024C327.003 146.208 327.191 145.576 327.567 145.128C327.943 144.672 328.451 144.444 329.091 144.444C329.739 144.444 330.247 144.672 330.615 145.128C330.991 145.576 331.179 146.208 331.179 147.024C331.179 147.832 330.991 148.468 330.615 148.932C330.247 149.388 329.739 149.616 329.091 149.616ZM329.091 148.92C329.483 148.92 329.787 148.764 330.003 148.452C330.227 148.132 330.339 147.656 330.339 147.024C330.339 146.384 330.227 145.908 330.003 145.596C329.787 145.284 329.483 145.128 329.091 145.128C328.707 145.128 328.403 145.284 328.179 145.596C327.963 145.908 327.855 146.384 327.855 147.024C327.855 147.664 327.963 148.14 328.179 148.452C328.403 148.764 328.707 148.92 329.091 148.92ZM334.947 153.108C334.291 153.108 333.775 152.88 333.399 152.424C333.031 151.968 332.847 151.328 332.847 150.504C332.847 149.688 333.035 149.056 333.411 148.608C333.787 148.16 334.299 147.936 334.947 147.936C335.595 147.936 336.103 148.164 336.471 148.62C336.847 149.068 337.035 149.696 337.035 150.504C337.035 151.32 336.847 151.96 336.471 152.424C336.103 152.88 335.595 153.108 334.947 153.108ZM334.947 152.412C335.331 152.412 335.631 152.256 335.847 151.944C336.071 151.624 336.183 151.144 336.183 150.504C336.183 149.872 336.071 149.4 335.847 149.088C335.631 148.776 335.331 148.62 334.947 148.62C334.555 148.62 334.251 148.776 334.035 149.088C333.819 149.4 333.711 149.872 333.711 150.504C333.711 151.152 333.819 151.632 334.035 151.944C334.251 152.256 334.555 152.412 334.947 152.412Z" fill="white"/>
<path d="M389.904 227L389.904 217.416H386.176V215.72L395.696 215.72V217.416L391.968 217.416L391.968 227H389.904ZM399.648 227.16C398.294 227.16 397.232 226.787 396.464 226.04C395.696 225.293 395.312 224.269 395.312 222.968C395.312 222.125 395.478 221.389 395.808 220.76C396.139 220.131 396.598 219.64 397.184 219.288C397.782 218.936 398.475 218.76 399.264 218.76C400.043 218.76 400.694 218.925 401.216 219.256C401.739 219.587 402.134 220.051 402.4 220.648C402.678 221.245 402.816 221.944 402.816 222.744V223.272H396.928V222.216H401.392L401.12 222.44C401.12 221.693 400.96 221.123 400.64 220.728C400.331 220.333 399.878 220.136 399.28 220.136C398.619 220.136 398.107 220.371 397.744 220.84C397.392 221.309 397.216 221.965 397.216 222.808V223.016C397.216 223.891 397.43 224.547 397.856 224.984C398.294 225.411 398.907 225.624 399.696 225.624C400.155 225.624 400.582 225.565 400.976 225.448C401.382 225.32 401.766 225.117 402.128 224.84L402.72 226.184C402.336 226.493 401.878 226.733 401.344 226.904C400.811 227.075 400.246 227.16 399.648 227.16ZM407.63 227.16C406.926 227.16 406.307 226.995 405.774 226.664C405.241 226.323 404.825 225.837 404.526 225.208C404.227 224.579 404.078 223.827 404.078 222.952C404.078 222.077 404.227 221.331 404.526 220.712C404.825 220.083 405.241 219.603 405.774 219.272C406.307 218.931 406.926 218.76 407.63 218.76C408.313 218.76 408.91 218.931 409.422 219.272C409.945 219.603 410.291 220.051 410.462 220.616L410.286 220.616L410.462 218.92H412.382C412.35 219.251 412.318 219.587 412.286 219.928C412.265 220.269 412.254 220.605 412.254 220.936L412.254 227H410.27L410.254 225.336H410.446C410.275 225.891 409.929 226.333 409.406 226.664C408.883 226.995 408.291 227.16 407.63 227.16ZM408.19 225.624C408.819 225.624 409.326 225.405 409.71 224.968C410.094 224.52 410.286 223.848 410.286 222.952C410.286 222.056 410.094 221.389 409.71 220.952C409.326 220.515 408.819 220.296 408.19 220.296C407.561 220.296 407.054 220.515 406.67 220.952C406.286 221.389 406.094 222.056 406.094 222.952C406.094 223.848 406.281 224.52 406.654 224.968C407.038 225.405 407.55 225.624 408.19 225.624ZM414.432 227L414.432 220.936C414.432 220.605 414.421 220.269 414.4 219.928C414.378 219.587 414.346 219.251 414.304 218.92H416.24L416.4 220.52H416.208C416.432 219.965 416.773 219.533 417.232 219.224C417.701 218.915 418.256 218.76 418.896 218.76C419.536 218.76 420.064 218.915 420.48 219.224C420.906 219.523 421.205 219.992 421.376 220.632H421.12C421.344 220.056 421.712 219.603 422.224 219.272C422.736 218.931 423.322 218.76 423.984 218.76C424.89 218.76 425.568 219.027 426.016 219.56C426.464 220.093 426.688 220.925 426.688 222.056L426.688 227H424.688L424.688 222.136C424.688 221.496 424.581 221.037 424.368 220.76C424.154 220.472 423.813 220.328 423.344 220.328C422.789 220.328 422.352 220.525 422.032 220.92C421.712 221.304 421.552 221.827 421.552 222.488L421.552 227H419.552L419.552 222.136C419.552 221.496 419.445 221.037 419.232 220.76C419.018 220.472 418.677 220.328 418.208 220.328C417.653 220.328 417.216 220.525 416.896 220.92C416.586 221.304 416.432 221.827 416.432 222.488L416.432 227H414.432Z" fill="white"/>
<path d="M387.524 209V208.148H389.516V201.392H390.044L387.716 202.844V201.848L389.792 200.54H390.512V208.148H392.384V209H387.524ZM396.795 209.108C395.835 209.108 395.099 208.736 394.587 207.992C394.075 207.248 393.819 206.172 393.819 204.764C393.819 203.348 394.075 202.272 394.587 201.536C395.099 200.8 395.835 200.432 396.795 200.432C397.763 200.432 398.499 200.8 399.003 201.536C399.515 202.272 399.771 203.344 399.771 204.752C399.771 206.168 399.515 207.248 399.003 207.992C398.491 208.736 397.755 209.108 396.795 209.108ZM396.795 208.244C397.467 208.244 397.967 207.96 398.295 207.392C398.623 206.824 398.787 205.944 398.787 204.752C398.787 203.552 398.623 202.676 398.295 202.124C397.967 201.564 397.467 201.284 396.795 201.284C396.131 201.284 395.631 201.564 395.295 202.124C394.967 202.684 394.803 203.56 394.803 204.752C394.803 205.944 394.967 206.824 395.295 207.392C395.631 207.96 396.131 208.244 396.795 208.244ZM403.943 209H403.067L408.095 200.54H408.971L403.943 209ZM403.091 205.616C402.443 205.616 401.931 205.388 401.555 204.932C401.187 204.468 401.003 203.832 401.003 203.024C401.003 202.208 401.191 201.576 401.567 201.128C401.943 200.672 402.451 200.444 403.091 200.444C403.739 200.444 404.247 200.672 404.615 201.128C404.991 201.576 405.179 202.208 405.179 203.024C405.179 203.832 404.991 204.468 404.615 204.932C404.247 205.388 403.739 205.616 403.091 205.616ZM403.091 204.92C403.483 204.92 403.787 204.764 404.003 204.452C404.227 204.132 404.339 203.656 404.339 203.024C404.339 202.384 404.227 201.908 404.003 201.596C403.787 201.284 403.483 201.128 403.091 201.128C402.707 201.128 402.403 201.284 402.179 201.596C401.963 201.908 401.855 202.384 401.855 203.024C401.855 203.664 401.963 204.14 402.179 204.452C402.403 204.764 402.707 204.92 403.091 204.92ZM408.947 209.108C408.291 209.108 407.775 208.88 407.399 208.424C407.031 207.968 406.847 207.328 406.847 206.504C406.847 205.688 407.035 205.056 407.411 204.608C407.787 204.16 408.299 203.936 408.947 203.936C409.595 203.936 410.103 204.164 410.471 204.62C410.847 205.068 411.035 205.696 411.035 206.504C411.035 207.32 410.847 207.96 410.471 208.424C410.103 208.88 409.595 209.108 408.947 209.108ZM408.947 208.412C409.331 208.412 409.631 208.256 409.847 207.944C410.071 207.624 410.183 207.144 410.183 206.504C410.183 205.872 410.071 205.4 409.847 205.088C409.631 204.776 409.331 204.62 408.947 204.62C408.555 204.62 408.251 204.776 408.035 205.088C407.819 205.4 407.711 205.872 407.711 206.504C407.711 207.152 407.819 207.632 408.035 207.944C408.251 208.256 408.555 208.412 408.947 208.412Z" fill="white"/>
<path d="M270.582 303L275.44 293.62V294.124H269.924V293.13H276.49V293.998L271.856 303H270.582ZM280.937 303.126C280.423 303.126 279.905 303.019 279.383 302.804C278.86 302.58 278.426 302.291 278.081 301.936L278.515 301.026C278.869 301.39 279.257 301.661 279.677 301.838C280.097 302.015 280.521 302.104 280.951 302.104C281.893 302.104 282.617 301.768 283.121 301.096C283.634 300.415 283.891 299.397 283.891 298.044V296.742H284.031C283.975 297.265 283.811 297.722 283.541 298.114C283.279 298.506 282.939 298.805 282.519 299.01C282.108 299.215 281.646 299.318 281.133 299.318C280.535 299.318 280.003 299.187 279.537 298.926C279.079 298.665 278.72 298.296 278.459 297.82C278.197 297.344 278.067 296.807 278.067 296.21C278.067 295.585 278.202 295.034 278.473 294.558C278.753 294.073 279.131 293.695 279.607 293.424C280.092 293.144 280.647 293.004 281.273 293.004C282.477 293.004 283.401 293.424 284.045 294.264C284.698 295.104 285.025 296.289 285.025 297.82C285.025 298.949 284.861 299.911 284.535 300.704C284.208 301.497 283.741 302.099 283.135 302.51C282.528 302.921 281.795 303.126 280.937 303.126ZM281.371 298.352C281.8 298.352 282.178 298.259 282.505 298.072C282.831 297.885 283.083 297.629 283.261 297.302C283.447 296.975 283.541 296.597 283.541 296.168C283.541 295.729 283.447 295.347 283.261 295.02C283.083 294.693 282.831 294.437 282.505 294.25C282.178 294.063 281.8 293.97 281.371 293.97C280.941 293.97 280.559 294.063 280.223 294.25C279.896 294.437 279.639 294.693 279.453 295.02C279.275 295.347 279.187 295.729 279.187 296.168C279.187 296.597 279.275 296.975 279.453 297.302C279.639 297.629 279.896 297.885 280.223 298.072C280.559 298.259 280.941 298.352 281.371 298.352ZM289.933 303H288.911L294.777 293.13H295.799L289.933 303ZM288.939 299.052C288.183 299.052 287.586 298.786 287.147 298.254C286.718 297.713 286.503 296.971 286.503 296.028C286.503 295.076 286.722 294.339 287.161 293.816C287.6 293.284 288.192 293.018 288.939 293.018C289.695 293.018 290.288 293.284 290.717 293.816C291.156 294.339 291.375 295.076 291.375 296.028C291.375 296.971 291.156 297.713 290.717 298.254C290.288 298.786 289.695 299.052 288.939 299.052ZM288.939 298.24C289.396 298.24 289.751 298.058 290.003 297.694C290.264 297.321 290.395 296.765 290.395 296.028C290.395 295.281 290.264 294.726 290.003 294.362C289.751 293.998 289.396 293.816 288.939 293.816C288.491 293.816 288.136 293.998 287.875 294.362C287.623 294.726 287.497 295.281 287.497 296.028C287.497 296.775 287.623 297.33 287.875 297.694C288.136 298.058 288.491 298.24 288.939 298.24ZM295.771 303.126C295.006 303.126 294.404 302.86 293.965 302.328C293.536 301.796 293.321 301.049 293.321 300.088C293.321 299.136 293.54 298.399 293.979 297.876C294.418 297.353 295.015 297.092 295.771 297.092C296.527 297.092 297.12 297.358 297.549 297.89C297.988 298.413 298.207 299.145 298.207 300.088C298.207 301.04 297.988 301.787 297.549 302.328C297.12 302.86 296.527 303.126 295.771 303.126ZM295.771 302.314C296.219 302.314 296.569 302.132 296.821 301.768C297.082 301.395 297.213 300.835 297.213 300.088C297.213 299.351 297.082 298.8 296.821 298.436C296.569 298.072 296.219 297.89 295.771 297.89C295.314 297.89 294.959 298.072 294.707 298.436C294.455 298.8 294.329 299.351 294.329 300.088C294.329 300.844 294.455 301.404 294.707 301.768C294.959 302.132 295.314 302.314 295.771 302.314Z" fill="white"/>
<defs>
<filter id="filter0_di_407_744" x="0" y="-23" width="663" height="662" filterUnits="userSpaceOnUse" color-interpolation-filters="sRGB">
<feFlood flood-opacity="0" result="BackgroundImageFix"/>
<feColorMatrix in="SourceAlpha" type="matrix" values="0 0 0 0 0 0 0 0 0 0 0 0 0 0 0 0 0 0 127 0" result="hardAlpha"/>
<feOffset dx="20" dy="34"/>
<feGaussianBlur stdDeviation="105.5"/>
<feComposite in2="hardAlpha" operator="out"/>
<feColorMatrix type="matrix" values="0 0 0 0 0.988235 0 0 0 0 0.309804 0 0 0 0 0.211765 0 0 0 0.5 0"/>
<feBlend mode="normal" in2="BackgroundImageFix" result="effect1_dropShadow_407_744"/>
<feBlend mode="normal" in="SourceGraphic" in2="effect1_dropShadow_407_744" result="shape"/>
<feColorMatrix in="SourceAlpha" type="matrix" values="0 0 0 0 0 0 0 0 0 0 0 0 0 0 0 0 0 0 127 0" result="hardAlpha"/>
<feMorphology radius="4" operator="erode" in="SourceAlpha" result="effect2_innerShadow_407_744"/>
<feOffset/>
<feGaussianBlur stdDeviation="15"/>
<feComposite in2="hardAlpha" operator="arithmetic" k2="-1" k3="1"/>
<feColorMatrix type="matrix" values="0 0 0 0 0.9875 0 0 0 0 0.645509 0 0 0 0 0.576042 0 0 0 0.6 0"/>
<feBlend mode="normal" in2="shape" result="effect2_innerShadow_407_744"/>
</filter>
<filter id="filter1_f_407_744" x="110.515" y="65.7646" width="381.485" height="375.294" filterUnits="userSpaceOnUse" color-interpolation-filters="sRGB">
<feFlood flood-opacity="0" result="BackgroundImageFix"/>
<feBlend mode="normal" in="SourceGraphic" in2="BackgroundImageFix" result="shape"/>
<feGaussianBlur stdDeviation="30" result="effect1_foregroundBlur_407_744"/>
</filter>
<filter id="filter2_f_407_744" x="151.287" y="89.7142" width="261.646" height="257.143" filterUnits="userSpaceOnUse" color-interpolation-filters="sRGB">
<feFlood flood-opacity="0" result="BackgroundImageFix"/>
<feBlend mode="normal" in="SourceGraphic" in2="BackgroundImageFix" result="shape"/>
<feGaussianBlur stdDeviation="25" result="effect1_foregroundBlur_407_744"/>
</filter>
<filter id="filter3_f_407_744" x="267.202" y="310.6" width="127.723" height="102.04" filterUnits="userSpaceOnUse" color-interpolation-filters="sRGB">
<feFlood flood-opacity="0" result="BackgroundImageFix"/>
<feBlend mode="normal" in="SourceGraphic" in2="BackgroundImageFix" result="shape"/>
<feGaussianBlur stdDeviation="15" result="effect1_foregroundBlur_407_744"/>
</filter>
<filter id="filter4_b_407_744" x="278.75" y="84.75" width="151.59" height="219.556" filterUnits="userSpaceOnUse" color-interpolation-filters="sRGB">
<feFlood flood-opacity="0" result="BackgroundImageFix"/>
<feGaussianBlur in="BackgroundImage" stdDeviation="15"/>
<feComposite in2="SourceAlpha" operator="in" result="effect1_backgroundBlur_407_744"/>
<feBlend mode="normal" in="SourceGraphic" in2="effect1_backgroundBlur_407_744" result="shape"/>
</filter>
<filter id="filter5_b_407_744" x="281.348" y="119.65" width="210.712" height="188.452" filterUnits="userSpaceOnUse" color-interpolation-filters="sRGB">
<feFlood flood-opacity="0" result="BackgroundImageFix"/>
<feGaussianBlur in="BackgroundImage" stdDeviation="15"/>
<feComposite in2="SourceAlpha" operator="in" result="effect1_backgroundBlur_407_744"/>
<feBlend mode="normal" in="SourceGraphic" in2="effect1_backgroundBlur_407_744" result="shape"/>
</filter>
<linearGradient id="paint0_linear_407_744" x1="399.996" y1="194.262" x2="298.076" y2="337.647" gradientUnits="userSpaceOnUse">
<stop stop-color="#FC4F36"/>
<stop offset="1" stop-color="white"/>
</linearGradient>
<linearGradient id="paint1_linear_407_744" x1="433.802" y1="268.909" x2="266.105" y2="325.921" gradientUnits="userSpaceOnUse">
<stop stop-color="#FC4F36"/>
<stop offset="1" stop-color="white"/>
</linearGradient>
<clipPath id="clip0_407_744">
<rect x="191" y="154" width="241" height="240" rx="120" fill="white"/>
</clipPath>
</defs>
</svg>
