<svg width="276" height="73" viewBox="0 0 276 73" fill="none" xmlns="http://www.w3.org/2000/svg">
<rect width="276" height="73" rx="8" fill="url(#paint0_linear_411_861)"/>
<circle opacity="0.2" cx="36" cy="36" r="20" fill="white"/>
<g filter="url(#filter0_d_411_861)">
<path d="M35.9946 56.0004C34.3303 56.0004 32.6428 55.7909 30.9553 55.3485C25.788 53.9981 21.4586 50.7268 18.7586 46.1168C16.0586 41.5184 15.3137 36.1285 16.6521 30.9597C17.9905 25.7908 21.2724 21.4602 25.8811 18.7594C30.4898 16.0586 35.8666 15.3135 41.0339 16.6523C46.2012 18.0027 50.5305 21.274 53.2305 25.884C55.9306 30.494 56.6754 35.8723 55.337 41.0411C52.9978 50.0283 44.8744 56.0004 35.9946 56.0004ZM35.9597 16.4661C32.5264 16.4661 29.1514 17.3741 26.1139 19.1552C21.6216 21.7978 18.4095 26.0237 17.0944 31.0761C15.7793 36.1285 16.5125 41.3787 19.1427 45.884C21.7845 50.3776 26.0091 53.5906 31.06 54.9061C41.4761 57.6186 52.1598 51.3555 54.8715 40.9364C56.1866 35.884 55.4534 30.6337 52.8232 26.1285C50.1814 21.6349 45.9568 18.4218 40.9058 17.1063C39.2765 16.6756 37.6123 16.4661 35.9597 16.4661Z" fill="white"/>
<path d="M26.7186 24.4982C26.6139 24.4982 26.5092 24.4517 26.4393 24.3585C26.3229 24.2072 26.3462 23.986 26.4975 23.8696C29.279 21.7043 32.7355 20.5401 36.2502 20.5983C36.4481 20.5983 36.5993 20.7613 36.5993 20.9476C36.5993 21.1338 36.4364 21.2968 36.2502 21.2852C32.8984 21.227 29.5932 22.3446 26.9514 24.4051C26.8699 24.4749 26.7885 24.4982 26.7186 24.4982Z" fill="white"/>
<path d="M37.3326 51.355C37.158 51.355 37.0067 51.2153 36.9834 51.0407C36.9718 50.8428 37.1114 50.6798 37.2976 50.6565C40.1257 50.4121 42.8141 49.3411 45.0602 47.5832C47.3064 45.8253 48.9823 43.4621 49.9133 40.773C49.9715 40.5867 50.1693 40.4936 50.3555 40.5518C50.5418 40.61 50.6349 40.8079 50.5767 40.9941C49.6107 43.8114 47.8534 46.2794 45.5025 48.1304C43.1516 49.9697 40.3352 51.0873 37.3675 51.3434C37.3442 51.355 37.3442 51.355 37.3326 51.355ZM31.8627 50.8312C31.8278 50.8312 31.8045 50.8312 31.7696 50.8195C28.6273 49.9231 25.8923 48.0838 23.8673 45.4994C22.2031 43.369 21.1207 40.8312 20.7483 38.1653C20.7251 37.979 20.8531 37.7928 21.0509 37.7695C21.2371 37.7462 21.4233 37.8742 21.4466 38.0721C21.8074 40.6216 22.8315 43.0314 24.426 45.0687C26.3579 47.5366 28.9648 49.2945 31.9674 50.1443C32.1536 50.2025 32.2584 50.3888 32.2118 50.5751C32.1536 50.738 32.014 50.8312 31.8627 50.8312ZM51.0422 35.8021C50.856 35.8021 50.7047 35.6507 50.693 35.4645C50.5883 32.3446 49.506 29.3993 47.574 26.9313C45.9796 24.894 43.8731 23.3108 41.4873 22.3446C41.3128 22.2747 41.2197 22.0652 41.2895 21.8905C41.3593 21.7159 41.5688 21.6228 41.7434 21.6926C44.2456 22.6938 46.4452 24.3585 48.121 26.4889C50.1461 29.0733 51.275 32.1583 51.3913 35.4295C51.403 35.6274 51.2517 35.7788 51.0538 35.7904C51.0538 35.8021 51.0422 35.8021 51.0422 35.8021Z" fill="white"/>
<path d="M21.3304 32.9732C21.3071 32.9732 21.2839 32.9732 21.2489 32.9615C21.0627 32.915 20.9464 32.7287 20.9813 32.5425C21.7727 29.1199 23.7279 26.0349 26.4977 23.8696C26.649 23.7532 26.8701 23.7765 26.9865 23.9278C27.1029 24.0791 27.0796 24.3003 26.9283 24.4167C24.2865 26.4889 22.4128 29.4342 21.6563 32.6938C21.633 32.8568 21.4817 32.9732 21.3304 32.9732Z" fill="white"/>
<path d="M31.1178 37.9674C30.7687 38.0023 30.3962 37.979 30.0355 37.8859C28.3945 37.4552 27.4169 35.7904 27.8475 34.149C28.2781 32.5076 29.9424 31.5297 31.5833 31.9604C31.6764 31.9837 31.7579 32.007 31.8394 32.0419L32.1536 30.8312C32.0721 30.8079 31.979 30.7846 31.8976 30.7613C29.5932 30.156 27.2423 31.5413 26.6372 33.8463C26.032 36.1513 27.4169 38.5029 29.7212 39.1083C30.3962 39.2829 31.0829 39.2945 31.723 39.1548C31.4669 38.7823 31.2691 38.3865 31.1178 37.9674Z" fill="white"/>
<path d="M33.7714 35.709C33.6084 36.3143 33.2826 36.8265 32.8403 37.2107C32.9684 37.6181 33.1778 37.9907 33.4688 38.305C34.1787 37.7462 34.7257 36.9546 34.9701 36.0116L36.6227 29.667L35.4123 29.3527L34.5279 32.752C34.33 32.4144 34.0972 32.1117 33.8179 31.844L33.4222 33.3457C33.8412 34.0326 33.9925 34.8708 33.7714 35.709Z" fill="white"/>
<path d="M42.1972 28.5495C39.8929 27.9441 37.542 29.3295 36.9368 31.6345C36.9368 31.6461 36.9368 31.6578 36.9251 31.6694L35.2842 37.9791L36.4945 38.2934L37.379 34.8824C37.6467 35.3365 37.9842 35.7439 38.4032 36.0699L38.764 34.6845C38.1471 33.9511 37.8911 32.9383 38.1471 31.9488C38.5778 30.3073 40.242 29.3295 41.883 29.7602C43.5239 30.1909 44.5015 31.8557 44.0709 33.4971C43.6519 35.1036 42.0459 36.0699 40.4398 35.709L40.1256 36.9197C42.395 37.4552 44.6877 36.0815 45.2813 33.8114C45.8865 31.4948 44.5015 29.1432 42.1972 28.5495Z" fill="white"/>
<path d="M38.4381 37.1991C38.0075 38.8405 36.3316 39.8184 34.7023 39.3876C33.0613 38.9569 32.0837 37.2922 32.5143 35.6507L33.7014 31.0873L33.9923 29.9697L32.7936 29.6554L32.5027 30.773C32.491 30.8195 32.4794 30.8661 32.4561 30.9127L31.2225 35.674H31.2341C30.8384 37.8626 32.2001 40.0279 34.388 40.5984C35.5518 40.901 36.7156 40.7031 37.67 40.1327L37.1928 41.9488C36.7622 43.5902 35.098 44.5681 33.457 44.1374C32.5725 43.9045 31.8859 43.3108 31.5018 42.5658C31.3039 42.1816 31.1876 41.7509 31.1759 41.3201L30.0005 42.007C30.082 42.4261 30.2332 42.8335 30.4311 43.206C30.9781 44.2305 31.9324 45.0337 33.1544 45.3597C34.8885 45.8137 36.6575 45.1385 37.67 43.7881C38.0075 43.3457 38.2519 42.8335 38.4032 42.2747L39.4622 38.2235L39.6368 37.5367L40.6959 33.4854L39.4855 33.1711L38.4381 37.1991Z" fill="white"/>
</g>
<mask id="mask0_411_861" style="mask-type:alpha" maskUnits="userSpaceOnUse" x="0" y="0" width="276" height="73">
<rect width="276" height="73" rx="8" fill="url(#paint1_linear_411_861)"/>
</mask>
<g mask="url(#mask0_411_861)">
<g opacity="0.08" filter="url(#filter1_d_411_861)">
<path d="M282.008 100.063C276.597 100.063 271.109 99.3814 265.622 97.9429C248.819 93.5517 234.741 82.9143 225.961 67.9236C217.181 52.9707 214.759 35.4437 219.111 18.6359C223.463 1.82812 234.135 -12.2541 249.122 -21.0365C264.108 -29.819 281.592 -32.2417 298.395 -27.8883C315.198 -23.4971 329.276 -12.8598 338.056 2.13097C346.836 17.1217 349.258 34.6109 344.906 51.4187C337.299 80.643 310.884 100.063 282.008 100.063ZM281.895 -28.494C270.731 -28.494 259.756 -25.5413 249.878 -19.7494C235.271 -11.1563 224.826 2.58523 220.549 19.0145C216.273 35.4437 218.657 52.5165 227.21 67.1665C235.8 81.7787 249.538 92.2268 265.962 96.5044C299.833 105.325 334.574 84.9585 343.392 51.078C347.668 34.6487 345.284 17.576 336.731 2.92593C328.141 -11.6862 314.403 -22.1343 297.979 -26.412C292.68 -27.8126 287.269 -28.494 281.895 -28.494Z" fill="white"/>
<path d="M286.359 84.9571C285.791 84.9571 285.299 84.5028 285.224 83.935C285.186 83.2915 285.64 82.7615 286.245 82.6858C295.442 81.8908 304.184 78.4081 311.488 72.692C318.792 66.9758 324.241 59.2912 327.269 50.5466C327.458 49.9409 328.101 49.638 328.707 49.8273C329.312 50.0166 329.615 50.6601 329.426 51.2658C326.285 60.4268 320.57 68.4522 312.926 74.4712C305.281 80.4523 296.123 84.0864 286.472 84.9192C286.397 84.9571 286.397 84.9571 286.359 84.9571ZM268.572 83.2536C268.459 83.2536 268.383 83.2536 268.269 83.2158C258.051 80.3009 249.158 74.3197 242.573 65.9158C237.161 58.9883 233.642 50.7358 232.431 42.067C232.355 41.4613 232.771 40.8556 233.415 40.7799C234.02 40.7042 234.626 41.1206 234.701 41.7641C235.875 50.0545 239.205 57.8905 244.39 64.5152C250.672 72.5405 259.149 78.2567 268.913 81.0201C269.518 81.2094 269.859 81.8151 269.707 82.4208C269.518 82.9508 269.064 83.2536 268.572 83.2536ZM330.94 34.3823C330.334 34.3823 329.842 33.8902 329.804 33.2845C329.464 23.1393 325.944 13.5619 319.662 5.53654C314.477 -1.08814 307.627 -6.23647 299.869 -9.37847C299.302 -9.6056 298.999 -10.287 299.226 -10.8548C299.453 -11.4227 300.134 -11.7255 300.702 -11.4984C308.838 -8.24281 315.991 -2.82949 321.441 4.09804C328.026 12.5019 331.696 22.5336 332.075 33.171C332.113 33.8145 331.621 34.3066 330.977 34.3445C330.977 34.3823 330.94 34.3823 330.94 34.3823Z" fill="white"/>
<path d="M234.324 25.1835C234.248 25.1835 234.172 25.1835 234.059 25.1456C233.453 24.9942 233.075 24.3885 233.189 23.7828C235.762 12.6534 242.12 2.62169 251.127 -4.41941C251.619 -4.79796 252.338 -4.72225 252.716 -4.23013C253.095 -3.73801 253.019 -3.01876 252.527 -2.6402C243.936 4.09805 237.843 13.6755 235.384 24.275C235.308 24.8049 234.816 25.1835 234.324 25.1835Z" fill="white"/>
<path d="M266.15 41.4235C265.015 41.5371 263.804 41.4614 262.631 41.1585C257.295 39.7579 254.116 34.3446 255.516 29.007C256.916 23.6694 262.328 20.4895 267.664 21.8902C267.967 21.9659 268.232 22.0416 268.496 22.1552L269.518 18.2182C269.253 18.1425 268.951 18.0668 268.686 17.9911C261.193 16.0226 253.548 20.5274 251.58 28.0227C249.612 35.5181 254.116 43.1649 261.609 45.1334C263.804 45.7012 266.037 45.739 268.118 45.2848C267.285 44.0734 266.642 42.7863 266.15 41.4235Z" fill="white"/>
<path d="M274.779 34.0796C274.249 36.0481 273.19 37.7137 271.751 38.963C272.168 40.2879 272.849 41.4993 273.795 42.5214C276.104 40.7043 277.882 38.1301 278.677 35.0639L284.051 14.4327L280.115 13.4106L277.239 24.4644C276.596 23.3665 275.839 22.3823 274.93 21.5116L273.644 26.395C275.006 28.6284 275.498 31.354 274.779 34.0796Z" fill="white"/>
<path d="M289.954 38.9251C288.554 44.2627 283.104 47.4425 277.806 46.0419C272.47 44.6412 269.291 39.2279 270.691 33.8903L274.551 19.051L275.497 15.4169L271.599 14.3948L270.653 18.0289C270.615 18.1803 270.577 18.3317 270.502 18.4832L266.49 33.966H266.528C265.241 41.0828 269.669 48.1239 276.784 49.9788C280.568 50.9631 284.353 50.3195 287.456 48.4646L285.904 54.37C284.504 59.7076 279.092 62.8875 273.756 61.4869C270.88 60.7297 268.647 58.7991 267.399 56.3764C266.755 55.1272 266.377 53.7265 266.339 52.3259L262.517 54.5593C262.782 55.9221 263.273 57.2471 263.917 58.4584C265.696 61.7897 268.799 64.4017 272.772 65.4617C278.411 66.938 284.164 64.7424 287.456 60.3512C288.554 58.9127 289.348 57.2471 289.84 55.43L293.284 42.2563L293.852 40.0229L297.296 26.8492L293.36 25.8271L289.954 38.9251Z" fill="white"/>
</g>
<rect x="220" y="20" width="32" height="32" rx="16" fill="url(#paint2_linear_411_861)"/>
<path d="M233.867 41.332L239.201 35.9987L233.867 30.6654" stroke="white" stroke-opacity="0.8" stroke-width="2" stroke-linecap="round" stroke-linejoin="round"/>
</g>
<path d="M80.544 33L74.964 20.31H76.98L81.732 31.434H81.084L85.854 20.31H87.78L82.182 33H80.544ZM89.0761 33V23.928H90.8941V33H89.0761ZM88.9321 22.038V20.148H91.0381V22.038H88.9321ZM97.7526 33.162C96.2886 33.162 95.1366 32.748 94.2966 31.92C93.4566 31.092 93.0366 29.946 93.0366 28.482C93.0366 27.534 93.2166 26.706 93.5766 25.998C93.9486 25.29 94.4586 24.744 95.1066 24.36C95.7666 23.964 96.5286 23.766 97.3926 23.766C98.2446 23.766 98.9586 23.946 99.5346 24.306C100.111 24.666 100.549 25.176 100.849 25.836C101.149 26.484 101.299 27.252 101.299 28.14V28.716H94.4586V27.672H100.057L99.7506 27.906C99.7506 27.006 99.5466 26.31 99.1386 25.818C98.7426 25.314 98.1666 25.062 97.4106 25.062C96.5706 25.062 95.9226 25.356 95.4666 25.944C95.0106 26.52 94.7826 27.318 94.7826 28.338V28.518C94.7826 29.586 95.0406 30.39 95.5566 30.93C96.0846 31.47 96.8286 31.74 97.7886 31.74C98.3166 31.74 98.8086 31.668 99.2646 31.524C99.7326 31.368 100.177 31.116 100.597 30.768L101.191 32.01C100.771 32.382 100.261 32.67 99.6606 32.874C99.0606 33.066 98.4246 33.162 97.7526 33.162ZM105.728 33L102.29 23.928H104.18L106.862 31.488H106.394L109.148 23.928H110.552L113.288 31.488H112.838L115.52 23.928H117.338L113.882 33H112.226L109.382 25.296H110.228L107.42 33H105.728ZM123.973 33V20.31H125.845V33H123.973ZM128.824 33V20.31H133.216C134.644 20.31 135.85 20.556 136.834 21.048C137.83 21.54 138.58 22.26 139.084 23.208C139.6 24.144 139.858 25.29 139.858 26.646C139.858 27.99 139.6 29.136 139.084 30.084C138.58 31.032 137.83 31.758 136.834 32.262C135.85 32.754 134.644 33 133.216 33H128.824ZM130.696 31.434H133.108C134.74 31.434 135.952 31.038 136.744 30.246C137.548 29.454 137.95 28.254 137.95 26.646C137.95 25.038 137.548 23.844 136.744 23.064C135.952 22.272 134.74 21.876 133.108 21.876H130.696V31.434ZM144.717 33V27.042L145.131 28.23L139.785 20.31H141.945L145.923 26.376H145.473L149.451 20.31H151.539L146.211 28.23L146.589 27.042V33H144.717ZM153.099 33V20.31H158.481C159.837 20.31 160.875 20.64 161.595 21.3C162.327 21.948 162.693 22.848 162.693 24C162.693 25.152 162.327 26.058 161.595 26.718C160.875 27.378 159.837 27.708 158.481 27.708H154.971V33H153.099ZM154.971 26.214H158.283C159.135 26.214 159.777 26.022 160.209 25.638C160.641 25.254 160.857 24.708 160.857 24C160.857 23.304 160.641 22.764 160.209 22.38C159.777 21.996 159.135 21.804 158.283 21.804H154.971V26.214ZM79.536 55V43.876H75.198V42.31H85.746V43.876H81.408V55H79.536ZM89.8352 55.162C88.9352 55.162 88.1552 54.976 87.4952 54.604C86.8352 54.22 86.3252 53.68 85.9652 52.984C85.6052 52.276 85.4252 51.436 85.4252 50.464C85.4252 49.492 85.6052 48.658 85.9652 47.962C86.3252 47.254 86.8352 46.714 87.4952 46.342C88.1552 45.958 88.9352 45.766 89.8352 45.766C90.7352 45.766 91.5152 45.958 92.1752 46.342C92.8472 46.714 93.3632 47.254 93.7232 47.962C94.0952 48.658 94.2812 49.492 94.2812 50.464C94.2812 51.436 94.0952 52.276 93.7232 52.984C93.3632 53.68 92.8472 54.22 92.1752 54.604C91.5152 54.976 90.7352 55.162 89.8352 55.162ZM89.8352 53.74C90.6272 53.74 91.2572 53.464 91.7252 52.912C92.1932 52.36 92.4272 51.544 92.4272 50.464C92.4272 49.384 92.1932 48.574 91.7252 48.034C91.2572 47.482 90.6272 47.206 89.8352 47.206C89.0552 47.206 88.4312 47.482 87.9632 48.034C87.4952 48.574 87.2612 49.384 87.2612 50.464C87.2612 51.544 87.4892 52.36 87.9452 52.912C88.4132 53.464 89.0432 53.74 89.8352 53.74ZM96.4062 55V41.752H98.2242V49.888H98.2602L102.22 45.928H104.47L99.6822 50.698L99.7002 49.888L104.866 55H102.562L98.2602 50.842H98.2242V55H96.4062ZM109.987 55.162C108.523 55.162 107.371 54.748 106.531 53.92C105.691 53.092 105.271 51.946 105.271 50.482C105.271 49.534 105.451 48.706 105.811 47.998C106.183 47.29 106.693 46.744 107.341 46.36C108.001 45.964 108.763 45.766 109.627 45.766C110.479 45.766 111.193 45.946 111.769 46.306C112.345 46.666 112.783 47.176 113.083 47.836C113.383 48.484 113.533 49.252 113.533 50.14V50.716H106.693V49.672H112.291L111.985 49.906C111.985 49.006 111.781 48.31 111.373 47.818C110.977 47.314 110.401 47.062 109.645 47.062C108.805 47.062 108.157 47.356 107.701 47.944C107.245 48.52 107.017 49.318 107.017 50.338V50.518C107.017 51.586 107.275 52.39 107.791 52.93C108.319 53.47 109.063 53.74 110.023 53.74C110.551 53.74 111.043 53.668 111.499 53.524C111.967 53.368 112.411 53.116 112.831 52.768L113.425 54.01C113.005 54.382 112.495 54.67 111.895 54.874C111.295 55.066 110.659 55.162 109.987 55.162ZM115.619 55V48.106C115.619 47.758 115.601 47.404 115.565 47.044C115.541 46.672 115.511 46.3 115.475 45.928H117.239L117.401 47.836H117.185C117.461 47.164 117.887 46.654 118.463 46.306C119.039 45.946 119.705 45.766 120.461 45.766C121.529 45.766 122.333 46.06 122.873 46.648C123.425 47.236 123.701 48.148 123.701 49.384V55H121.883V49.492C121.883 48.688 121.721 48.112 121.397 47.764C121.085 47.404 120.605 47.224 119.957 47.224C119.189 47.224 118.577 47.464 118.121 47.944C117.665 48.412 117.437 49.048 117.437 49.852V55H115.619ZM130.177 55.162C129.277 55.162 128.497 54.976 127.837 54.604C127.177 54.22 126.667 53.68 126.307 52.984C125.947 52.276 125.767 51.436 125.767 50.464C125.767 49.492 125.947 48.658 126.307 47.962C126.667 47.254 127.177 46.714 127.837 46.342C128.497 45.958 129.277 45.766 130.177 45.766C131.077 45.766 131.857 45.958 132.517 46.342C133.189 46.714 133.705 47.254 134.065 47.962C134.437 48.658 134.623 49.492 134.623 50.464C134.623 51.436 134.437 52.276 134.065 52.984C133.705 53.68 133.189 54.22 132.517 54.604C131.857 54.976 131.077 55.162 130.177 55.162ZM130.177 53.74C130.969 53.74 131.599 53.464 132.067 52.912C132.535 52.36 132.769 51.544 132.769 50.464C132.769 49.384 132.535 48.574 132.067 48.034C131.599 47.482 130.969 47.206 130.177 47.206C129.397 47.206 128.773 47.482 128.305 48.034C127.837 48.574 127.603 49.384 127.603 50.464C127.603 51.544 127.831 52.36 128.287 52.912C128.755 53.464 129.385 53.74 130.177 53.74ZM136.748 55V48.106C136.748 47.758 136.73 47.404 136.694 47.044C136.67 46.672 136.64 46.3 136.604 45.928H138.368L138.53 47.836H138.314C138.566 47.176 138.95 46.666 139.466 46.306C139.994 45.946 140.624 45.766 141.356 45.766C142.1 45.766 142.706 45.946 143.174 46.306C143.654 46.654 143.984 47.194 144.164 47.926H143.876C144.116 47.266 144.524 46.744 145.1 46.36C145.676 45.964 146.342 45.766 147.098 45.766C148.106 45.766 148.862 46.06 149.366 46.648C149.87 47.236 150.122 48.148 150.122 49.384V55H148.304V49.474C148.304 48.682 148.166 48.112 147.89 47.764C147.626 47.404 147.194 47.224 146.594 47.224C145.898 47.224 145.346 47.464 144.938 47.944C144.53 48.424 144.326 49.072 144.326 49.888V55H142.508V49.474C142.508 48.682 142.37 48.112 142.094 47.764C141.83 47.404 141.398 47.224 140.798 47.224C140.102 47.224 139.556 47.464 139.16 47.944C138.764 48.424 138.566 49.072 138.566 49.888V55H136.748ZM152.727 55V45.928H154.545V55H152.727ZM152.583 44.038V42.148H154.689V44.038H152.583ZM161.187 55.162C160.275 55.162 159.477 54.976 158.793 54.604C158.121 54.22 157.599 53.674 157.227 52.966C156.867 52.246 156.687 51.394 156.687 50.41C156.687 49.438 156.873 48.604 157.245 47.908C157.617 47.212 158.139 46.684 158.811 46.324C159.483 45.952 160.275 45.766 161.187 45.766C161.775 45.766 162.345 45.868 162.897 46.072C163.449 46.264 163.905 46.54 164.265 46.9L163.671 48.178C163.335 47.854 162.957 47.614 162.537 47.458C162.117 47.29 161.709 47.206 161.313 47.206C160.449 47.206 159.771 47.482 159.279 48.034C158.787 48.586 158.541 49.384 158.541 50.428C158.541 51.484 158.787 52.294 159.279 52.858C159.771 53.422 160.449 53.704 161.313 53.704C161.697 53.704 162.099 53.632 162.519 53.488C162.939 53.332 163.323 53.086 163.671 52.75L164.265 54.028C163.893 54.388 163.425 54.67 162.861 54.874C162.309 55.066 161.751 55.162 161.187 55.162ZM169.305 55.162C168.549 55.162 167.853 55.066 167.217 54.874C166.581 54.682 166.053 54.412 165.633 54.064L166.191 52.822C166.635 53.158 167.127 53.41 167.667 53.578C168.207 53.746 168.759 53.83 169.323 53.83C169.983 53.83 170.481 53.716 170.817 53.488C171.153 53.248 171.321 52.924 171.321 52.516C171.321 52.204 171.213 51.952 170.997 51.76C170.793 51.568 170.451 51.424 169.971 51.328L168.243 50.986C167.475 50.818 166.893 50.53 166.497 50.122C166.101 49.714 165.903 49.192 165.903 48.556C165.903 48.016 166.047 47.536 166.335 47.116C166.635 46.696 167.055 46.366 167.595 46.126C168.147 45.886 168.789 45.766 169.521 45.766C170.193 45.766 170.817 45.862 171.393 46.054C171.969 46.246 172.449 46.522 172.833 46.882L172.257 48.088C171.885 47.776 171.465 47.536 170.997 47.368C170.529 47.188 170.055 47.098 169.575 47.098C168.903 47.098 168.405 47.224 168.081 47.476C167.757 47.728 167.595 48.058 167.595 48.466C167.595 48.778 167.691 49.036 167.883 49.24C168.087 49.432 168.405 49.582 168.837 49.69L170.565 50.032C171.381 50.2 171.993 50.476 172.401 50.86C172.809 51.244 173.013 51.76 173.013 52.408C173.013 52.972 172.857 53.464 172.545 53.884C172.233 54.304 171.801 54.622 171.249 54.838C170.697 55.054 170.049 55.162 169.305 55.162Z" fill="white"/>
<defs>
<filter id="filter0_d_411_861" x="12.0029" y="16.0029" width="47.9834" height="47.9975" filterUnits="userSpaceOnUse" color-interpolation-filters="sRGB">
<feFlood flood-opacity="0" result="BackgroundImageFix"/>
<feColorMatrix in="SourceAlpha" type="matrix" values="0 0 0 0 0 0 0 0 0 0 0 0 0 0 0 0 0 0 127 0" result="hardAlpha"/>
<feOffset dy="4"/>
<feGaussianBlur stdDeviation="2"/>
<feComposite in2="hardAlpha" operator="out"/>
<feColorMatrix type="matrix" values="0 0 0 0 0 0 0 0 0 0 0 0 0 0 0 0 0 0 0.25 0"/>
<feBlend mode="normal" in2="BackgroundImageFix" result="effect1_dropShadow_411_861"/>
<feBlend mode="normal" in="SourceGraphic" in2="effect1_dropShadow_411_861" result="shape"/>
</filter>
<filter id="filter1_d_411_861" x="213" y="-30" width="138.017" height="138.063" filterUnits="userSpaceOnUse" color-interpolation-filters="sRGB">
<feFlood flood-opacity="0" result="BackgroundImageFix"/>
<feColorMatrix in="SourceAlpha" type="matrix" values="0 0 0 0 0 0 0 0 0 0 0 0 0 0 0 0 0 0 127 0" result="hardAlpha"/>
<feOffset dy="4"/>
<feGaussianBlur stdDeviation="2"/>
<feComposite in2="hardAlpha" operator="out"/>
<feColorMatrix type="matrix" values="0 0 0 0 0 0 0 0 0 0 0 0 0 0 0 0 0 0 0.25 0"/>
<feBlend mode="normal" in2="BackgroundImageFix" result="effect1_dropShadow_411_861"/>
<feBlend mode="normal" in="SourceGraphic" in2="effect1_dropShadow_411_861" result="shape"/>
</filter>
<linearGradient id="paint0_linear_411_861" x1="-39.2809" y1="-9.83913" x2="231.089" y2="174.512" gradientUnits="userSpaceOnUse">
<stop stop-color="#06E329"/>
<stop offset="1" stop-color="#5E64F3"/>
</linearGradient>
<linearGradient id="paint1_linear_411_861" x1="-39.2809" y1="-9.83913" x2="231.089" y2="174.512" gradientUnits="userSpaceOnUse">
<stop stop-color="#06E386"/>
<stop offset="1" stop-color="#5E9AF3"/>
</linearGradient>
<linearGradient id="paint2_linear_411_861" x1="236" y1="20" x2="236" y2="52" gradientUnits="userSpaceOnUse">
<stop stop-color="#FA4833"/>
<stop offset="1" stop-color="#E30713"/>
</linearGradient>
</defs>
</svg>
