<svg width="27" height="30" viewBox="0 0 27 30" fill="none" xmlns="http://www.w3.org/2000/svg">
<path d="M27.0001 29.725C26.9351 28.2393 26.8096 26.7667 26.4767 25.3088C26.4812 24.7694 26.1433 24.2441 26.3179 23.724C26.7248 23.1024 26.6225 22.1981 26.4886 21.5113C26.4988 21.4071 26.3857 21.4258 26.3631 21.3578C26.3484 21.1623 26.0393 21.3164 25.9268 21.2677C25.9177 21.134 25.9562 20.9867 25.8171 20.8903C25.7991 20.7929 25.7228 20.7339 25.6414 20.7339C25.2056 20.7895 25.2175 19.8364 24.9626 19.5316C24.8388 19.276 24.8026 18.9644 24.5669 18.7769C24.403 18.336 24.1136 17.9383 23.7807 17.6028C23.7231 17.4821 23.7378 17.2532 23.6123 17.1994C23.5886 17.0804 23.514 16.9813 23.4309 16.873C23.3913 16.8039 23.3998 16.6917 23.2749 16.7002C23.5309 16.2747 23.926 15.9511 24.1685 15.5137C24.6817 14.7856 25.1073 14.0196 25.3435 13.1957C25.5515 12.9232 25.1796 12.6886 25.1423 12.4047C25.3045 12.1577 24.9371 12.173 24.9569 12.0013C25.0892 12.0256 25.4136 12.0766 25.1446 11.8375C25.192 11.6698 25.0423 11.5163 24.9722 11.365C24.888 11.1859 24.975 10.97 24.8405 10.8204C24.6964 9.94389 24.4222 9.22316 24.052 8.42933C23.8774 8.12053 23.5903 7.80379 23.6756 7.42472C23.662 7.34086 23.7932 7.25247 23.6677 7.17258C24.3143 5.29255 24.2029 2.75128 23.1031 0.954547C21.6816 -1.82527 21.4205 2.25266 20.7304 3.21137C20.4704 3.54228 20.1217 4.47663 19.6508 4.0545C19.492 4.0477 19.1049 3.76892 19.0178 3.94967C18.7544 3.91398 18.5063 3.80745 18.2492 3.78252C17.702 3.6318 17.1176 3.71453 16.5519 3.66863C16.5875 3.63804 16.6237 3.60744 16.6593 3.57741C16.1738 3.52981 15.6894 3.6828 15.1931 3.74569C15.0722 3.77686 14.9388 3.76609 14.8354 3.85448C14.8241 3.84882 14.8133 3.84995 14.8037 3.85788C13.9831 4.0222 14.2877 4.21995 13.4393 3.34793C13.3721 3.16265 13.1923 3.05499 13.09 2.88897C13.1013 2.8901 13.1121 2.8884 13.1234 2.885C12.6854 2.40735 12.3892 1.66282 12.0806 1.0809C11.9647 0.878054 11.568 -0.444993 11.3012 0.166952C11.2763 0.19075 11.2515 0.215114 11.2272 0.238912C11.0028 0.287641 10.8796 0.544884 10.7253 0.726201C10.4506 1.00498 10.2477 1.40671 10.1685 1.77047C10.0459 1.86963 9.94868 1.99655 9.89103 2.15464C9.52252 2.71389 9.3377 3.34906 9.1591 3.87318C8.96241 4.30268 9.03589 4.07206 9.03984 4.55312C8.94771 5.173 8.75442 5.85463 8.91324 6.47111C8.84089 6.53854 8.86802 6.68869 8.97484 6.68982C8.91154 6.75782 8.91098 6.86208 8.98784 6.91647C9.48804 8.31884 9.79777 8.84353 9.20488 10.3609C8.8132 11.0607 8.82902 11.8902 8.46956 12.6195C8.34182 12.6976 8.44017 12.8064 8.36669 12.9113C8.34465 12.9487 8.32261 12.9866 8.30056 13.024C8.34748 13.0648 8.43112 13.0625 8.44469 12.9889C8.46334 13.0002 8.48482 13.0081 8.50686 13.0019C8.49951 13.0206 8.49443 13.0399 8.4916 13.0603C8.4413 13.062 8.44356 13.1322 8.39947 13.1453C8.40626 13.1991 8.48877 13.1912 8.5193 13.1577C8.64646 13.1934 8.38195 13.9062 8.30961 13.9878C8.16661 14.4219 7.94845 14.2343 8.29661 14.67C8.88272 15.244 9.35861 16.0316 10.1024 16.4543V16.4537C9.94924 16.992 10.0267 17.5031 9.73729 17.9547C9.4643 18.3224 9.46487 18.8262 9.19697 19.2488C8.53569 20.488 8.26326 21.972 7.96992 23.3194C7.98688 23.456 7.93714 23.5313 7.8275 23.6033C7.82128 23.4911 7.84954 23.3783 7.84275 23.265C7.84728 23.1948 7.85236 23.1251 7.85688 23.0548C8.04001 21.9386 7.88458 20.7294 7.78567 19.5899C7.81506 19.3826 7.76532 19.0636 7.59407 18.9043C7.65398 18.744 7.71954 18.5185 7.56016 18.3887C7.54659 17.8306 7.73028 17.0045 7.42112 16.5229C7.22217 15.1143 7.21313 13.6569 6.82371 12.4143C6.6858 12.0999 6.58519 10.0855 6.15056 10.4187C5.9047 9.9439 5.43615 8.38514 5.02808 8.26558C4.96534 8.14263 4.9043 8.0191 4.80426 7.92108C4.66692 7.7358 4.57762 7.46892 4.40127 7.34936C3.68234 6.5986 3.78238 5.57473 3.22679 4.69817C2.83681 5.27385 0.786276 1.66565 1.01292 3.19834C0.920793 3.11392 0.829231 3.02892 0.737104 2.9445C-0.196601 1.63335 0.430767 3.47258 0.573197 3.96214C0.598631 4.3837 1.29269 5.81724 1.02648 5.99799C0.446028 5.45857 0.413811 6.11471 0.574327 6.5663C0.579979 6.55327 0.585631 6.5408 0.591283 6.52777C0.599761 6.89721 0.742756 7.27854 0.808319 7.69897C0.0690414 6.6207 0.531937 8.49053 0.560762 8.86223C0.531372 9.22599 0.660237 9.5688 0.603717 9.93143C0.0413468 9.43677 0.689627 10.9207 0.581675 11.1893C-0.242382 9.69968 0.245948 11.6211 0.290598 12.1616C0.236905 12.0222 0.117648 11.9236 0.104084 11.7786C-0.0423023 11.6403 -0.0095209 12.0211 0.0526507 12.088C-0.0157381 12.5452 0.344857 13.071 0.172472 13.4733C-0.101648 13.2393 0.187733 14.5357 0.331858 14.4677C0.300207 14.6508 0.278729 14.7953 0.411551 14.9426C0.391769 15.0389 0.423985 15.3749 0.556806 15.2791C0.554545 15.4752 0.600891 15.6593 0.677193 15.8356C0.4952 15.6372 0.45394 15.61 0.340336 15.7953C0.353335 15.9364 0.393464 16.069 0.459592 16.1891C0.499156 16.2781 0.487287 16.3976 0.619543 16.4186C0.566414 16.558 0.579414 16.6464 0.734278 16.7042C0.681149 16.8861 0.722409 17.0147 0.902141 17.098C0.833187 17.1801 0.876707 17.3439 1.01518 17.3269C0.961487 17.6731 0.372552 16.7002 0.403638 17.1371C0.435854 17.4085 0.546633 17.6408 0.629716 17.8844C0.652324 17.9677 0.660237 18.0573 0.729191 18.1207C0.806623 18.4176 0.933792 18.6732 1.07227 18.9587C1.16496 19.0369 1.12144 19.3554 1.30739 19.4732C1.26161 19.6183 1.35995 19.7537 1.48995 19.8132C1.53403 19.9412 1.5086 20.1027 1.65442 20.2087C1.65442 20.2087 1.6595 20.2093 1.66459 20.2098L1.65442 20.2087C1.65442 20.373 1.45773 20.1866 1.47525 20.2948C1.43964 20.5243 1.66177 20.5555 1.76181 20.7266C1.68211 20.8586 1.92458 21.0008 2.0071 21.1158C1.97601 21.1385 1.96132 21.1702 1.95115 21.2031C1.81324 20.9759 0.895359 20.5373 1.37182 21.1153C1.51199 21.2609 1.54816 21.5776 1.80646 21.6995C1.9698 22.0338 2.21735 22.3992 2.49317 22.6978C2.67573 22.9777 2.90633 23.1664 3.05215 23.4843C1.75559 23.1103 3.42914 24.1994 3.47718 24.5864C3.48452 24.579 3.49187 24.5711 3.49922 24.5637C1.98506 24.0724 3.18045 24.9711 3.61565 25.4697C3.71682 25.6329 4.20289 26.1349 3.72247 25.8448C3.03632 25.7615 4.45384 26.612 4.57648 26.7265C4.55275 26.8778 4.81443 26.884 4.74378 27.0585C3.97116 26.5899 3.71908 27.0296 4.46005 27.2874C4.62679 27.4404 4.85343 27.5299 5.02299 27.6942C3.61904 27.9056 5.56388 28.4954 5.98269 28.8734C12.1603 31.1319 20.3596 29.2043 27.0001 29.725ZM25.0259 13.751C25.0202 13.7515 25.0134 13.7532 25.0072 13.7549C25.0095 13.7487 25.0123 13.7425 25.0146 13.7368C25.0191 13.7413 25.0225 13.7464 25.0259 13.751ZM26.3207 25.0805C26.3196 25.081 26.319 25.0816 26.3179 25.0821C26.3179 25.0805 26.3185 25.0787 26.3185 25.0776C26.3196 25.0787 26.3202 25.0799 26.3207 25.0805ZM16.2461 3.6913C16.2518 3.69243 16.2568 3.69413 16.2625 3.6947C16.254 3.70773 16.2461 3.72019 16.2376 3.73323C16.2359 3.72813 16.2314 3.69696 16.2461 3.6913ZM14.0627 28.8161C14.065 28.8156 14.0673 28.8161 14.069 28.8156C14.0678 28.8173 14.0673 28.819 14.0661 28.8207C14.0656 28.819 14.0639 28.8178 14.0627 28.8161ZM13.8095 28.6399C13.7971 28.6263 13.7869 28.6105 13.7807 28.5895C13.8197 28.5844 13.8101 28.6133 13.8095 28.6399ZM3.10641 9.34385L3.10584 9.34328C3.10641 9.34328 3.10697 9.34328 3.10754 9.34328C3.10697 9.34328 3.10697 9.34328 3.10641 9.34385ZM2.03536 17.2742C2.0348 17.2719 2.0348 17.2702 2.03423 17.268C2.03593 17.2697 2.03706 17.2714 2.03875 17.2731C2.03762 17.2731 2.03649 17.2742 2.03536 17.2742ZM3.55857 12.2789C3.55857 12.2812 3.55857 12.284 3.55857 12.2863C3.55857 12.284 3.55461 12.2795 3.55857 12.2789ZM4.91447 18.6261V18.6267C4.91391 18.6261 4.91391 18.6261 4.91447 18.6261ZM5.30446 21.4637C5.30333 21.4592 5.30389 21.4564 5.30954 21.4564C5.30785 21.4592 5.30615 21.4609 5.30446 21.4637ZM3.10754 16.4753C3.10923 16.4764 3.1098 16.4781 3.11149 16.4798C3.1098 16.4798 3.1081 16.4787 3.10697 16.4798C3.10754 16.4781 3.10754 16.477 3.10754 16.4753ZM2.65538 15.0604C2.65482 15.065 2.65482 15.0695 2.64916 15.0667C2.65142 15.0644 2.65312 15.0621 2.65538 15.0604ZM2.80177 16.898C2.80177 16.8991 2.80177 16.9008 2.80177 16.9019C2.8012 16.9008 2.80007 16.8997 2.79951 16.8991C2.80007 16.8985 2.80064 16.898 2.80177 16.898ZM3.27653 17.2113C3.27823 17.2124 3.27879 17.2136 3.28049 17.2147C3.27823 17.2141 3.2771 17.2147 3.27653 17.2164C3.27653 17.2147 3.27653 17.213 3.27653 17.2113ZM2.82268 16.4668C2.82324 16.4702 2.82381 16.473 2.82381 16.4758C2.81872 16.4724 2.8142 16.4702 2.80911 16.4673C2.81364 16.4668 2.81816 16.4668 2.82268 16.4668ZM3.84851 16.7676C3.84625 16.7642 3.84342 16.762 3.84173 16.7586C3.85134 16.7586 3.86151 16.7586 3.87112 16.7586C3.86264 16.7597 3.85529 16.7631 3.84851 16.7676ZM3.67726 15.1755C3.67556 15.1766 3.67443 15.1783 3.67274 15.1794C3.6716 15.176 3.67443 15.1738 3.67726 15.1755ZM4.93595 18.2828C4.93538 18.2816 4.93538 18.2805 4.93482 18.2794C4.93595 18.2811 4.93708 18.2828 4.93764 18.2845C4.93764 18.2839 4.93708 18.2833 4.93595 18.2828ZM4.51883 16.6453C4.51657 16.6424 4.51488 16.6402 4.51262 16.6373C4.51431 16.6368 4.51544 16.6356 4.51714 16.6351C4.5177 16.6385 4.51827 16.6419 4.51883 16.6453ZM3.93781 16.7699C3.92481 16.7665 3.91181 16.7631 3.89768 16.7586C3.91407 16.7591 3.9299 16.7586 3.94572 16.7569C3.94346 16.7614 3.94064 16.7654 3.93781 16.7699ZM4.40636 21.3436C4.40693 21.3442 4.40749 21.3453 4.40806 21.3459C4.40749 21.3459 4.40693 21.3459 4.40636 21.3465C4.40636 21.3459 4.40636 21.3448 4.40636 21.3436ZM4.06724 20.9476C4.0695 20.9493 4.0712 20.951 4.07289 20.9527C4.07063 20.9532 4.06894 20.9538 4.06668 20.9544C4.06724 20.9521 4.06724 20.9498 4.06724 20.9476ZM4.40353 22.6916C4.4041 22.695 4.40523 22.699 4.4058 22.7024C4.4041 22.699 4.40184 22.6956 4.40014 22.6922C4.40127 22.6922 4.4024 22.6922 4.40353 22.6916ZM4.80143 13.0659C4.80143 13.0512 4.80143 13.0365 4.80143 13.0223C4.81443 13.0404 4.82856 13.0546 4.80143 13.0659ZM4.57479 13.7572C4.57422 13.7572 4.57422 13.7572 4.57479 13.7572C4.57422 13.7578 4.57479 13.7572 4.57479 13.7572C4.57479 13.7589 4.57422 13.76 4.57366 13.7617C4.57309 13.7606 4.57253 13.7595 4.5714 13.7583C4.57253 13.7578 4.57366 13.7578 4.57479 13.7572C4.57422 13.7572 4.57422 13.7572 4.57479 13.7572ZM3.10697 12.2302C3.10471 12.2268 3.10302 12.2228 3.10132 12.2189C3.10358 12.2183 3.10641 12.2177 3.10867 12.2166C3.10754 12.2217 3.10754 12.2262 3.10697 12.2302ZM2.59773 12.0585C2.59604 12.0574 2.59491 12.0562 2.59321 12.0551C2.59491 12.0545 2.59604 12.0545 2.59773 12.054C2.59773 12.0557 2.59773 12.0568 2.59773 12.0585ZM2.70907 12.7866C2.70907 12.79 2.70907 12.7928 2.70851 12.7962C2.70625 12.7934 2.70455 12.79 2.70229 12.7872C2.70512 12.7872 2.70738 12.7866 2.70907 12.7866ZM1.86467 14.1544C1.86524 14.155 1.86524 14.155 1.86467 14.1544C1.86467 14.155 1.86467 14.155 1.86467 14.1544C1.86467 14.155 1.86467 14.1544 1.86467 14.1544ZM2.60056 11.4375C2.60056 11.4352 2.60056 11.433 2.60056 11.4307C2.60169 11.4307 2.60282 11.4313 2.60451 11.4313C2.60338 11.4335 2.60169 11.4352 2.60056 11.4375ZM1.80872 12.1169C1.80815 12.1157 1.80815 12.1152 1.80815 12.114C1.80872 12.114 1.80985 12.114 1.81098 12.114C1.80985 12.1152 1.80928 12.1157 1.80872 12.1169ZM6.15677 23.0423L6.15621 23.0418H6.15677C6.15677 23.0418 6.15677 23.0418 6.15677 23.0423ZM5.4791 15.6259C5.48419 15.6265 5.48871 15.6265 5.4938 15.6265C5.48871 15.6327 5.48476 15.631 5.4791 15.6259ZM2.37278 10.0221C2.37052 10.021 2.36883 10.0198 2.36657 10.0187C2.36826 10.0176 2.36996 10.0159 2.37165 10.0142C2.37222 10.017 2.37278 10.0198 2.37278 10.0221ZM2.4293 10.9842C2.42874 10.9836 2.42817 10.9836 2.42761 10.9831C2.42817 10.9831 2.42874 10.9825 2.42874 10.9825C2.4293 10.9836 2.4293 10.9842 2.4293 10.9842ZM6.04204 17.3937C6.0426 17.3892 6.04317 17.3853 6.04374 17.3807C6.04487 17.3858 6.046 17.3904 6.04204 17.3937ZM1.63916 10.2487C1.63916 10.2482 1.63916 10.2476 1.63916 10.247C1.63972 10.2476 1.64029 10.2476 1.64085 10.2482C1.64029 10.2482 1.63972 10.2482 1.63916 10.2487ZM6.32633 26.8727C6.32633 26.8789 6.32633 26.8851 6.32633 26.8914C6.32068 26.8857 6.31559 26.8795 6.31051 26.8732C6.31503 26.8732 6.32068 26.8732 6.32633 26.8727ZM3.10754 9.34272C3.10754 9.33988 3.10754 9.33648 3.10754 9.33365C3.1098 9.33422 3.11149 9.33535 3.11376 9.33592C3.11149 9.33818 3.1098 9.34045 3.10754 9.34272ZM6.42298 27.0449C6.42807 27.05 6.43372 27.0557 6.43881 27.0608C6.44107 27.063 6.44333 27.0659 6.44559 27.0681C6.43711 27.0687 6.43146 27.0534 6.42298 27.0449ZM1.75728 8.4197C1.75559 8.42537 1.75446 8.43103 1.7522 8.43727C1.75163 8.43103 1.74994 8.4248 1.74937 8.41857C1.75163 8.41913 1.75446 8.41913 1.75728 8.4197ZM2.37278 6.51247C2.37109 6.51134 2.36939 6.51021 2.3677 6.50907C2.36939 6.50851 2.37109 6.50794 2.37278 6.50737C2.37278 6.50907 2.37278 6.51077 2.37278 6.51247ZM6.55185 28.5306C6.55185 28.5317 6.55185 28.5323 6.55185 28.5334C6.55128 28.5328 6.55072 28.5317 6.55015 28.5311C6.55128 28.5311 6.55128 28.5306 6.55185 28.5306ZM7.004 28.1934C7.00739 28.1963 7.00966 28.1991 7.01305 28.2019C7.00966 28.2042 7.00626 28.2059 7.00287 28.2082C7.00287 28.2036 7.00287 28.1985 7.004 28.1934ZM6.04317 12.7396C6.0426 12.739 6.0426 12.7384 6.04204 12.7379C6.0426 12.7379 6.0426 12.7379 6.04317 12.7373C6.04317 12.7379 6.04317 12.739 6.04317 12.7396ZM4.12376 9.96543C4.1232 9.96486 4.12263 9.96429 4.12263 9.96429C4.1232 9.96373 4.12376 9.96373 4.12376 9.96316C4.12376 9.96429 4.12376 9.96486 4.12376 9.96543ZM2.20322 19.8648C2.20322 19.867 2.20379 19.8699 2.20379 19.8721C2.20209 19.8704 2.20096 19.8682 2.19927 19.8665C2.2004 19.8659 2.20153 19.8653 2.20322 19.8648ZM6.83444 18.6851C6.83388 18.6851 6.83331 18.6851 6.83275 18.6851C6.83331 18.6845 6.83388 18.6839 6.83444 18.6834C6.83444 18.6839 6.83444 18.6845 6.83444 18.6851ZM22.496 26.9095C22.5124 26.9038 22.53 26.8982 22.5492 26.8936C22.5367 26.9083 22.526 26.9225 22.5153 26.9372C22.5102 26.927 22.504 26.918 22.496 26.9095ZM17.1052 5.5209C17.1323 5.50957 17.1284 5.5277 17.1041 5.52373C17.1046 5.52316 17.1046 5.52203 17.1052 5.5209ZM9.71582 9.95749C9.71695 9.95749 9.71808 9.95693 9.71864 9.95693C9.71695 9.95919 9.71525 9.96203 9.71356 9.96429C9.71412 9.96203 9.71469 9.95976 9.71582 9.95749ZM22.0252 17.8368C22.0275 17.838 22.0298 17.8397 22.032 17.8408C22.0292 17.8408 22.0269 17.8419 22.0241 17.8425C22.0247 17.8408 22.0247 17.8385 22.0252 17.8368ZM9.03645 20.9476C9.03645 20.9493 9.03645 20.951 9.03645 20.9527C9.03419 20.9515 9.03589 20.9493 9.03645 20.9476ZM23.7768 20.1549C23.7773 20.1549 23.7773 20.1554 23.7773 20.1554C23.7768 20.1554 23.7768 20.156 23.7762 20.156C23.7768 20.156 23.7768 20.1554 23.7768 20.1549ZM24.3391 23.7801C24.3391 23.7795 24.3386 23.7789 24.3386 23.7784C24.3397 23.7784 24.3403 23.7778 24.3414 23.7778C24.3403 23.7789 24.3397 23.7795 24.3391 23.7801ZM21.8003 18.0612C21.8031 18.0646 21.8065 18.068 21.8093 18.0709C21.8076 18.072 21.8059 18.0743 21.8037 18.0743C21.8042 18.0748 21.7997 18.0635 21.8003 18.0612ZM21.9704 7.92391C21.9518 7.92675 21.9388 7.91995 21.9393 7.90068C21.9495 7.90861 21.9602 7.91655 21.9704 7.92391ZM11.3244 7.41339C11.3227 7.41962 11.3221 7.42529 11.3204 7.43096C11.3176 7.42699 11.3148 7.42302 11.3119 7.41962C11.3165 7.41736 11.3204 7.41566 11.3244 7.41339ZM18.0129 26.1599C18.0129 26.1706 18.0106 26.1757 17.9993 26.1768C17.9745 26.1451 18.0146 26.1344 18.0129 26.1599ZM21.1678 18.8517C21.1774 18.8703 21.1616 18.8692 21.1469 18.8749C21.1537 18.8664 21.1605 18.859 21.1678 18.8517ZM19.3705 19.4783C19.3699 19.4778 19.3694 19.4772 19.3688 19.4761C19.3699 19.4761 19.3716 19.4761 19.3728 19.4761C19.3733 19.4778 19.3716 19.4806 19.3716 19.4823C19.3705 19.4812 19.3705 19.4795 19.3705 19.4783ZM19.7921 20.1243C19.7921 20.1214 19.7921 20.1186 19.7921 20.1158C19.7938 20.1192 19.7955 20.1226 19.7972 20.1265C19.7972 20.1265 19.7944 20.1254 19.7921 20.1243ZM18.8064 21.0609C18.8059 21.0637 18.8042 21.066 18.8036 21.0688C18.8019 21.0665 18.7997 21.0648 18.798 21.0626C18.8008 21.062 18.8036 21.0609 18.8064 21.0609ZM17.5726 20.3356C17.5732 20.3345 17.5737 20.3339 17.5743 20.3328C17.5749 20.3333 17.5754 20.3339 17.5754 20.3345C17.5743 20.3345 17.5732 20.335 17.5726 20.3356ZM15.9771 20.2263C15.9771 20.2268 15.9771 20.2268 15.9776 20.2274C15.9771 20.2274 15.9765 20.2274 15.9759 20.2274C15.9759 20.2274 15.9765 20.2268 15.9771 20.2263ZM16.8791 19.6511C16.8786 19.6534 16.8786 19.6557 16.878 19.6574C16.8769 19.6562 16.8763 19.6551 16.8752 19.654C16.8769 19.6534 16.878 19.6523 16.8791 19.6511ZM20.3845 22.7585C20.3839 22.7602 20.3828 22.7613 20.3816 22.763C20.3811 22.7613 20.3805 22.7596 20.3799 22.7579C20.3816 22.7579 20.3833 22.7579 20.3845 22.7585ZM20.6801 23.4378C20.6801 23.4373 20.6801 23.4373 20.6801 23.4378C20.6801 23.4373 20.6801 23.4378 20.6801 23.4378ZM19.0195 19.8234C19.0195 19.8211 19.019 19.8183 19.0184 19.816C19.0229 19.8166 19.0274 19.8177 19.0325 19.8172C19.0286 19.8194 19.024 19.8211 19.0195 19.8234ZM18.7759 19.6902C18.7861 19.684 18.7963 19.6795 18.8053 19.6761C18.7963 19.68 18.7867 19.6846 18.7759 19.6902ZM16.306 19.3185C16.3049 19.3174 16.3049 19.3157 16.3037 19.3146C16.3049 19.3146 16.3054 19.3146 16.3066 19.314C16.3066 19.3157 16.3066 19.3168 16.306 19.3185ZM19.2089 20.5492C19.2089 20.5492 19.2089 20.5498 19.2089 20.5492C19.2083 20.5498 19.2083 20.5492 19.2083 20.5492H19.2089ZM19.3315 20.3866C19.3315 20.3826 19.3321 20.3792 19.3321 20.3753C19.3338 20.3787 19.3355 20.3815 19.3372 20.3849C19.3355 20.3855 19.3338 20.386 19.3315 20.3866ZM18.6397 19.6409C18.6352 19.6438 18.6295 19.6426 18.6239 19.6426C18.6295 19.6398 18.6346 19.633 18.6397 19.6409ZM19.9374 24.3965C19.9363 24.3999 19.9351 24.4033 19.934 24.4067C19.9261 24.4005 19.9176 24.3965 19.908 24.3943C19.9182 24.3948 19.9278 24.396 19.9374 24.3965ZM19.3773 19.5373C19.3773 19.5395 19.3767 19.5418 19.3767 19.5435C19.3671 19.5378 19.3603 19.5276 19.3773 19.5373ZM14.2334 23.6662C14.2329 23.6656 14.2329 23.6656 14.2323 23.665C14.2329 23.665 14.2334 23.665 14.234 23.665C14.2334 23.665 14.2334 23.6656 14.2334 23.6662ZM21.5426 24.5813C21.5414 24.5813 21.5403 24.5801 21.5397 24.5807C21.5409 24.579 21.542 24.5773 21.5431 24.5762C21.5431 24.5779 21.5426 24.5796 21.5426 24.5813ZM16.8283 16.1608C16.8271 16.1614 16.8266 16.1619 16.8254 16.1631C16.8243 16.1568 16.8232 16.1512 16.8209 16.1461C16.8283 16.1506 16.8367 16.1495 16.8283 16.1608ZM17.281 16.2509C17.281 16.2503 17.281 16.2503 17.281 16.2498C17.2827 16.2498 17.2827 16.2498 17.281 16.2509ZM17.1691 26.6086C17.1674 26.6097 17.1657 26.6109 17.164 26.612C17.1634 26.6109 17.1634 26.6097 17.1628 26.6086C17.1645 26.6086 17.1668 26.6086 17.1691 26.6086ZM21.1554 19.1661C21.1526 19.1684 21.1486 19.1673 21.1458 19.1678C21.1481 19.1644 21.152 19.1656 21.1554 19.1661ZM19.3649 16.6283C19.3643 16.6283 19.3643 16.6277 19.3637 16.6277L19.3643 16.6271C19.3649 16.6277 19.3649 16.6283 19.3649 16.6283ZM14.6833 12.9028C14.6788 12.9016 14.6743 12.8999 14.6698 12.8982C14.676 12.8931 14.6794 12.8971 14.6833 12.9028ZM15.5882 25.0799C15.5848 25.0793 15.5769 25.0799 15.5775 25.0765C15.5809 25.0776 15.5843 25.0787 15.5882 25.0799ZM11.7358 7.54598C11.7398 7.54145 11.7432 7.53691 11.7477 7.53181C11.7454 7.54145 11.7483 7.55165 11.7358 7.54598ZM10.1544 12.3526C10.1516 12.3475 10.1493 12.3429 10.1465 12.3378C10.1499 12.3367 10.1521 12.335 10.1555 12.3339C10.155 12.3401 10.1544 12.3458 10.1544 12.3526ZM18.1825 13.4728C18.1825 13.4762 18.1847 13.4813 18.1825 13.4835C18.1819 13.4796 18.1813 13.4762 18.1813 13.4722C18.1808 13.4722 18.1819 13.4728 18.1825 13.4728ZM18.1209 25.7032C18.1214 25.7054 18.1214 25.7077 18.122 25.71C18.1197 25.7094 18.1175 25.7088 18.1152 25.7083C18.1169 25.7066 18.1186 25.7049 18.1209 25.7032ZM18.3498 24.1659C18.3503 24.1722 18.3503 24.1778 18.3509 24.1841C18.3486 24.1835 18.3458 24.1829 18.3435 24.1829C18.3452 24.1773 18.3475 24.1716 18.3498 24.1659ZM21.7466 25.4748C21.746 25.4742 21.7455 25.4737 21.7449 25.4731C21.7455 25.4725 21.746 25.4725 21.7472 25.4725C21.7472 25.4731 21.7466 25.4742 21.7466 25.4748ZM21.9037 8.16076C21.9048 8.16076 21.9054 8.16076 21.9065 8.16076C21.9065 8.16132 21.9065 8.16132 21.9065 8.16189C21.906 8.16132 21.9048 8.16076 21.9037 8.16076ZM10.2228 22.023C10.2217 22.0224 10.2211 22.0213 10.22 22.0207C10.2211 22.0196 10.2228 22.0185 10.2239 22.0168C10.2239 22.019 10.2234 22.0207 10.2228 22.023ZM9.37557 23.0984C9.3767 23.099 9.37783 23.1001 9.37952 23.1007C9.37839 23.1007 9.3767 23.1013 9.37557 23.1018C9.37557 23.1007 9.37557 23.0996 9.37557 23.0984ZM22.8759 20.0925C22.8759 20.0925 22.8759 20.092 22.8759 20.0925C22.8759 20.092 22.8759 20.092 22.8759 20.0925ZM12.1428 4.87042C12.1416 4.86929 12.1411 4.86816 12.1399 4.86702C12.1411 4.86646 12.1422 4.86589 12.1433 4.86532C12.1428 4.86702 12.1428 4.86872 12.1428 4.87042ZM9.94077 21.4003C9.93794 21.3992 9.93964 21.398 9.94077 21.3963C9.94077 21.398 9.94077 21.3992 9.94077 21.4003ZM22.7572 18.1717C22.7572 18.1649 22.7572 18.1581 22.7572 18.1507C22.7611 18.1536 22.7645 18.1564 22.7685 18.1592C22.7651 18.1632 22.7617 18.1677 22.7572 18.1717ZM21.2916 17.9473C21.2927 17.9451 21.2944 17.9434 21.2956 17.9417C21.2956 17.9445 21.295 17.9473 21.2916 17.9473ZM8.92624 21.9709C8.92454 21.9697 8.92341 21.9686 8.92398 21.9669C8.92454 21.968 8.92511 21.9692 8.92624 21.9709ZM21.7952 25.6867C21.7952 25.6867 21.7958 25.6884 21.7963 25.6901C21.7952 25.6896 21.7941 25.6896 21.7929 25.689C21.7941 25.6884 21.7946 25.6873 21.7952 25.6867ZM24.147 10.7332C24.1396 10.7349 24.1329 10.7372 24.1266 10.74C24.1329 10.7241 24.1408 10.7083 24.1504 10.693C24.1492 10.706 24.1487 10.7196 24.147 10.7332ZM22.2507 7.21224C22.2457 7.21111 22.2406 7.20941 22.2349 7.20828C22.24 7.19808 22.2451 7.18788 22.2507 7.17711C22.2502 7.18958 22.2507 7.20091 22.2507 7.21224ZM10.8445 6.5714C10.8445 6.5697 10.8445 6.56744 10.8445 6.56574C10.8462 6.5663 10.8473 6.56687 10.849 6.56744C10.8473 6.56857 10.8462 6.57027 10.8445 6.5714ZM9.54626 21.3017C9.53778 21.2983 9.54061 21.2938 9.54456 21.2875C9.54569 21.2921 9.54569 21.2966 9.54626 21.3017ZM21.0056 26.8409C21.0017 26.8381 20.9971 26.8353 20.9932 26.833C20.9966 26.8313 21.0005 26.829 21.0045 26.8279C21.0039 26.8279 21.0056 26.8409 21.0056 26.8409ZM22.2558 4.25225C22.2513 4.25395 22.2513 4.25111 22.2519 4.24771C22.253 4.24941 22.2541 4.25111 22.2558 4.25225ZM22.2513 4.47436C22.2524 4.47493 22.2536 4.47606 22.2547 4.47663C22.2536 4.47776 22.2524 4.47889 22.2507 4.48003C22.2513 4.47833 22.2513 4.47606 22.2513 4.47436C22.2519 4.47436 22.2513 4.47436 22.2513 4.47436ZM21.9218 2.22546C21.9201 2.21866 21.919 2.2113 21.9178 2.20393C21.9314 2.20677 21.9252 2.21527 21.9218 2.22546ZM21.8449 2.47591C21.8461 2.47931 21.8466 2.48271 21.8472 2.48554C21.8444 2.48554 21.8415 2.48554 21.8393 2.48497C21.841 2.48214 21.8432 2.47874 21.8449 2.47591ZM18.2701 27.9351C18.2644 27.956 18.2678 27.9742 18.2418 27.9668C18.252 27.9555 18.2605 27.9458 18.2701 27.9351ZM23.3738 17.5467C23.3783 17.5467 23.3817 17.5473 23.38 17.553C23.3778 17.5513 23.3761 17.5484 23.3738 17.5467ZM21.7941 2.60623C21.7946 2.61473 21.7946 2.62379 21.7952 2.63229C21.7912 2.63116 21.7867 2.63059 21.7833 2.62889C21.7873 2.62153 21.7907 2.6136 21.7941 2.60623ZM17.888 6.9108C17.8908 6.90684 17.8925 6.90344 17.8953 6.89947C17.8965 6.90174 17.8982 6.90344 17.8999 6.9057C17.8959 6.9074 17.892 6.90854 17.888 6.9108ZM16.6027 4.29984C16.6016 4.29871 16.5999 4.29758 16.5988 4.29644C16.601 4.29588 16.6033 4.29531 16.6056 4.29474C16.6044 4.29644 16.6033 4.29814 16.6027 4.29984ZM8.86746 13.1923C8.86746 13.19 8.86802 13.1878 8.86802 13.1855C8.87141 13.1878 8.86915 13.19 8.86746 13.1923ZM8.86746 13.1923L8.86859 13.1929C8.86802 13.1934 8.86802 13.1934 8.86746 13.194C8.86746 13.1934 8.86746 13.1929 8.86746 13.1923ZM23.1551 26.6653C23.1551 26.6664 23.1551 26.667 23.1551 26.6681C23.1528 26.6675 23.1545 26.6664 23.1551 26.6653ZM24.4511 25.2436C24.4516 25.2476 24.4522 25.2521 24.4522 25.2567C24.4494 25.255 24.4465 25.2533 24.4437 25.2516C24.446 25.2493 24.4482 25.2465 24.4511 25.2436ZM24.5669 25.3632C24.5669 25.3643 24.5664 25.3649 24.5664 25.366C24.5658 25.3655 24.5652 25.3649 24.5647 25.3643C24.5652 25.3638 24.5658 25.3632 24.5669 25.3632ZM12.3112 2.76432C12.3118 2.76828 12.3123 2.77225 12.3123 2.77621C12.3089 2.77168 12.3055 2.76771 12.3112 2.76432ZM9.20714 6.50114C9.20714 6.50511 9.20714 6.50851 9.20657 6.51247C9.20149 6.50624 9.19753 6.49888 9.19301 6.49208C9.19753 6.49491 9.20205 6.49831 9.20714 6.50114ZM10.3081 16.6413C10.307 16.6419 10.3059 16.6424 10.3048 16.643C10.3053 16.6396 10.3064 16.6356 10.307 16.6322C10.3076 16.6356 10.3081 16.6379 10.3081 16.6413ZM6.77793 16.8719C6.77793 16.8702 6.77793 16.8691 6.77793 16.8674C6.77962 16.8679 6.78075 16.8685 6.78245 16.8691C6.78075 16.8696 6.77962 16.8708 6.77793 16.8719ZM0.734278 13.917C0.734843 13.921 0.734843 13.9244 0.735408 13.9283C0.733147 13.9255 0.732017 13.9221 0.729756 13.9193C0.731452 13.9181 0.732582 13.9181 0.734278 13.917ZM12.0563 27.7923C12.0569 27.7923 12.0569 27.7923 12.0574 27.7923L12.0569 27.7928C12.0569 27.7928 12.0563 27.7928 12.0563 27.7923ZM24.3414 26.948C24.3431 26.9423 24.3391 26.931 24.3476 26.9327C24.3454 26.9378 24.3431 26.9429 24.3414 26.948ZM22.1456 0.309739C22.1456 0.305772 22.1451 0.301806 22.1445 0.298406C22.1473 0.300106 22.1507 0.300673 22.1541 0.301806C22.1513 0.304639 22.149 0.306906 22.1456 0.309739ZM9.08958 6.15607C9.07432 6.12434 9.07997 6.09998 9.10823 6.07505C9.10088 6.10394 9.09467 6.13058 9.08958 6.15607ZM9.02797 6.41048C9.02797 6.41218 9.02797 6.41388 9.02797 6.41558C9.02628 6.41445 9.02458 6.41275 9.02289 6.41105C9.02458 6.41105 9.02628 6.41105 9.02797 6.41048ZM5.21007 27.8563C5.20216 27.8552 5.19424 27.8552 5.19877 27.845C5.20216 27.8484 5.20611 27.8523 5.21007 27.8563ZM24.1572 25.5666C24.1622 25.5558 24.1673 25.5451 24.1724 25.5349C24.182 25.5417 24.1882 25.5496 24.1933 25.5581C24.1803 25.5604 24.1685 25.5632 24.1572 25.5666ZM15.5074 3.70603C15.4972 3.70376 15.487 3.70036 15.4786 3.69356C15.4882 3.69753 15.4978 3.70206 15.5074 3.70603ZM10.5224 1.13246C10.519 1.13643 10.5161 1.13983 10.5127 1.1438C10.5105 1.13473 10.5127 1.13076 10.5224 1.13246ZM0.633108 6.43371C0.634803 6.43768 0.636499 6.44165 0.638194 6.44561C0.633673 6.44618 0.629716 6.44731 0.626325 6.44901C0.628586 6.44391 0.630847 6.43881 0.633108 6.43371ZM0.609369 11.3157C0.577718 11.2964 0.577153 11.2851 0.588457 11.2533C0.592413 11.2743 0.599196 11.2953 0.609369 11.3157ZM0.513286 16.1262C0.514416 16.1251 0.514982 16.124 0.516112 16.1228C0.516677 16.1234 0.516677 16.124 0.517242 16.1245C0.516112 16.1251 0.514982 16.1257 0.513286 16.1262ZM0.590718 17.6663C0.590718 17.6674 0.591283 17.668 0.591283 17.6691C0.585631 17.668 0.580544 17.6669 0.574892 17.664C0.580544 17.6652 0.585631 17.6657 0.590718 17.6663Z" fill="url(#paint0_linear_285_426)"/>
<defs>
<linearGradient id="paint0_linear_285_426" x1="13.5" y1="-0.000488281" x2="13.5" y2="29.9993" gradientUnits="userSpaceOnUse">
<stop stop-color="#E30713"/>
<stop offset="1" stop-color="#F84631"/>
</linearGradient>
</defs>
</svg>
