<svg width="22" height="22" viewBox="0 0 22 22" fill="none" xmlns="http://www.w3.org/2000/svg">
<path d="M9 5C8.44772 5 8 5.44772 8 6C8 6.55228 8.44772 7 9 7V5ZM13 7C13.5523 7 14 6.55228 14 6C14 5.44772 13.5523 5 13 5V7ZM7 10C6.44772 10 6 10.4477 6 11C6 11.5523 6.44772 12 7 12V10ZM15 12C15.5523 12 16 11.5523 16 11C16 10.4477 15.5523 10 15 10V12ZM5 15C4.44772 15 4 15.4477 4 16C4 16.5523 4.44772 17 5 17V15ZM17 17C17.5523 17 18 16.5523 18 16C18 15.4477 17.5523 15 17 15V17ZM9 7H13V5H9V7ZM7 12H15V10H7V12ZM5 17H17V15H5V17Z" fill="white"/>
</svg>
