<svg width="28" height="26" viewBox="0 0 28 26" fill="none" xmlns="http://www.w3.org/2000/svg">
<path d="M21.9445 9.76554C21.9445 7.75015 21.1074 5.81731 19.6176 4.39221C18.1277 2.96711 16.107 2.1665 14 2.1665C11.893 2.1665 9.8723 2.96711 8.38243 4.39221C6.89256 5.81731 6.05556 7.75015 6.05556 9.76554C6.05556 16.2962 3.3123 19.3906 1.86731 20.5676C1.66286 20.7341 1.79337 21.1641 2.05706 21.1641H9.16565C9.28262 21.1641 9.38422 21.2432 9.41829 21.3551C9.651 22.1193 10.7263 24.9165 14 24.9165C17.2737 24.9165 18.349 22.1193 18.5817 21.3551C18.6158 21.2432 18.7174 21.1641 18.8343 21.1641H25.9429C26.2066 21.1641 26.3371 20.7341 26.1327 20.5676C24.6877 19.3906 21.9445 16.2962 21.9445 9.76554Z" stroke="#14142B" stroke-width="2" stroke-linecap="round" stroke-linejoin="round"/>
</svg>
