<svg width="96" height="96" viewBox="0 0 96 96" fill="none" xmlns="http://www.w3.org/2000/svg">
<g opacity="0.8">
<path d="M37.1641 47.9991C37.1641 42.009 42.0113 37.1626 48.0005 37.1626C53.9906 37.1626 58.837 42.0098 58.837 47.9991C58.837 53.9889 53.9896 58.8355 48.0005 58.8355C42.0105 58.8355 37.1641 53.9883 37.1641 47.9991ZM37.5391 47.9991C37.5391 53.7679 42.2317 58.4605 48.0005 58.4605C53.7693 58.4605 58.462 53.7679 58.462 47.9991C58.462 42.2301 53.7693 37.5376 48.0005 37.5376C42.2317 37.5376 37.5391 42.2301 37.5391 47.9991Z" stroke="#5285FC"/>
<path d="M54.6889 43.8118L54.6889 43.8118C56.6526 46.9428 56.1952 50.9605 53.5789 53.5767C50.9626 56.193 46.9449 56.6503 43.8141 54.6869L54.6889 43.8118ZM54.6889 43.8118C54.6339 43.7241 54.6603 43.6084 54.7482 43.5532C54.8362 43.4982 54.9516 43.5249 55.0065 43.6125L55.0066 43.6126M54.6889 43.8118L55.0066 43.6126M55.0066 43.6126C57.0247 46.8305 56.5946 51.0913 53.844 53.8419C51.093 56.593 46.8323 57.0225 43.6146 55.0046L55.0066 43.6126ZM43.5554 54.7461C43.6105 54.6583 43.7259 54.6317 43.814 54.6868L43.5554 54.7461ZM43.6146 55.0046C43.5268 54.9494 43.5004 54.8338 43.5553 54.7461L43.6146 55.0046Z" stroke="#5285FC"/>
<path d="M52.4453 41.2524L52.4453 41.2523C52.5003 41.1646 52.4739 41.0488 52.386 40.9937C49.1688 38.9761 44.908 39.405 42.1566 42.1564C39.406 44.907 38.9759 49.1677 40.9941 52.3858L40.9942 52.3859C41.0578 52.4874 41.2003 52.5042 41.286 52.4185C41.3464 52.3581 41.3588 52.2615 41.3117 52.1865M52.4453 41.2524L52.1866 41.3115C49.0558 39.348 45.0381 39.8053 42.4218 42.4216C39.8055 45.0379 39.3482 49.0554 41.3117 52.1865M52.4453 41.2524C52.3905 41.3397 52.2747 41.3666 52.1867 41.3115L52.4453 41.2524ZM41.3117 52.1865L41.7353 51.9208L41.3117 52.1865Z" stroke="#5285FC"/>
</g>
<path d="M83 48C83 67.33 67.33 83 48 83C28.67 83 13 67.33 13 48C13 28.67 28.67 13 48 13C67.33 13 83 28.67 83 48ZM20 48C20 63.464 32.536 76 48 76C63.464 76 76 63.464 76 48C76 32.536 63.464 20 48 20C32.536 20 20 32.536 20 48Z" fill="#EFF0F6"/>
<path d="M63.7497 75.2799C64.7162 76.954 64.1483 79.1122 62.3861 79.9067C58.226 81.7825 53.7283 82.8314 49.1448 82.9814C43.3921 83.1697 37.6818 81.9364 32.5196 79.3907C27.3573 76.845 22.9026 73.0654 19.55 68.3869C16.1974 63.7083 14.0504 58.2751 13.2991 52.5686C12.5478 46.862 13.2155 41.0583 15.2429 35.6714C17.2704 30.2845 20.5951 25.4808 24.9225 21.6858C29.25 17.8907 34.4466 15.2215 40.052 13.9145C44.5181 12.8731 49.134 12.7221 53.6379 13.4573C55.5456 13.7687 56.6527 15.7064 56.1524 17.5735C55.6521 19.4406 53.733 20.5253 51.8181 20.2617C48.4354 19.7961 44.986 19.9518 41.6415 20.7316C37.1572 21.7772 32.9999 23.9126 29.538 26.9486C26.076 29.9847 23.4163 33.8277 21.7943 38.1372C20.1723 42.4467 19.6382 47.0897 20.2392 51.6549C20.8402 56.2201 22.5579 60.5667 25.24 64.3095C27.922 68.0524 31.4858 71.076 35.6156 73.1126C39.7453 75.1492 44.3136 76.1358 48.9158 75.9852C52.3481 75.8728 55.7203 75.1304 58.8672 73.8051C60.6486 73.0549 62.7832 73.6059 63.7497 75.2799Z" fill="#C0D3FF"/>
<g filter="url(#filter0_d_0_1)">
<path d="M75.2795 32.2499C76.9535 31.2834 79.1117 31.8512 79.9062 33.6134C81.782 37.7735 82.8309 42.2712 82.9809 46.8547C83.1692 52.6074 81.9359 58.3178 79.3902 63.48C76.8445 68.6422 73.0649 73.0969 68.3864 76.4495C63.7078 79.8021 58.2746 81.9491 52.5681 82.7004C46.8615 83.4517 41.0578 82.784 35.6709 80.7566C30.284 78.7291 25.4803 75.4044 21.6853 71.077C17.8902 66.7495 15.221 61.553 13.914 55.9475C12.8726 51.4814 12.7216 46.8655 13.4568 42.3616C13.7682 40.4539 15.7059 39.3468 17.573 39.8471C19.4401 40.3474 20.5248 42.2665 20.2612 44.1815C19.7956 47.5641 19.9513 51.0135 20.7311 54.358C21.7767 58.8423 23.9121 62.9996 26.9481 66.4615C29.9842 69.9235 33.8272 72.5832 38.1367 74.2052C42.4462 75.8272 47.0892 76.3613 51.6544 75.7603C56.2196 75.1593 60.5662 73.4417 64.309 70.7596C68.0519 68.0775 71.0755 64.5137 73.1121 60.3839C75.1487 56.2542 76.1353 51.6859 75.9847 47.0837C75.8723 43.6514 75.1299 40.2792 73.8046 37.1323C73.0544 35.3509 73.6054 33.2164 75.2795 32.2499Z" fill="#8BAEFF"/>
</g>
<g filter="url(#filter1_d_0_1)">
<path d="M48 16.5C48 14.567 49.5709 12.9819 51.4942 13.1749C56.0349 13.6304 60.4544 14.9709 64.4989 17.1328C69.575 19.846 73.9037 23.7693 77.1014 28.555C80.2992 33.3408 82.2673 38.8413 82.8315 44.5694C83.3956 50.2975 82.5384 56.0763 80.3358 61.3939C78.1331 66.7116 74.653 71.4039 70.2038 75.0554C65.7545 78.7068 60.4734 81.2046 54.8282 82.3275C49.183 83.4504 43.348 83.1637 37.84 81.4929C33.4516 80.1617 29.3786 77.9845 25.8457 75.0959C24.3492 73.8724 24.3593 71.6407 25.7261 70.2739C27.093 68.907 29.2974 68.9272 30.824 70.113C33.5206 72.2076 36.5857 73.7974 39.872 74.7943C44.2784 76.131 48.9464 76.3603 53.4625 75.462C57.9787 74.5637 62.2036 72.5654 65.763 69.6443C69.3224 66.7231 72.1065 62.9693 73.8686 58.7151C75.6307 54.461 76.3165 49.838 75.8652 45.2555C75.4138 40.6731 73.8393 36.2726 71.2811 32.444C68.723 28.6154 65.26 25.4768 61.1991 23.3062C58.1704 21.6873 54.8788 20.6442 51.4909 20.2185C49.573 19.9775 48 18.433 48 16.5Z" fill="#5285FC"/>
</g>
<path d="M48 16.5C48 14.567 49.5709 12.9819 51.4943 13.1748C57.182 13.7455 62.6625 15.7031 67.445 18.8986C73.2007 22.7444 77.6867 28.2107 80.3358 34.6061C82.9848 41.0015 83.678 48.0388 82.3275 54.8282C81.2054 60.4694 78.7143 65.7289 75.0959 70.1543C73.8724 71.6507 71.6407 71.6407 70.2739 70.2739C68.907 68.907 68.9273 66.7026 70.113 65.176C72.772 61.7527 74.6101 57.7451 75.462 53.4625C76.5424 48.0311 75.9879 42.4012 73.8686 37.2849C71.7494 32.1685 68.1605 27.7955 63.556 24.7189C59.9254 22.293 55.7918 20.7589 51.491 20.2185C49.5731 19.9775 48 18.433 48 16.5Z" fill="#2F6CFA"/>
<defs>
<filter id="filter0_d_0_1" x="8.99951" y="31.7822" width="78" height="59.2178" filterUnits="userSpaceOnUse" color-interpolation-filters="sRGB">
<feFlood flood-opacity="0" result="BackgroundImageFix"/>
<feColorMatrix in="SourceAlpha" type="matrix" values="0 0 0 0 0 0 0 0 0 0 0 0 0 0 0 0 0 0 127 0" result="hardAlpha"/>
<feOffset dy="4"/>
<feGaussianBlur stdDeviation="2"/>
<feComposite in2="hardAlpha" operator="out"/>
<feColorMatrix type="matrix" values="0 0 0 0 0.545098 0 0 0 0 0.682353 0 0 0 0 1 0 0 0 0.25 0"/>
<feBlend mode="normal" in2="BackgroundImageFix" result="effect1_dropShadow_0_1"/>
<feBlend mode="normal" in="SourceGraphic" in2="effect1_dropShadow_0_1" result="shape"/>
</filter>
<filter id="filter1_d_0_1" x="20.7119" y="13.1587" width="66.2881" height="77.8413" filterUnits="userSpaceOnUse" color-interpolation-filters="sRGB">
<feFlood flood-opacity="0" result="BackgroundImageFix"/>
<feColorMatrix in="SourceAlpha" type="matrix" values="0 0 0 0 0 0 0 0 0 0 0 0 0 0 0 0 0 0 127 0" result="hardAlpha"/>
<feOffset dy="4"/>
<feGaussianBlur stdDeviation="2"/>
<feComposite in2="hardAlpha" operator="out"/>
<feColorMatrix type="matrix" values="0 0 0 0 0.321569 0 0 0 0 0.521569 0 0 0 0 0.988235 0 0 0 0.25 0"/>
<feBlend mode="normal" in2="BackgroundImageFix" result="effect1_dropShadow_0_1"/>
<feBlend mode="normal" in="SourceGraphic" in2="effect1_dropShadow_0_1" result="shape"/>
</filter>
</defs>
</svg>


