<svg width="24" height="24" viewBox="0 0 24 24" fill="none" xmlns="http://www.w3.org/2000/svg">
<path d="M2.12708 7C2.04363 7.22279 2 7.46027 2 7.70156V20C2 21.1046 2.89543 22 4 22H20C21.1046 22 22 21.1046 22 20V7.70156C22 7.46027 21.9564 7.22279 21.8729 7M2.12708 7C2.2007 6.80347 2.3053 6.61838 2.43826 6.45217L5.39951 2.75061C5.77906 2.27618 6.35368 2 6.96125 2H17.0387C17.6463 2 18.2209 2.27618 18.6005 2.75061L21.5617 6.45217C21.6947 6.61838 21.7993 6.80347 21.8729 7M2.12708 7H21.8729M10 11H14" stroke="white" stroke-width="2" stroke-linecap="round"/>
</svg>
