<svg width="30" height="24" viewBox="0 0 30 24" fill="none" xmlns="http://www.w3.org/2000/svg">
<path d="M6.56985 1.3335C3.86225 1.3335 1.6673 3.52844 1.6673 6.23605V9.50442C1.6673 9.78004 1.6665 10.0501 1.6665 10.3215V17.533C1.6665 18.2311 2.48533 18.6077 3.01535 18.1534L6.82441 14.8885C7.1869 14.5778 7.64857 14.407 8.126 14.407H16.375C19.0826 14.407 21.2775 12.212 21.2775 9.50442V6.23605C21.2775 3.52844 19.0826 1.3335 16.375 1.3335H6.56985Z" stroke="#14142B" stroke-width="2"/>
<path d="M24.5451 5.41846C27.2527 5.41846 28.6305 7.6134 28.6305 10.321V13.5894C28.6305 13.865 28.6313 14.135 28.6313 14.4065V21.6179C28.6313 22.316 27.8125 22.6926 27.2825 22.2383L23.4734 18.9734C23.111 18.6627 22.6493 18.4919 22.1719 18.4919H13.9229C12.4709 18.4919 11.5522 18.6778 10.6545 17.6748" stroke="#14142B" stroke-width="2" stroke-linecap="round"/>
</svg>
