<svg width="20" height="20" viewBox="0 0 20 20" fill="none" xmlns="http://www.w3.org/2000/svg">
<path d="M2.27815 4.40014L1.89404 4.72024H1.89404L2.27815 4.40014ZM7.94716 11.2029L7.56305 11.523L7.94716 11.2029ZM9.00012 17.1665L9.30012 16.7665L9.00012 17.1665ZM10.3335 18.1665L10.6335 17.7665L10.6335 17.7665L10.3335 18.1665ZM12.0531 11.2029L12.4372 11.523V11.523L12.0531 11.2029ZM17.7221 4.40014L18.1062 4.72023L17.7221 4.40014ZM1.89404 4.72024L7.56305 11.523L8.33127 10.8829L2.66227 4.08005L1.89404 4.72024ZM7.83345 12.2699V15.8332H8.83345V12.2699H7.83345ZM8.70012 17.5665L10.0335 18.5665L10.6335 17.7665L9.30012 16.7665L8.70012 17.5665ZM12.1668 17.4998V12.2699H11.1668V17.4998H12.1668ZM12.4372 11.523L18.1062 4.72023L17.338 4.08005L11.669 10.8829L12.4372 11.523ZM16.4417 1.1665H3.55852V2.1665H16.4417V1.1665ZM18.1062 4.72023C19.2822 3.30903 18.2787 1.1665 16.4417 1.1665V2.1665C17.4309 2.1665 17.9712 3.32017 17.338 4.08005L18.1062 4.72023ZM12.1668 12.2699C12.1668 11.997 12.2625 11.7327 12.4372 11.523L11.669 10.8829C11.3445 11.2722 11.1668 11.7631 11.1668 12.2699H12.1668ZM10.0335 18.5665C10.9124 19.2257 12.1668 18.5986 12.1668 17.4998H11.1668C11.1668 17.7745 10.8532 17.9313 10.6335 17.7665L10.0335 18.5665ZM7.83345 15.8332C7.83345 16.5151 8.15454 17.1573 8.70012 17.5665L9.30012 16.7665C9.00635 16.5462 8.83345 16.2004 8.83345 15.8332H7.83345ZM7.56305 11.523C7.73777 11.7327 7.83345 11.997 7.83345 12.2699H8.83345C8.83345 11.7631 8.65575 11.2722 8.33127 10.8829L7.56305 11.523ZM2.66227 4.08005C2.02903 3.32017 2.56938 2.1665 3.55852 2.1665V1.1665C1.72154 1.1665 0.718037 3.30903 1.89404 4.72024L2.66227 4.08005Z" fill="white"/>
</svg>
