<svg width="27" height="23" viewBox="0 0 27 23" fill="none" xmlns="http://www.w3.org/2000/svg">
<path fill-rule="evenodd" clip-rule="evenodd" d="M19.7071 8.70711C20.0976 8.31658 20.0976 7.68342 19.7071 7.29289C19.3166 6.90237 18.6834 6.90237 18.2929 7.29289L15.4545 10.1313C14.9256 9.83536 14.3158 9.66667 13.6667 9.66667C11.6416 9.66667 10 11.3083 10 13.3333C10 15.3584 11.6416 17 13.6667 17C15.6917 17 17.3333 15.3584 17.3333 13.3333C17.3333 12.6842 17.1646 12.0744 16.8687 11.5455L19.7071 8.70711ZM12 13.3333C12 12.4129 12.7462 11.6667 13.6667 11.6667C14.5871 11.6667 15.3333 12.4129 15.3333 13.3333C15.3333 14.2538 14.5871 15 13.6667 15C12.7462 15 12 14.2538 12 13.3333Z" fill="black"/>
<path fill-rule="evenodd" clip-rule="evenodd" d="M13.6665 2.3335C7.59137 2.3335 2.6665 7.25836 2.6665 13.3335C2.6665 16.3752 3.89972 19.1269 5.89585 21.1192C6.28675 21.5093 6.28736 22.1425 5.89721 22.5334C5.50706 22.9243 4.8739 22.9249 4.483 22.5348C2.12634 20.1826 0.666504 16.9276 0.666504 13.3335C0.666504 6.15379 6.4868 0.333496 13.6665 0.333496C20.8462 0.333496 26.6665 6.15379 26.6665 13.3335C26.6665 16.9231 25.2103 20.1744 22.8589 22.5259C22.4684 22.9164 21.8352 22.9164 21.4447 22.5259C21.0542 22.1354 21.0542 21.5022 21.4447 21.1117C23.4364 19.12 24.6665 16.3713 24.6665 13.3335C24.6665 7.25836 19.7416 2.3335 13.6665 2.3335Z" fill="black"/>
</svg>
