<svg width="492" height="260" viewBox="0 0 492 260" fill="none" xmlns="http://www.w3.org/2000/svg">
<line opacity="0.6" x1="335.5" y1="214" x2="335.5" y2="22" stroke="#1E2029" stroke-dasharray="4 4"/>
<g opacity="0.1">
<line x1="4" y1="202.5" x2="484" y2="202.5" stroke="#1E2029" stroke-dasharray="8 8"/>
<line x1="4" y1="146.5" x2="484" y2="146.5" stroke="#1E2029" stroke-dasharray="8 8"/>
<line x1="4" y1="91.5" x2="484" y2="91.5" stroke="#1E2029" stroke-dasharray="8 8"/>
</g>
<mask id="mask0_6_4606" style="mask-type:alpha" maskUnits="userSpaceOnUse" x="0" y="60" width="489" height="173">
<rect y="60" width="489" height="173" fill="#D9D9D9"/>
</mask>
<g mask="url(#mask0_6_4606)">
<g filter="url(#filter0_d_6_4606)">
<path d="M-3.99999 65L-3.99999 80.5792L1.14094 80.5792C6.28191 80.5792 16.5639 80.5792 26.3785 99.057C36.6604 117.172 46.9424 153.765 57.2243 151.229C67.5063 148.331 77.7882 106.665 87.6028 104.129C97.8847 101.593 108.167 138.186 118.449 145.795C128.731 153.765 138.545 132.752 148.827 130.215C159.109 127.679 169.391 143.259 179.673 158.838C189.955 174.417 199.769 190.359 210.051 184.924C220.333 179.852 230.615 153.765 240.897 151.229C250.712 148.331 260.994 169.345 271.276 158.838C281.558 148.331 291.84 106.665 302.122 99.057C311.936 91.0862 322.218 117.172 332.5 119.709C342.782 122.245 353.064 101.593 362.878 104.129C373.16 106.665 383.442 132.752 393.724 145.795C404.006 158.838 414.288 158.838 424.103 164.272C434.385 169.345 444.667 179.852 454.949 184.924C465.231 190.359 475.045 190.359 485.327 184.924C495.609 179.852 505.891 169.345 516.173 169.345C526.455 169.345 536.269 179.852 546.551 182.388C556.833 184.924 567.115 179.852 577.397 177.316C587.212 174.417 597.494 174.417 607.776 177.316C618.058 179.852 628.34 184.924 638.622 171.881C648.436 158.838 658.718 127.679 663.859 112.1L669 96.1586L669 65.0001" stroke="#9664FF" stroke-width="4"/>
</g>
</g>
<path d="M325.204 230.524L322.012 238H320.308L323.524 230.716H319.42V229.276H325.204V230.524ZM333.714 229.624V235.504C333.714 236.32 333.478 236.956 333.006 237.412C332.534 237.86 331.902 238.084 331.11 238.084C330.31 238.084 329.662 237.852 329.166 237.388C328.678 236.924 328.434 236.276 328.434 235.444H330.114C330.122 235.804 330.206 236.084 330.366 236.284C330.534 236.484 330.774 236.584 331.086 236.584C331.39 236.584 331.622 236.488 331.782 236.296C331.942 236.104 332.022 235.84 332.022 235.504V229.624H333.714ZM341.733 231.352V238H340.041V237.16C339.825 237.448 339.541 237.676 339.189 237.844C338.845 238.004 338.469 238.084 338.061 238.084C337.541 238.084 337.081 237.976 336.681 237.76C336.281 237.536 335.965 237.212 335.733 236.788C335.509 236.356 335.397 235.844 335.397 235.252V231.352H337.077V235.012C337.077 235.54 337.209 235.948 337.473 236.236C337.737 236.516 338.097 236.656 338.553 236.656C339.017 236.656 339.381 236.516 339.645 236.236C339.909 235.948 340.041 235.54 340.041 235.012V231.352H341.733ZM344.855 229.12V238H343.175V229.12H344.855ZM352.659 231.352L348.543 241.144H346.755L348.195 237.832L345.531 231.352H347.415L349.131 235.996L350.871 231.352H352.659Z" fill="#1E2029"/>
<path opacity="0.4" d="M386.696 233.428C385.864 233.012 385.448 232.356 385.448 231.46C385.448 231.028 385.556 230.632 385.772 230.272C385.988 229.912 386.312 229.628 386.744 229.42C387.176 229.204 387.704 229.096 388.328 229.096C388.944 229.096 389.468 229.204 389.9 229.42C390.34 229.628 390.668 229.912 390.884 230.272C391.1 230.632 391.208 231.028 391.208 231.46C391.208 231.908 391.092 232.304 390.86 232.648C390.636 232.984 390.336 233.244 389.96 233.428C390.416 233.596 390.776 233.872 391.04 234.256C391.304 234.632 391.436 235.076 391.436 235.588C391.436 236.108 391.304 236.568 391.04 236.968C390.776 237.368 390.408 237.676 389.936 237.892C389.464 238.108 388.928 238.216 388.328 238.216C387.728 238.216 387.192 238.108 386.72 237.892C386.256 237.676 385.892 237.368 385.628 236.968C385.364 236.568 385.232 236.108 385.232 235.588C385.232 235.068 385.364 234.62 385.628 234.244C385.892 233.868 386.248 233.596 386.696 233.428ZM389.9 231.628C389.9 231.18 389.76 230.836 389.48 230.596C389.2 230.356 388.816 230.236 388.328 230.236C387.848 230.236 387.468 230.356 387.188 230.596C386.908 230.836 386.768 231.184 386.768 231.64C386.768 232.04 386.912 232.368 387.2 232.624C387.496 232.872 387.872 232.996 388.328 232.996C388.784 232.996 389.16 232.868 389.456 232.612C389.752 232.356 389.9 232.028 389.9 231.628ZM388.328 234.028C387.8 234.028 387.368 234.16 387.032 234.424C386.704 234.68 386.54 235.052 386.54 235.54C386.54 235.996 386.7 236.368 387.02 236.656C387.34 236.936 387.776 237.076 388.328 237.076C388.872 237.076 389.3 236.932 389.612 236.644C389.932 236.356 390.092 235.988 390.092 235.54C390.092 235.06 389.928 234.688 389.6 234.424C389.28 234.16 388.856 234.028 388.328 234.028ZM400.286 229.66V235.672C400.286 236.416 400.058 237.004 399.602 237.436C399.154 237.868 398.562 238.084 397.826 238.084C397.09 238.084 396.494 237.868 396.038 237.436C395.59 237.004 395.366 236.416 395.366 235.672H396.746C396.754 236.04 396.846 236.332 397.022 236.548C397.206 236.764 397.474 236.872 397.826 236.872C398.178 236.872 398.446 236.764 398.63 236.548C398.814 236.324 398.906 236.032 398.906 235.672V229.66H400.286ZM408.283 231.388V238H406.915V237.22C406.699 237.492 406.415 237.708 406.063 237.868C405.719 238.02 405.351 238.096 404.959 238.096C404.439 238.096 403.971 237.988 403.555 237.772C403.147 237.556 402.823 237.236 402.583 236.812C402.351 236.388 402.235 235.876 402.235 235.276V231.388H403.591V235.072C403.591 235.664 403.739 236.12 404.035 236.44C404.331 236.752 404.735 236.908 405.247 236.908C405.759 236.908 406.163 236.752 406.459 236.44C406.763 236.12 406.915 235.664 406.915 235.072V231.388H408.283ZM411.24 229.12V238H409.872V229.12H411.24ZM418.772 231.388L414.716 241.108H413.3L414.644 237.892L412.04 231.388H413.564L415.424 236.428L417.356 231.388H418.772Z" fill="#1E2029"/>
<path opacity="0.4" d="M452.924 235.624C453.004 236.024 453.176 236.328 453.44 236.536C453.704 236.744 454.06 236.848 454.508 236.848C455.076 236.848 455.492 236.624 455.756 236.176C456.02 235.728 456.152 234.964 456.152 233.884C455.96 234.156 455.688 234.368 455.336 234.52C454.992 234.664 454.616 234.736 454.208 234.736C453.688 234.736 453.216 234.632 452.792 234.424C452.368 234.208 452.032 233.892 451.784 233.476C451.544 233.052 451.424 232.54 451.424 231.94C451.424 231.06 451.68 230.36 452.192 229.84C452.712 229.312 453.424 229.048 454.328 229.048C455.416 229.048 456.188 229.412 456.644 230.14C457.108 230.86 457.34 231.968 457.34 233.464C457.34 234.496 457.252 235.34 457.076 235.996C456.908 236.652 456.612 237.148 456.188 237.484C455.764 237.82 455.176 237.988 454.424 237.988C453.568 237.988 452.908 237.764 452.444 237.316C451.98 236.868 451.72 236.304 451.664 235.624H452.924ZM454.448 233.584C454.928 233.584 455.304 233.436 455.576 233.14C455.856 232.836 455.996 232.436 455.996 231.94C455.996 231.388 455.848 230.96 455.552 230.656C455.264 230.344 454.868 230.188 454.364 230.188C453.86 230.188 453.46 230.348 453.164 230.668C452.876 230.98 452.732 231.392 452.732 231.904C452.732 232.392 452.872 232.796 453.152 233.116C453.44 233.428 453.872 233.584 454.448 233.584ZM466.25 229.66V235.672C466.25 236.416 466.022 237.004 465.566 237.436C465.118 237.868 464.526 238.084 463.79 238.084C463.054 238.084 462.458 237.868 462.002 237.436C461.554 237.004 461.33 236.416 461.33 235.672H462.71C462.718 236.04 462.81 236.332 462.986 236.548C463.17 236.764 463.438 236.872 463.79 236.872C464.142 236.872 464.41 236.764 464.594 236.548C464.778 236.324 464.87 236.032 464.87 235.672V229.66H466.25ZM474.248 231.388V238H472.88V237.22C472.664 237.492 472.38 237.708 472.028 237.868C471.684 238.02 471.316 238.096 470.924 238.096C470.404 238.096 469.936 237.988 469.52 237.772C469.112 237.556 468.788 237.236 468.548 236.812C468.316 236.388 468.2 235.876 468.2 235.276V231.388H469.556V235.072C469.556 235.664 469.704 236.12 470 236.44C470.296 236.752 470.7 236.908 471.212 236.908C471.724 236.908 472.128 236.752 472.424 236.44C472.728 236.12 472.88 235.664 472.88 235.072V231.388H474.248ZM477.205 229.12V238H475.837V229.12H477.205ZM484.737 231.388L480.681 241.108H479.265L480.609 237.892L478.005 231.388H479.529L481.389 236.428L483.321 231.388H484.737Z" fill="#1E2029"/>
<path opacity="0.4" d="M257.924 231.28C257.836 230.912 257.676 230.636 257.444 230.452C257.212 230.268 256.888 230.176 256.472 230.176C255.84 230.176 255.368 230.42 255.056 230.908C254.744 231.388 254.58 232.188 254.564 233.308C254.772 232.956 255.076 232.684 255.476 232.492C255.876 232.3 256.308 232.204 256.772 232.204C257.3 232.204 257.764 232.32 258.164 232.552C258.572 232.776 258.888 233.104 259.112 233.536C259.344 233.968 259.46 234.484 259.46 235.084C259.46 235.644 259.348 236.144 259.124 236.584C258.908 237.024 258.584 237.372 258.152 237.628C257.72 237.876 257.2 238 256.592 238C255.768 238 255.12 237.82 254.648 237.46C254.184 237.092 253.856 236.576 253.664 235.912C253.48 235.248 253.388 234.42 253.388 233.428C253.388 230.5 254.42 229.036 256.484 229.036C257.284 229.036 257.912 229.252 258.368 229.684C258.832 230.116 259.104 230.648 259.184 231.28H257.924ZM256.472 233.356C255.984 233.356 255.568 233.504 255.224 233.8C254.888 234.088 254.72 234.508 254.72 235.06C254.72 235.612 254.876 236.052 255.188 236.38C255.508 236.7 255.952 236.86 256.52 236.86C257.024 236.86 257.42 236.704 257.708 236.392C258.004 236.08 258.152 235.664 258.152 235.144C258.152 234.6 258.008 234.168 257.72 233.848C257.44 233.52 257.024 233.356 256.472 233.356ZM268.332 229.66V235.672C268.332 236.416 268.104 237.004 267.648 237.436C267.2 237.868 266.608 238.084 265.872 238.084C265.136 238.084 264.54 237.868 264.084 237.436C263.636 237.004 263.412 236.416 263.412 235.672H264.792C264.8 236.04 264.892 236.332 265.068 236.548C265.252 236.764 265.52 236.872 265.872 236.872C266.224 236.872 266.492 236.764 266.676 236.548C266.86 236.324 266.952 236.032 266.952 235.672V229.66H268.332ZM276.33 231.388V238H274.962V237.22C274.746 237.492 274.462 237.708 274.11 237.868C273.766 238.02 273.398 238.096 273.006 238.096C272.486 238.096 272.018 237.988 271.602 237.772C271.194 237.556 270.87 237.236 270.63 236.812C270.398 236.388 270.282 235.876 270.282 235.276V231.388H271.638V235.072C271.638 235.664 271.786 236.12 272.082 236.44C272.378 236.752 272.782 236.908 273.294 236.908C273.806 236.908 274.21 236.752 274.506 236.44C274.81 236.12 274.962 235.664 274.962 235.072V231.388H276.33ZM279.287 229.12V238H277.919V229.12H279.287ZM286.819 231.388L282.763 241.108H281.347L282.691 237.892L280.087 231.388H281.611L283.471 236.428L285.403 231.388H286.819Z" fill="#1E2029"/>
<path opacity="0.4" d="M192.86 230.428H188.84V232.816C189.008 232.592 189.256 232.404 189.584 232.252C189.92 232.1 190.276 232.024 190.652 232.024C191.324 232.024 191.868 232.168 192.284 232.456C192.708 232.744 193.008 233.108 193.184 233.548C193.368 233.988 193.46 234.452 193.46 234.94C193.46 235.532 193.344 236.06 193.112 236.524C192.888 236.98 192.548 237.34 192.092 237.604C191.644 237.868 191.092 238 190.436 238C189.564 238 188.864 237.784 188.336 237.352C187.808 236.92 187.492 236.348 187.388 235.636H188.72C188.808 236.012 189.004 236.312 189.308 236.536C189.612 236.752 189.992 236.86 190.448 236.86C191.016 236.86 191.44 236.688 191.72 236.344C192.008 236 192.152 235.544 192.152 234.976C192.152 234.4 192.008 233.96 191.72 233.656C191.432 233.344 191.008 233.188 190.448 233.188C190.056 233.188 189.724 233.288 189.452 233.488C189.188 233.68 188.996 233.944 188.876 234.28H187.58V229.228H192.86V230.428ZM202.297 229.66V235.672C202.297 236.416 202.069 237.004 201.613 237.436C201.165 237.868 200.573 238.084 199.837 238.084C199.101 238.084 198.505 237.868 198.049 237.436C197.601 237.004 197.377 236.416 197.377 235.672H198.757C198.765 236.04 198.857 236.332 199.033 236.548C199.217 236.764 199.485 236.872 199.837 236.872C200.189 236.872 200.457 236.764 200.641 236.548C200.825 236.324 200.917 236.032 200.917 235.672V229.66H202.297ZM210.295 231.388V238H208.927V237.22C208.711 237.492 208.427 237.708 208.075 237.868C207.731 238.02 207.363 238.096 206.971 238.096C206.451 238.096 205.983 237.988 205.567 237.772C205.159 237.556 204.835 237.236 204.595 236.812C204.363 236.388 204.247 235.876 204.247 235.276V231.388H205.603V235.072C205.603 235.664 205.751 236.12 206.047 236.44C206.343 236.752 206.747 236.908 207.259 236.908C207.771 236.908 208.175 236.752 208.471 236.44C208.775 236.12 208.927 235.664 208.927 235.072V231.388H210.295ZM213.252 229.12V238H211.884V229.12H213.252ZM220.784 231.388L216.728 241.108H215.312L216.656 237.892L214.052 231.388H215.576L217.436 236.428L219.368 231.388H220.784Z" fill="#1E2029"/>
<path opacity="0.4" d="M121.052 236.176V235.144L125.084 229.36H126.74V234.988H127.856V236.176H126.74V238H125.396V236.176H121.052ZM125.456 230.752L122.624 234.988H125.456V230.752ZM136.403 229.66V235.672C136.403 236.416 136.175 237.004 135.719 237.436C135.271 237.868 134.679 238.084 133.943 238.084C133.207 238.084 132.611 237.868 132.155 237.436C131.707 237.004 131.483 236.416 131.483 235.672H132.863C132.871 236.04 132.963 236.332 133.139 236.548C133.323 236.764 133.591 236.872 133.943 236.872C134.295 236.872 134.563 236.764 134.747 236.548C134.931 236.324 135.023 236.032 135.023 235.672V229.66H136.403ZM144.4 231.388V238H143.032V237.22C142.816 237.492 142.532 237.708 142.18 237.868C141.836 238.02 141.468 238.096 141.076 238.096C140.556 238.096 140.088 237.988 139.672 237.772C139.264 237.556 138.94 237.236 138.7 236.812C138.468 236.388 138.352 235.876 138.352 235.276V231.388H139.708V235.072C139.708 235.664 139.856 236.12 140.152 236.44C140.448 236.752 140.852 236.908 141.364 236.908C141.876 236.908 142.28 236.752 142.576 236.44C142.88 236.12 143.032 235.664 143.032 235.072V231.388H144.4ZM147.357 229.12V238H145.989V229.12H147.357ZM154.889 231.388L150.833 241.108H149.417L150.761 237.892L148.157 231.388H149.681L151.541 236.428L153.473 231.388H154.889Z" fill="#1E2029"/>
<path opacity="0.4" d="M55.696 231.412C55.744 230.668 56.028 230.088 56.548 229.672C57.076 229.256 57.748 229.048 58.564 229.048C59.124 229.048 59.608 229.148 60.016 229.348C60.424 229.548 60.732 229.82 60.94 230.164C61.148 230.508 61.252 230.896 61.252 231.328C61.252 231.824 61.12 232.248 60.856 232.6C60.592 232.952 60.276 233.188 59.908 233.308V233.356C60.38 233.5 60.748 233.764 61.012 234.148C61.276 234.524 61.408 235.008 61.408 235.6C61.408 236.072 61.3 236.492 61.084 236.86C60.868 237.228 60.548 237.52 60.124 237.736C59.7 237.944 59.192 238.048 58.6 238.048C57.736 238.048 57.024 237.828 56.464 237.388C55.912 236.94 55.616 236.3 55.576 235.468H56.896C56.928 235.892 57.092 236.24 57.388 236.512C57.684 236.776 58.084 236.908 58.588 236.908C59.076 236.908 59.452 236.776 59.716 236.512C59.98 236.24 60.112 235.892 60.112 235.468C60.112 234.908 59.932 234.512 59.572 234.28C59.22 234.04 58.676 233.92 57.94 233.92H57.628V232.792H57.952C58.6 232.784 59.092 232.676 59.428 232.468C59.772 232.26 59.944 231.932 59.944 231.484C59.944 231.1 59.82 230.796 59.572 230.572C59.324 230.34 58.972 230.224 58.516 230.224C58.068 230.224 57.72 230.34 57.472 230.572C57.224 230.796 57.076 231.076 57.028 231.412H55.696ZM70.2582 229.66V235.672C70.2582 236.416 70.0302 237.004 69.5742 237.436C69.1262 237.868 68.5342 238.084 67.7982 238.084C67.0622 238.084 66.4662 237.868 66.0102 237.436C65.5622 237.004 65.3382 236.416 65.3382 235.672H66.7182C66.7262 236.04 66.8182 236.332 66.9942 236.548C67.1782 236.764 67.4462 236.872 67.7982 236.872C68.1502 236.872 68.4182 236.764 68.6022 236.548C68.7862 236.324 68.8782 236.032 68.8782 235.672V229.66H70.2582ZM78.2556 231.388V238H76.8876V237.22C76.6716 237.492 76.3876 237.708 76.0356 237.868C75.6916 238.02 75.3236 238.096 74.9316 238.096C74.4116 238.096 73.9436 237.988 73.5276 237.772C73.1196 237.556 72.7956 237.236 72.5556 236.812C72.3236 236.388 72.2076 235.876 72.2076 235.276V231.388H73.5636V235.072C73.5636 235.664 73.7116 236.12 74.0076 236.44C74.3036 236.752 74.7076 236.908 75.2196 236.908C75.7316 236.908 76.1356 236.752 76.4316 236.44C76.7356 236.12 76.8876 235.664 76.8876 235.072V231.388H78.2556ZM81.2126 229.12V238H79.8446V229.12H81.2126ZM88.7447 231.388L84.6887 241.108H83.2727L84.6167 237.892L82.0127 231.388H83.5367L85.3967 236.428L87.3287 231.388H88.7447Z" fill="#1E2029"/>
<rect x="397" y="22" width="95" height="192" fill="url(#paint0_linear_6_4606)"/>
<rect width="97" height="189" transform="matrix(-1 0 0 1 97 22)" fill="url(#paint1_linear_6_4606)"/>
<path opacity="0.4" d="M7.528 196.624C7.528 197.024 7.428 197.4 7.228 197.752C7.036 198.104 6.748 198.4 6.364 198.64C5.988 198.88 5.54 199.024 5.02 199.072V200.044H4.24V199.072C3.488 199 2.88 198.764 2.416 198.364C1.952 197.964 1.72 197.436 1.72 196.78H3.184C3.208 197.092 3.308 197.352 3.484 197.56C3.66 197.76 3.912 197.888 4.24 197.944V195.304C3.704 195.168 3.268 195.032 2.932 194.896C2.596 194.752 2.308 194.528 2.068 194.224C1.836 193.92 1.72 193.504 1.72 192.976C1.72 192.312 1.952 191.764 2.416 191.332C2.88 190.892 3.488 190.636 4.24 190.564V189.592H5.02V190.564C5.724 190.628 6.288 190.852 6.712 191.236C7.144 191.612 7.388 192.132 7.444 192.796H5.98C5.956 192.548 5.86 192.328 5.692 192.136C5.524 191.936 5.3 191.8 5.02 191.728V194.32C5.556 194.448 5.992 194.584 6.328 194.728C6.664 194.864 6.948 195.084 7.18 195.388C7.412 195.684 7.528 196.096 7.528 196.624ZM3.112 192.904C3.112 193.232 3.208 193.488 3.4 193.672C3.6 193.856 3.88 194.004 4.24 194.116V191.692C3.896 191.732 3.62 191.856 3.412 192.064C3.212 192.272 3.112 192.552 3.112 192.904ZM5.02 197.944C5.372 197.888 5.648 197.748 5.848 197.524C6.048 197.292 6.148 197.016 6.148 196.696C6.148 196.376 6.048 196.128 5.848 195.952C5.656 195.768 5.38 195.62 5.02 195.508V197.944ZM10.0647 197.14C10.8327 196.476 11.4367 195.932 11.8767 195.508C12.3247 195.076 12.6967 194.628 12.9927 194.164C13.2887 193.7 13.4367 193.236 13.4367 192.772C13.4367 192.292 13.3207 191.916 13.0887 191.644C12.8647 191.372 12.5087 191.236 12.0207 191.236C11.5487 191.236 11.1807 191.388 10.9167 191.692C10.6607 191.988 10.5247 192.388 10.5087 192.892H9.18869C9.21269 191.98 9.48469 191.284 10.0047 190.804C10.5327 190.316 11.2007 190.072 12.0087 190.072C12.8807 190.072 13.5607 190.312 14.0487 190.792C14.5447 191.272 14.7927 191.912 14.7927 192.712C14.7927 193.288 14.6447 193.844 14.3487 194.38C14.0607 194.908 13.7127 195.384 13.3047 195.808C12.9047 196.224 12.3927 196.708 11.7687 197.26L11.2287 197.74H15.0327V198.88H9.20069V197.884L10.0647 197.14ZM16.0185 194.512C16.0185 193.128 16.2505 192.048 16.7145 191.272C17.1865 190.488 17.9945 190.096 19.1385 190.096C20.2825 190.096 21.0865 190.488 21.5505 191.272C22.0225 192.048 22.2585 193.128 22.2585 194.512C22.2585 195.912 22.0225 197.008 21.5505 197.8C21.0865 198.584 20.2825 198.976 19.1385 198.976C17.9945 198.976 17.1865 198.584 16.7145 197.8C16.2505 197.008 16.0185 195.912 16.0185 194.512ZM20.9145 194.512C20.9145 193.864 20.8705 193.316 20.7825 192.868C20.7025 192.42 20.5345 192.056 20.2785 191.776C20.0225 191.488 19.6425 191.344 19.1385 191.344C18.6345 191.344 18.2545 191.488 17.9985 191.776C17.7425 192.056 17.5705 192.42 17.4825 192.868C17.4025 193.316 17.3625 193.864 17.3625 194.512C17.3625 195.184 17.4025 195.748 17.4825 196.204C17.5625 196.66 17.7305 197.028 17.9865 197.308C18.2505 197.588 18.6345 197.728 19.1385 197.728C19.6425 197.728 20.0225 197.588 20.2785 197.308C20.5425 197.028 20.7145 196.66 20.7945 196.204C20.8745 195.748 20.9145 195.184 20.9145 194.512ZM25.17 197.356L23.718 200.668H22.83L23.682 197.356H25.17ZM25.9693 194.512C25.9693 193.128 26.2013 192.048 26.6653 191.272C27.1373 190.488 27.9453 190.096 29.0893 190.096C30.2333 190.096 31.0373 190.488 31.5013 191.272C31.9733 192.048 32.2093 193.128 32.2093 194.512C32.2093 195.912 31.9733 197.008 31.5013 197.8C31.0373 198.584 30.2333 198.976 29.0893 198.976C27.9453 198.976 27.1373 198.584 26.6653 197.8C26.2013 197.008 25.9693 195.912 25.9693 194.512ZM30.8653 194.512C30.8653 193.864 30.8213 193.316 30.7333 192.868C30.6533 192.42 30.4853 192.056 30.2293 191.776C29.9733 191.488 29.5933 191.344 29.0893 191.344C28.5853 191.344 28.2053 191.488 27.9493 191.776C27.6933 192.056 27.5213 192.42 27.4333 192.868C27.3533 193.316 27.3133 193.864 27.3133 194.512C27.3133 195.184 27.3533 195.748 27.4333 196.204C27.5133 196.66 27.6813 197.028 27.9373 197.308C28.2013 197.588 28.5853 197.728 29.0893 197.728C29.5933 197.728 29.9733 197.588 30.2293 197.308C30.4933 197.028 30.6653 196.66 30.7453 196.204C30.8253 195.748 30.8653 195.184 30.8653 194.512ZM33.4408 194.512C33.4408 193.128 33.6728 192.048 34.1368 191.272C34.6088 190.488 35.4168 190.096 36.5608 190.096C37.7048 190.096 38.5088 190.488 38.9728 191.272C39.4448 192.048 39.6808 193.128 39.6808 194.512C39.6808 195.912 39.4448 197.008 38.9728 197.8C38.5088 198.584 37.7048 198.976 36.5608 198.976C35.4168 198.976 34.6088 198.584 34.1368 197.8C33.6728 197.008 33.4408 195.912 33.4408 194.512ZM38.3368 194.512C38.3368 193.864 38.2928 193.316 38.2048 192.868C38.1248 192.42 37.9568 192.056 37.7008 191.776C37.4448 191.488 37.0648 191.344 36.5608 191.344C36.0568 191.344 35.6768 191.488 35.4208 191.776C35.1648 192.056 34.9928 192.42 34.9048 192.868C34.8248 193.316 34.7848 193.864 34.7848 194.512C34.7848 195.184 34.8248 195.748 34.9048 196.204C34.9848 196.66 35.1528 197.028 35.4088 197.308C35.6728 197.588 36.0568 197.728 36.5608 197.728C37.0648 197.728 37.4448 197.588 37.7008 197.308C37.9648 197.028 38.1368 196.66 38.2168 196.204C38.2968 195.748 38.3368 195.184 38.3368 194.512Z" fill="#1E2029"/>
<path opacity="0.4" d="M7.028 140.624C7.028 141.024 6.928 141.4 6.728 141.752C6.536 142.104 6.248 142.4 5.864 142.64C5.488 142.88 5.04 143.024 4.52 143.072V144.044H3.74V143.072C2.988 143 2.38 142.764 1.916 142.364C1.452 141.964 1.22 141.436 1.22 140.78H2.684C2.708 141.092 2.808 141.352 2.984 141.56C3.16 141.76 3.412 141.888 3.74 141.944V139.304C3.204 139.168 2.768 139.032 2.432 138.896C2.096 138.752 1.808 138.528 1.568 138.224C1.336 137.92 1.22 137.504 1.22 136.976C1.22 136.312 1.452 135.764 1.916 135.332C2.38 134.892 2.988 134.636 3.74 134.564V133.592H4.52V134.564C5.224 134.628 5.788 134.852 6.212 135.236C6.644 135.612 6.888 136.132 6.944 136.796H5.48C5.456 136.548 5.36 136.328 5.192 136.136C5.024 135.936 4.8 135.8 4.52 135.728V138.32C5.056 138.448 5.492 138.584 5.828 138.728C6.164 138.864 6.448 139.084 6.68 139.388C6.912 139.684 7.028 140.096 7.028 140.624ZM2.612 136.904C2.612 137.232 2.708 137.488 2.9 137.672C3.1 137.856 3.38 138.004 3.74 138.116V135.692C3.396 135.732 3.12 135.856 2.912 136.064C2.712 136.272 2.612 136.552 2.612 136.904ZM4.52 141.944C4.872 141.888 5.148 141.748 5.348 141.524C5.548 141.292 5.648 141.016 5.648 140.696C5.648 140.376 5.548 140.128 5.348 139.952C5.156 139.768 4.88 139.62 4.52 139.508V141.944ZM8.64069 141.176V140.144L12.6727 134.36H14.3287V139.988H15.4447V141.176H14.3287V143H12.9847V141.176H8.64069ZM13.0447 135.752L10.2127 139.988H13.0447V135.752ZM16.3622 138.512C16.3622 137.128 16.5942 136.048 17.0582 135.272C17.5302 134.488 18.3382 134.096 19.4822 134.096C20.6262 134.096 21.4302 134.488 21.8942 135.272C22.3662 136.048 22.6022 137.128 22.6022 138.512C22.6022 139.912 22.3662 141.008 21.8942 141.8C21.4302 142.584 20.6262 142.976 19.4822 142.976C18.3382 142.976 17.5302 142.584 17.0582 141.8C16.5942 141.008 16.3622 139.912 16.3622 138.512ZM21.2582 138.512C21.2582 137.864 21.2142 137.316 21.1262 136.868C21.0462 136.42 20.8782 136.056 20.6222 135.776C20.3662 135.488 19.9862 135.344 19.4822 135.344C18.9782 135.344 18.5982 135.488 18.3422 135.776C18.0862 136.056 17.9142 136.42 17.8262 136.868C17.7462 137.316 17.7062 137.864 17.7062 138.512C17.7062 139.184 17.7462 139.748 17.8262 140.204C17.9062 140.66 18.0742 141.028 18.3302 141.308C18.5942 141.588 18.9782 141.728 19.4822 141.728C19.9862 141.728 20.3662 141.588 20.6222 141.308C20.8862 141.028 21.0582 140.66 21.1382 140.204C21.2182 139.748 21.2582 139.184 21.2582 138.512ZM25.5137 141.356L24.0617 144.668H23.1737L24.0257 141.356H25.5137ZM26.313 138.512C26.313 137.128 26.545 136.048 27.009 135.272C27.481 134.488 28.289 134.096 29.433 134.096C30.577 134.096 31.381 134.488 31.845 135.272C32.317 136.048 32.553 137.128 32.553 138.512C32.553 139.912 32.317 141.008 31.845 141.8C31.381 142.584 30.577 142.976 29.433 142.976C28.289 142.976 27.481 142.584 27.009 141.8C26.545 141.008 26.313 139.912 26.313 138.512ZM31.209 138.512C31.209 137.864 31.165 137.316 31.077 136.868C30.997 136.42 30.829 136.056 30.573 135.776C30.317 135.488 29.937 135.344 29.433 135.344C28.929 135.344 28.549 135.488 28.293 135.776C28.037 136.056 27.865 136.42 27.777 136.868C27.697 137.316 27.657 137.864 27.657 138.512C27.657 139.184 27.697 139.748 27.777 140.204C27.857 140.66 28.025 141.028 28.281 141.308C28.545 141.588 28.929 141.728 29.433 141.728C29.937 141.728 30.317 141.588 30.573 141.308C30.837 141.028 31.009 140.66 31.089 140.204C31.169 139.748 31.209 139.184 31.209 138.512ZM33.7845 138.512C33.7845 137.128 34.0165 136.048 34.4805 135.272C34.9525 134.488 35.7605 134.096 36.9045 134.096C38.0485 134.096 38.8525 134.488 39.3165 135.272C39.7885 136.048 40.0245 137.128 40.0245 138.512C40.0245 139.912 39.7885 141.008 39.3165 141.8C38.8525 142.584 38.0485 142.976 36.9045 142.976C35.7605 142.976 34.9525 142.584 34.4805 141.8C34.0165 141.008 33.7845 139.912 33.7845 138.512ZM38.6805 138.512C38.6805 137.864 38.6365 137.316 38.5485 136.868C38.4685 136.42 38.3005 136.056 38.0445 135.776C37.7885 135.488 37.4085 135.344 36.9045 135.344C36.4005 135.344 36.0205 135.488 35.7645 135.776C35.5085 136.056 35.3365 136.42 35.2485 136.868C35.1685 137.316 35.1285 137.864 35.1285 138.512C35.1285 139.184 35.1685 139.748 35.2485 140.204C35.3285 140.66 35.4965 141.028 35.7525 141.308C36.0165 141.588 36.4005 141.728 36.9045 141.728C37.4085 141.728 37.7885 141.588 38.0445 141.308C38.3085 141.028 38.4805 140.66 38.5605 140.204C38.6405 139.748 38.6805 139.184 38.6805 138.512Z" fill="#1E2029"/>
<path opacity="0.4" d="M7.028 84.624C7.028 85.024 6.928 85.4 6.728 85.752C6.536 86.104 6.248 86.4 5.864 86.64C5.488 86.88 5.04 87.024 4.52 87.072V88.044H3.74V87.072C2.988 87 2.38 86.764 1.916 86.364C1.452 85.964 1.22 85.436 1.22 84.78H2.684C2.708 85.092 2.808 85.352 2.984 85.56C3.16 85.76 3.412 85.888 3.74 85.944V83.304C3.204 83.168 2.768 83.032 2.432 82.896C2.096 82.752 1.808 82.528 1.568 82.224C1.336 81.92 1.22 81.504 1.22 80.976C1.22 80.312 1.452 79.764 1.916 79.332C2.38 78.892 2.988 78.636 3.74 78.564V77.592H4.52V78.564C5.224 78.628 5.788 78.852 6.212 79.236C6.644 79.612 6.888 80.132 6.944 80.796H5.48C5.456 80.548 5.36 80.328 5.192 80.136C5.024 79.936 4.8 79.8 4.52 79.728V82.32C5.056 82.448 5.492 82.584 5.828 82.728C6.164 82.864 6.448 83.084 6.68 83.388C6.912 83.684 7.028 84.096 7.028 84.624ZM2.612 80.904C2.612 81.232 2.708 81.488 2.9 81.672C3.1 81.856 3.38 82.004 3.74 82.116V79.692C3.396 79.732 3.12 79.856 2.912 80.064C2.712 80.272 2.612 80.552 2.612 80.904ZM4.52 85.944C4.872 85.888 5.148 85.748 5.348 85.524C5.548 85.292 5.648 85.016 5.648 84.696C5.648 84.376 5.548 84.128 5.348 83.952C5.156 83.768 4.88 83.62 4.52 83.508V85.944ZM13.5127 80.28C13.4247 79.912 13.2647 79.636 13.0327 79.452C12.8007 79.268 12.4767 79.176 12.0607 79.176C11.4287 79.176 10.9567 79.42 10.6447 79.908C10.3327 80.388 10.1687 81.188 10.1527 82.308C10.3607 81.956 10.6647 81.684 11.0647 81.492C11.4647 81.3 11.8967 81.204 12.3607 81.204C12.8887 81.204 13.3527 81.32 13.7527 81.552C14.1607 81.776 14.4767 82.104 14.7007 82.536C14.9327 82.968 15.0487 83.484 15.0487 84.084C15.0487 84.644 14.9367 85.144 14.7127 85.584C14.4967 86.024 14.1727 86.372 13.7407 86.628C13.3087 86.876 12.7887 87 12.1807 87C11.3567 87 10.7087 86.82 10.2367 86.46C9.77269 86.092 9.44469 85.576 9.25269 84.912C9.06869 84.248 8.97669 83.42 8.97669 82.428C8.97669 79.5 10.0087 78.036 12.0727 78.036C12.8727 78.036 13.5007 78.252 13.9567 78.684C14.4207 79.116 14.6927 79.648 14.7727 80.28H13.5127ZM12.0607 82.356C11.5727 82.356 11.1567 82.504 10.8127 82.8C10.4767 83.088 10.3087 83.508 10.3087 84.06C10.3087 84.612 10.4647 85.052 10.7767 85.38C11.0967 85.7 11.5407 85.86 12.1087 85.86C12.6127 85.86 13.0087 85.704 13.2967 85.392C13.5927 85.08 13.7407 84.664 13.7407 84.144C13.7407 83.6 13.5967 83.168 13.3087 82.848C13.0287 82.52 12.6127 82.356 12.0607 82.356ZM16.2919 82.512C16.2919 81.128 16.5239 80.048 16.9879 79.272C17.4599 78.488 18.2679 78.096 19.4119 78.096C20.5559 78.096 21.3599 78.488 21.8239 79.272C22.2959 80.048 22.5319 81.128 22.5319 82.512C22.5319 83.912 22.2959 85.008 21.8239 85.8C21.3599 86.584 20.5559 86.976 19.4119 86.976C18.2679 86.976 17.4599 86.584 16.9879 85.8C16.5239 85.008 16.2919 83.912 16.2919 82.512ZM21.1879 82.512C21.1879 81.864 21.1439 81.316 21.0559 80.868C20.9759 80.42 20.8079 80.056 20.5519 79.776C20.2959 79.488 19.9159 79.344 19.4119 79.344C18.9079 79.344 18.5279 79.488 18.2719 79.776C18.0159 80.056 17.8439 80.42 17.7559 80.868C17.6759 81.316 17.6359 81.864 17.6359 82.512C17.6359 83.184 17.6759 83.748 17.7559 84.204C17.8359 84.66 18.0039 85.028 18.2599 85.308C18.5239 85.588 18.9079 85.728 19.4119 85.728C19.9159 85.728 20.2959 85.588 20.5519 85.308C20.8159 85.028 20.9879 84.66 21.0679 84.204C21.1479 83.748 21.1879 83.184 21.1879 82.512ZM25.4434 85.356L23.9914 88.668H23.1034L23.9554 85.356H25.4434ZM26.2427 82.512C26.2427 81.128 26.4747 80.048 26.9387 79.272C27.4107 78.488 28.2187 78.096 29.3627 78.096C30.5067 78.096 31.3107 78.488 31.7747 79.272C32.2467 80.048 32.4827 81.128 32.4827 82.512C32.4827 83.912 32.2467 85.008 31.7747 85.8C31.3107 86.584 30.5067 86.976 29.3627 86.976C28.2187 86.976 27.4107 86.584 26.9387 85.8C26.4747 85.008 26.2427 83.912 26.2427 82.512ZM31.1387 82.512C31.1387 81.864 31.0947 81.316 31.0067 80.868C30.9267 80.42 30.7587 80.056 30.5027 79.776C30.2467 79.488 29.8667 79.344 29.3627 79.344C28.8587 79.344 28.4787 79.488 28.2227 79.776C27.9667 80.056 27.7947 80.42 27.7067 80.868C27.6267 81.316 27.5867 81.864 27.5867 82.512C27.5867 83.184 27.6267 83.748 27.7067 84.204C27.7867 84.66 27.9547 85.028 28.2107 85.308C28.4747 85.588 28.8587 85.728 29.3627 85.728C29.8667 85.728 30.2467 85.588 30.5027 85.308C30.7667 85.028 30.9387 84.66 31.0187 84.204C31.0987 83.748 31.1387 83.184 31.1387 82.512ZM33.7142 82.512C33.7142 81.128 33.9462 80.048 34.4102 79.272C34.8822 78.488 35.6902 78.096 36.8342 78.096C37.9782 78.096 38.7822 78.488 39.2462 79.272C39.7182 80.048 39.9542 81.128 39.9542 82.512C39.9542 83.912 39.7182 85.008 39.2462 85.8C38.7822 86.584 37.9782 86.976 36.8342 86.976C35.6902 86.976 34.8822 86.584 34.4102 85.8C33.9462 85.008 33.7142 83.912 33.7142 82.512ZM38.6102 82.512C38.6102 81.864 38.5662 81.316 38.4782 80.868C38.3982 80.42 38.2302 80.056 37.9742 79.776C37.7182 79.488 37.3382 79.344 36.8342 79.344C36.3302 79.344 35.9502 79.488 35.6942 79.776C35.4382 80.056 35.2662 80.42 35.1782 80.868C35.0982 81.316 35.0582 81.864 35.0582 82.512C35.0582 83.184 35.0982 83.748 35.1782 84.204C35.2582 84.66 35.4262 85.028 35.6822 85.308C35.9462 85.588 36.3302 85.728 36.8342 85.728C37.3382 85.728 37.7182 85.588 37.9742 85.308C38.2382 85.028 38.4102 84.66 38.4902 84.204C38.5702 83.748 38.6102 83.184 38.6102 82.512Z" fill="#1E2029"/>
<g filter="url(#filter1_d_6_4606)">
<circle cx="336" cy="117" r="9" fill="url(#paint2_linear_6_4606)"/>
<circle cx="336" cy="117" r="7" stroke="white" stroke-width="4"/>
</g>
<g filter="url(#filter2_d_6_4606)">
<rect x="294" y="38" width="85" height="45" rx="22.5" fill="white" shape-rendering="crispEdges"/>
<path d="M320.938 62.186C320.938 62.6713 320.812 63.1287 320.56 63.558C320.317 63.978 319.953 64.328 319.468 64.608C318.992 64.8787 318.427 65.0373 317.774 65.084V66.218H316.878V65.07C315.945 64.986 315.193 64.706 314.624 64.23C314.055 63.7447 313.761 63.0913 313.742 62.27H315.842C315.898 62.942 316.243 63.348 316.878 63.488V60.814C316.206 60.646 315.665 60.478 315.254 60.31C314.843 60.142 314.489 59.8713 314.19 59.498C313.891 59.1247 313.742 58.616 313.742 57.972C313.742 57.16 314.031 56.4973 314.61 55.984C315.198 55.4707 315.954 55.1767 316.878 55.102V53.968H317.774V55.102C318.67 55.1767 319.384 55.4473 319.916 55.914C320.457 56.3807 320.761 57.0247 320.826 57.846H318.712C318.684 57.5753 318.586 57.342 318.418 57.146C318.259 56.9407 318.045 56.796 317.774 56.712V59.358C318.474 59.5353 319.025 59.708 319.426 59.876C319.837 60.0347 320.191 60.3007 320.49 60.674C320.789 61.038 320.938 61.542 320.938 62.186ZM315.786 57.874C315.786 58.182 315.879 58.434 316.066 58.63C316.253 58.8167 316.523 58.9707 316.878 59.092V56.67C316.542 56.7167 316.276 56.8427 316.08 57.048C315.884 57.2533 315.786 57.5287 315.786 57.874ZM317.774 63.516C318.129 63.4507 318.404 63.306 318.6 63.082C318.805 62.858 318.908 62.5873 318.908 62.27C318.908 61.962 318.81 61.7147 318.614 61.528C318.418 61.3413 318.138 61.1873 317.774 61.066V63.516ZM329.51 56.488H324.974V58.882C325.17 58.6393 325.45 58.4433 325.814 58.294C326.178 58.1353 326.565 58.056 326.976 58.056C327.723 58.056 328.334 58.2193 328.81 58.546C329.286 58.8727 329.631 59.2927 329.846 59.806C330.061 60.31 330.168 60.8513 330.168 61.43C330.168 62.5033 329.86 63.3667 329.244 64.02C328.637 64.6733 327.769 65 326.64 65C325.576 65 324.727 64.734 324.092 64.202C323.457 63.67 323.098 62.9747 323.014 62.116H324.918C325.002 62.4893 325.189 62.788 325.478 63.012C325.777 63.236 326.155 63.348 326.612 63.348C327.163 63.348 327.578 63.1753 327.858 62.83C328.138 62.4847 328.278 62.0273 328.278 61.458C328.278 60.8793 328.133 60.4407 327.844 60.142C327.564 59.834 327.149 59.68 326.598 59.68C326.206 59.68 325.879 59.778 325.618 59.974C325.357 60.17 325.17 60.4313 325.058 60.758H323.182V54.766H329.51V56.488ZM333.116 59.596C332.183 59.1107 331.716 58.3593 331.716 57.342C331.716 56.838 331.842 56.3807 332.094 55.97C332.355 55.55 332.743 55.2187 333.256 54.976C333.779 54.724 334.413 54.598 335.16 54.598C335.907 54.598 336.537 54.724 337.05 54.976C337.573 55.2187 337.96 55.55 338.212 55.97C338.473 56.3807 338.604 56.838 338.604 57.342C338.604 57.8553 338.478 58.308 338.226 58.7C337.974 59.0827 337.638 59.3813 337.218 59.596C337.731 59.82 338.133 60.1467 338.422 60.576C338.711 61.0053 338.856 61.514 338.856 62.102C338.856 62.7367 338.693 63.292 338.366 63.768C338.049 64.2347 337.61 64.594 337.05 64.846C336.49 65.098 335.86 65.224 335.16 65.224C334.46 65.224 333.83 65.098 333.27 64.846C332.719 64.594 332.281 64.2347 331.954 63.768C331.637 63.292 331.478 62.7367 331.478 62.102C331.478 61.514 331.623 61.0053 331.912 60.576C332.201 60.1373 332.603 59.8107 333.116 59.596ZM336.7 57.622C336.7 57.1647 336.56 56.81 336.28 56.558C336.009 56.306 335.636 56.18 335.16 56.18C334.693 56.18 334.32 56.306 334.04 56.558C333.769 56.81 333.634 57.1693 333.634 57.636C333.634 58.056 333.774 58.392 334.054 58.644C334.343 58.896 334.712 59.022 335.16 59.022C335.608 59.022 335.977 58.896 336.266 58.644C336.555 58.3827 336.7 58.042 336.7 57.622ZM335.16 60.45C334.628 60.45 334.194 60.5853 333.858 60.856C333.531 61.1267 333.368 61.514 333.368 62.018C333.368 62.4847 333.527 62.8673 333.844 63.166C334.171 63.4553 334.609 63.6 335.16 63.6C335.711 63.6 336.145 63.4507 336.462 63.152C336.779 62.8533 336.938 62.4753 336.938 62.018C336.938 61.5233 336.775 61.1407 336.448 60.87C336.121 60.59 335.692 60.45 335.16 60.45ZM342.518 62.942L340.88 66.876H339.62L340.53 62.942H342.518ZM349.951 56.278L346.227 65H344.239L347.991 56.502H343.203V54.822H349.951V56.278ZM357.733 56.488H353.197V58.882C353.393 58.6393 353.673 58.4433 354.037 58.294C354.401 58.1353 354.788 58.056 355.199 58.056C355.945 58.056 356.557 58.2193 357.033 58.546C357.509 58.8727 357.854 59.2927 358.069 59.806C358.283 60.31 358.391 60.8513 358.391 61.43C358.391 62.5033 358.083 63.3667 357.467 64.02C356.86 64.6733 355.992 65 354.863 65C353.799 65 352.949 64.734 352.315 64.202C351.68 63.67 351.321 62.9747 351.237 62.116H353.141C353.225 62.4893 353.411 62.788 353.701 63.012C353.999 63.236 354.377 63.348 354.835 63.348C355.385 63.348 355.801 63.1753 356.081 62.83C356.361 62.4847 356.501 62.0273 356.501 61.458C356.501 60.8793 356.356 60.4407 356.067 60.142C355.787 59.834 355.371 59.68 354.821 59.68C354.429 59.68 354.102 59.778 353.841 59.974C353.579 60.17 353.393 60.4313 353.281 60.758H351.405V54.766H357.733V56.488Z" fill="#1E2029"/>
</g>
<defs>
<filter id="filter0_d_6_4606" x="-32" y="43" width="729" height="178" filterUnits="userSpaceOnUse" color-interpolation-filters="sRGB">
<feFlood flood-opacity="0" result="BackgroundImageFix"/>
<feColorMatrix in="SourceAlpha" type="matrix" values="0 0 0 0 0 0 0 0 0 0 0 0 0 0 0 0 0 0 127 0" result="hardAlpha"/>
<feOffset dy="4"/>
<feGaussianBlur stdDeviation="13"/>
<feComposite in2="hardAlpha" operator="out"/>
<feColorMatrix type="matrix" values="0 0 0 0 0.588235 0 0 0 0 0.392157 0 0 0 0 1 0 0 0 0.5 0"/>
<feBlend mode="normal" in2="BackgroundImageFix" result="effect1_dropShadow_6_4606"/>
<feBlend mode="normal" in="SourceGraphic" in2="effect1_dropShadow_6_4606" result="shape"/>
</filter>
<filter id="filter1_d_6_4606" x="277" y="70" width="118" height="118" filterUnits="userSpaceOnUse" color-interpolation-filters="sRGB">
<feFlood flood-opacity="0" result="BackgroundImageFix"/>
<feColorMatrix in="SourceAlpha" type="matrix" values="0 0 0 0 0 0 0 0 0 0 0 0 0 0 0 0 0 0 127 0" result="hardAlpha"/>
<feOffset dy="12"/>
<feGaussianBlur stdDeviation="25"/>
<feComposite in2="hardAlpha" operator="out"/>
<feColorMatrix type="matrix" values="0 0 0 0 0 0 0 0 0 0 0 0 0 0 0 0 0 0 0.04 0"/>
<feBlend mode="normal" in2="BackgroundImageFix" result="effect1_dropShadow_6_4606"/>
<feBlend mode="normal" in="SourceGraphic" in2="effect1_dropShadow_6_4606" result="shape"/>
</filter>
<filter id="filter2_d_6_4606" x="244" y="0" width="185" height="145" filterUnits="userSpaceOnUse" color-interpolation-filters="sRGB">
<feFlood flood-opacity="0" result="BackgroundImageFix"/>
<feColorMatrix in="SourceAlpha" type="matrix" values="0 0 0 0 0 0 0 0 0 0 0 0 0 0 0 0 0 0 127 0" result="hardAlpha"/>
<feOffset dy="12"/>
<feGaussianBlur stdDeviation="25"/>
<feComposite in2="hardAlpha" operator="out"/>
<feColorMatrix type="matrix" values="0 0 0 0 0 0 0 0 0 0 0 0 0 0 0 0 0 0 0.04 0"/>
<feBlend mode="normal" in2="BackgroundImageFix" result="effect1_dropShadow_6_4606"/>
<feBlend mode="normal" in="SourceGraphic" in2="effect1_dropShadow_6_4606" result="shape"/>
</filter>
<linearGradient id="paint0_linear_6_4606" x1="522.978" y1="136.146" x2="372.217" y2="136.146" gradientUnits="userSpaceOnUse">
<stop offset="0.331818" stop-color="#EFF0F6"/>
<stop offset="0.793401" stop-color="#EFF0F6" stop-opacity="0"/>
</linearGradient>
<linearGradient id="paint1_linear_6_4606" x1="91.3275" y1="112.363" x2="-25.3044" y2="112.363" gradientUnits="userSpaceOnUse">
<stop offset="0.409578" stop-color="#EFF0F6"/>
<stop offset="0.793401" stop-color="#EFF0F6" stop-opacity="0"/>
</linearGradient>
<linearGradient id="paint2_linear_6_4606" x1="336" y1="108" x2="336" y2="126" gradientUnits="userSpaceOnUse">
<stop stop-color="#9664FF"/>
<stop offset="1" stop-color="#854EF9"/>
</linearGradient>
</defs>
</svg>
