<svg width="74" height="78" viewBox="0 0 74 78" fill="none" xmlns="http://www.w3.org/2000/svg">
<g opacity="0.8">
<path d="M41.7697 38.2221C41.8696 38.3777 42.014 38.499 42.1807 38.579C43.4542 39.1904 44.3335 40.4921 44.3335 41.9992V44.3325C44.3335 44.8158 44.7252 45.2075 45.2085 45.2075C45.6917 45.2075 46.0834 44.8158 46.0834 44.3325V41.9992C46.0834 38.9386 43.6024 36.4575 40.5418 36.4575V36.4575C40.415 36.4575 40.3578 36.6211 40.4537 36.7041C40.9615 37.1436 41.4054 37.6548 41.7697 38.2221Z" fill="#9664FF"/>
<path fill-rule="evenodd" clip-rule="evenodd" d="M28.8747 38.2075C26.7806 38.2075 25.083 39.9051 25.083 41.9992V44.3325C25.083 44.8158 24.6913 45.2075 24.208 45.2075C23.7248 45.2075 23.333 44.8158 23.333 44.3325V41.9992C23.333 38.9386 25.8141 36.4575 28.8747 36.4575H35.8747C38.9353 36.4575 41.4163 38.9386 41.4163 41.9992V44.3325C41.4163 44.8158 41.0246 45.2075 40.5413 45.2075C40.0581 45.2075 39.6663 44.8158 39.6663 44.3325V41.9992C39.6663 39.9051 37.9688 38.2075 35.8747 38.2075H28.8747Z" fill="#9664FF"/>
<path d="M38.057 32.1504C38.1608 31.9531 38.3257 31.7956 38.5179 31.6826C39.3797 31.1758 39.9581 30.2388 39.9581 29.1667C39.9581 28.0946 39.3797 27.1576 38.5179 26.6507C38.3257 26.5377 38.1608 26.3802 38.057 26.1829C37.767 25.6318 37.3991 25.128 36.9681 24.6861C36.9007 24.6171 36.945 24.5 37.0414 24.5V24.5C39.6188 24.5 41.7081 26.5893 41.7081 29.1667C41.7081 31.744 39.6188 33.8333 37.0414 33.8333V33.8333C36.945 33.8333 36.9007 33.7162 36.9681 33.6472C37.3991 33.2054 37.767 32.7015 38.057 32.1504Z" fill="#9664FF"/>
<path fill-rule="evenodd" clip-rule="evenodd" d="M32.3747 32.0833C33.9855 32.0833 35.2913 30.7775 35.2913 29.1667C35.2913 27.5558 33.9855 26.25 32.3747 26.25C30.7638 26.25 29.458 27.5558 29.458 29.1667C29.458 30.7775 30.7638 32.0833 32.3747 32.0833ZM32.3747 33.8333C34.952 33.8333 37.0413 31.744 37.0413 29.1667C37.0413 26.5893 34.952 24.5 32.3747 24.5C29.7973 24.5 27.708 26.5893 27.708 29.1667C27.708 31.744 29.7973 33.8333 32.3747 33.8333Z" fill="#9664FF"/>
</g>
<path d="M70 35C70 54.33 54.33 70 35 70C15.67 70 0 54.33 0 35C0 15.67 15.67 0 35 0C54.33 0 70 15.67 70 35ZM7 35C7 50.464 19.536 63 35 63C50.464 63 63 50.464 63 35C63 19.536 50.464 7 35 7C19.536 7 7 19.536 7 35Z" fill="#EFF0F6"/>
<g filter="url(#filter0_d_6_4678)">
<path d="M35 3.5C35 1.567 36.5709 -0.0181284 38.4942 0.174853C43.0349 0.630447 47.4544 1.97095 51.4989 4.13276C56.575 6.84601 60.9037 10.7693 64.1014 15.555C67.2992 20.3408 69.2673 25.8413 69.8315 31.5694C70.3956 37.2975 69.5384 43.0763 67.3358 48.3939C65.1331 53.7116 61.6531 58.4039 57.2038 62.0554C52.7545 65.7068 47.4734 68.2046 41.8282 69.3275C36.183 70.4504 30.348 70.1637 24.84 68.4929C20.4516 67.1617 16.3786 64.9845 12.8457 62.0959C11.3492 60.8724 11.3593 58.6407 12.7261 57.2739V57.2739C14.093 55.907 16.2974 55.9272 17.824 57.113C20.5206 59.2076 23.5857 60.7974 26.872 61.7943C31.2784 63.131 35.9464 63.3603 40.4625 62.462C44.9787 61.5637 49.2036 59.5654 52.763 56.6443C56.3224 53.7231 59.1065 49.9693 60.8686 45.7151C62.6307 41.461 63.3165 36.838 62.8652 32.2555C62.4138 27.6731 60.8393 23.2726 58.2811 19.444C55.723 15.6154 52.26 12.4768 48.1991 10.3062C45.1704 8.68734 41.8788 7.64418 38.4909 7.21846C36.573 6.97746 35 5.433 35 3.5V3.5Z" fill="#9664FF"/>
</g>
<defs>
<filter id="filter0_d_6_4678" x="7.71191" y="0.158691" width="66.2881" height="77.8413" filterUnits="userSpaceOnUse" color-interpolation-filters="sRGB">
<feFlood flood-opacity="0" result="BackgroundImageFix"/>
<feColorMatrix in="SourceAlpha" type="matrix" values="0 0 0 0 0 0 0 0 0 0 0 0 0 0 0 0 0 0 127 0" result="hardAlpha"/>
<feOffset dy="4"/>
<feGaussianBlur stdDeviation="2"/>
<feComposite in2="hardAlpha" operator="out"/>
<feColorMatrix type="matrix" values="0 0 0 0 0.588235 0 0 0 0 0.392157 0 0 0 0 1 0 0 0 0.25 0"/>
<feBlend mode="normal" in2="BackgroundImageFix" result="effect1_dropShadow_6_4678"/>
<feBlend mode="normal" in="SourceGraphic" in2="effect1_dropShadow_6_4678" result="shape"/>
</filter>
</defs>
</svg>
