<svg width="37" height="37" viewBox="0 0 37 37" fill="none" xmlns="http://www.w3.org/2000/svg">
<path d="M37 18.5C37 28.7173 28.7173 37 18.5 37C8.28273 37 0 28.7173 0 18.5C0 8.28273 8.28273 0 18.5 0C28.7173 0 37 8.28273 37 18.5Z" fill="#5258DD"/>
<path d="M18.704 24.16C21.008 24.16 22.304 22.96 22.304 21.088C22.304 19.536 21.6 18.64 19.12 17.696C17.36 17.024 16.592 16.48 16.592 15.456C16.592 14.512 17.424 13.712 18.592 13.712C19.552 13.712 20.368 14.224 20.848 15.088L21.808 14.496C21.136 13.312 20.032 12.688 18.624 12.688C16.736 12.688 15.456 13.808 15.456 15.504C15.456 16.96 16.24 17.76 18.496 18.608C20.464 19.36 21.152 19.984 21.152 21.184C21.152 22.288 20.336 23.136 18.72 23.136C17.216 23.136 16.128 22.224 15.92 20.784L14.784 21.056C15.088 22.928 16.64 24.16 18.704 24.16Z" fill="white"/>
</svg>
