<svg width="27" height="24" viewBox="0 0 27 24" fill="none" xmlns="http://www.w3.org/2000/svg">
<path d="M21.7366 15.6832C21.8507 15.861 22.0158 15.9997 22.2063 16.0911C23.6617 16.7898 24.6666 18.2775 24.6666 19.9998V22.6665C24.6666 23.2188 25.1143 23.6665 25.6666 23.6665C26.2189 23.6665 26.6666 23.2188 26.6666 22.6665V19.9998C26.6666 16.502 23.8311 13.6665 20.3333 13.6665V13.6665C20.1883 13.6665 20.123 13.8535 20.2326 13.9483C20.8129 14.4505 21.3203 15.0349 21.7366 15.6832Z" fill="white"/>
<path fill-rule="evenodd" clip-rule="evenodd" d="M6.99984 15.6665C4.6066 15.6665 2.6665 17.6066 2.6665 19.9998V22.6665C2.6665 23.2188 2.21879 23.6665 1.6665 23.6665C1.11422 23.6665 0.666504 23.2188 0.666504 22.6665V19.9998C0.666504 16.502 3.50203 13.6665 6.99984 13.6665H14.9998C18.4976 13.6665 21.3332 16.502 21.3332 19.9998V22.6665C21.3332 23.2188 20.8855 23.6665 20.3332 23.6665C19.7809 23.6665 19.3332 23.2188 19.3332 22.6665V19.9998C19.3332 17.6066 17.3931 15.6665 14.9998 15.6665H6.99984Z" fill="white"/>
<path d="M17.5007 8.73044C17.6145 8.51305 17.796 8.33948 18.0081 8.21601C18.9999 7.63852 19.6666 6.56378 19.6666 5.33333C19.6666 4.10288 18.9999 3.02815 18.0081 2.45065C17.796 2.32718 17.6145 2.15361 17.5007 1.93623C17.1682 1.30131 16.7454 0.721122 16.2494 0.212716C16.1725 0.133833 16.2231 0 16.3333 0V0C19.2788 0 21.6666 2.38781 21.6666 5.33333C21.6666 8.27885 19.2788 10.6667 16.3333 10.6667V10.6667C16.2231 10.6667 16.1725 10.5328 16.2494 10.454C16.7454 9.94554 17.1682 9.36536 17.5007 8.73044Z" fill="white"/>
<path fill-rule="evenodd" clip-rule="evenodd" d="M10.9998 8.66667C12.8408 8.66667 14.3332 7.17428 14.3332 5.33333C14.3332 3.49238 12.8408 2 10.9998 2C9.15889 2 7.6665 3.49238 7.6665 5.33333C7.6665 7.17428 9.15889 8.66667 10.9998 8.66667ZM10.9998 10.6667C13.9454 10.6667 16.3332 8.27885 16.3332 5.33333C16.3332 2.38781 13.9454 0 10.9998 0C8.05432 0 5.6665 2.38781 5.6665 5.33333C5.6665 8.27885 8.05432 10.6667 10.9998 10.6667Z" fill="white"/>
</svg>
