<svg width="278" height="189" viewBox="0 0 278 189" fill="none" xmlns="http://www.w3.org/2000/svg">
<mask id="mask0_40_966" style="mask-type:alpha" maskUnits="userSpaceOnUse" x="0" y="0" width="278" height="189">
<path d="M0 5.99999C0 2.68628 2.68629 0 6 0H272C275.314 0 278 2.68629 278 6V182.88C278 186.194 275.314 188.88 272 188.88H6C2.68629 188.88 0 186.194 0 182.88V5.99999Z" fill="url(#paint0_linear_40_966)"/>
</mask>
<g mask="url(#mask0_40_966)">
<path d="M0 5.99999C0 2.68628 2.68629 0 6 0H272C275.314 0 278 2.68629 278 6V182.88C278 186.194 275.314 188.88 272 188.88H6C2.68629 188.88 0 186.194 0 182.88V5.99999Z" fill="url(#paint1_linear_40_966)"/>
<mask id="mask1_40_966" style="mask-type:alpha" maskUnits="userSpaceOnUse" x="0" y="-1" width="278" height="189">
<path d="M0 4.99999C0 1.68628 2.68629 -1 6 -1H272C275.314 -1 278 1.68629 278 5V181.88C278 185.194 275.314 187.88 272 187.88H6C2.68629 187.88 0 185.194 0 181.88V4.99999Z" fill="url(#paint2_linear_40_966)"/>
</mask>
<g mask="url(#mask1_40_966)">
<g style="mix-blend-mode:overlay" opacity="0.504246">
<path fill-rule="evenodd" clip-rule="evenodd" d="M268.248 -87.2981L319.856 -78.1981C341.669 -74.352 359.773 -59.1612 367.348 -38.348L385.272 10.8966C392.847 31.7098 388.743 54.9834 374.506 71.9505L340.821 112.095C326.584 129.062 304.376 137.145 282.564 133.299L230.955 124.199C209.143 120.353 191.039 105.162 183.464 84.3487L165.54 35.1041C157.965 14.2909 162.068 -8.9827 176.305 -25.9498L209.991 -66.0943C224.228 -83.0614 246.435 -91.1442 268.248 -87.2981Z" fill="url(#paint3_linear_40_966)"/>
</g>
<g style="mix-blend-mode:overlay" opacity="0.504246">
<path fill-rule="evenodd" clip-rule="evenodd" d="M282.584 -102.002L339.354 -84.6453C363.348 -77.3097 381.606 -57.7308 387.25 -33.2838L400.604 24.5584C406.248 49.0054 398.421 74.6064 380.071 91.7178L336.655 132.204C318.305 149.315 292.221 155.337 268.227 148.002L211.457 130.645C187.463 123.31 169.206 103.731 163.562 79.2838L150.208 21.4416C144.564 -3.0054 152.391 -28.6064 170.741 -45.7178L214.156 -86.2037C232.506 -103.315 258.591 -109.337 282.584 -102.002Z" fill="url(#paint4_linear_40_966)"/>
</g>
<g style="mix-blend-mode:overlay" opacity="0.504246">
<path fill-rule="evenodd" clip-rule="evenodd" d="M189.966 60.5291L182.283 16.9566C179.035 -1.45936 185.86 -20.2087 200.185 -32.2289L234.078 -60.6688C248.403 -72.689 268.053 -76.1537 285.625 -69.7579L327.201 -54.6253C344.774 -48.2296 357.599 -32.9449 360.846 -14.529L368.529 29.0435C371.776 47.4594 364.952 66.2088 350.627 78.229L316.734 106.669C302.409 118.689 282.759 122.154 265.187 115.758L223.61 100.625C206.038 94.2296 193.213 78.945 189.966 60.5291Z" fill="url(#paint5_linear_40_966)"/>
</g>
</g>
<path d="M110.489 66.7432L118.913 48.4132H122.267L130.795 66.7432H126.687L124.477 61.6472L126.063 62.7652H115.169L116.781 61.6472L114.571 66.7432H110.489ZM120.577 52.6772L117.223 60.6332L116.521 59.6452H124.711L124.113 60.6332L120.681 52.6772H120.577ZM135.176 66.7432L129.482 53.5612H133.616L137.386 63.1292H136.528L140.428 53.5612H144.302L138.556 66.7432H135.176ZM150.543 67.0292C149.399 67.0292 148.393 66.7518 147.527 66.1972C146.66 65.6425 145.984 64.8538 145.499 63.8312C145.013 62.8085 144.771 61.5778 144.771 60.1392C144.771 58.7178 145.013 57.4958 145.499 56.4732C145.984 55.4505 146.66 54.6705 147.527 54.1332C148.393 53.5785 149.399 53.3012 150.543 53.3012C151.6 53.3012 152.545 53.5612 153.377 54.0812C154.226 54.5838 154.781 55.2685 155.041 56.1352H154.755L155.067 53.5612H158.837C158.785 54.1332 158.733 54.7138 158.681 55.3032C158.646 55.8752 158.629 56.4385 158.629 56.9932V66.7432H154.729L154.703 64.2732H155.015C154.737 65.1052 154.183 65.7725 153.351 66.2752C152.519 66.7778 151.583 67.0292 150.543 67.0292ZM151.739 64.0652C152.64 64.0652 153.368 63.7445 153.923 63.1032C154.477 62.4618 154.755 61.4738 154.755 60.1392C154.755 58.8045 154.477 57.8252 153.923 57.2012C153.368 56.5772 152.64 56.2652 151.739 56.2652C150.837 56.2652 150.109 56.5772 149.555 57.2012C149 57.8252 148.723 58.8045 148.723 60.1392C148.723 61.4738 148.991 62.4618 149.529 63.1032C150.083 63.7445 150.82 64.0652 151.739 64.0652ZM161.848 66.7432V47.6072H165.774V66.7432H161.848ZM174.105 67.0292C172.961 67.0292 171.956 66.7518 171.089 66.1972C170.222 65.6425 169.546 64.8538 169.061 63.8312C168.576 62.8085 168.333 61.5778 168.333 60.1392C168.333 58.7178 168.576 57.4958 169.061 56.4732C169.546 55.4505 170.222 54.6705 171.089 54.1332C171.956 53.5785 172.961 53.3012 174.105 53.3012C175.162 53.3012 176.107 53.5612 176.939 54.0812C177.788 54.5838 178.343 55.2685 178.603 56.1352H178.317L178.629 53.5612H182.399C182.347 54.1332 182.295 54.7138 182.243 55.3032C182.208 55.8752 182.191 56.4385 182.191 56.9932V66.7432H178.291L178.265 64.2732H178.577C178.3 65.1052 177.745 65.7725 176.913 66.2752C176.081 66.7778 175.145 67.0292 174.105 67.0292ZM175.301 64.0652C176.202 64.0652 176.93 63.7445 177.485 63.1032C178.04 62.4618 178.317 61.4738 178.317 60.1392C178.317 58.8045 178.04 57.8252 177.485 57.2012C176.93 56.5772 176.202 56.2652 175.301 56.2652C174.4 56.2652 173.672 56.5772 173.117 57.2012C172.562 57.8252 172.285 58.8045 172.285 60.1392C172.285 61.4738 172.554 62.4618 173.091 63.1032C173.646 63.7445 174.382 64.0652 175.301 64.0652ZM185.411 66.7432V56.9932C185.411 56.4385 185.393 55.8752 185.359 55.3032C185.324 54.7138 185.272 54.1332 185.203 53.5612H188.973L189.259 56.0052H188.947C189.38 55.1385 189.995 54.4712 190.793 54.0032C191.59 53.5352 192.517 53.3012 193.575 53.3012C195.117 53.3012 196.27 53.7518 197.033 54.6532C197.813 55.5372 198.203 56.9152 198.203 58.7872V66.7432H194.277V58.9692C194.277 58.0158 194.103 57.3398 193.757 56.9412C193.41 56.5425 192.89 56.3432 192.197 56.3432C191.33 56.3432 190.637 56.6205 190.117 57.1752C189.597 57.7125 189.337 58.4405 189.337 59.3592V66.7432H185.411ZM207.7 67.0292C206.296 67.0292 205.065 66.7518 204.008 66.1972C202.951 65.6425 202.136 64.8452 201.564 63.8052C200.992 62.7652 200.706 61.5345 200.706 60.1132C200.706 58.6745 200.992 57.4525 201.564 56.4472C202.153 55.4245 202.968 54.6445 204.008 54.1072C205.065 53.5698 206.296 53.3012 207.7 53.3012C208.584 53.3012 209.442 53.4312 210.274 53.6912C211.123 53.9512 211.817 54.3152 212.354 54.7832L211.21 57.4872C210.777 57.0885 210.274 56.7938 209.702 56.6032C209.147 56.3952 208.61 56.2912 208.09 56.2912C207.033 56.2912 206.209 56.6205 205.62 57.2792C205.031 57.9378 204.736 58.8912 204.736 60.1392C204.736 61.3872 205.031 62.3405 205.62 62.9992C206.209 63.6578 207.033 63.9872 208.09 63.9872C208.593 63.9872 209.121 63.8918 209.676 63.7012C210.248 63.5105 210.759 63.2245 211.21 62.8432L212.354 65.5212C211.799 65.9892 211.097 66.3618 210.248 66.6392C209.416 66.8992 208.567 67.0292 207.7 67.0292ZM214.585 66.7432V47.6072H218.511V56.0312H218.121C218.537 55.1472 219.152 54.4712 219.967 54.0032C220.781 53.5352 221.717 53.3012 222.775 53.3012C224.317 53.3012 225.47 53.7518 226.233 54.6532C226.995 55.5372 227.377 56.8978 227.377 58.7352V66.7432H223.451V58.9172C223.451 57.9985 223.277 57.3398 222.931 56.9412C222.601 56.5425 222.081 56.3432 221.371 56.3432C220.504 56.3432 219.811 56.6118 219.291 57.1492C218.771 57.6865 218.511 58.4058 218.511 59.3072V66.7432H214.585ZM237.16 67.0292C234.872 67.0292 233.087 66.4138 231.804 65.1832C230.521 63.9525 229.88 62.2798 229.88 60.1652C229.88 58.7958 230.149 57.5998 230.686 56.5772C231.241 55.5545 232.003 54.7572 232.974 54.1852C233.962 53.5958 235.115 53.3012 236.432 53.3012C237.732 53.3012 238.815 53.5785 239.682 54.1332C240.566 54.6878 241.225 55.4678 241.658 56.4732C242.109 57.4612 242.334 58.6138 242.334 59.9312V60.8412H233.104V58.8912H239.474L239.032 59.2552C239.032 58.1632 238.807 57.3398 238.356 56.7852C237.923 56.2132 237.29 55.9272 236.458 55.9272C235.539 55.9272 234.829 56.2652 234.326 56.9412C233.841 57.6172 233.598 58.5878 233.598 59.8532V60.2692C233.598 61.5518 233.91 62.5052 234.534 63.1292C235.175 63.7532 236.094 64.0652 237.29 64.0652C238.001 64.0652 238.668 63.9785 239.292 63.8052C239.933 63.6145 240.54 63.3198 241.112 62.9212L242.204 65.5212C241.545 66.0065 240.783 66.3792 239.916 66.6392C239.067 66.8992 238.148 67.0292 237.16 67.0292Z" fill="white"/>
<rect x="231.775" y="131.729" width="30" height="30" rx="15" fill="url(#paint6_linear_40_966)"/>
<path d="M244.775 151.729L249.775 146.729L244.775 141.729" stroke="white" stroke-opacity="0.8" stroke-width="2" stroke-linecap="round" stroke-linejoin="round"/>
<path d="M19.696 150.729L15.976 142.269H17.32L20.488 149.685H20.056L23.236 142.269H24.52L20.788 150.729H19.696ZM25.3841 150.729V144.681H26.5961V150.729H25.3841ZM25.2881 143.421V142.161H26.6921V143.421H25.2881ZM31.1684 150.837C30.1924 150.837 29.4244 150.561 28.8644 150.009C28.3044 149.457 28.0244 148.693 28.0244 147.717C28.0244 147.085 28.1444 146.533 28.3844 146.061C28.6324 145.589 28.9724 145.225 29.4044 144.969C29.8444 144.705 30.3524 144.573 30.9284 144.573C31.4964 144.573 31.9724 144.693 32.3564 144.933C32.7404 145.173 33.0324 145.513 33.2324 145.953C33.4324 146.385 33.5324 146.897 33.5324 147.489V147.873H28.9724V147.177H32.7044L32.5004 147.333C32.5004 146.733 32.3644 146.269 32.0924 145.941C31.8284 145.605 31.4444 145.437 30.9404 145.437C30.3804 145.437 29.9484 145.633 29.6444 146.025C29.3404 146.409 29.1884 146.941 29.1884 147.621V147.741C29.1884 148.453 29.3604 148.989 29.7044 149.349C30.0564 149.709 30.5524 149.889 31.1924 149.889C31.5444 149.889 31.8724 149.841 32.1764 149.745C32.4884 149.641 32.7844 149.473 33.0644 149.241L33.4604 150.069C33.1804 150.317 32.8404 150.509 32.4404 150.645C32.0404 150.773 31.6164 150.837 31.1684 150.837ZM36.4851 150.729L34.1931 144.681H35.4531L37.2411 149.721H36.9291L38.7651 144.681H39.7011L41.5251 149.721H41.2251L43.0131 144.681H44.2251L41.9211 150.729H40.8171L38.9211 145.593H39.4851L37.6131 150.729H36.4851ZM48.5403 153.321V146.133C48.5403 145.901 48.5283 145.665 48.5043 145.425C48.4883 145.177 48.4683 144.929 48.4443 144.681H49.6203L49.7403 146.049H49.6083C49.7363 145.593 49.9923 145.233 50.3763 144.969C50.7683 144.705 51.2323 144.573 51.7683 144.573C52.3043 144.573 52.7723 144.701 53.1723 144.957C53.5723 145.205 53.8803 145.561 54.0963 146.025C54.3203 146.489 54.4323 147.049 54.4323 147.705C54.4323 148.353 54.3203 148.913 54.0963 149.385C53.8803 149.857 53.5723 150.217 53.1723 150.465C52.7723 150.713 52.3043 150.837 51.7683 150.837C51.2403 150.837 50.7803 150.709 50.3883 150.453C50.0043 150.189 49.7483 149.833 49.6203 149.385H49.7523V153.321H48.5403ZM51.4683 149.889C51.9963 149.889 52.4163 149.705 52.7283 149.337C53.0483 148.969 53.2083 148.425 53.2083 147.705C53.2083 146.985 53.0483 146.445 52.7283 146.085C52.4163 145.717 51.9963 145.533 51.4683 145.533C50.9403 145.533 50.5163 145.717 50.1963 146.085C49.8843 146.445 49.7283 146.985 49.7283 147.705C49.7283 148.425 49.8843 148.969 50.1963 149.337C50.5163 149.705 50.9403 149.889 51.4683 149.889ZM55.8288 150.729V146.181C55.8288 145.933 55.8208 145.685 55.8048 145.437C55.7968 145.181 55.7808 144.929 55.7568 144.681H56.9328L57.0648 146.241H56.8728C56.9528 145.865 57.0888 145.553 57.2808 145.305C57.4728 145.057 57.7048 144.873 57.9768 144.753C58.2568 144.633 58.5488 144.573 58.8528 144.573C58.9808 144.573 59.0888 144.581 59.1768 144.597C59.2648 144.605 59.3528 144.621 59.4408 144.645L59.4288 145.725C59.2928 145.669 59.1728 145.637 59.0688 145.629C58.9728 145.613 58.8528 145.605 58.7088 145.605C58.3568 145.605 58.0568 145.685 57.8088 145.845C57.5608 145.997 57.3728 146.205 57.2448 146.469C57.1168 146.733 57.0528 147.017 57.0528 147.321V150.729H55.8288ZM62.8863 150.837C62.2863 150.837 61.7663 150.713 61.3263 150.465C60.8863 150.209 60.5463 149.849 60.3063 149.385C60.0663 148.913 59.9463 148.353 59.9463 147.705C59.9463 147.057 60.0663 146.501 60.3063 146.037C60.5463 145.565 60.8863 145.205 61.3263 144.957C61.7663 144.701 62.2863 144.573 62.8863 144.573C63.4863 144.573 64.0063 144.701 64.4463 144.957C64.8943 145.205 65.2383 145.565 65.4783 146.037C65.7263 146.501 65.8503 147.057 65.8503 147.705C65.8503 148.353 65.7263 148.913 65.4783 149.385C65.2383 149.849 64.8943 150.209 64.4463 150.465C64.0063 150.713 63.4863 150.837 62.8863 150.837ZM62.8863 149.889C63.4143 149.889 63.8343 149.705 64.1463 149.337C64.4583 148.969 64.6143 148.425 64.6143 147.705C64.6143 146.985 64.4583 146.445 64.1463 146.085C63.8343 145.717 63.4143 145.533 62.8863 145.533C62.3663 145.533 61.9503 145.717 61.6383 146.085C61.3263 146.445 61.1702 146.985 61.1702 147.705C61.1702 148.425 61.3223 148.969 61.6263 149.337C61.9383 149.705 62.3583 149.889 62.8863 149.889ZM67.2669 153.321V146.133C67.2669 145.901 67.2549 145.665 67.2309 145.425C67.2149 145.177 67.1949 144.929 67.1709 144.681H68.3469L68.4669 146.049H68.3349C68.4629 145.593 68.7189 145.233 69.1029 144.969C69.4949 144.705 69.9589 144.573 70.4949 144.573C71.0309 144.573 71.4989 144.701 71.8989 144.957C72.2989 145.205 72.6069 145.561 72.8229 146.025C73.0469 146.489 73.1589 147.049 73.1589 147.705C73.1589 148.353 73.0469 148.913 72.8229 149.385C72.6069 149.857 72.2989 150.217 71.8989 150.465C71.4989 150.713 71.0309 150.837 70.4949 150.837C69.9669 150.837 69.5069 150.709 69.1149 150.453C68.7309 150.189 68.4749 149.833 68.3469 149.385H68.4789V153.321H67.2669ZM70.1949 149.889C70.7229 149.889 71.1429 149.705 71.4549 149.337C71.7749 148.969 71.9349 148.425 71.9349 147.705C71.9349 146.985 71.7749 146.445 71.4549 146.085C71.1429 145.717 70.7229 145.533 70.1949 145.533C69.6669 145.533 69.2429 145.717 68.9229 146.085C68.6109 146.445 68.4549 146.985 68.4549 147.705C68.4549 148.425 68.6109 148.969 68.9229 149.337C69.2429 149.705 69.6669 149.889 70.1949 149.889ZM77.1714 150.837C76.5714 150.837 76.0514 150.713 75.6114 150.465C75.1714 150.209 74.8314 149.849 74.5914 149.385C74.3514 148.913 74.2314 148.353 74.2314 147.705C74.2314 147.057 74.3514 146.501 74.5914 146.037C74.8314 145.565 75.1714 145.205 75.6114 144.957C76.0514 144.701 76.5714 144.573 77.1714 144.573C77.7714 144.573 78.2914 144.701 78.7314 144.957C79.1794 145.205 79.5234 145.565 79.7634 146.037C80.0114 146.501 80.1354 147.057 80.1354 147.705C80.1354 148.353 80.0114 148.913 79.7634 149.385C79.5234 149.849 79.1794 150.209 78.7314 150.465C78.2914 150.713 77.7714 150.837 77.1714 150.837ZM77.1714 149.889C77.6994 149.889 78.1194 149.705 78.4314 149.337C78.7434 148.969 78.8994 148.425 78.8994 147.705C78.8994 146.985 78.7434 146.445 78.4314 146.085C78.1194 145.717 77.6994 145.533 77.1714 145.533C76.6514 145.533 76.2354 145.717 75.9234 146.085C75.6114 146.445 75.4554 146.985 75.4554 147.705C75.4554 148.425 75.6074 148.969 75.9114 149.337C76.2234 149.705 76.6434 149.889 77.1714 149.889ZM83.6281 150.837C83.1241 150.837 82.6601 150.773 82.2361 150.645C81.8121 150.517 81.4601 150.337 81.1801 150.105L81.5521 149.277C81.8481 149.501 82.1761 149.669 82.5361 149.781C82.8961 149.893 83.2641 149.949 83.6401 149.949C84.0801 149.949 84.4121 149.873 84.6361 149.721C84.8601 149.561 84.9721 149.345 84.9721 149.073C84.9721 148.865 84.9001 148.697 84.7561 148.569C84.6201 148.441 84.3921 148.345 84.0721 148.281L82.9201 148.053C82.4081 147.941 82.0201 147.749 81.7561 147.477C81.4921 147.205 81.3601 146.857 81.3601 146.433C81.3601 146.073 81.4561 145.753 81.6481 145.473C81.8481 145.193 82.1281 144.973 82.4881 144.813C82.8561 144.653 83.2841 144.573 83.7721 144.573C84.2201 144.573 84.6361 144.637 85.0201 144.765C85.4041 144.893 85.7241 145.077 85.9801 145.317L85.5961 146.121C85.3481 145.913 85.0681 145.753 84.7561 145.641C84.4441 145.521 84.1281 145.461 83.8081 145.461C83.3601 145.461 83.0281 145.545 82.8121 145.713C82.5961 145.881 82.4881 146.101 82.4881 146.373C82.4881 146.581 82.5521 146.753 82.6801 146.889C82.8161 147.017 83.0281 147.117 83.3161 147.189L84.4681 147.417C85.0121 147.529 85.4201 147.713 85.6921 147.969C85.9641 148.225 86.1001 148.569 86.1001 149.001C86.1001 149.377 85.9961 149.705 85.7881 149.985C85.5801 150.265 85.2921 150.477 84.9241 150.621C84.5561 150.765 84.1241 150.837 83.6281 150.837ZM89.8446 150.837C89.3086 150.837 88.8406 150.713 88.4406 150.465C88.0406 150.217 87.7286 149.857 87.5046 149.385C87.2886 148.913 87.1806 148.353 87.1806 147.705C87.1806 147.049 87.2886 146.489 87.5046 146.025C87.7286 145.561 88.0406 145.205 88.4406 144.957C88.8406 144.701 89.3086 144.573 89.8446 144.573C90.3726 144.573 90.8326 144.705 91.2246 144.969C91.6166 145.233 91.8766 145.593 92.0046 146.049H91.8726L91.9926 144.681H93.1686C93.1446 144.929 93.1206 145.177 93.0966 145.425C93.0806 145.665 93.0726 145.901 93.0726 146.133V150.729H91.8606V149.385H91.9926C91.8646 149.833 91.6006 150.189 91.2006 150.453C90.8086 150.709 90.3566 150.837 89.8446 150.837ZM90.1446 149.889C90.6646 149.889 91.0806 149.705 91.3926 149.337C91.7126 148.969 91.8726 148.425 91.8726 147.705C91.8726 146.985 91.7126 146.445 91.3926 146.085C91.0806 145.717 90.6646 145.533 90.1446 145.533C89.6166 145.533 89.1926 145.717 88.8726 146.085C88.5606 146.445 88.4046 146.985 88.4046 147.705C88.4046 148.425 88.5606 148.969 88.8726 149.337C89.1846 149.705 89.6086 149.889 90.1446 149.889ZM94.8411 150.729V141.897H96.0531V150.729H94.8411ZM99.9054 150.837C99.4014 150.837 98.9374 150.773 98.5134 150.645C98.0894 150.517 97.7374 150.337 97.4574 150.105L97.8294 149.277C98.1254 149.501 98.4534 149.669 98.8134 149.781C99.1734 149.893 99.5414 149.949 99.9174 149.949C100.357 149.949 100.689 149.873 100.913 149.721C101.137 149.561 101.249 149.345 101.249 149.073C101.249 148.865 101.177 148.697 101.033 148.569C100.897 148.441 100.669 148.345 100.349 148.281L99.1974 148.053C98.6854 147.941 98.2974 147.749 98.0334 147.477C97.7694 147.205 97.6374 146.857 97.6374 146.433C97.6374 146.073 97.7334 145.753 97.9254 145.473C98.1254 145.193 98.4054 144.973 98.7654 144.813C99.1334 144.653 99.5614 144.573 100.049 144.573C100.497 144.573 100.913 144.637 101.297 144.765C101.681 144.893 102.001 145.077 102.257 145.317L101.873 146.121C101.625 145.913 101.345 145.753 101.033 145.641C100.721 145.521 100.405 145.461 100.085 145.461C99.6374 145.461 99.3054 145.545 99.0894 145.713C98.8734 145.881 98.7654 146.101 98.7654 146.373C98.7654 146.581 98.8294 146.753 98.9574 146.889C99.0934 147.017 99.3054 147.117 99.5934 147.189L100.745 147.417C101.289 147.529 101.697 147.713 101.969 147.969C102.241 148.225 102.377 148.569 102.377 149.001C102.377 149.377 102.273 149.705 102.065 149.985C101.857 150.265 101.569 150.477 101.201 150.621C100.833 150.765 100.401 150.837 99.9054 150.837Z" fill="white"/>
<rect x="24.1914" y="43.8079" width="2.28571" height="2.28571" fill="white"/>
<rect x="24.1914" y="47.6176" width="2.28571" height="2.28571" fill="white"/>
<g filter="url(#filter0_d_40_966)">
<circle cx="47.4746" cy="56.5254" r="31.4746" fill="white"/>
<rect x="43.729" y="44.5348" width="2.24819" height="2.24819" fill="white"/>
<rect x="43.729" y="48.2795" width="2.24819" height="2.24819" fill="white"/>
</g>
<path fill-rule="evenodd" clip-rule="evenodd" d="M38.2652 68.8466H32.1569C30.8734 68.8466 30.2394 68.8466 29.8528 68.5994C29.4352 68.3286 29.1801 67.8802 29.1491 67.3852C29.1259 66.9292 29.443 66.3723 30.077 65.2589L45.1592 38.6744C45.801 37.5455 46.1257 36.981 46.5355 36.7723C46.9763 36.5481 47.5021 36.5481 47.9428 36.7723C48.3526 36.981 48.6774 37.5455 49.3191 38.6744L52.4197 44.0868L52.4355 44.1145C53.1286 45.3255 53.4801 45.9397 53.6336 46.5843C53.8037 47.2879 53.8037 48.0302 53.6336 48.7338C53.479 49.3833 53.131 50.0019 52.4274 51.2313L44.5051 65.2357L44.4846 65.2716C43.7868 66.4927 43.4332 67.1115 42.9432 67.5784C42.4097 68.0889 41.7679 68.4598 41.0643 68.6689C40.4225 68.8466 39.7034 68.8466 38.2652 68.8466ZM53.6908 68.8466H62.4434C63.7346 68.8466 64.3842 68.8466 64.7711 68.5918C65.1885 68.3211 65.4513 67.8647 65.4747 67.3701C65.4969 66.9288 65.1868 66.3936 64.5791 65.3449C64.5582 65.3092 64.5372 65.2729 64.5158 65.2359L60.1316 57.7358L60.0817 57.6514C59.4656 56.6095 59.1547 56.0834 58.7553 55.8801C58.3148 55.6558 57.7964 55.6558 57.3558 55.8801C56.9537 56.0889 56.629 56.6378 55.9873 57.7435L51.6186 65.2436L51.6037 65.2695C50.9641 66.3734 50.6445 66.925 50.6676 67.3777C50.6985 67.8726 50.9537 68.3286 51.3712 68.5994C51.7501 68.8466 52.3996 68.8466 53.6908 68.8466Z" fill="#E84142"/>
</g>
<defs>
<filter id="filter0_d_40_966" x="-24" y="-7.94922" width="142.949" height="142.949" filterUnits="userSpaceOnUse" color-interpolation-filters="sRGB">
<feFlood flood-opacity="0" result="BackgroundImageFix"/>
<feColorMatrix in="SourceAlpha" type="matrix" values="0 0 0 0 0 0 0 0 0 0 0 0 0 0 0 0 0 0 127 0" result="hardAlpha"/>
<feOffset dy="7"/>
<feGaussianBlur stdDeviation="20"/>
<feComposite in2="hardAlpha" operator="out"/>
<feColorMatrix type="matrix" values="0 0 0 0 0 0 0 0 0 0 0 0 0 0 0 0 0 0 0.18 0"/>
<feBlend mode="normal" in2="BackgroundImageFix" result="effect1_dropShadow_40_966"/>
<feBlend mode="normal" in="SourceGraphic" in2="effect1_dropShadow_40_966" result="shape"/>
</filter>
<linearGradient id="paint0_linear_40_966" x1="37.3862" y1="179.978" x2="217.742" y2="-22.8041" gradientUnits="userSpaceOnUse">
<stop stop-color="#D9A70B"/>
<stop offset="1" stop-color="#F3CA40"/>
</linearGradient>
<linearGradient id="paint1_linear_40_966" x1="37.3862" y1="179.978" x2="217.742" y2="-22.8041" gradientUnits="userSpaceOnUse">
<stop stop-color="#E71E3C"/>
<stop offset="1" stop-color="#DA5C27"/>
</linearGradient>
<linearGradient id="paint2_linear_40_966" x1="37.3862" y1="178.978" x2="217.742" y2="-23.8041" gradientUnits="userSpaceOnUse">
<stop stop-color="#475FBA"/>
<stop offset="1" stop-color="#1D91D0"/>
</linearGradient>
<linearGradient id="paint3_linear_40_966" x1="108.892" y1="404.589" x2="544.125" y2="119.197" gradientUnits="userSpaceOnUse">
<stop stop-opacity="0.01"/>
<stop offset="1" stop-color="white"/>
</linearGradient>
<linearGradient id="paint4_linear_40_966" x1="526.724" y1="133.257" x2="311.182" y2="-238.3" gradientUnits="userSpaceOnUse">
<stop stop-opacity="0.01"/>
<stop offset="1" stop-color="white"/>
</linearGradient>
<linearGradient id="paint5_linear_40_966" x1="226.543" y1="-66.8601" x2="144.871" y2="81.0235" gradientUnits="userSpaceOnUse">
<stop stop-opacity="0.01"/>
<stop offset="1" stop-color="white"/>
</linearGradient>
<linearGradient id="paint6_linear_40_966" x1="246.775" y1="131.729" x2="246.775" y2="161.729" gradientUnits="userSpaceOnUse">
<stop stop-color="#FA4833"/>
<stop offset="1" stop-color="#E30713"/>
</linearGradient>
</defs>
</svg>
