<svg width="1440" height="2236" viewBox="0 0 1440 2236" fill="none" xmlns="http://www.w3.org/2000/svg">
<rect width="1440" height="2487" fill="#F8F4F6"/>
<rect opacity="0.04" x="910" y="1383" width="901" height="901" rx="450.5" fill="#FF523C"/>
<rect opacity="0.04" x="-418" y="1203" width="738" height="738" rx="369" fill="#FF523C"/>
<rect opacity="0.04" x="947" y="185" width="701" height="701" rx="350.5" fill="#FF523C"/>
<g filter="url(#filter0_di_0_1)">
<g clip-path="url(#clip0_0_1)">
<path d="M1337 694C1337 637.115 1383.11 591 1440 591C1496.89 591 1543 637.115 1543 694C1543 750.885 1496.89 797 1440 797C1383.11 797 1337 750.885 1337 694Z" fill="#F3715E"/>
<g filter="url(#filter1_f_0_1)">
<ellipse cx="1431.24" cy="676.328" rx="111.755" ry="109.564" fill="#FF4229"/>
</g>
<g filter="url(#filter2_f_0_1)">
<ellipse cx="1414.88" cy="646.179" rx="69.0854" ry="67.4405" fill="#FF7360"/>
</g>
<g opacity="0.45" filter="url(#filter3_f_0_1)">
<ellipse rx="29.2632" ry="17.5099" transform="matrix(0.981993 -0.188915 0.196258 0.980552 1456.72 769.207)" fill="#FF7360"/>
</g>
</g>
</g>
<g filter="url(#filter4_di_0_1)">
<g clip-path="url(#clip1_0_1)">
<path d="M909 591C909 565.595 929.595 545 955 545V545C980.405 545 1001 565.595 1001 591V591C1001 616.405 980.405 637 955 637V637C929.595 637 909 616.405 909 591V591Z" fill="#F3715E"/>
<g filter="url(#filter5_f_0_1)">
<ellipse cx="951.09" cy="583.108" rx="49.91" ry="48.9314" fill="#FF4229"/>
</g>
<g filter="url(#filter6_f_0_1)">
<ellipse cx="943.781" cy="569.643" rx="30.8537" ry="30.119" fill="#FF7360"/>
</g>
<g opacity="0.45" filter="url(#filter7_f_0_1)">
<ellipse rx="13.069" ry="7.81995" transform="matrix(0.981993 -0.188915 0.196258 0.980552 962.468 624.588)" fill="#FF7360"/>
</g>
</g>
</g>
<rect opacity="0.04" x="-437" y="583" width="645" height="645" rx="322.5" fill="#FF523C"/>
<g filter="url(#filter8_di_0_1)">
<g clip-path="url(#clip2_0_1)">
<path d="M-62 1169C-62 1132.55 -32.4508 1103 4 1103C40.4508 1103 70 1132.55 70 1169C70 1205.45 40.4508 1235 4 1235C-32.4508 1235 -62 1205.45 -62 1169Z" fill="#F3715E"/>
<g filter="url(#filter9_f_0_1)">
<ellipse cx="-1.60997" cy="1157.68" rx="71.61" ry="70.2059" fill="#FF4229"/>
</g>
<g filter="url(#filter10_f_0_1)">
<ellipse cx="-12.0975" cy="1138.36" rx="44.2683" ry="43.2143" fill="#FF7360"/>
</g>
<g opacity="0.45" filter="url(#filter11_f_0_1)">
<ellipse rx="18.7512" ry="11.2199" transform="matrix(0.981993 -0.188915 0.196258 0.980552 14.7155 1217.19)" fill="#FF7360"/>
</g>
</g>
</g>
<g filter="url(#filter12_di_0_1)">
<g clip-path="url(#clip3_0_1)">
<path d="M1365 2146C1365 2109.55 1394.55 2080 1431 2080C1467.45 2080 1497 2109.55 1497 2146C1497 2182.45 1467.45 2212 1431 2212C1394.55 2212 1365 2182.45 1365 2146Z" fill="#F3715E"/>
<g filter="url(#filter13_f_0_1)">
<ellipse cx="1425.39" cy="2134.68" rx="71.61" ry="70.2059" fill="#FF4229"/>
</g>
<g filter="url(#filter14_f_0_1)">
<ellipse cx="1414.9" cy="2115.36" rx="44.2683" ry="43.2143" fill="#FF7360"/>
</g>
<g opacity="0.45" filter="url(#filter15_f_0_1)">
<ellipse rx="18.7512" ry="11.2199" transform="matrix(0.981993 -0.188915 0.196258 0.980552 1441.72 2194.19)" fill="#FF7360"/>
</g>
</g>
</g>
<defs>
<filter id="filter0_di_0_1" x="1146" y="414" width="628" height="628" filterUnits="userSpaceOnUse" color-interpolation-filters="sRGB">
<feFlood flood-opacity="0" result="BackgroundImageFix"/>
<feColorMatrix in="SourceAlpha" type="matrix" values="0 0 0 0 0 0 0 0 0 0 0 0 0 0 0 0 0 0 127 0" result="hardAlpha"/>
<feOffset dx="20" dy="34"/>
<feGaussianBlur stdDeviation="105.5"/>
<feComposite in2="hardAlpha" operator="out"/>
<feColorMatrix type="matrix" values="0 0 0 0 0.988235 0 0 0 0 0.309804 0 0 0 0 0.211765 0 0 0 1 0"/>
<feBlend mode="normal" in2="BackgroundImageFix" result="effect1_dropShadow_0_1"/>
<feBlend mode="normal" in="SourceGraphic" in2="effect1_dropShadow_0_1" result="shape"/>
<feColorMatrix in="SourceAlpha" type="matrix" values="0 0 0 0 0 0 0 0 0 0 0 0 0 0 0 0 0 0 127 0" result="hardAlpha"/>
<feMorphology radius="4" operator="erode" in="SourceAlpha" result="effect2_innerShadow_0_1"/>
<feOffset/>
<feGaussianBlur stdDeviation="15"/>
<feComposite in2="hardAlpha" operator="arithmetic" k2="-1" k3="1"/>
<feColorMatrix type="matrix" values="0 0 0 0 0.9875 0 0 0 0 0.645509 0 0 0 0 0.576042 0 0 0 0.6 0"/>
<feBlend mode="normal" in2="shape" result="effect2_innerShadow_0_1"/>
</filter>
<filter id="filter1_f_0_1" x="1259.49" y="506.765" width="343.51" height="339.127" filterUnits="userSpaceOnUse" color-interpolation-filters="sRGB">
<feFlood flood-opacity="0" result="BackgroundImageFix"/>
<feBlend mode="normal" in="SourceGraphic" in2="BackgroundImageFix" result="shape"/>
<feGaussianBlur stdDeviation="30" result="effect1_foregroundBlur_0_1"/>
</filter>
<filter id="filter2_f_0_1" x="1295.79" y="528.738" width="238.171" height="234.881" filterUnits="userSpaceOnUse" color-interpolation-filters="sRGB">
<feFlood flood-opacity="0" result="BackgroundImageFix"/>
<feBlend mode="normal" in="SourceGraphic" in2="BackgroundImageFix" result="shape"/>
<feGaussianBlur stdDeviation="25" result="effect1_foregroundBlur_0_1"/>
</filter>
<filter id="filter3_f_0_1" x="1397.78" y="721.165" width="117.888" height="96.0846" filterUnits="userSpaceOnUse" color-interpolation-filters="sRGB">
<feFlood flood-opacity="0" result="BackgroundImageFix"/>
<feBlend mode="normal" in="SourceGraphic" in2="BackgroundImageFix" result="shape"/>
<feGaussianBlur stdDeviation="15" result="effect1_foregroundBlur_0_1"/>
</filter>
<filter id="filter4_di_0_1" x="718" y="368" width="514" height="514" filterUnits="userSpaceOnUse" color-interpolation-filters="sRGB">
<feFlood flood-opacity="0" result="BackgroundImageFix"/>
<feColorMatrix in="SourceAlpha" type="matrix" values="0 0 0 0 0 0 0 0 0 0 0 0 0 0 0 0 0 0 127 0" result="hardAlpha"/>
<feOffset dx="20" dy="34"/>
<feGaussianBlur stdDeviation="105.5"/>
<feComposite in2="hardAlpha" operator="out"/>
<feColorMatrix type="matrix" values="0 0 0 0 0.988235 0 0 0 0 0.309804 0 0 0 0 0.211765 0 0 0 1 0"/>
<feBlend mode="normal" in2="BackgroundImageFix" result="effect1_dropShadow_0_1"/>
<feBlend mode="normal" in="SourceGraphic" in2="effect1_dropShadow_0_1" result="shape"/>
<feColorMatrix in="SourceAlpha" type="matrix" values="0 0 0 0 0 0 0 0 0 0 0 0 0 0 0 0 0 0 127 0" result="hardAlpha"/>
<feMorphology radius="4" operator="erode" in="SourceAlpha" result="effect2_innerShadow_0_1"/>
<feOffset/>
<feGaussianBlur stdDeviation="15"/>
<feComposite in2="hardAlpha" operator="arithmetic" k2="-1" k3="1"/>
<feColorMatrix type="matrix" values="0 0 0 0 0.9875 0 0 0 0 0.645509 0 0 0 0 0.576042 0 0 0 0.6 0"/>
<feBlend mode="normal" in2="shape" result="effect2_innerShadow_0_1"/>
</filter>
<filter id="filter5_f_0_1" x="841.18" y="474.176" width="219.82" height="217.863" filterUnits="userSpaceOnUse" color-interpolation-filters="sRGB">
<feFlood flood-opacity="0" result="BackgroundImageFix"/>
<feBlend mode="normal" in="SourceGraphic" in2="BackgroundImageFix" result="shape"/>
<feGaussianBlur stdDeviation="30" result="effect1_foregroundBlur_0_1"/>
</filter>
<filter id="filter6_f_0_1" x="862.927" y="489.524" width="161.707" height="160.238" filterUnits="userSpaceOnUse" color-interpolation-filters="sRGB">
<feFlood flood-opacity="0" result="BackgroundImageFix"/>
<feBlend mode="normal" in="SourceGraphic" in2="BackgroundImageFix" result="shape"/>
<feGaussianBlur stdDeviation="25" result="effect1_foregroundBlur_0_1"/>
</filter>
<filter id="filter7_f_0_1" x="919.542" y="586.53" width="85.8528" height="76.1154" filterUnits="userSpaceOnUse" color-interpolation-filters="sRGB">
<feFlood flood-opacity="0" result="BackgroundImageFix"/>
<feBlend mode="normal" in="SourceGraphic" in2="BackgroundImageFix" result="shape"/>
<feGaussianBlur stdDeviation="15" result="effect1_foregroundBlur_0_1"/>
</filter>
<filter id="filter8_di_0_1" x="-253" y="926" width="554" height="554" filterUnits="userSpaceOnUse" color-interpolation-filters="sRGB">
<feFlood flood-opacity="0" result="BackgroundImageFix"/>
<feColorMatrix in="SourceAlpha" type="matrix" values="0 0 0 0 0 0 0 0 0 0 0 0 0 0 0 0 0 0 127 0" result="hardAlpha"/>
<feOffset dx="20" dy="34"/>
<feGaussianBlur stdDeviation="105.5"/>
<feComposite in2="hardAlpha" operator="out"/>
<feColorMatrix type="matrix" values="0 0 0 0 0.988235 0 0 0 0 0.309804 0 0 0 0 0.211765 0 0 0 1 0"/>
<feBlend mode="normal" in2="BackgroundImageFix" result="effect1_dropShadow_0_1"/>
<feBlend mode="normal" in="SourceGraphic" in2="effect1_dropShadow_0_1" result="shape"/>
<feColorMatrix in="SourceAlpha" type="matrix" values="0 0 0 0 0 0 0 0 0 0 0 0 0 0 0 0 0 0 127 0" result="hardAlpha"/>
<feMorphology radius="4" operator="erode" in="SourceAlpha" result="effect2_innerShadow_0_1"/>
<feOffset/>
<feGaussianBlur stdDeviation="15"/>
<feComposite in2="hardAlpha" operator="arithmetic" k2="-1" k3="1"/>
<feColorMatrix type="matrix" values="0 0 0 0 0.9875 0 0 0 0 0.645509 0 0 0 0 0.576042 0 0 0 0.6 0"/>
<feBlend mode="normal" in2="shape" result="effect2_innerShadow_0_1"/>
</filter>
<filter id="filter9_f_0_1" x="-133.22" y="1027.47" width="263.22" height="260.412" filterUnits="userSpaceOnUse" color-interpolation-filters="sRGB">
<feFlood flood-opacity="0" result="BackgroundImageFix"/>
<feBlend mode="normal" in="SourceGraphic" in2="BackgroundImageFix" result="shape"/>
<feGaussianBlur stdDeviation="30" result="effect1_foregroundBlur_0_1"/>
</filter>
<filter id="filter10_f_0_1" x="-106.366" y="1045.14" width="188.537" height="186.429" filterUnits="userSpaceOnUse" color-interpolation-filters="sRGB">
<feFlood flood-opacity="0" result="BackgroundImageFix"/>
<feBlend mode="normal" in="SourceGraphic" in2="BackgroundImageFix" result="shape"/>
<feGaussianBlur stdDeviation="25" result="effect1_foregroundBlur_0_1"/>
</filter>
<filter id="filter11_f_0_1" x="-33.8311" y="1175.63" width="97.0931" height="83.1222" filterUnits="userSpaceOnUse" color-interpolation-filters="sRGB">
<feFlood flood-opacity="0" result="BackgroundImageFix"/>
<feBlend mode="normal" in="SourceGraphic" in2="BackgroundImageFix" result="shape"/>
<feGaussianBlur stdDeviation="15" result="effect1_foregroundBlur_0_1"/>
</filter>
<filter id="filter12_di_0_1" x="1174" y="1903" width="554" height="554" filterUnits="userSpaceOnUse" color-interpolation-filters="sRGB">
<feFlood flood-opacity="0" result="BackgroundImageFix"/>
<feColorMatrix in="SourceAlpha" type="matrix" values="0 0 0 0 0 0 0 0 0 0 0 0 0 0 0 0 0 0 127 0" result="hardAlpha"/>
<feOffset dx="20" dy="34"/>
<feGaussianBlur stdDeviation="105.5"/>
<feComposite in2="hardAlpha" operator="out"/>
<feColorMatrix type="matrix" values="0 0 0 0 0.988235 0 0 0 0 0.309804 0 0 0 0 0.211765 0 0 0 1 0"/>
<feBlend mode="normal" in2="BackgroundImageFix" result="effect1_dropShadow_0_1"/>
<feBlend mode="normal" in="SourceGraphic" in2="effect1_dropShadow_0_1" result="shape"/>
<feColorMatrix in="SourceAlpha" type="matrix" values="0 0 0 0 0 0 0 0 0 0 0 0 0 0 0 0 0 0 127 0" result="hardAlpha"/>
<feMorphology radius="4" operator="erode" in="SourceAlpha" result="effect2_innerShadow_0_1"/>
<feOffset/>
<feGaussianBlur stdDeviation="15"/>
<feComposite in2="hardAlpha" operator="arithmetic" k2="-1" k3="1"/>
<feColorMatrix type="matrix" values="0 0 0 0 0.9875 0 0 0 0 0.645509 0 0 0 0 0.576042 0 0 0 0.6 0"/>
<feBlend mode="normal" in2="shape" result="effect2_innerShadow_0_1"/>
</filter>
<filter id="filter13_f_0_1" x="1293.78" y="2004.47" width="263.22" height="260.412" filterUnits="userSpaceOnUse" color-interpolation-filters="sRGB">
<feFlood flood-opacity="0" result="BackgroundImageFix"/>
<feBlend mode="normal" in="SourceGraphic" in2="BackgroundImageFix" result="shape"/>
<feGaussianBlur stdDeviation="30" result="effect1_foregroundBlur_0_1"/>
</filter>
<filter id="filter14_f_0_1" x="1320.63" y="2022.14" width="188.537" height="186.429" filterUnits="userSpaceOnUse" color-interpolation-filters="sRGB">
<feFlood flood-opacity="0" result="BackgroundImageFix"/>
<feBlend mode="normal" in="SourceGraphic" in2="BackgroundImageFix" result="shape"/>
<feGaussianBlur stdDeviation="25" result="effect1_foregroundBlur_0_1"/>
</filter>
<filter id="filter15_f_0_1" x="1393.17" y="2152.63" width="97.093" height="83.1222" filterUnits="userSpaceOnUse" color-interpolation-filters="sRGB">
<feFlood flood-opacity="0" result="BackgroundImageFix"/>
<feBlend mode="normal" in="SourceGraphic" in2="BackgroundImageFix" result="shape"/>
<feGaussianBlur stdDeviation="15" result="effect1_foregroundBlur_0_1"/>
</filter>
<clipPath id="clip0_0_1">
<path d="M1337 694C1337 637.115 1383.11 591 1440 591C1496.89 591 1543 637.115 1543 694C1543 750.885 1496.89 797 1440 797C1383.11 797 1337 750.885 1337 694Z" fill="white"/>
</clipPath>
<clipPath id="clip1_0_1">
<path d="M909 591C909 565.595 929.595 545 955 545V545C980.405 545 1001 565.595 1001 591V591C1001 616.405 980.405 637 955 637V637C929.595 637 909 616.405 909 591V591Z" fill="white"/>
</clipPath>
<clipPath id="clip2_0_1">
<path d="M-62 1169C-62 1132.55 -32.4508 1103 4 1103C40.4508 1103 70 1132.55 70 1169C70 1205.45 40.4508 1235 4 1235C-32.4508 1235 -62 1205.45 -62 1169Z" fill="white"/>
</clipPath>
<clipPath id="clip3_0_1">
<path d="M1365 2146C1365 2109.55 1394.55 2080 1431 2080C1467.45 2080 1497 2109.55 1497 2146C1497 2182.45 1467.45 2212 1431 2212C1394.55 2212 1365 2182.45 1365 2146Z" fill="white"/>
</clipPath>
</defs>
</svg>
