<svg width="278" height="189" viewBox="0 0 278 189" fill="none" xmlns="http://www.w3.org/2000/svg">
<mask id="mask0_211_1017" style="mask-type:alpha" maskUnits="userSpaceOnUse" x="0" y="0" width="278" height="189">
<path d="M0 5.99999C0 2.68628 2.68629 0 6 0H272C275.314 0 278 2.68629 278 6V182.88C278 186.194 275.314 188.88 272 188.88H6C2.68629 188.88 0 186.194 0 182.88V5.99999Z" fill="url(#paint0_linear_211_1017)"/>
</mask>
<g mask="url(#mask0_211_1017)">
<path d="M0 5.99999C0 2.68628 2.68629 0 6 0H272C275.314 0 278 2.68629 278 6V182.88C278 186.194 275.314 188.88 272 188.88H6C2.68629 188.88 0 186.194 0 182.88V5.99999Z" fill="url(#paint1_linear_211_1017)"/>
<mask id="mask1_211_1017" style="mask-type:alpha" maskUnits="userSpaceOnUse" x="0" y="0" width="278" height="189">
<path d="M0 5.99999C0 2.68628 2.68629 0 6 0H272C275.314 0 278 2.68629 278 6V182.88C278 186.194 275.314 188.88 272 188.88H6C2.68629 188.88 0 186.194 0 182.88V5.99999Z" fill="url(#paint2_linear_211_1017)"/>
</mask>
<g mask="url(#mask1_211_1017)">
<g style="mix-blend-mode:overlay" opacity="0.504246">
<path style="mix-blend-mode:overlay" opacity="0.504246" fill-rule="evenodd" clip-rule="evenodd" d="M268.248 -86.2981L319.856 -77.1981C341.669 -73.352 359.773 -58.1612 367.348 -37.348L385.272 11.8966C392.847 32.7098 388.743 55.9834 374.506 72.9505L340.821 113.095C326.584 130.062 304.376 138.145 282.564 134.299L230.955 125.199C209.143 121.353 191.039 106.162 183.464 85.3487L165.54 36.1041C157.965 15.2909 162.068 -7.98272 176.305 -24.9498L209.991 -65.0943C224.228 -82.0614 246.435 -90.1442 268.248 -86.2981Z" fill="url(#paint3_linear_211_1017)"/>
</g>
<g style="mix-blend-mode:overlay" opacity="0.504246">
<path style="mix-blend-mode:overlay" opacity="0.504246" fill-rule="evenodd" clip-rule="evenodd" d="M282.584 -101.002L339.354 -83.6453C363.348 -76.3097 381.606 -56.7308 387.25 -32.2838L400.604 25.5584C406.248 50.0054 398.421 75.6064 380.071 92.7178L336.655 133.204C318.305 150.315 292.221 156.337 268.227 149.002L211.457 131.645C187.463 124.31 169.206 104.731 163.562 80.2838L150.208 22.4416C144.564 -2.00538 152.391 -27.6064 170.741 -44.7178L214.156 -85.2037C232.506 -102.315 258.591 -108.337 282.584 -101.002Z" fill="url(#paint4_linear_211_1017)"/>
</g>
<g style="mix-blend-mode:overlay" opacity="0.504246">
<path style="mix-blend-mode:overlay" opacity="0.504246" fill-rule="evenodd" clip-rule="evenodd" d="M189.966 61.5291L182.283 17.9566C179.035 -0.459354 185.86 -19.2087 200.185 -31.2289L234.078 -59.6688C248.403 -71.689 268.053 -75.1537 285.625 -68.7579L327.201 -53.6253C344.774 -47.2296 357.599 -31.9449 360.846 -13.529L368.529 30.0435C371.776 48.4594 364.952 67.2088 350.627 79.229L316.734 107.669C302.409 119.689 282.759 123.154 265.187 116.758L223.61 101.625C206.038 95.2296 193.213 79.945 189.966 61.5291Z" fill="url(#paint5_linear_211_1017)"/>
</g>
<path d="M112.647 66.7432V48.4132H121.097C123.108 48.4132 124.659 48.8378 125.751 49.6872C126.843 50.5365 127.389 51.6978 127.389 53.1712C127.389 54.2632 127.06 55.1905 126.401 55.9532C125.76 56.7158 124.876 57.2272 123.749 57.4872V57.0712C125.067 57.2965 126.081 57.7992 126.791 58.5792C127.519 59.3418 127.883 60.3385 127.883 61.5692C127.883 63.1985 127.303 64.4725 126.141 65.3912C124.997 66.2925 123.411 66.7432 121.383 66.7432H112.647ZM116.521 63.7272H120.889C121.895 63.7272 122.666 63.5365 123.203 63.1552C123.741 62.7738 124.009 62.1672 124.009 61.3352C124.009 60.4858 123.741 59.8792 123.203 59.5152C122.666 59.1338 121.895 58.9432 120.889 58.9432H116.521V63.7272ZM116.521 55.9532H120.369C121.427 55.9532 122.207 55.7625 122.709 55.3812C123.212 54.9998 123.463 54.4278 123.463 53.6652C123.463 52.9198 123.212 52.3565 122.709 51.9752C122.207 51.5938 121.427 51.4032 120.369 51.4032H116.521V55.9532Z" fill="white"/>
<path d="M130.751 66.7432V48.4132H133.767L143.725 61.0752H143.023V48.4132H146.793V66.7432H143.777L133.845 54.0812H134.521V66.7432H130.751Z" fill="white"/>
<path d="M150.505 66.7432V48.4132H158.955C160.966 48.4132 162.517 48.8378 163.609 49.6872C164.701 50.5365 165.247 51.6978 165.247 53.1712C165.247 54.2632 164.918 55.1905 164.259 55.9532C163.618 56.7158 162.734 57.2272 161.607 57.4872V57.0712C162.924 57.2965 163.938 57.7992 164.649 58.5792C165.377 59.3418 165.741 60.3385 165.741 61.5692C165.741 63.1985 165.16 64.4725 163.999 65.3912C162.855 66.2925 161.269 66.7432 159.241 66.7432H150.505ZM154.379 63.7272H158.747C159.752 63.7272 160.524 63.5365 161.061 63.1552C161.598 62.7738 161.867 62.1672 161.867 61.3352C161.867 60.4858 161.598 59.8792 161.061 59.5152C160.524 59.1338 159.752 58.9432 158.747 58.9432H154.379V63.7272ZM154.379 55.9532H158.227C159.284 55.9532 160.064 55.7625 160.567 55.3812C161.07 54.9998 161.321 54.4278 161.321 53.6652C161.321 52.9198 161.07 52.3565 160.567 51.9752C160.064 51.5938 159.284 51.4032 158.227 51.4032H154.379V55.9532Z" fill="white"/>
<path d="M184.812 67.0292C182.854 67.0292 181.172 66.6392 179.768 65.8592C178.364 65.0792 177.281 63.9872 176.518 62.5832C175.773 61.1618 175.4 59.4892 175.4 57.5652C175.4 55.6412 175.773 53.9772 176.518 52.5732C177.281 51.1692 178.364 50.0772 179.768 49.2972C181.172 48.5172 182.854 48.1272 184.812 48.1272C186.078 48.1272 187.23 48.3092 188.27 48.6732C189.31 49.0198 190.194 49.5312 190.922 50.2072L189.648 53.4052C188.851 52.7812 188.088 52.3392 187.36 52.0792C186.65 51.8192 185.844 51.6892 184.942 51.6892C183.226 51.6892 181.909 52.2005 180.99 53.2232C180.089 54.2285 179.638 55.6758 179.638 57.5652C179.638 59.4545 180.089 60.9105 180.99 61.9332C181.909 62.9558 183.226 63.4672 184.942 63.4672C185.844 63.4672 186.65 63.3372 187.36 63.0772C188.088 62.8172 188.851 62.3752 189.648 61.7512L190.922 64.9492C190.194 65.6078 189.31 66.1192 188.27 66.4832C187.23 66.8472 186.078 67.0292 184.812 67.0292Z" fill="white"/>
<path d="M193.485 66.7432V47.6072H197.411V56.0312H197.021C197.437 55.1472 198.052 54.4712 198.867 54.0032C199.682 53.5352 200.618 53.3012 201.675 53.3012C203.218 53.3012 204.37 53.7518 205.133 54.6532C205.896 55.5372 206.277 56.8978 206.277 58.7352V66.7432H202.351V58.9172C202.351 57.9985 202.178 57.3398 201.831 56.9412C201.502 56.5425 200.982 56.3432 200.271 56.3432C199.404 56.3432 198.711 56.6118 198.191 57.1492C197.671 57.6865 197.411 58.4058 197.411 59.3072V66.7432H193.485Z" fill="white"/>
<path d="M214.552 67.0292C213.408 67.0292 212.403 66.7518 211.536 66.1972C210.67 65.6425 209.994 64.8538 209.508 63.8312C209.023 62.8085 208.78 61.5778 208.78 60.1392C208.78 58.7178 209.023 57.4958 209.508 56.4732C209.994 55.4505 210.67 54.6705 211.536 54.1332C212.403 53.5785 213.408 53.3012 214.552 53.3012C215.61 53.3012 216.554 53.5612 217.386 54.0812C218.236 54.5838 218.79 55.2685 219.05 56.1352H218.764L219.076 53.5612H222.846C222.794 54.1332 222.742 54.7138 222.69 55.3032C222.656 55.8752 222.638 56.4385 222.638 56.9932V66.7432H218.738L218.712 64.2732H219.024C218.747 65.1052 218.192 65.7725 217.36 66.2752C216.528 66.7778 215.592 67.0292 214.552 67.0292ZM215.748 64.0652C216.65 64.0652 217.378 63.7445 217.932 63.1032C218.487 62.4618 218.764 61.4738 218.764 60.1392C218.764 58.8045 218.487 57.8252 217.932 57.2012C217.378 56.5772 216.65 56.2652 215.748 56.2652C214.847 56.2652 214.119 56.5772 213.564 57.2012C213.01 57.8252 212.732 58.8045 212.732 60.1392C212.732 61.4738 213.001 62.4618 213.538 63.1032C214.093 63.7445 214.83 64.0652 215.748 64.0652Z" fill="white"/>
<path d="M225.858 66.7432V53.5612H229.784V66.7432H225.858ZM225.702 51.4032V47.7372H229.914V51.4032H225.702Z" fill="white"/>
<path d="M232.993 66.7432V56.9932C232.993 56.4385 232.976 55.8752 232.941 55.3032C232.906 54.7138 232.854 54.1332 232.785 53.5612H236.555L236.841 56.0052H236.529C236.962 55.1385 237.578 54.4712 238.375 54.0032C239.172 53.5352 240.1 53.3012 241.157 53.3012C242.7 53.3012 243.852 53.7518 244.615 54.6532C245.395 55.5372 245.785 56.9152 245.785 58.7872V66.7432H241.859V58.9692C241.859 58.0158 241.686 57.3398 241.339 56.9412C240.992 56.5425 240.472 56.3432 239.779 56.3432C238.912 56.3432 238.219 56.6205 237.699 57.1752C237.179 57.7125 236.919 58.4405 236.919 59.3592V66.7432H232.993Z" fill="white"/>
<path d="M261.775 146.729C261.775 138.445 255.059 131.729 246.775 131.729C238.491 131.729 231.775 138.445 231.775 146.729C231.775 155.013 238.491 161.729 246.775 161.729C255.059 161.729 261.775 155.013 261.775 146.729Z" fill="url(#paint6_linear_211_1017)"/>
<path d="M244.775 151.729L249.775 146.729L244.775 141.729" stroke="white" stroke-opacity="0.8" stroke-width="2" stroke-linecap="round" stroke-linejoin="round"/>
<path d="M19.6961 150.729L15.9761 142.269H17.3201L20.4881 149.685H20.0561L23.2361 142.269H24.5201L20.7881 150.729H19.6961ZM25.3842 150.729V144.681H26.5962V150.729H25.3842ZM25.2882 143.421V142.161H26.6922V143.421H25.2882ZM31.1685 150.837C30.1925 150.837 29.4245 150.561 28.8645 150.009C28.3045 149.457 28.0245 148.693 28.0245 147.717C28.0245 147.085 28.1445 146.533 28.3845 146.061C28.6325 145.589 28.9725 145.225 29.4045 144.969C29.8445 144.705 30.3525 144.573 30.9285 144.573C31.4965 144.573 31.9725 144.693 32.3565 144.933C32.7405 145.173 33.0325 145.513 33.2325 145.953C33.4325 146.385 33.5325 146.897 33.5325 147.489V147.873H28.9725V147.177H32.7045L32.5005 147.333C32.5005 146.733 32.3645 146.269 32.0925 145.941C31.8285 145.605 31.4445 145.437 30.9405 145.437C30.3805 145.437 29.9485 145.633 29.6445 146.025C29.3405 146.409 29.1885 146.941 29.1885 147.621V147.741C29.1885 148.453 29.3605 148.989 29.7045 149.349C30.0565 149.709 30.5525 149.889 31.1925 149.889C31.5445 149.889 31.8725 149.841 32.1765 149.745C32.4885 149.641 32.7845 149.473 33.0645 149.241L33.4605 150.069C33.1805 150.317 32.8405 150.509 32.4405 150.645C32.0405 150.773 31.6165 150.837 31.1685 150.837ZM36.4852 150.729L34.1932 144.681H35.4532L37.2412 149.721H36.9292L38.7652 144.681H39.7012L41.5252 149.721H41.2252L43.0132 144.681H44.2252L41.9212 150.729H40.8172L38.9212 145.593H39.4852L37.6132 150.729H36.4852ZM48.5404 153.321V146.133C48.5404 145.901 48.5284 145.665 48.5044 145.425C48.4884 145.177 48.4684 144.929 48.4444 144.681H49.6204L49.7404 146.049H49.6084C49.7364 145.593 49.9924 145.233 50.3764 144.969C50.7684 144.705 51.2324 144.573 51.7684 144.573C52.3044 144.573 52.7724 144.701 53.1724 144.957C53.5724 145.205 53.8804 145.561 54.0964 146.025C54.3204 146.489 54.4324 147.049 54.4324 147.705C54.4324 148.353 54.3204 148.913 54.0964 149.385C53.8804 149.857 53.5724 150.217 53.1724 150.465C52.7724 150.713 52.3044 150.837 51.7684 150.837C51.2404 150.837 50.7804 150.709 50.3884 150.453C50.0044 150.189 49.7484 149.833 49.6204 149.385H49.7524V153.321H48.5404ZM51.4684 149.889C51.9964 149.889 52.4164 149.705 52.7284 149.337C53.0484 148.969 53.2084 148.425 53.2084 147.705C53.2084 146.985 53.0484 146.445 52.7284 146.085C52.4164 145.717 51.9964 145.533 51.4684 145.533C50.9404 145.533 50.5164 145.717 50.1964 146.085C49.8844 146.445 49.7284 146.985 49.7284 147.705C49.7284 148.425 49.8844 148.969 50.1964 149.337C50.5164 149.705 50.9404 149.889 51.4684 149.889ZM55.8289 150.729V146.181C55.8289 145.933 55.8209 145.685 55.8049 145.437C55.7969 145.181 55.7809 144.929 55.7569 144.681H56.9329L57.0649 146.241H56.8729C56.9529 145.865 57.0889 145.553 57.2809 145.305C57.4729 145.057 57.7049 144.873 57.9769 144.753C58.2569 144.633 58.5489 144.573 58.8529 144.573C58.9809 144.573 59.0889 144.581 59.1769 144.597C59.2649 144.605 59.3529 144.621 59.4409 144.645L59.4289 145.725C59.2929 145.669 59.1729 145.637 59.0689 145.629C58.9729 145.613 58.8529 145.605 58.7089 145.605C58.3569 145.605 58.0569 145.685 57.8089 145.845C57.5609 145.997 57.3729 146.205 57.2449 146.469C57.1169 146.733 57.0529 147.017 57.0529 147.321V150.729H55.8289ZM62.8864 150.837C62.2864 150.837 61.7664 150.713 61.3264 150.465C60.8864 150.209 60.5464 149.849 60.3064 149.385C60.0664 148.913 59.9464 148.353 59.9464 147.705C59.9464 147.057 60.0664 146.501 60.3064 146.037C60.5464 145.565 60.8864 145.205 61.3264 144.957C61.7664 144.701 62.2864 144.573 62.8864 144.573C63.4864 144.573 64.0064 144.701 64.4464 144.957C64.8944 145.205 65.2384 145.565 65.4784 146.037C65.7264 146.501 65.8504 147.057 65.8504 147.705C65.8504 148.353 65.7264 148.913 65.4784 149.385C65.2384 149.849 64.8944 150.209 64.4464 150.465C64.0064 150.713 63.4864 150.837 62.8864 150.837ZM62.8864 149.889C63.4144 149.889 63.8344 149.705 64.1464 149.337C64.4584 148.969 64.6144 148.425 64.6144 147.705C64.6144 146.985 64.4584 146.445 64.1464 146.085C63.8344 145.717 63.4144 145.533 62.8864 145.533C62.3664 145.533 61.9504 145.717 61.6384 146.085C61.3264 146.445 61.1703 146.985 61.1703 147.705C61.1703 148.425 61.3224 148.969 61.6264 149.337C61.9384 149.705 62.3584 149.889 62.8864 149.889ZM67.267 153.321V146.133C67.267 145.901 67.255 145.665 67.231 145.425C67.215 145.177 67.195 144.929 67.171 144.681H68.347L68.467 146.049H68.335C68.463 145.593 68.719 145.233 69.103 144.969C69.495 144.705 69.959 144.573 70.495 144.573C71.031 144.573 71.499 144.701 71.899 144.957C72.299 145.205 72.607 145.561 72.823 146.025C73.047 146.489 73.159 147.049 73.159 147.705C73.159 148.353 73.047 148.913 72.823 149.385C72.607 149.857 72.299 150.217 71.899 150.465C71.499 150.713 71.031 150.837 70.495 150.837C69.967 150.837 69.507 150.709 69.115 150.453C68.731 150.189 68.475 149.833 68.347 149.385H68.479V153.321H67.267ZM70.195 149.889C70.723 149.889 71.143 149.705 71.455 149.337C71.775 148.969 71.935 148.425 71.935 147.705C71.935 146.985 71.775 146.445 71.455 146.085C71.143 145.717 70.723 145.533 70.195 145.533C69.667 145.533 69.243 145.717 68.923 146.085C68.611 146.445 68.455 146.985 68.455 147.705C68.455 148.425 68.611 148.969 68.923 149.337C69.243 149.705 69.667 149.889 70.195 149.889ZM77.1715 150.837C76.5715 150.837 76.0515 150.713 75.6115 150.465C75.1715 150.209 74.8315 149.849 74.5915 149.385C74.3515 148.913 74.2315 148.353 74.2315 147.705C74.2315 147.057 74.3515 146.501 74.5915 146.037C74.8315 145.565 75.1715 145.205 75.6115 144.957C76.0515 144.701 76.5715 144.573 77.1715 144.573C77.7715 144.573 78.2915 144.701 78.7315 144.957C79.1795 145.205 79.5235 145.565 79.7635 146.037C80.0115 146.501 80.1355 147.057 80.1355 147.705C80.1355 148.353 80.0115 148.913 79.7635 149.385C79.5235 149.849 79.1795 150.209 78.7315 150.465C78.2915 150.713 77.7715 150.837 77.1715 150.837ZM77.1715 149.889C77.6995 149.889 78.1195 149.705 78.4315 149.337C78.7435 148.969 78.8995 148.425 78.8995 147.705C78.8995 146.985 78.7435 146.445 78.4315 146.085C78.1195 145.717 77.6995 145.533 77.1715 145.533C76.6515 145.533 76.2355 145.717 75.9235 146.085C75.6115 146.445 75.4555 146.985 75.4555 147.705C75.4555 148.425 75.6075 148.969 75.9115 149.337C76.2235 149.705 76.6435 149.889 77.1715 149.889ZM83.6282 150.837C83.1242 150.837 82.6602 150.773 82.2362 150.645C81.8122 150.517 81.4602 150.337 81.1802 150.105L81.5522 149.277C81.8482 149.501 82.1762 149.669 82.5362 149.781C82.8962 149.893 83.2642 149.949 83.6402 149.949C84.0802 149.949 84.4122 149.873 84.6362 149.721C84.8602 149.561 84.9722 149.345 84.9722 149.073C84.9722 148.865 84.9002 148.697 84.7562 148.569C84.6202 148.441 84.3922 148.345 84.0722 148.281L82.9202 148.053C82.4082 147.941 82.0202 147.749 81.7562 147.477C81.4922 147.205 81.3602 146.857 81.3602 146.433C81.3602 146.073 81.4562 145.753 81.6482 145.473C81.8482 145.193 82.1282 144.973 82.4882 144.813C82.8562 144.653 83.2842 144.573 83.7722 144.573C84.2202 144.573 84.6362 144.637 85.0202 144.765C85.4042 144.893 85.7242 145.077 85.9802 145.317L85.5962 146.121C85.3482 145.913 85.0682 145.753 84.7562 145.641C84.4442 145.521 84.1282 145.461 83.8082 145.461C83.3602 145.461 83.0282 145.545 82.8122 145.713C82.5962 145.881 82.4882 146.101 82.4882 146.373C82.4882 146.581 82.5522 146.753 82.6802 146.889C82.8162 147.017 83.0282 147.117 83.3162 147.189L84.4682 147.417C85.0122 147.529 85.4202 147.713 85.6922 147.969C85.9642 148.225 86.1002 148.569 86.1002 149.001C86.1002 149.377 85.9962 149.705 85.7882 149.985C85.5802 150.265 85.2922 150.477 84.9242 150.621C84.5562 150.765 84.1242 150.837 83.6282 150.837ZM89.8447 150.837C89.3087 150.837 88.8407 150.713 88.4407 150.465C88.0407 150.217 87.7287 149.857 87.5047 149.385C87.2887 148.913 87.1807 148.353 87.1807 147.705C87.1807 147.049 87.2887 146.489 87.5047 146.025C87.7287 145.561 88.0407 145.205 88.4407 144.957C88.8407 144.701 89.3087 144.573 89.8447 144.573C90.3727 144.573 90.8327 144.705 91.2247 144.969C91.6167 145.233 91.8767 145.593 92.0047 146.049H91.8727L91.9927 144.681H93.1687C93.1447 144.929 93.1207 145.177 93.0967 145.425C93.0807 145.665 93.0727 145.901 93.0727 146.133V150.729H91.8607V149.385H91.9927C91.8647 149.833 91.6007 150.189 91.2007 150.453C90.8087 150.709 90.3567 150.837 89.8447 150.837ZM90.1447 149.889C90.6647 149.889 91.0807 149.705 91.3927 149.337C91.7127 148.969 91.8727 148.425 91.8727 147.705C91.8727 146.985 91.7127 146.445 91.3927 146.085C91.0807 145.717 90.6647 145.533 90.1447 145.533C89.6167 145.533 89.1927 145.717 88.8727 146.085C88.5607 146.445 88.4047 146.985 88.4047 147.705C88.4047 148.425 88.5607 148.969 88.8727 149.337C89.1847 149.705 89.6087 149.889 90.1447 149.889ZM94.8412 150.729V141.897H96.0532V150.729H94.8412ZM99.9055 150.837C99.4015 150.837 98.9375 150.773 98.5135 150.645C98.0895 150.517 97.7375 150.337 97.4575 150.105L97.8295 149.277C98.1255 149.501 98.4535 149.669 98.8135 149.781C99.1735 149.893 99.5415 149.949 99.9175 149.949C100.357 149.949 100.689 149.873 100.913 149.721C101.137 149.561 101.249 149.345 101.249 149.073C101.249 148.865 101.177 148.697 101.033 148.569C100.897 148.441 100.669 148.345 100.349 148.281L99.1975 148.053C98.6855 147.941 98.2975 147.749 98.0335 147.477C97.7695 147.205 97.6375 146.857 97.6375 146.433C97.6375 146.073 97.7335 145.753 97.9255 145.473C98.1255 145.193 98.4055 144.973 98.7655 144.813C99.1335 144.653 99.5615 144.573 100.049 144.573C100.497 144.573 100.913 144.637 101.297 144.765C101.681 144.893 102.001 145.077 102.257 145.317L101.873 146.121C101.625 145.913 101.345 145.753 101.033 145.641C100.721 145.521 100.405 145.461 100.085 145.461C99.6375 145.461 99.3055 145.545 99.0895 145.713C98.8735 145.881 98.7655 146.101 98.7655 146.373C98.7655 146.581 98.8295 146.753 98.9575 146.889C99.0935 147.017 99.3055 147.117 99.5935 147.189L100.745 147.417C101.289 147.529 101.697 147.713 101.969 147.969C102.241 148.225 102.377 148.569 102.377 149.001C102.377 149.377 102.273 149.705 102.065 149.985C101.857 150.265 101.569 150.477 101.201 150.621C100.833 150.765 100.401 150.837 99.9055 150.837Z" fill="white"/>
<path d="M26.4771 43.8083H24.1914V46.0941H26.4771V43.8083Z" fill="white"/>
<path d="M26.4771 47.618H24.1914V49.9038H26.4771V47.618Z" fill="white"/>
<g filter="url(#filter0_i_211_1017)">
<path d="M48.5117 88C66.4674 88 81.0234 73.444 81.0234 55.4883C81.0234 37.5325 66.4674 22.9766 48.5117 22.9766C30.556 22.9766 16 37.5325 16 55.4883C16 73.444 30.556 88 48.5117 88Z" fill="white"/>
<path d="M46.9648 43.1023H44.6426V45.4246H46.9648V43.1023Z" fill="white"/>
<path d="M46.9648 46.9708H44.6426V49.2931H46.9648V46.9708Z" fill="white"/>
</g>
<path fill-rule="evenodd" clip-rule="evenodd" d="M41.5243 52.5041L48.3246 45.7068L55.1277 52.5096L59.0823 48.5524L48.3246 37.7922L37.5669 48.5496L41.5243 52.5041Z" fill="#F3BA2F"/>
<path fill-rule="evenodd" clip-rule="evenodd" d="M30.8149 55.2985L34.7709 51.3427L38.7268 55.2985L34.7709 59.2543L30.8149 55.2985Z" fill="#F3BA2F"/>
<path fill-rule="evenodd" clip-rule="evenodd" d="M41.5245 58.0931L48.3248 64.8932L55.1278 58.0903L59.0852 62.0421L59.0825 62.0448L48.3248 72.805L37.5671 62.0504L37.5615 62.0448L41.5245 58.0931Z" fill="#F3BA2F"/>
<path fill-rule="evenodd" clip-rule="evenodd" d="M57.9155 55.3003L61.8715 51.3445L65.8274 55.3003L61.8715 59.2561L57.9155 55.3003Z" fill="#F3BA2F"/>
<path fill-rule="evenodd" clip-rule="evenodd" d="M52.3376 55.2957L48.3249 51.2804L45.3575 54.2477L45.0146 54.5878L44.3122 55.2902L44.3066 55.2957L44.3122 55.304L48.3249 59.3139L52.3376 55.2985L52.3404 55.2957H52.3376Z" fill="#F3BA2F"/>
</g>
</g>
<defs>
<filter id="filter0_i_211_1017" x="16" y="22.9766" width="65.0234" height="72.0234" filterUnits="userSpaceOnUse" color-interpolation-filters="sRGB">
<feFlood flood-opacity="0" result="BackgroundImageFix"/>
<feBlend mode="normal" in="SourceGraphic" in2="BackgroundImageFix" result="shape"/>
<feColorMatrix in="SourceAlpha" type="matrix" values="0 0 0 0 0 0 0 0 0 0 0 0 0 0 0 0 0 0 127 0" result="hardAlpha"/>
<feOffset dy="7"/>
<feGaussianBlur stdDeviation="20"/>
<feComposite in2="hardAlpha" operator="arithmetic" k2="-1" k3="1"/>
<feColorMatrix type="matrix" values="0 0 0 0 0 0 0 0 0 0 0 0 0 0 0 0 0 0 0.18 0"/>
<feBlend mode="normal" in2="shape" result="effect1_innerShadow_211_1017"/>
</filter>
<linearGradient id="paint0_linear_211_1017" x1="37.3862" y1="179.978" x2="217.742" y2="-22.8041" gradientUnits="userSpaceOnUse">
<stop stop-color="#D9A70B"/>
<stop offset="1" stop-color="#F3CA40"/>
</linearGradient>
<linearGradient id="paint1_linear_211_1017" x1="37.3862" y1="179.978" x2="217.742" y2="-22.8041" gradientUnits="userSpaceOnUse">
<stop stop-color="#D9A70B"/>
<stop offset="1" stop-color="#F3CA40"/>
</linearGradient>
<linearGradient id="paint2_linear_211_1017" x1="37.3862" y1="179.978" x2="217.742" y2="-22.8041" gradientUnits="userSpaceOnUse">
<stop stop-color="#475FBA"/>
<stop offset="1" stop-color="#1D91D0"/>
</linearGradient>
<linearGradient id="paint3_linear_211_1017" x1="108.892" y1="405.589" x2="544.125" y2="120.197" gradientUnits="userSpaceOnUse">
<stop stop-opacity="0.01"/>
<stop offset="1" stop-color="white"/>
</linearGradient>
<linearGradient id="paint4_linear_211_1017" x1="526.724" y1="134.257" x2="311.182" y2="-237.3" gradientUnits="userSpaceOnUse">
<stop stop-opacity="0.01"/>
<stop offset="1" stop-color="white"/>
</linearGradient>
<linearGradient id="paint5_linear_211_1017" x1="226.543" y1="-65.8601" x2="144.871" y2="82.0235" gradientUnits="userSpaceOnUse">
<stop stop-opacity="0.01"/>
<stop offset="1" stop-color="white"/>
</linearGradient>
<linearGradient id="paint6_linear_211_1017" x1="246.775" y1="131.729" x2="246.775" y2="161.729" gradientUnits="userSpaceOnUse">
<stop stop-color="#FA4833"/>
<stop offset="1" stop-color="#E30713"/>
</linearGradient>
</defs>
</svg>
