<svg width="278" height="189" viewBox="0 0 278 189" fill="none" xmlns="http://www.w3.org/2000/svg">
<mask id="mask0_40_929" style="mask-type:alpha" maskUnits="userSpaceOnUse" x="0" y="0" width="278" height="189">
<path d="M0 5.99999C0 2.68628 2.68629 0 6 0H272C275.314 0 278 2.68629 278 6V182.88C278 186.194 275.314 188.88 272 188.88H6C2.68629 188.88 0 186.194 0 182.88V5.99999Z" fill="url(#paint0_linear_40_929)"/>
</mask>
<g mask="url(#mask0_40_929)">
<path d="M0 5.99999C0 2.68628 2.68629 0 6 0H272C275.314 0 278 2.68629 278 6V182.88C278 186.194 275.314 188.88 272 188.88H6C2.68629 188.88 0 186.194 0 182.88V5.99999Z" fill="url(#paint1_linear_40_929)"/>
<mask id="mask1_40_929" style="mask-type:alpha" maskUnits="userSpaceOnUse" x="0" y="0" width="278" height="189">
<path d="M0 5.99999C0 2.68628 2.68629 0 6 0H272C275.314 0 278 2.68629 278 6V182.88C278 186.194 275.314 188.88 272 188.88H6C2.68629 188.88 0 186.194 0 182.88V5.99999Z" fill="url(#paint2_linear_40_929)"/>
</mask>
<g mask="url(#mask1_40_929)">
<g style="mix-blend-mode:overlay" opacity="0.504246">
<path fill-rule="evenodd" clip-rule="evenodd" d="M268.248 -86.2981L319.856 -77.1981C341.669 -73.352 359.773 -58.1612 367.348 -37.348L385.272 11.8966C392.847 32.7098 388.743 55.9834 374.506 72.9505L340.821 113.095C326.584 130.062 304.376 138.145 282.564 134.299L230.955 125.199C209.143 121.353 191.039 106.162 183.464 85.3487L165.54 36.1041C157.965 15.2909 162.068 -7.9827 176.305 -24.9498L209.991 -65.0943C224.228 -82.0614 246.435 -90.1442 268.248 -86.2981Z" fill="url(#paint3_linear_40_929)"/>
</g>
<g style="mix-blend-mode:overlay" opacity="0.504246">
<path fill-rule="evenodd" clip-rule="evenodd" d="M282.584 -101.002L339.354 -83.6453C363.348 -76.3097 381.606 -56.7308 387.25 -32.2838L400.604 25.5584C406.248 50.0054 398.421 75.6064 380.071 92.7178L336.655 133.204C318.305 150.315 292.221 156.337 268.227 149.002L211.457 131.645C187.463 124.31 169.206 104.731 163.562 80.2838L150.208 22.4416C144.564 -2.0054 152.391 -27.6064 170.741 -44.7178L214.156 -85.2037C232.506 -102.315 258.591 -108.337 282.584 -101.002Z" fill="url(#paint4_linear_40_929)"/>
</g>
<g style="mix-blend-mode:overlay" opacity="0.504246">
<path fill-rule="evenodd" clip-rule="evenodd" d="M189.966 61.5291L182.283 17.9566C179.035 -0.459358 185.86 -19.2087 200.185 -31.2289L234.078 -59.6688C248.403 -71.689 268.053 -75.1537 285.625 -68.7579L327.201 -53.6253C344.774 -47.2296 357.599 -31.9449 360.846 -13.529L368.529 30.0435C371.776 48.4594 364.952 67.2088 350.627 79.229L316.734 107.669C302.409 119.689 282.759 123.154 265.187 116.758L223.61 101.625C206.038 95.2296 193.213 79.945 189.966 61.5291Z" fill="url(#paint5_linear_40_929)"/>
</g>
</g>
<path d="M112.647 66.7432V48.4132H121.097C123.108 48.4132 124.659 48.8378 125.751 49.6872C126.843 50.5365 127.389 51.6978 127.389 53.1712C127.389 54.2632 127.06 55.1905 126.401 55.9532C125.76 56.7158 124.876 57.2272 123.749 57.4872V57.0712C125.067 57.2965 126.081 57.7992 126.791 58.5792C127.519 59.3418 127.883 60.3385 127.883 61.5692C127.883 63.1985 127.303 64.4725 126.141 65.3912C124.997 66.2925 123.411 66.7432 121.383 66.7432H112.647ZM116.521 63.7272H120.889C121.895 63.7272 122.666 63.5365 123.203 63.1552C123.741 62.7738 124.009 62.1672 124.009 61.3352C124.009 60.4858 123.741 59.8792 123.203 59.5152C122.666 59.1338 121.895 58.9432 120.889 58.9432H116.521V63.7272ZM116.521 55.9532H120.369C121.427 55.9532 122.207 55.7625 122.709 55.3812C123.212 54.9998 123.463 54.4278 123.463 53.6652C123.463 52.9198 123.212 52.3565 122.709 51.9752C122.207 51.5938 121.427 51.4032 120.369 51.4032H116.521V55.9532ZM130.491 66.7432V53.5612H134.417V66.7432H130.491ZM130.335 51.4032V47.7372H134.547V51.4032H130.335ZM137.626 66.7432V56.9932C137.626 56.4385 137.608 55.8752 137.574 55.3032C137.539 54.7138 137.487 54.1332 137.418 53.5612H141.188L141.474 56.0052H141.162C141.595 55.1385 142.21 54.4712 143.008 54.0032C143.805 53.5352 144.732 53.3012 145.79 53.3012C147.332 53.3012 148.485 53.7518 149.248 54.6532C150.028 55.5372 150.418 56.9152 150.418 58.7872V66.7432H146.492V58.9692C146.492 58.0158 146.318 57.3398 145.972 56.9412C145.625 56.5425 145.105 56.3432 144.412 56.3432C143.545 56.3432 142.852 56.6205 142.332 57.1752C141.812 57.7125 141.552 58.4405 141.552 59.3592V66.7432H137.626ZM158.693 67.0292C157.549 67.0292 156.544 66.7518 155.677 66.1972C154.81 65.6425 154.134 64.8538 153.649 63.8312C153.164 62.8085 152.921 61.5778 152.921 60.1392C152.921 58.7178 153.164 57.4958 153.649 56.4732C154.134 55.4505 154.81 54.6705 155.677 54.1332C156.544 53.5785 157.549 53.3012 158.693 53.3012C159.75 53.3012 160.695 53.5612 161.527 54.0812C162.376 54.5838 162.931 55.2685 163.191 56.1352H162.905L163.217 53.5612H166.987C166.935 54.1332 166.883 54.7138 166.831 55.3032C166.796 55.8752 166.779 56.4385 166.779 56.9932V66.7432H162.879L162.853 64.2732H163.165C162.888 65.1052 162.333 65.7725 161.501 66.2752C160.669 66.7778 159.733 67.0292 158.693 67.0292ZM159.889 64.0652C160.79 64.0652 161.518 63.7445 162.073 63.1032C162.628 62.4618 162.905 61.4738 162.905 60.1392C162.905 58.8045 162.628 57.8252 162.073 57.2012C161.518 56.5772 160.79 56.2652 159.889 56.2652C158.988 56.2652 158.26 56.5772 157.705 57.2012C157.15 57.8252 156.873 58.8045 156.873 60.1392C156.873 61.4738 157.142 62.4618 157.679 63.1032C158.234 63.7445 158.97 64.0652 159.889 64.0652ZM169.999 66.7432V56.9932C169.999 56.4385 169.981 55.8752 169.947 55.3032C169.912 54.7138 169.86 54.1332 169.791 53.5612H173.561L173.847 56.0052H173.535C173.968 55.1385 174.583 54.4712 175.381 54.0032C176.178 53.5352 177.105 53.3012 178.163 53.3012C179.705 53.3012 180.858 53.7518 181.621 54.6532C182.401 55.5372 182.791 56.9152 182.791 58.7872V66.7432H178.865V58.9692C178.865 58.0158 178.691 57.3398 178.345 56.9412C177.998 56.5425 177.478 56.3432 176.785 56.3432C175.918 56.3432 175.225 56.6205 174.705 57.1752C174.185 57.7125 173.925 58.4405 173.925 59.3592V66.7432H169.999ZM192.288 67.0292C190.884 67.0292 189.653 66.7518 188.596 66.1972C187.539 65.6425 186.724 64.8452 186.152 63.8052C185.58 62.7652 185.294 61.5345 185.294 60.1132C185.294 58.6745 185.58 57.4525 186.152 56.4472C186.741 55.4245 187.556 54.6445 188.596 54.1072C189.653 53.5698 190.884 53.3012 192.288 53.3012C193.172 53.3012 194.03 53.4312 194.862 53.6912C195.711 53.9512 196.405 54.3152 196.942 54.7832L195.798 57.4872C195.365 57.0885 194.862 56.7938 194.29 56.6032C193.735 56.3952 193.198 56.2912 192.678 56.2912C191.621 56.2912 190.797 56.6205 190.208 57.2792C189.619 57.9378 189.324 58.8912 189.324 60.1392C189.324 61.3872 189.619 62.3405 190.208 62.9992C190.797 63.6578 191.621 63.9872 192.678 63.9872C193.181 63.9872 193.709 63.8918 194.264 63.7012C194.836 63.5105 195.347 63.2245 195.798 62.8432L196.942 65.5212C196.387 65.9892 195.685 66.3618 194.836 66.6392C194.004 66.8992 193.155 67.0292 192.288 67.0292ZM205.549 67.0292C203.261 67.0292 201.475 66.4138 200.193 65.1832C198.91 63.9525 198.269 62.2798 198.269 60.1652C198.269 58.7958 198.537 57.5998 199.075 56.5772C199.629 55.5545 200.392 54.7572 201.363 54.1852C202.351 53.5958 203.503 53.3012 204.821 53.3012C206.121 53.3012 207.204 53.5785 208.071 54.1332C208.955 54.6878 209.613 55.4678 210.047 56.4732C210.497 57.4612 210.723 58.6138 210.723 59.9312V60.8412H201.493V58.8912H207.863L207.421 59.2552C207.421 58.1632 207.195 57.3398 206.745 56.7852C206.311 56.2132 205.679 55.9272 204.847 55.9272C203.928 55.9272 203.217 56.2652 202.715 56.9412C202.229 57.6172 201.987 58.5878 201.987 59.8532V60.2692C201.987 61.5518 202.299 62.5052 202.923 63.1292C203.564 63.7532 204.483 64.0652 205.679 64.0652C206.389 64.0652 207.057 63.9785 207.681 63.8052C208.322 63.6145 208.929 63.3198 209.501 62.9212L210.593 65.5212C209.934 66.0065 209.171 66.3792 208.305 66.6392C207.455 66.8992 206.537 67.0292 205.549 67.0292Z" fill="white"/>
<rect x="231.775" y="131.729" width="30" height="30" rx="15" fill="url(#paint6_linear_40_929)"/>
<path d="M244.775 151.729L249.775 146.729L244.775 141.729" stroke="white" stroke-opacity="0.8" stroke-width="2" stroke-linecap="round" stroke-linejoin="round"/>
<path d="M19.696 150.729L15.976 142.269H17.32L20.488 149.685H20.056L23.236 142.269H24.52L20.788 150.729H19.696ZM25.3841 150.729V144.681H26.5961V150.729H25.3841ZM25.2881 143.421V142.161H26.6921V143.421H25.2881ZM31.1684 150.837C30.1924 150.837 29.4244 150.561 28.8644 150.009C28.3044 149.457 28.0244 148.693 28.0244 147.717C28.0244 147.085 28.1444 146.533 28.3844 146.061C28.6324 145.589 28.9724 145.225 29.4044 144.969C29.8444 144.705 30.3524 144.573 30.9284 144.573C31.4964 144.573 31.9724 144.693 32.3564 144.933C32.7404 145.173 33.0324 145.513 33.2324 145.953C33.4324 146.385 33.5324 146.897 33.5324 147.489V147.873H28.9724V147.177H32.7044L32.5004 147.333C32.5004 146.733 32.3644 146.269 32.0924 145.941C31.8284 145.605 31.4444 145.437 30.9404 145.437C30.3804 145.437 29.9484 145.633 29.6444 146.025C29.3404 146.409 29.1884 146.941 29.1884 147.621V147.741C29.1884 148.453 29.3604 148.989 29.7044 149.349C30.0564 149.709 30.5524 149.889 31.1924 149.889C31.5444 149.889 31.8724 149.841 32.1764 149.745C32.4884 149.641 32.7844 149.473 33.0644 149.241L33.4604 150.069C33.1804 150.317 32.8404 150.509 32.4404 150.645C32.0404 150.773 31.6164 150.837 31.1684 150.837ZM36.4851 150.729L34.1931 144.681H35.4531L37.2411 149.721H36.9291L38.7651 144.681H39.7011L41.5251 149.721H41.2251L43.0131 144.681H44.2251L41.9211 150.729H40.8171L38.9211 145.593H39.4851L37.6131 150.729H36.4851ZM48.5403 153.321V146.133C48.5403 145.901 48.5283 145.665 48.5043 145.425C48.4883 145.177 48.4683 144.929 48.4443 144.681H49.6203L49.7403 146.049H49.6083C49.7363 145.593 49.9923 145.233 50.3763 144.969C50.7683 144.705 51.2323 144.573 51.7683 144.573C52.3043 144.573 52.7723 144.701 53.1723 144.957C53.5723 145.205 53.8803 145.561 54.0963 146.025C54.3203 146.489 54.4323 147.049 54.4323 147.705C54.4323 148.353 54.3203 148.913 54.0963 149.385C53.8803 149.857 53.5723 150.217 53.1723 150.465C52.7723 150.713 52.3043 150.837 51.7683 150.837C51.2403 150.837 50.7803 150.709 50.3883 150.453C50.0043 150.189 49.7483 149.833 49.6203 149.385H49.7523V153.321H48.5403ZM51.4683 149.889C51.9963 149.889 52.4163 149.705 52.7283 149.337C53.0483 148.969 53.2083 148.425 53.2083 147.705C53.2083 146.985 53.0483 146.445 52.7283 146.085C52.4163 145.717 51.9963 145.533 51.4683 145.533C50.9403 145.533 50.5163 145.717 50.1963 146.085C49.8843 146.445 49.7283 146.985 49.7283 147.705C49.7283 148.425 49.8843 148.969 50.1963 149.337C50.5163 149.705 50.9403 149.889 51.4683 149.889ZM55.8288 150.729V146.181C55.8288 145.933 55.8208 145.685 55.8048 145.437C55.7968 145.181 55.7808 144.929 55.7568 144.681H56.9328L57.0648 146.241H56.8728C56.9528 145.865 57.0888 145.553 57.2808 145.305C57.4728 145.057 57.7048 144.873 57.9768 144.753C58.2568 144.633 58.5488 144.573 58.8528 144.573C58.9808 144.573 59.0888 144.581 59.1768 144.597C59.2648 144.605 59.3528 144.621 59.4408 144.645L59.4288 145.725C59.2928 145.669 59.1728 145.637 59.0688 145.629C58.9728 145.613 58.8528 145.605 58.7088 145.605C58.3568 145.605 58.0568 145.685 57.8088 145.845C57.5608 145.997 57.3728 146.205 57.2448 146.469C57.1168 146.733 57.0528 147.017 57.0528 147.321V150.729H55.8288ZM62.8863 150.837C62.2863 150.837 61.7663 150.713 61.3263 150.465C60.8863 150.209 60.5463 149.849 60.3063 149.385C60.0663 148.913 59.9463 148.353 59.9463 147.705C59.9463 147.057 60.0663 146.501 60.3063 146.037C60.5463 145.565 60.8863 145.205 61.3263 144.957C61.7663 144.701 62.2863 144.573 62.8863 144.573C63.4863 144.573 64.0063 144.701 64.4463 144.957C64.8943 145.205 65.2383 145.565 65.4783 146.037C65.7263 146.501 65.8503 147.057 65.8503 147.705C65.8503 148.353 65.7263 148.913 65.4783 149.385C65.2383 149.849 64.8943 150.209 64.4463 150.465C64.0063 150.713 63.4863 150.837 62.8863 150.837ZM62.8863 149.889C63.4143 149.889 63.8343 149.705 64.1463 149.337C64.4583 148.969 64.6143 148.425 64.6143 147.705C64.6143 146.985 64.4583 146.445 64.1463 146.085C63.8343 145.717 63.4143 145.533 62.8863 145.533C62.3663 145.533 61.9503 145.717 61.6383 146.085C61.3263 146.445 61.1702 146.985 61.1702 147.705C61.1702 148.425 61.3223 148.969 61.6263 149.337C61.9383 149.705 62.3583 149.889 62.8863 149.889ZM67.2669 153.321V146.133C67.2669 145.901 67.2549 145.665 67.2309 145.425C67.2149 145.177 67.1949 144.929 67.1709 144.681H68.3469L68.4669 146.049H68.3349C68.4629 145.593 68.7189 145.233 69.1029 144.969C69.4949 144.705 69.9589 144.573 70.4949 144.573C71.0309 144.573 71.4989 144.701 71.8989 144.957C72.2989 145.205 72.6069 145.561 72.8229 146.025C73.0469 146.489 73.1589 147.049 73.1589 147.705C73.1589 148.353 73.0469 148.913 72.8229 149.385C72.6069 149.857 72.2989 150.217 71.8989 150.465C71.4989 150.713 71.0309 150.837 70.4949 150.837C69.9669 150.837 69.5069 150.709 69.1149 150.453C68.7309 150.189 68.4749 149.833 68.3469 149.385H68.4789V153.321H67.2669ZM70.1949 149.889C70.7229 149.889 71.1429 149.705 71.4549 149.337C71.7749 148.969 71.9349 148.425 71.9349 147.705C71.9349 146.985 71.7749 146.445 71.4549 146.085C71.1429 145.717 70.7229 145.533 70.1949 145.533C69.6669 145.533 69.2429 145.717 68.9229 146.085C68.6109 146.445 68.4549 146.985 68.4549 147.705C68.4549 148.425 68.6109 148.969 68.9229 149.337C69.2429 149.705 69.6669 149.889 70.1949 149.889ZM77.1714 150.837C76.5714 150.837 76.0514 150.713 75.6114 150.465C75.1714 150.209 74.8314 149.849 74.5914 149.385C74.3514 148.913 74.2314 148.353 74.2314 147.705C74.2314 147.057 74.3514 146.501 74.5914 146.037C74.8314 145.565 75.1714 145.205 75.6114 144.957C76.0514 144.701 76.5714 144.573 77.1714 144.573C77.7714 144.573 78.2914 144.701 78.7314 144.957C79.1794 145.205 79.5234 145.565 79.7634 146.037C80.0114 146.501 80.1354 147.057 80.1354 147.705C80.1354 148.353 80.0114 148.913 79.7634 149.385C79.5234 149.849 79.1794 150.209 78.7314 150.465C78.2914 150.713 77.7714 150.837 77.1714 150.837ZM77.1714 149.889C77.6994 149.889 78.1194 149.705 78.4314 149.337C78.7434 148.969 78.8994 148.425 78.8994 147.705C78.8994 146.985 78.7434 146.445 78.4314 146.085C78.1194 145.717 77.6994 145.533 77.1714 145.533C76.6514 145.533 76.2354 145.717 75.9234 146.085C75.6114 146.445 75.4554 146.985 75.4554 147.705C75.4554 148.425 75.6074 148.969 75.9114 149.337C76.2234 149.705 76.6434 149.889 77.1714 149.889ZM83.6281 150.837C83.1241 150.837 82.6601 150.773 82.2361 150.645C81.8121 150.517 81.4601 150.337 81.1801 150.105L81.5521 149.277C81.8481 149.501 82.1761 149.669 82.5361 149.781C82.8961 149.893 83.2641 149.949 83.6401 149.949C84.0801 149.949 84.4121 149.873 84.6361 149.721C84.8601 149.561 84.9721 149.345 84.9721 149.073C84.9721 148.865 84.9001 148.697 84.7561 148.569C84.6201 148.441 84.3921 148.345 84.0721 148.281L82.9201 148.053C82.4081 147.941 82.0201 147.749 81.7561 147.477C81.4921 147.205 81.3601 146.857 81.3601 146.433C81.3601 146.073 81.4561 145.753 81.6481 145.473C81.8481 145.193 82.1281 144.973 82.4881 144.813C82.8561 144.653 83.2841 144.573 83.7721 144.573C84.2201 144.573 84.6361 144.637 85.0201 144.765C85.4041 144.893 85.7241 145.077 85.9801 145.317L85.5961 146.121C85.3481 145.913 85.0681 145.753 84.7561 145.641C84.4441 145.521 84.1281 145.461 83.8081 145.461C83.3601 145.461 83.0281 145.545 82.8121 145.713C82.5961 145.881 82.4881 146.101 82.4881 146.373C82.4881 146.581 82.5521 146.753 82.6801 146.889C82.8161 147.017 83.0281 147.117 83.3161 147.189L84.4681 147.417C85.0121 147.529 85.4201 147.713 85.6921 147.969C85.9641 148.225 86.1001 148.569 86.1001 149.001C86.1001 149.377 85.9961 149.705 85.7881 149.985C85.5801 150.265 85.2921 150.477 84.9241 150.621C84.5561 150.765 84.1241 150.837 83.6281 150.837ZM89.8446 150.837C89.3086 150.837 88.8406 150.713 88.4406 150.465C88.0406 150.217 87.7286 149.857 87.5046 149.385C87.2886 148.913 87.1806 148.353 87.1806 147.705C87.1806 147.049 87.2886 146.489 87.5046 146.025C87.7286 145.561 88.0406 145.205 88.4406 144.957C88.8406 144.701 89.3086 144.573 89.8446 144.573C90.3726 144.573 90.8326 144.705 91.2246 144.969C91.6166 145.233 91.8766 145.593 92.0046 146.049H91.8726L91.9926 144.681H93.1686C93.1446 144.929 93.1206 145.177 93.0966 145.425C93.0806 145.665 93.0726 145.901 93.0726 146.133V150.729H91.8606V149.385H91.9926C91.8646 149.833 91.6006 150.189 91.2006 150.453C90.8086 150.709 90.3566 150.837 89.8446 150.837ZM90.1446 149.889C90.6646 149.889 91.0806 149.705 91.3926 149.337C91.7126 148.969 91.8726 148.425 91.8726 147.705C91.8726 146.985 91.7126 146.445 91.3926 146.085C91.0806 145.717 90.6646 145.533 90.1446 145.533C89.6166 145.533 89.1926 145.717 88.8726 146.085C88.5606 146.445 88.4046 146.985 88.4046 147.705C88.4046 148.425 88.5606 148.969 88.8726 149.337C89.1846 149.705 89.6086 149.889 90.1446 149.889ZM94.8411 150.729V141.897H96.0531V150.729H94.8411ZM99.9054 150.837C99.4014 150.837 98.9374 150.773 98.5134 150.645C98.0894 150.517 97.7374 150.337 97.4574 150.105L97.8294 149.277C98.1254 149.501 98.4534 149.669 98.8134 149.781C99.1734 149.893 99.5414 149.949 99.9174 149.949C100.357 149.949 100.689 149.873 100.913 149.721C101.137 149.561 101.249 149.345 101.249 149.073C101.249 148.865 101.177 148.697 101.033 148.569C100.897 148.441 100.669 148.345 100.349 148.281L99.1974 148.053C98.6854 147.941 98.2974 147.749 98.0334 147.477C97.7694 147.205 97.6374 146.857 97.6374 146.433C97.6374 146.073 97.7334 145.753 97.9254 145.473C98.1254 145.193 98.4054 144.973 98.7654 144.813C99.1334 144.653 99.5614 144.573 100.049 144.573C100.497 144.573 100.913 144.637 101.297 144.765C101.681 144.893 102.001 145.077 102.257 145.317L101.873 146.121C101.625 145.913 101.345 145.753 101.033 145.641C100.721 145.521 100.405 145.461 100.085 145.461C99.6374 145.461 99.3054 145.545 99.0894 145.713C98.8734 145.881 98.7654 146.101 98.7654 146.373C98.7654 146.581 98.8294 146.753 98.9574 146.889C99.0934 147.017 99.3054 147.117 99.5934 147.189L100.745 147.417C101.289 147.529 101.697 147.713 101.969 147.969C102.241 148.225 102.377 148.569 102.377 149.001C102.377 149.377 102.273 149.705 102.065 149.985C101.857 150.265 101.569 150.477 101.201 150.621C100.833 150.765 100.401 150.837 99.9054 150.837Z" fill="white"/>
<rect x="24.1914" y="43.8083" width="2.28571" height="2.28571" fill="white"/>
<rect x="24.1914" y="47.618" width="2.28571" height="2.28571" fill="white"/>
<g filter="url(#filter0_d_40_929)">
<circle cx="48.5117" cy="55.4883" r="32.5117" fill="white"/>
<rect x="44.6426" y="43.1023" width="2.32227" height="2.32227" fill="white"/>
<rect x="44.6426" y="46.9709" width="2.32227" height="2.32227" fill="white"/>
</g>
<path fill-rule="evenodd" clip-rule="evenodd" d="M41.5243 52.5041L48.3246 45.7068L55.1277 52.5096L59.0823 48.5524L48.3246 37.7922L37.5669 48.5496L41.5243 52.5041Z" fill="#F3BA2F"/>
<path fill-rule="evenodd" clip-rule="evenodd" d="M30.8149 55.2985L34.7709 51.3426L38.7268 55.2985L34.7709 59.2543L30.8149 55.2985Z" fill="#F3BA2F"/>
<path fill-rule="evenodd" clip-rule="evenodd" d="M41.5245 58.0931L48.3248 64.8932L55.1278 58.0903L59.0852 62.0421L59.0825 62.0448L48.3248 72.805L37.5671 62.0504L37.5615 62.0448L41.5245 58.0931Z" fill="#F3BA2F"/>
<path fill-rule="evenodd" clip-rule="evenodd" d="M57.9155 55.3003L61.8715 51.3445L65.8274 55.3003L61.8715 59.2561L57.9155 55.3003Z" fill="#F3BA2F"/>
<path fill-rule="evenodd" clip-rule="evenodd" d="M52.3376 55.2957L48.3249 51.2804L45.3575 54.2477L45.0146 54.5878L44.3122 55.2902L44.3066 55.2957L44.3122 55.304L48.3249 59.3139L52.3376 55.2985L52.3404 55.2957H52.3376Z" fill="#F3BA2F"/>
</g>
<defs>
<filter id="filter0_d_40_929" x="-24" y="-10.0234" width="145.023" height="145.023" filterUnits="userSpaceOnUse" color-interpolation-filters="sRGB">
<feFlood flood-opacity="0" result="BackgroundImageFix"/>
<feColorMatrix in="SourceAlpha" type="matrix" values="0 0 0 0 0 0 0 0 0 0 0 0 0 0 0 0 0 0 127 0" result="hardAlpha"/>
<feOffset dy="7"/>
<feGaussianBlur stdDeviation="20"/>
<feComposite in2="hardAlpha" operator="out"/>
<feColorMatrix type="matrix" values="0 0 0 0 0 0 0 0 0 0 0 0 0 0 0 0 0 0 0.18 0"/>
<feBlend mode="normal" in2="BackgroundImageFix" result="effect1_dropShadow_40_929"/>
<feBlend mode="normal" in="SourceGraphic" in2="effect1_dropShadow_40_929" result="shape"/>
</filter>
<linearGradient id="paint0_linear_40_929" x1="37.3862" y1="179.978" x2="217.742" y2="-22.8041" gradientUnits="userSpaceOnUse">
<stop stop-color="#D9A70B"/>
<stop offset="1" stop-color="#F3CA40"/>
</linearGradient>
<linearGradient id="paint1_linear_40_929" x1="37.3862" y1="179.978" x2="217.742" y2="-22.8041" gradientUnits="userSpaceOnUse">
<stop stop-color="#D9A70B"/>
<stop offset="1" stop-color="#F3CA40"/>
</linearGradient>
<linearGradient id="paint2_linear_40_929" x1="37.3862" y1="179.978" x2="217.742" y2="-22.8041" gradientUnits="userSpaceOnUse">
<stop stop-color="#475FBA"/>
<stop offset="1" stop-color="#1D91D0"/>
</linearGradient>
<linearGradient id="paint3_linear_40_929" x1="108.892" y1="405.589" x2="544.125" y2="120.197" gradientUnits="userSpaceOnUse">
<stop stop-opacity="0.01"/>
<stop offset="1" stop-color="white"/>
</linearGradient>
<linearGradient id="paint4_linear_40_929" x1="526.724" y1="134.257" x2="311.182" y2="-237.3" gradientUnits="userSpaceOnUse">
<stop stop-opacity="0.01"/>
<stop offset="1" stop-color="white"/>
</linearGradient>
<linearGradient id="paint5_linear_40_929" x1="226.543" y1="-65.8601" x2="144.871" y2="82.0235" gradientUnits="userSpaceOnUse">
<stop stop-opacity="0.01"/>
<stop offset="1" stop-color="white"/>
</linearGradient>
<linearGradient id="paint6_linear_40_929" x1="246.775" y1="131.729" x2="246.775" y2="161.729" gradientUnits="userSpaceOnUse">
<stop stop-color="#FA4833"/>
<stop offset="1" stop-color="#E30713"/>
</linearGradient>
</defs>
</svg>
