<svg width="338" height="449" viewBox="0 0 338 449" fill="none" xmlns="http://www.w3.org/2000/svg">
<g opacity="0.1">
<path d="M266.388 392.46L120.499 376.981L304.821 498.596L314.326 466.809L281.585 376.69L266.388 392.46Z" fill="#FF2C38"/>
<path d="M142.61 52.116L93.1141 358.909L377.495 255.59L142.61 52.116Z" fill="#FF5963"/>
<path d="M377.633 255.968L142.61 52.1162L235.44 307.628L377.633 255.968Z" fill="#950C14"/>
<path d="M151.077 209.446L178.982 199.308L189.12 227.213L161.215 237.351L151.077 209.446Z" fill="white"/>
<path d="M210.131 237.964L209.476 237.901L93.2048 359.115L93.3308 359.069L260.293 377.381L260.755 376.912L275.943 361.16L232.039 240.316L210.131 237.964Z" fill="#FF2C38"/>
<path d="M131.9 156.664L159.805 146.526L169.944 174.431L142.039 184.569L131.9 156.664Z" fill="white"/>
<path d="M266.388 392.46L304.821 498.596L368.142 286.883L266.388 392.46Z" fill="#E30613"/>
<path d="M377.306 255.898L210.131 237.964L209.476 237.902L260.292 377.381L260.755 376.912L377.432 255.852L377.306 255.898Z" fill="#E30613"/>
</g>
</svg>
