<svg width="34" height="33" viewBox="0 0 34 33" fill="none" xmlns="http://www.w3.org/2000/svg">
<path d="M16.7699 23.0557C22.9536 23.0557 27.9664 18.0717 27.9664 11.9237C27.9664 5.77563 22.9536 0.791656 16.7699 0.791656C10.5863 0.791656 5.57349 5.77563 5.57349 11.9237C5.57349 18.0717 10.5863 23.0557 16.7699 23.0557Z" fill="#E30613"/>
<path d="M14.2453 9.98732C13.9102 9.64972 13.5302 9.35906 13.1164 9.11983V11.0314C13.8135 11.7134 14.2453 12.6636 14.2453 13.7122V13.7256C14.2431 14.4947 14.0092 15.2101 13.6067 15.8049C13.881 16.2543 14.2565 16.6343 14.7018 16.9138C15.3787 16.0284 15.7812 14.9217 15.7834 13.7256V13.7122C15.7857 12.2634 15.1988 10.9442 14.2453 9.98732ZM11.7762 17.2469C11.3669 17.399 10.9217 17.4817 10.4584 17.4817C8.36487 17.4817 6.66932 15.7959 6.66932 13.7144C6.66932 11.6329 8.36487 9.94708 10.4584 9.94708C10.5709 9.94708 10.6788 9.95155 10.7868 9.96273V8.4245C10.6788 8.41779 10.5686 8.41556 10.4584 8.41556C7.51484 8.41556 5.12894 10.7877 5.12894 13.7144C5.12894 16.641 7.51484 19.0132 10.4584 19.0132C11.3264 19.0132 12.1472 18.8075 12.8713 18.4409C12.4531 18.0965 12.082 17.6941 11.7762 17.2469Z" fill="#E30613" stroke="#E30613" stroke-width="3" stroke-miterlimit="10" stroke-linejoin="round"/>
<path d="M15.7857 5.66577H14.2453V13.7258H15.7857V5.66577Z" fill="#E30613" stroke="#E30613" stroke-width="3" stroke-miterlimit="10" stroke-linejoin="round"/>
<path d="M22.1021 2.59372C19.1585 2.59372 16.7726 4.9659 16.7726 7.89255C16.7726 9.34582 17.3595 10.6627 18.3152 11.6196C18.7717 12.0757 19.3092 12.4536 19.9073 12.7219V10.9601C18.9426 10.2781 18.3152 9.15801 18.3152 7.89032C18.3152 5.81103 20.0108 4.123 22.1043 4.123C24.1957 4.123 25.8935 5.80879 25.8935 7.89032C25.8935 9.92713 24.2699 11.5861 22.2393 11.6532V13.1891C25.1221 13.1176 27.4361 10.7723 27.4361 7.89032C27.4316 4.9659 25.0457 2.59372 22.1021 2.59372Z" fill="#E30613" stroke="#E30613" stroke-width="3" stroke-miterlimit="10" stroke-linejoin="round"/>
<path d="M16.7729 15.9547H18.3133V7.8947H16.7729V15.9547Z" fill="#E30613" stroke="#E30613" stroke-width="3" stroke-miterlimit="10" stroke-linejoin="round"/>
<path d="M12.7207 6.85297V8.26822V14.0612H12.723C12.723 16.1405 14.4185 17.8285 16.5121 17.8285C18.6034 17.8285 20.3012 16.1427 20.3012 14.0612V8.90766H21.8416V14.0612V14.9354V20.0889C21.8416 20.8088 21.6977 21.4952 21.4346 22.1212C20.634 24.0395 18.7316 25.3877 16.5121 25.3877C14.9582 25.3877 13.5595 24.7281 12.5858 23.6728C12.2328 23.2905 11.9337 22.8568 11.7043 22.3828L12.8916 21.2023C13.0536 21.721 13.3234 22.1927 13.6765 22.5885C14.3691 23.3665 15.3832 23.8562 16.5121 23.8562C18.6034 23.8562 20.3012 22.1704 20.3012 20.0889V17.786C19.3343 18.7563 17.994 19.36 16.5121 19.36C13.7079 19.36 11.4142 17.2092 11.2006 14.477H11.1826V8.45156C11.1826 8.39119 11.1849 8.32859 11.1871 8.26822H11.1826V6.85297H12.7207Z" fill="#E30613" stroke="#E30613" stroke-width="3" stroke-miterlimit="10" stroke-linejoin="round"/>
<path d="M12.7207 6.85297V8.26822V14.0612H12.723C12.723 16.1405 14.4185 17.8285 16.5121 17.8285C18.6034 17.8285 20.3012 16.1427 20.3012 14.0612V8.90766H21.8416V14.0612V14.9354V20.0889C21.8416 20.8088 21.6977 21.4952 21.4346 22.1212C20.634 24.0395 18.7316 25.3877 16.5121 25.3877C14.9582 25.3877 13.5595 24.7281 12.5858 23.6728C12.2328 23.2905 11.9337 22.8568 11.7043 22.3828L12.8916 21.2023C13.0536 21.721 13.3234 22.1927 13.6765 22.5885C14.3691 23.3665 15.3832 23.8562 16.5121 23.8562C18.6034 23.8562 20.3012 22.1704 20.3012 20.0889V17.786C19.3343 18.7563 17.994 19.36 16.5121 19.36C13.7079 19.36 11.4142 17.2092 11.2006 14.477H11.1826V8.45156C11.1826 8.39119 11.1849 8.32859 11.1871 8.26822H11.1826V6.85297H12.7207Z" fill="#E30613" stroke="#E30613" stroke-width="3" stroke-miterlimit="10" stroke-linejoin="round"/>
<path d="M14.2453 9.98732C13.9102 9.64972 13.5302 9.35906 13.1164 9.11983V11.0314C13.8135 11.7134 14.2453 12.6636 14.2453 13.7122V13.7256C14.2431 14.4947 14.0092 15.2101 13.6067 15.8049C13.881 16.2543 14.2565 16.6343 14.7018 16.9138C15.3787 16.0284 15.7812 14.9217 15.7834 13.7256V13.7122C15.7857 12.2634 15.1988 10.9442 14.2453 9.98732ZM11.7762 17.2469C11.3669 17.399 10.9217 17.4817 10.4584 17.4817C8.36487 17.4817 6.66932 15.7959 6.66932 13.7144C6.66932 11.6329 8.36487 9.94708 10.4584 9.94708C10.5709 9.94708 10.6788 9.95155 10.7868 9.96273V8.4245C10.6788 8.41779 10.5686 8.41556 10.4584 8.41556C7.51484 8.41556 5.12894 10.7877 5.12894 13.7144C5.12894 16.641 7.51484 19.0132 10.4584 19.0132C11.3264 19.0132 12.1472 18.8075 12.8713 18.4409C12.4531 18.0965 12.082 17.6941 11.7762 17.2469Z" fill="white"/>
<path d="M15.7857 5.66577H14.2453V13.7258H15.7857V5.66577Z" fill="white"/>
<path d="M22.1021 2.59372C19.1585 2.59372 16.7726 4.9659 16.7726 7.89255C16.7726 9.34582 17.3595 10.6627 18.3152 11.6196C18.7717 12.0757 19.3092 12.4536 19.9073 12.7219V10.9601C18.9426 10.2781 18.3152 9.15801 18.3152 7.89032C18.3152 5.81103 20.0108 4.123 22.1043 4.123C24.1957 4.123 25.8935 5.80879 25.8935 7.89032C25.8935 9.92713 24.2699 11.5861 22.2393 11.6532V13.1891C25.1221 13.1176 27.4361 10.7723 27.4361 7.89032C27.4316 4.9659 25.0457 2.59372 22.1021 2.59372Z" fill="white"/>
<path d="M16.7729 15.9547H18.3133V7.8947H16.7729V15.9547Z" fill="white"/>
<path d="M12.7207 6.85297V8.26822V14.0612H12.723C12.723 16.1405 14.4185 17.8285 16.5121 17.8285C18.6034 17.8285 20.3012 16.1427 20.3012 14.0612V8.90766H21.8416V14.0612V14.9354V20.0889C21.8416 20.8088 21.6977 21.4952 21.4346 22.1212C20.634 24.0395 18.7316 25.3877 16.5121 25.3877C14.9582 25.3877 13.5595 24.7281 12.5858 23.6728C12.2328 23.2905 11.9337 22.8568 11.7043 22.3828L12.8916 21.2023C13.0536 21.721 13.3234 22.1927 13.6765 22.5885C14.3691 23.3665 15.3832 23.8562 16.5121 23.8562C18.6034 23.8562 20.3012 22.1704 20.3012 20.0889V17.786C19.3343 18.7563 17.994 19.36 16.5121 19.36C13.7079 19.36 11.4142 17.2092 11.2006 14.477H11.1826V8.45156C11.1826 8.39119 11.1849 8.32859 11.1871 8.26822H11.1826V6.85297H12.7207Z" fill="white"/>
<path d="M12.7207 6.85297V8.26822V14.0612H12.723C12.723 16.1405 14.4185 17.8285 16.5121 17.8285C18.6034 17.8285 20.3012 16.1427 20.3012 14.0612V8.90766H21.8416V14.0612V14.9354V20.0889C21.8416 20.8088 21.6977 21.4952 21.4346 22.1212C20.634 24.0395 18.7316 25.3877 16.5121 25.3877C14.9582 25.3877 13.5595 24.7281 12.5858 23.6728C12.2328 23.2905 11.9337 22.8568 11.7043 22.3828L12.8916 21.2023C13.0536 21.721 13.3234 22.1927 13.6765 22.5885C14.3691 23.3665 15.3832 23.8562 16.5121 23.8562C18.6034 23.8562 20.3012 22.1704 20.3012 20.0889V17.786C19.3343 18.7563 17.994 19.36 16.5121 19.36C13.7079 19.36 11.4142 17.2092 11.2006 14.477H11.1826V8.45156C11.1826 8.39119 11.1849 8.32859 11.1871 8.26822H11.1826V6.85297H12.7207Z" fill="white"/>
<path d="M1.79169 20.4377C0.993387 20.6188 0.392975 20.3013 0.181594 19.3824L-0.000553131 18.5931L2.59898 18.0006L2.78113 18.7899C2.99251 19.711 2.58549 20.2566 1.79169 20.4377ZM1.70624 20.062C2.35612 19.9145 2.56075 19.5143 2.41009 18.8592L2.31564 18.45L0.449194 18.8748L0.54364 19.284C0.692056 19.9391 1.05635 20.2096 1.70624 20.062Z" fill="black"/>
<path d="M1.79606 22.9258L1.45201 23.0689L0.793129 21.5128L3.25099 20.4843L3.90537 22.0315L3.55682 22.1768L3.04861 20.9762L2.35825 21.2646L2.83273 22.3848L2.48418 22.5301L2.00969 21.41L1.28335 21.714L1.79606 22.9258Z" fill="black"/>
<path d="M3.99794 22.9395L3.3593 23.3308L4.01143 24.3861L3.68987 24.5828L3.03773 23.5275L2.04829 24.1312L1.8504 23.8115L4.12162 22.4231L5.00537 23.8517L4.6838 24.0485L3.99794 22.9395Z" fill="black"/>
<path d="M5.54036 24.5069L3.4423 26.1435L3.20843 25.8483L5.30874 24.2117L5.54036 24.5069Z" fill="black"/>
<path d="M8.18274 27.0872L6.36801 27.6193L5.66416 28.4197L5.28637 28.091L5.98797 27.2929L6.28031 25.4327L6.70757 25.8038L6.45346 27.1431L7.75773 26.7183L8.18274 27.0872Z" fill="black"/>
<path d="M8.92245 27.5208L7.44728 29.7297L7.03127 29.4547L8.50644 27.2458L8.92245 27.5208Z" fill="black"/>
<path d="M9.97247 30.5703L9.75659 30.9928L8.21846 30.2148L9.42603 27.8516L10.9507 28.6229L10.7348 29.0455L9.6554 28.4999L9.37656 29.0477L10.3862 29.5575L10.1704 29.98L9.16068 29.4703L8.87959 30.0203L9.97247 30.5703Z" fill="black"/>
<path d="M12.3224 31.3909L12.174 31.8403L10.5347 31.3014L11.3712 28.7839L11.848 28.9404L11.1621 31.0086L12.3224 31.3909Z" fill="black"/>
<path d="M15.4395 31.0641C15.3159 31.8913 14.8234 32.3139 13.8339 32.1663L12.9794 32.0389L13.373 29.4163L14.2275 29.5437C15.2169 29.6913 15.5632 30.2324 15.4395 31.0641ZM13.9037 31.6968C14.6345 31.8064 14.8661 31.4911 14.9426 30.9903C15.019 30.485 14.8886 30.1206 14.1578 30.011L13.7957 29.9574L13.5416 31.6431L13.9037 31.6968Z" fill="black"/>
<path d="M18.954 30.4625C19.0035 31.0125 18.6796 31.3881 18.0567 31.444L17.643 31.482L17.7217 32.3294L17.0358 32.392L16.7929 29.7538L17.8926 29.6531C18.5155 29.5972 18.9045 29.908 18.954 30.4625ZM18.2996 30.5229C18.2816 30.3194 18.1377 30.2255 17.9106 30.2456L17.535 30.2792L17.5912 30.894L17.9668 30.8605C18.1939 30.8403 18.3176 30.7219 18.2996 30.5229Z" fill="black"/>
<path d="M20.661 30.9657L20.308 31.0596L20.5306 31.8824L19.865 32.0613L19.1723 29.5013L20.2382 29.2174C20.8409 29.0564 21.2772 29.2956 21.4233 29.8344C21.5133 30.1698 21.4481 30.4627 21.2322 30.6773L22.0417 31.48L21.3401 31.6678L20.661 30.9657ZM20.1528 30.4895L20.5171 30.3934C20.7375 30.3353 20.8387 30.1966 20.7869 30.0044C20.733 29.8076 20.5778 29.7383 20.3574 29.7987L19.9931 29.8948L20.1528 30.4895Z" fill="black"/>
<path d="M24.4278 28.9359C24.7583 29.6179 24.6279 30.3624 23.7936 30.7603C22.9593 31.1605 22.2982 30.7961 21.9632 30.1164C21.6348 29.4323 21.7585 28.6833 22.5928 28.2853C23.4271 27.8851 24.0972 28.254 24.4278 28.9359ZM23.7891 29.2422C23.5755 28.8018 23.2225 28.6654 22.8627 28.8376C22.5029 29.0097 22.3904 29.3719 22.604 29.8101C22.8154 30.2461 23.1707 30.3847 23.5305 30.2103C23.8881 30.0404 24.0028 29.6782 23.7891 29.2422Z" fill="black"/>
<path d="M25.9345 27.0067L25.3814 27.4046L26.5619 29.0301L26.002 29.4303L24.8214 27.8071L24.2682 28.2051L23.8859 27.6796L25.55 26.4835L25.9345 27.0067Z" fill="black"/>
<path d="M28.5071 25.4051C29.0558 25.9305 29.193 26.6728 28.5521 27.3346C27.9112 27.9964 27.1623 27.8846 26.6114 27.3614C26.065 26.8338 25.9188 26.0893 26.5619 25.4275C27.2028 24.7657 27.9584 24.8797 28.5071 25.4051ZM28.0169 25.9126C27.6638 25.5728 27.2838 25.5683 27.0049 25.8545C26.7261 26.1407 26.7486 26.5185 27.1016 26.8561C27.4524 27.1915 27.8325 27.1982 28.1091 26.912C28.3879 26.6259 28.3677 26.248 28.0169 25.9126Z" fill="black"/>
<path d="M29.1427 24.4621C29.6262 24.7774 29.9702 24.5739 30.1546 24.2922C30.3188 24.0418 30.3705 23.7757 30.375 23.5432C30.5527 23.6595 30.9462 23.9144 30.9462 23.9144C30.9192 24.1491 30.8248 24.4196 30.6763 24.6432C30.1951 25.3743 29.4665 25.5264 28.7492 25.0591C28.0341 24.594 27.8789 23.8696 28.3624 23.1363C28.5108 22.9105 28.72 22.716 28.9268 22.5975C28.9268 22.5975 29.3226 22.8546 29.5003 22.9709C29.2866 23.067 29.0595 23.219 28.8953 23.4694C28.7065 23.7534 28.657 24.1469 29.1427 24.4621Z" fill="black"/>
<path d="M31.2277 20.3639C31.9316 20.6546 32.3318 21.2963 31.9765 22.1459C31.6212 22.9955 30.8837 23.1631 30.1776 22.8747C29.4759 22.5796 29.0667 21.9402 29.422 21.0906C29.7773 20.2387 30.5239 20.0733 31.2277 20.3639ZM30.9556 21.0123C30.5014 20.8245 30.1461 20.9564 29.9932 21.3231C29.8402 21.6898 29.9977 22.0341 30.4496 22.2219C30.8994 22.4074 31.2569 22.2755 31.4099 21.9089C31.5628 21.5422 31.4054 21.2001 30.9556 21.0123Z" fill="black"/>
<path d="M32.4057 18.1818L33.0421 18.3204L32.6463 20.1135L30.0423 19.5456L30.1907 18.8771L32.1583 19.3064L32.4057 18.1818Z" fill="black"/>
</svg>
