<svg width="269" height="170" viewBox="0 0 269 170" fill="none" xmlns="http://www.w3.org/2000/svg">
<g clip-path="url(#clip0_2_5579)">
<path opacity="0.3" d="M173.285 140.807H95.4102L36.9229 -37.7961H231.881L173.285 140.807Z" fill="url(#paint0_linear_2_5579)"/>
<path opacity="0.15" d="M184.612 140.807H84.1L0.701416 -37.7961H268.01L184.612 140.807Z" fill="url(#paint1_linear_2_5579)"/>
<path d="M188.123 140.807H80.6799V265.688H188.123V140.807Z" fill="url(#paint2_linear_2_5579)"/>
<path d="M166.461 140.807H102.342V265.688H166.461V140.807Z" fill="url(#paint3_linear_2_5579)"/>
<path d="M192.347 156.403H76.3475C75.9143 156.403 75.5894 156.078 75.5894 155.645V141.565C75.5894 141.132 75.9143 140.807 76.3475 140.807H192.347C192.781 140.807 193.106 141.132 193.106 141.565V155.645C193.214 156.078 192.781 156.403 192.347 156.403Z" fill="url(#paint4_linear_2_5579)"/>
<path d="M188.123 156.403H80.6799V162.144H188.123V156.403Z" fill="url(#paint5_linear_2_5579)"/>
<path d="M120.755 156.403V265.796" stroke="url(#paint6_linear_2_5579)" stroke-width="1.0668" stroke-miterlimit="10"/>
<path d="M134.402 156.403V265.796" stroke="url(#paint7_linear_2_5579)" stroke-width="1.0668" stroke-miterlimit="10"/>
<path d="M148.049 156.403V265.796" stroke="url(#paint8_linear_2_5579)" stroke-width="1.0668" stroke-miterlimit="10"/>
<path d="M184.116 42.2448C183.574 40.2952 182.925 38.3456 182.166 36.5044C181.516 35.0964 180.867 33.58 180.108 32.2803C179.459 31.0889 178.7 29.8975 177.834 28.8144C177.076 27.7313 176.209 26.7565 175.343 25.7817C175.018 25.4568 174.693 25.0235 174.368 24.6986L167.869 17.9834C168.194 18.3083 168.519 18.7416 168.844 19.0665C169.711 20.0413 170.577 21.0161 171.335 22.0992C172.202 23.1823 172.96 24.3737 173.61 25.5651C174.368 26.9731 175.126 28.3811 175.668 29.7892C176.426 31.6304 177.076 33.58 177.617 35.5296C179.242 41.8116 179.459 48.6351 178.051 55.8918C177.726 57.7331 177.292 59.4661 176.751 61.199C176.101 63.3652 175.343 65.4231 174.368 67.481C173.61 69.1056 172.852 70.622 171.985 72.1383C171.227 73.5463 170.361 74.8461 169.494 76.1458C168.628 77.3372 167.761 78.5286 166.895 79.72C166.028 80.8031 165.053 81.8862 164.079 82.9693C163.104 84.0524 162.021 85.0272 161.046 86.002C159.963 86.9768 158.88 87.9516 157.688 88.9263C156.497 89.9011 155.197 90.8759 153.897 91.7424C152.381 92.7172 150.973 93.692 149.348 94.4501C147.399 95.5332 145.449 96.3997 143.5 97.2662C136.676 99.9739 129.311 101.382 121.946 101.057C110.79 100.515 101.367 95.9665 94.5437 89.0347L101.042 95.7499C107.758 102.79 117.289 107.231 128.445 107.772C135.81 108.205 143.175 106.797 149.998 103.981C151.948 103.223 153.897 102.248 155.847 101.165C157.363 100.299 158.88 99.4324 160.396 98.4576C161.696 97.5911 162.996 96.6163 164.187 95.6416C165.378 94.6668 166.461 93.8003 167.545 92.7172C168.628 91.7424 169.602 90.7676 170.577 89.6845C171.552 88.6014 172.527 87.5183 173.393 86.4352C174.368 85.2438 175.235 84.0524 175.993 82.861C176.859 81.5613 177.726 80.2616 178.484 78.8535C179.35 77.3372 180.108 75.8209 180.867 74.1962C181.733 72.1383 182.6 70.0804 183.249 67.9142C183.791 66.1813 184.224 64.4483 184.549 62.607C185.957 55.3503 185.741 48.4185 184.116 42.2448Z" fill="url(#paint9_linear_2_5579)"/>
<path d="M140.467 5.85273C166.353 7.26075 183.249 29.5726 178.051 55.8919C172.852 82.1028 147.724 102.357 121.838 100.949C95.9517 99.5407 79.0553 77.2289 84.2542 50.9096C89.4531 24.6986 114.581 4.55301 140.467 5.85273Z" fill="url(#paint10_linear_2_5579)"/>
<path d="M139.384 11.3766C162.345 12.568 177.184 32.3887 172.635 55.567C168.086 78.7453 145.774 96.6164 122.921 95.425C99.959 94.2336 85.1206 74.4129 89.6696 51.2346C94.2186 28.0563 116.53 10.1852 139.384 11.3766Z" fill="url(#paint11_linear_2_5579)"/>
<path opacity="0.5" d="M102.884 122.502C106.174 122.502 108.841 119.835 108.841 116.545C108.841 113.255 106.174 110.588 102.884 110.588C99.5936 110.588 96.9265 113.255 96.9265 116.545C96.9265 119.835 99.5936 122.502 102.884 122.502Z" fill="url(#paint12_linear_2_5579)"/>
<path d="M173.501 104.415C174.698 104.415 175.668 103.445 175.668 102.248C175.668 101.052 174.698 100.082 173.501 100.082C172.305 100.082 171.335 101.052 171.335 102.248C171.335 103.445 172.305 104.415 173.501 104.415Z" fill="url(#paint13_linear_2_5579)"/>
<path d="M138.301 133.875C139.318 133.875 140.142 133.051 140.142 132.034C140.142 131.017 139.318 130.192 138.301 130.192C137.284 130.192 136.459 131.017 136.459 132.034C136.459 133.051 137.284 133.875 138.301 133.875Z" fill="url(#paint14_linear_2_5579)"/>
<path d="M73.8564 41.2701C74.8733 41.2701 75.6977 40.4457 75.6977 39.4288C75.6977 38.4119 74.8733 37.5875 73.8564 37.5875C72.8395 37.5875 72.0151 38.4119 72.0151 39.4288C72.0151 40.4457 72.8395 41.2701 73.8564 41.2701Z" fill="url(#paint15_linear_2_5579)"/>
<path opacity="0.2" d="M162.995 122.502C164.491 122.502 165.703 121.29 165.703 119.795C165.703 118.299 164.491 117.087 162.995 117.087C161.5 117.087 160.288 118.299 160.288 119.795C160.288 121.29 161.5 122.502 162.995 122.502Z" fill="url(#paint16_linear_2_5579)"/>
<path opacity="0.3" d="M190.831 33.6883C192.326 33.6883 193.539 32.476 193.539 30.9806C193.539 29.4851 192.326 28.2728 190.831 28.2728C189.336 28.2728 188.123 29.4851 188.123 30.9806C188.123 32.476 189.336 33.6883 190.831 33.6883Z" fill="url(#paint17_linear_2_5579)"/>
<g filter="url(#filter0_d_2_5579)">
<path d="M134.825 28.2728C147.76 28.2728 157.195 38.6928 155.915 51.5645C154.635 64.4362 143.127 74.8562 130.192 74.8562C117.257 74.8562 107.874 64.3891 109.149 51.5645C110.429 38.6928 121.937 28.2728 134.825 28.2728Z" fill="#DB2728"/>
<path d="M127.653 47.5106C127.013 46.8033 126.268 46.1904 125.462 45.7189L125.064 49.7266C126.392 51.1411 127.095 53.1213 126.875 55.3373L126.87 55.3845C126.711 56.9876 126.087 58.4963 125.112 59.7222C125.587 60.6652 126.313 61.4667 127.157 62.0325C128.761 60.1937 129.844 57.8834 130.092 55.3845L130.097 55.3373C130.402 52.2727 129.446 49.4908 127.653 47.5106ZM120.979 62.6926C120.093 63.0227 119.131 63.1641 118.184 63.1641C113.825 63.1641 110.623 59.6279 111.054 55.2902C111.485 50.9525 115.391 47.4163 119.75 47.4163C119.987 47.4163 120.224 47.4163 120.409 47.4634L120.727 44.2573C120.491 44.2573 120.254 44.2573 120.064 44.2573C113.909 44.2101 108.442 49.1608 107.832 55.2902C107.222 61.4196 111.705 66.3703 117.865 66.3703C119.665 66.3703 121.413 65.9459 123.004 65.1915C122.227 64.4371 121.548 63.6356 120.979 62.6926Z" fill="#DB2728"/>
<path d="M117.722 67.7838C110.804 67.7838 105.724 62.1731 106.409 55.2893C107.093 48.4055 113.29 42.7948 120.208 42.7948C120.444 42.7948 120.729 42.7948 120.966 42.7948C121.719 42.8419 122.227 43.4549 122.152 44.2093L121.833 47.4154C121.795 47.7926 121.564 48.217 121.256 48.4527C120.943 48.7356 120.508 48.8299 120.128 48.8299C119.986 48.8299 119.802 48.7827 119.612 48.7827C116.011 48.7827 112.835 51.6588 112.478 55.2422C112.122 58.8255 114.721 61.7488 118.322 61.7488C119.128 61.7488 119.9 61.6073 120.639 61.3244C121.278 61.0887 121.966 61.3244 122.246 61.8431C122.735 62.6446 123.323 63.399 124.063 64.0591C124.414 64.342 124.556 64.8134 124.462 65.2849C124.368 65.7564 124.041 66.1808 123.596 66.3694C121.702 67.3124 119.712 67.7838 117.722 67.7838ZM119.163 45.6709C114.151 46.0481 109.758 50.1972 109.252 55.2893C108.722 60.6172 112.649 64.9549 118.003 64.9549C118.856 64.9549 119.671 64.8606 120.5 64.6249C120.415 64.5306 120.334 64.3891 120.249 64.2948C119.519 64.4834 118.752 64.5777 117.994 64.5777C112.876 64.5777 109.119 60.4286 109.631 55.2893C110.114 50.433 114.307 46.3781 119.173 46.0481L119.211 45.6709H119.163ZM127.019 63.399C126.782 63.399 126.507 63.3047 126.284 63.1632C125.265 62.456 124.411 61.513 123.813 60.3814C123.575 59.9099 123.636 59.297 124.01 58.8727C124.824 57.8354 125.325 56.6095 125.456 55.2893C125.63 53.5448 125.13 51.8946 123.973 50.6687C123.717 50.3858 123.608 50.0558 123.645 49.6786L124.044 45.6709C124.095 45.1523 124.426 44.6808 124.876 44.445C125.326 44.2093 125.895 44.2093 126.298 44.445C127.237 45.0108 128.066 45.718 128.75 46.4724C130.837 48.8299 131.854 51.9417 131.526 55.2422C131.249 58.024 130.091 60.6172 128.217 62.786C127.89 63.2104 127.445 63.399 127.019 63.399ZM126.83 59.5799C126.915 59.6742 127.001 59.7685 127.086 59.8628C127.985 58.4483 128.566 56.8924 128.725 55.2893C128.979 52.7433 128.27 50.3387 126.648 48.547L126.592 49.1128C127.939 50.8102 128.576 52.979 128.346 55.2893C128.149 56.7981 127.62 58.3069 126.83 59.5799Z" fill="#DB2728"/>
<path d="M131.773 38.4567H128.551L126.877 55.2889H130.099L131.773 38.4567Z" fill="#DB2728"/>
<path d="M130.018 56.1363H126.796C126.37 56.1363 126.028 55.7591 126.07 55.3347L127.749 38.4553C127.791 38.031 128.208 37.6538 128.634 37.6538H131.856C132.283 37.6538 132.624 38.031 132.582 38.4553L130.908 55.2876C130.861 55.7591 130.444 56.1363 130.018 56.1363ZM127.761 54.5332H129.372L130.891 39.2569H129.28L127.761 54.5332Z" fill="#DB2728"/>
<path d="M145.584 32.0428C139.424 32.0428 133.957 36.9935 133.347 43.1229C133.047 46.1404 134.002 48.9222 135.795 50.9025C136.649 51.8455 137.707 52.647 138.882 53.2128L139.248 49.5352C137.351 48.1207 136.307 45.7633 136.569 43.1229C137.001 38.7852 140.906 35.249 145.265 35.249C149.624 35.249 152.826 38.7852 152.395 43.1229C151.973 47.3663 148.214 50.8554 143.983 50.9968L143.664 54.2029C149.696 54.0615 155.016 49.158 155.617 43.1229C156.226 36.9935 151.744 32.0428 145.584 32.0428Z" fill="#DB2728"/>
<path d="M143.521 55.6198C143.142 55.6198 142.824 55.4783 142.568 55.1954C142.312 54.9125 142.203 54.5825 142.24 54.2053L142.559 50.9992C142.634 50.2448 143.311 49.6318 144.074 49.5847C147.59 49.4904 150.624 46.6143 150.971 43.1253C151.327 39.5419 148.723 36.6658 145.122 36.6658C141.521 36.6658 138.345 39.5419 137.988 43.1253C137.782 45.1998 138.627 47.1801 140.211 48.406C140.562 48.6889 140.757 49.1132 140.715 49.5375L140.349 53.2152C140.302 53.6867 140.018 54.1582 139.568 54.3939C139.114 54.6768 138.64 54.6768 138.185 54.4882C136.872 53.8753 135.681 52.9794 134.699 51.895C132.565 49.5375 131.595 46.4257 131.923 43.1253C132.608 36.2415 138.804 30.6307 145.722 30.6307C152.64 30.6307 157.72 36.2415 157.036 43.1253C156.403 49.9619 150.458 55.4312 143.521 55.6198C143.568 55.6198 143.568 55.6198 143.521 55.6198ZM145.275 52.2722L145.238 52.6494C149.866 51.8479 153.724 47.8402 154.193 43.1253C154.723 37.7974 150.795 33.4597 145.441 33.4597C140.087 33.4597 135.296 37.7974 134.766 43.1253C134.513 45.6713 135.264 48.1231 136.886 49.9147C137.143 50.1976 137.399 50.4805 137.707 50.7163L137.754 50.2448C135.843 48.5003 134.869 45.9071 135.145 43.1253C135.656 37.986 140.239 33.8369 145.403 33.8369C150.568 33.8369 154.325 37.986 153.814 43.1253C153.406 47.6987 149.762 51.4707 145.275 52.2722Z" fill="#DB2728"/>
<path d="M136.569 43.1228H133.347L131.673 59.955H134.895L136.569 43.1228Z" fill="#DB2728"/>
<path d="M134.813 60.7627H131.591C131.165 60.7627 130.823 60.3855 130.866 59.9612L132.54 43.1289C132.582 42.7046 132.998 42.3274 133.425 42.3274H136.647C137.073 42.3274 137.415 42.7046 137.373 43.1289L135.698 59.9612C135.652 60.4327 135.287 60.7627 134.813 60.7627ZM132.556 59.1596H134.167L135.682 43.9305H134.071L132.556 59.1596Z" fill="#DB2728"/>
<path d="M125.13 40.954L124.834 43.9244L123.629 56.0417C123.198 60.3794 126.4 63.9156 130.759 63.9156C135.118 63.9156 139.023 60.3794 139.455 56.0417L140.529 45.2446H143.751L142.677 56.0417L142.494 57.8805L141.42 68.6777C141.27 70.1865 140.845 71.6009 140.145 72.9211C138.088 76.9288 133.827 79.7577 129.183 79.7577C125.914 79.7577 123.16 78.3904 121.343 76.1744C120.664 75.3729 120.137 74.477 119.762 73.4869L122.47 71.0351C122.694 72.1196 123.164 73.1097 123.842 73.9112C125.147 75.5615 127.133 76.5516 129.502 76.5516C133.861 76.5516 137.767 73.0154 138.198 68.6777L138.681 63.8213C136.442 65.8487 133.52 67.1218 130.44 67.1218C124.565 67.1218 120.225 62.6426 120.37 56.8904H120.323L121.575 44.3016C121.589 44.1601 121.598 44.0658 121.613 43.9244L121.908 40.954H125.13V40.954Z" fill="#DB2728"/>
<path d="M129.108 80.5107C125.792 80.5107 122.71 79.0962 120.68 76.6444C119.959 75.7957 119.394 74.8056 118.976 73.7683C118.867 73.4383 118.947 73.1082 119.207 72.8725L121.915 70.4207C122.123 70.2321 122.417 70.1378 122.692 70.2321C122.971 70.2793 123.137 70.515 123.209 70.7508C123.395 71.7409 123.831 72.5896 124.42 73.344C125.596 74.8528 127.455 75.7014 129.492 75.7014C133.425 75.7014 136.913 72.5425 137.303 68.6291L137.607 65.5644C135.42 67.0732 132.872 67.9218 130.266 67.9218C124.153 67.9218 119.453 63.2541 119.437 57.219C119.499 57.0775 119.508 56.9832 119.518 56.8889L120.77 44.3001C120.779 44.2058 120.788 44.1115 120.798 44.0172C120.803 43.9701 120.803 43.9701 120.807 43.9229L121.103 40.9525C121.145 40.5282 121.561 40.151 121.988 40.151H125.21C125.636 40.151 125.978 40.5282 125.936 40.9525L124.444 55.946C124.44 55.9931 124.44 55.9931 124.435 56.0403C124.046 59.9536 126.906 63.1126 130.839 63.1126C134.772 63.1126 138.26 59.9536 138.65 56.0403L139.723 45.2431C139.766 44.8188 140.182 44.4416 140.609 44.4416H143.831C144.257 44.4416 144.599 44.8188 144.556 45.2431L142.23 68.6291C142.071 70.2321 141.637 71.7409 140.875 73.2025C138.587 77.6346 133.941 80.5107 129.108 80.5107ZM120.748 73.5797C121.057 74.287 121.512 74.9471 122.02 75.56C123.751 77.6817 126.425 78.9076 129.315 78.9076C133.485 78.9076 137.477 76.4087 139.467 72.5896C140.11 71.3637 140.531 69.9964 140.667 68.6291L142.913 46.0446H141.302L140.308 56.0403C139.83 60.8495 135.512 64.7157 130.727 64.7157C125.941 64.7157 122.44 60.8495 122.862 56.1346C122.867 56.0874 122.867 56.0874 122.871 56.0403L124.292 41.7541H122.681L122.48 43.7815C122.475 43.8286 122.47 43.8758 122.466 43.9229C122.452 44.0644 122.442 44.1587 122.428 44.3001L121.199 56.6532C121.195 56.7003 121.237 56.7475 121.228 56.8418C121.125 62.1696 125.213 66.3188 130.567 66.3188C133.363 66.3188 136.077 65.2343 138.216 63.2541C138.477 63.0183 138.813 62.9712 139.135 63.0655C139.406 63.2069 139.614 63.4898 139.581 63.8199L139.103 68.6291C138.625 73.4383 134.308 77.3045 129.522 77.3045C127.011 77.3045 124.75 76.2201 123.274 74.3813C122.814 73.7683 122.406 73.1082 122.144 72.401L120.748 73.5797Z" fill="#DB2728"/>
<path d="M129 81.5988C125.351 81.5988 121.995 80.0901 119.798 77.4026C119.039 76.4596 118.389 75.3752 117.98 74.2436C117.719 73.5363 117.95 72.6405 118.575 72.0747L121.283 69.623C121.804 69.1515 122.486 68.9629 123.135 69.1043C123.784 69.2458 124.206 69.7644 124.382 70.3773C124.54 71.1789 124.891 71.9333 125.394 72.5934C126.405 73.8664 127.988 74.6208 129.694 74.6208C133.01 74.6208 135.978 71.9333 136.307 68.6328L136.414 67.5484C134.473 68.4914 132.384 69.01 130.252 69.01C123.618 69.01 118.529 63.9651 118.465 57.4585C118.437 57.2699 118.403 57.1284 118.422 56.9398L119.679 44.3039C119.688 44.2096 119.698 44.1153 119.702 44.0681C119.707 44.021 119.712 43.9738 119.716 43.9267L120.012 40.9563C120.115 39.919 121.052 39.0703 122.095 39.0703H125.317C126.359 39.0703 127.128 39.919 127.024 40.9563L125.538 55.9026C125.533 55.9497 125.528 55.9969 125.524 56.044C125.195 59.3444 127.629 62.0319 130.946 62.0319C134.262 62.0319 137.23 59.3444 137.559 56.044L138.633 45.2469C138.736 44.2096 139.673 43.3609 140.715 43.3609H143.937C144.98 43.3609 145.748 44.2096 145.645 45.2469L143.319 68.6328C143.146 70.3773 142.65 72.0276 141.827 73.6306C139.311 78.4398 134.259 81.5988 129 81.5988ZM138.868 61.9376C139.105 61.9376 139.337 61.9848 139.564 62.0791C139.792 62.1734 139.967 62.3148 140.143 62.4563L140.457 59.2973C140.032 60.2403 139.469 61.1361 138.773 61.9376C138.773 61.9376 138.82 61.9376 138.868 61.9376Z" fill="#DB2728"/>
<path d="M127.653 47.5106C127.013 46.8033 126.268 46.1904 125.462 45.7189L125.064 49.7266C126.392 51.1411 127.095 53.1213 126.875 55.3373L126.87 55.3845C126.711 56.9876 126.087 58.4963 125.112 59.7222C125.587 60.6652 126.313 61.4667 127.157 62.0325C128.761 60.1937 129.844 57.8834 130.092 55.3845L130.097 55.3373C130.402 52.2727 129.446 49.4908 127.653 47.5106ZM120.979 62.6926C120.093 63.0227 119.131 63.1641 118.184 63.1641C113.825 63.1641 110.623 59.6279 111.054 55.2902C111.485 50.9525 115.391 47.4163 119.75 47.4163C119.987 47.4163 120.224 47.4163 120.409 47.4634L120.727 44.2573C120.491 44.2573 120.254 44.2573 120.064 44.2573C113.909 44.2101 108.442 49.1608 107.832 55.2902C107.222 61.4196 111.705 66.3703 117.865 66.3703C119.665 66.3703 121.413 65.9459 123.004 65.1915C122.227 64.4371 121.548 63.6356 120.979 62.6926Z" fill="white"/>
<path d="M131.773 38.4567H128.551L126.877 55.2889H130.099L131.773 38.4567Z" fill="white"/>
<path d="M145.584 32.0428C139.424 32.0428 133.957 36.9935 133.347 43.1229C133.047 46.1404 134.002 48.9222 135.795 50.9025C136.649 51.8455 137.707 52.647 138.882 53.2128L139.248 49.5352C137.351 48.1207 136.307 45.7633 136.569 43.1229C137.001 38.7852 140.906 35.249 145.265 35.249C149.624 35.249 152.826 38.7852 152.395 43.1229C151.973 47.3663 148.214 50.8554 143.983 50.9968L143.664 54.2029C149.696 54.0615 155.016 49.158 155.617 43.1229C156.226 36.9935 151.744 32.0428 145.584 32.0428Z" fill="white"/>
<path d="M136.569 43.1228H133.347L131.673 59.955H134.895L136.569 43.1228Z" fill="white"/>
<path d="M125.13 40.954L124.834 43.9244L123.629 56.0417C123.198 60.3794 126.4 63.9156 130.759 63.9156C135.118 63.9156 139.023 60.3794 139.455 56.0417L140.529 45.2446H143.751L142.677 56.0417L142.494 57.8805L141.42 68.6777C141.27 70.1865 140.845 71.6009 140.145 72.9211C138.088 76.9288 133.827 79.7577 129.183 79.7577C125.914 79.7577 123.16 78.3904 121.343 76.1744C120.664 75.3729 120.137 74.477 119.762 73.4869L122.47 71.0351C122.694 72.1196 123.164 73.1097 123.842 73.9112C125.147 75.5615 127.133 76.5516 129.502 76.5516C133.861 76.5516 137.767 73.0154 138.198 68.6777L138.681 63.8213C136.442 65.8487 133.52 67.1218 130.44 67.1218C124.565 67.1218 120.225 62.6426 120.37 56.8904H120.323L121.575 44.3016C121.589 44.1601 121.598 44.0658 121.613 43.9244L121.908 40.954H125.13V40.954Z" fill="white"/>
</g>
</g>
<defs>
<filter id="filter0_d_2_5579" x="90.3469" y="14.2728" width="82.7505" height="85.326" filterUnits="userSpaceOnUse" color-interpolation-filters="sRGB">
<feFlood flood-opacity="0" result="BackgroundImageFix"/>
<feColorMatrix in="SourceAlpha" type="matrix" values="0 0 0 0 0 0 0 0 0 0 0 0 0 0 0 0 0 0 127 0" result="hardAlpha"/>
<feOffset dy="2"/>
<feGaussianBlur stdDeviation="8"/>
<feComposite in2="hardAlpha" operator="out"/>
<feColorMatrix type="matrix" values="0 0 0 0 0 0 0 0 0 0 0 0 0 0 0 0 0 0 0.12 0"/>
<feBlend mode="normal" in2="BackgroundImageFix" result="effect1_dropShadow_2_5579"/>
<feBlend mode="normal" in="SourceGraphic" in2="effect1_dropShadow_2_5579" result="shape"/>
</filter>
<linearGradient id="paint0_linear_2_5579" x1="134.394" y1="140.857" x2="134.394" y2="-34.1236" gradientUnits="userSpaceOnUse">
<stop stop-color="#FF8A9F"/>
<stop offset="1" stop-color="#79D3FD" stop-opacity="0"/>
</linearGradient>
<linearGradient id="paint1_linear_2_5579" x1="134.348" y1="140.857" x2="134.348" y2="-34.1236" gradientUnits="userSpaceOnUse">
<stop stop-color="#FF8A8A"/>
<stop offset="1" stop-color="#79D3FD" stop-opacity="0"/>
</linearGradient>
<linearGradient id="paint2_linear_2_5579" x1="134.394" y1="289.774" x2="134.394" y2="153.998" gradientUnits="userSpaceOnUse">
<stop stop-color="#9A8AFF"/>
<stop offset="1" stop-color="#423BFD"/>
</linearGradient>
<linearGradient id="paint3_linear_2_5579" x1="134.394" y1="265.509" x2="134.394" y2="159.76" gradientUnits="userSpaceOnUse">
<stop stop-color="#AF8AFF"/>
<stop offset="1" stop-color="#799EFD"/>
</linearGradient>
<linearGradient id="paint4_linear_2_5579" x1="75.6166" y1="148.645" x2="193.172" y2="148.645" gradientUnits="userSpaceOnUse">
<stop stop-color="#C58AFF"/>
<stop offset="1" stop-color="#7C79FD"/>
</linearGradient>
<linearGradient id="paint5_linear_2_5579" x1="79.2215" y1="159.311" x2="217.919" y2="159.311" gradientUnits="userSpaceOnUse">
<stop stop-color="#522E9D"/>
<stop offset="1" stop-color="#A379FD"/>
</linearGradient>
<linearGradient id="paint6_linear_2_5579" x1="-nan" y1="-nan" x2="-nan" y2="-nan" gradientUnits="userSpaceOnUse">
<stop stop-color="#7C79FD"/>
<stop offset="1" stop-color="white"/>
</linearGradient>
<linearGradient id="paint7_linear_2_5579" x1="-nan" y1="-nan" x2="-nan" y2="-nan" gradientUnits="userSpaceOnUse">
<stop stop-color="#7C79FD"/>
<stop offset="1" stop-color="white"/>
</linearGradient>
<linearGradient id="paint8_linear_2_5579" x1="-nan" y1="-nan" x2="-nan" y2="-nan" gradientUnits="userSpaceOnUse">
<stop stop-color="#7C79FD"/>
<stop offset="1" stop-color="white"/>
</linearGradient>
<linearGradient id="paint9_linear_2_5579" x1="155.052" y1="49.2245" x2="127.321" y2="100.931" gradientUnits="userSpaceOnUse">
<stop stop-color="#F9DD68"/>
<stop offset="1" stop-color="#F9A942"/>
</linearGradient>
<linearGradient id="paint10_linear_2_5579" x1="83.3287" y1="53.4214" x2="179.005" y2="53.4214" gradientUnits="userSpaceOnUse">
<stop stop-color="#F9DD68"/>
<stop offset="1" stop-color="#F9A942"/>
</linearGradient>
<linearGradient id="paint11_linear_2_5579" x1="88.8466" y1="53.4214" x2="173.487" y2="53.4214" gradientUnits="userSpaceOnUse">
<stop stop-color="#F9DD68"/>
<stop offset="1" stop-color="#F9A942"/>
</linearGradient>
<linearGradient id="paint12_linear_2_5579" x1="96.9612" y1="116.588" x2="108.808" y2="116.588" gradientUnits="userSpaceOnUse">
<stop stop-color="#F9DD68"/>
<stop offset="1" stop-color="#F9A942"/>
</linearGradient>
<linearGradient id="paint13_linear_2_5579" x1="171.282" y1="102.196" x2="175.692" y2="102.196" gradientUnits="userSpaceOnUse">
<stop stop-color="#F9DD68"/>
<stop offset="1" stop-color="#F9A942"/>
</linearGradient>
<linearGradient id="paint14_linear_2_5579" x1="136.47" y1="132.055" x2="140.054" y2="132.055" gradientUnits="userSpaceOnUse">
<stop stop-color="#F9DD68"/>
<stop offset="1" stop-color="#F9A942"/>
</linearGradient>
<linearGradient id="paint15_linear_2_5579" x1="72.033" y1="39.4703" x2="75.6166" y2="39.4703" gradientUnits="userSpaceOnUse">
<stop stop-color="#F9DD68"/>
<stop offset="1" stop-color="#F9A942"/>
</linearGradient>
<linearGradient id="paint16_linear_2_5579" x1="160.231" y1="119.8" x2="165.654" y2="119.8" gradientUnits="userSpaceOnUse">
<stop stop-color="#F9DD68"/>
<stop offset="1" stop-color="#F9A942"/>
</linearGradient>
<linearGradient id="paint17_linear_2_5579" x1="188.107" y1="30.953" x2="193.53" y2="30.953" gradientUnits="userSpaceOnUse">
<stop stop-color="#F9DD68"/>
<stop offset="1" stop-color="#F9A942"/>
</linearGradient>
<clipPath id="clip0_2_5579">
<rect width="267.309" height="303.592" fill="white" transform="translate(0.747314 -37.7961)"/>
</clipPath>
</defs>
</svg>
