<svg width="24" height="24" viewBox="0 0 24 24" fill="none" xmlns="http://www.w3.org/2000/svg">
<circle r="12" transform="matrix(1 0 0 -1 12 12)" fill="#219EE1" fill-opacity="0.15"/>
<g clip-path="url(#clip0)">
<path d="M12.0388 16.0998L7.50813 13.9263L12.0346 19.9115L12.7147 19.0122V15.7745L12.0388 16.0998Z" fill="#21A1E7"/>
<path d="M12.0347 3.87038L6.83571 13.0366H17.2338L12.0347 3.87038Z" fill="#32B1F7"/>
<path d="M17.2339 13.0502L12.0348 3.87038V13.0502H17.2339Z" fill="#219EE1"/>
<path d="M10.4614 8.96146H11.4817V9.96401H10.4614V8.96146Z" fill="white"/>
<path d="M12.035 10.5471L12.0145 10.5375L6.83651 13.0439H6.84112L12.0192 15.5503L12.0396 15.5407L12.715 15.2159V10.8743L12.035 10.5471Z" fill="#21A1E7"/>
<path d="M10.4614 7.06502H11.4817V8.06757H10.4614V7.06502Z" fill="white"/>
<path d="M12.0389 16.0993L12.0348 19.911L16.5645 13.9217L12.0389 16.0993Z" fill="#1D91D0"/>
<path d="M17.224 13.0439L12.0346 10.5471L12.0142 10.5375L12.0188 15.5503L12.0392 15.5407L17.2286 13.0439H17.224Z" fill="#1D91D0"/>
</g>
<defs>
<clipPath id="clip0">
<rect width="16.325" height="16.0408" fill="white" transform="translate(3.87038 3.87038)"/>
</clipPath>
</defs>
</svg>
