<svg width="26" height="27" viewBox="0 0 26 27" fill="none" xmlns="http://www.w3.org/2000/svg">
<g clip-path="url(#clip0)">
<path d="M13.0093 20.598L5.79358 16.9469L13.0027 27.0009L14.0858 25.4903V20.0515L13.0093 20.598Z" fill="#21A1E7"/>
<path d="M13.0028 0.0540771L4.72266 15.4516H21.2831L13.0028 0.0540771Z" fill="#32B1F7"/>
<path d="M21.2833 15.4744L13.0029 0.0540771V15.4744H21.2833Z" fill="#219EE1"/>
<path d="M10.4972 8.60648H12.1222V10.2906H10.4972V8.60648Z" fill="white"/>
<path d="M13.0033 11.2699L12.9708 11.2538L4.724 15.4641H4.73134L12.9781 19.6743L13.0107 19.6583L14.0864 19.1127V11.8196L13.0033 11.2699Z" fill="#21A1E7"/>
<path d="M10.4972 5.4213H12.1222V7.10539H10.4972V5.4213Z" fill="white"/>
<path d="M13.0095 20.5957L13.0029 26.9987L20.2172 16.9379L13.0095 20.5957Z" fill="#1D91D0"/>
<path d="M21.2676 15.4641L13.0027 11.2699L12.9702 11.2538L12.9776 19.6743L13.0101 19.6583L21.2749 15.4641H21.2676Z" fill="#1D91D0"/>
</g>
<defs>
<clipPath id="clip0">
<rect width="26" height="26.9455" fill="white" transform="translate(0 0.0540771)"/>
</clipPath>
</defs>
</svg>
