<svg width="278" height="190" viewBox="0 0 278 190" fill="none" xmlns="http://www.w3.org/2000/svg">
<path d="M0 6.80859C0 3.49488 2.68629 0.808594 6 0.808594H272C275.314 0.808594 278 3.49489 278 6.80859V183.689C278 187.003 275.314 189.689 272 189.689H6C2.68629 189.689 0 187.003 0 183.689V6.80859Z" fill="url(#paint0_linear_4_3964)"/>
<mask id="mask0_4_3964" style="mask-type:alpha" maskUnits="userSpaceOnUse" x="0" y="0" width="278" height="190">
<path d="M0 6.80859C0 3.49488 2.68629 0.808594 6 0.808594H272C275.314 0.808594 278 3.49489 278 6.80859V183.689C278 187.003 275.314 189.689 272 189.689H6C2.68629 189.689 0 187.003 0 183.689V6.80859Z" fill="url(#paint1_linear_4_3964)"/>
</mask>
<g mask="url(#mask0_4_3964)">
<g style="mix-blend-mode:overlay" opacity="0.504246">
<path fill-rule="evenodd" clip-rule="evenodd" d="M268.248 -85.4896L319.856 -76.3896C341.669 -72.5435 359.773 -57.3527 367.348 -36.5395L385.272 12.705C392.847 33.5183 388.743 56.7919 374.506 73.759L340.821 113.903C326.584 130.871 304.376 138.953 282.564 135.107L230.955 126.007C209.143 122.161 191.039 106.97 183.464 86.1572L165.54 36.9126C157.965 16.0994 162.068 -7.17422 176.305 -24.1413L209.991 -64.2859C224.228 -81.2529 246.435 -89.3358 268.248 -85.4896Z" fill="url(#paint2_linear_4_3964)"/>
</g>
<g style="mix-blend-mode:overlay" opacity="0.504246">
<path fill-rule="evenodd" clip-rule="evenodd" d="M282.584 -100.193L339.354 -82.8369C363.348 -75.5012 381.606 -55.9223 387.25 -31.4753L400.604 26.3669C406.248 50.8139 398.421 76.4149 380.071 93.5262L336.655 134.012C318.305 151.124 292.221 157.146 268.227 149.81L211.457 132.454C187.463 125.118 169.206 105.539 163.562 81.0923L150.208 23.2501C144.564 -1.19693 152.391 -26.7979 170.741 -43.9093L214.156 -84.3953C232.506 -101.507 258.591 -107.529 282.584 -100.193Z" fill="url(#paint3_linear_4_3964)"/>
</g>
<g style="mix-blend-mode:overlay" opacity="0.504246">
<path fill-rule="evenodd" clip-rule="evenodd" d="M189.966 62.3377L182.283 18.7652C179.035 0.349236 185.86 -18.4001 200.185 -30.4203L234.078 -58.8602C248.403 -70.8804 268.053 -74.3451 285.625 -67.9493L327.201 -52.8167C344.774 -46.421 357.599 -31.1363 360.846 -12.7204L368.529 30.8521C371.776 49.268 364.952 68.0174 350.627 80.0376L316.734 108.477C302.409 120.498 282.759 123.962 265.187 117.567L223.61 102.434C206.038 96.0382 193.213 80.7536 189.966 62.3377Z" fill="url(#paint4_linear_4_3964)"/>
</g>
</g>
<path d="M112.647 67.5518V49.2218H125.387V52.3678H116.521V56.6578H124.763V59.8298H116.521V64.4058H125.387V67.5518H112.647ZM133.987 67.8378C132.271 67.8378 130.98 67.4131 130.113 66.5638C129.246 65.6971 128.813 64.4058 128.813 62.6898V57.3078H126.317V54.3698H128.813V51.1458L132.739 50.1838V54.3698H136.119V57.3078H132.739V62.4818C132.739 63.3138 132.912 63.8858 133.259 64.1978C133.606 64.5098 134.048 64.6658 134.585 64.6658C134.914 64.6658 135.183 64.6484 135.391 64.6138C135.616 64.5618 135.85 64.4924 136.093 64.4058V67.4478C135.764 67.5864 135.417 67.6818 135.053 67.7338C134.689 67.8031 134.334 67.8378 133.987 67.8378ZM138.133 67.5518V48.4158H142.059V56.8398H141.669C142.085 55.9558 142.701 55.2798 143.515 54.8118C144.33 54.3438 145.266 54.1098 146.323 54.1098C147.866 54.1098 149.019 54.5604 149.781 55.4618C150.544 56.3458 150.925 57.7064 150.925 59.5438V67.5518H146.999V59.7258C146.999 58.8071 146.826 58.1484 146.479 57.7498C146.15 57.3511 145.63 57.1518 144.919 57.1518C144.053 57.1518 143.359 57.4204 142.839 57.9578C142.319 58.4951 142.059 59.2144 142.059 60.1158V67.5518H138.133ZM160.709 67.8378C158.421 67.8378 156.635 67.2224 155.353 65.9918C154.07 64.7611 153.429 63.0884 153.429 60.9738C153.429 59.6044 153.697 58.4084 154.235 57.3858C154.789 56.3631 155.552 55.5658 156.523 54.9938C157.511 54.4044 158.663 54.1098 159.981 54.1098C161.281 54.1098 162.364 54.3871 163.231 54.9418C164.115 55.4964 164.773 56.2764 165.207 57.2818C165.657 58.2698 165.883 59.4224 165.883 60.7398V61.6498H156.653V59.6998H163.023L162.581 60.0638C162.581 58.9718 162.355 58.1484 161.905 57.5938C161.471 57.0218 160.839 56.7358 160.007 56.7358C159.088 56.7358 158.377 57.0738 157.875 57.7498C157.389 58.4258 157.147 59.3964 157.147 60.6618V61.0778C157.147 62.3604 157.459 63.3138 158.083 63.9378C158.724 64.5618 159.643 64.8738 160.839 64.8738C161.549 64.8738 162.217 64.7871 162.841 64.6138C163.482 64.4231 164.089 64.1284 164.661 63.7298L165.753 66.3298C165.094 66.8151 164.331 67.1878 163.465 67.4478C162.615 67.7078 161.697 67.8378 160.709 67.8378ZM168.348 67.5518V57.8538C168.348 57.2818 168.33 56.7011 168.296 56.1118C168.278 55.5224 168.235 54.9418 168.166 54.3698H171.936L172.378 58.2178H171.78C171.953 57.2818 172.23 56.5104 172.612 55.9038C173.01 55.2971 173.496 54.8464 174.068 54.5518C174.657 54.2571 175.324 54.1098 176.07 54.1098C176.399 54.1098 176.659 54.1271 176.85 54.1618C177.04 54.1791 177.231 54.2224 177.422 54.2918L177.396 57.7498C177.032 57.5938 176.72 57.4984 176.46 57.4638C176.217 57.4118 175.905 57.3858 175.524 57.3858C174.796 57.3858 174.189 57.5244 173.704 57.8018C173.236 58.0791 172.88 58.4864 172.638 59.0238C172.412 59.5611 172.3 60.2111 172.3 60.9738V67.5518H168.348ZM185.465 67.8378C183.177 67.8378 181.391 67.2224 180.109 65.9918C178.826 64.7611 178.185 63.0884 178.185 60.9738C178.185 59.6044 178.453 58.4084 178.991 57.3858C179.545 56.3631 180.308 55.5658 181.279 54.9938C182.267 54.4044 183.419 54.1098 184.737 54.1098C186.037 54.1098 187.12 54.3871 187.987 54.9418C188.871 55.4964 189.529 56.2764 189.963 57.2818C190.413 58.2698 190.639 59.4224 190.639 60.7398V61.6498H181.409V59.6998H187.779L187.337 60.0638C187.337 58.9718 187.111 58.1484 186.661 57.5938C186.227 57.0218 185.595 56.7358 184.763 56.7358C183.844 56.7358 183.133 57.0738 182.631 57.7498C182.145 58.4258 181.903 59.3964 181.903 60.6618V61.0778C181.903 62.3604 182.215 63.3138 182.839 63.9378C183.48 64.5618 184.399 64.8738 185.595 64.8738C186.305 64.8738 186.973 64.7871 187.597 64.6138C188.238 64.4231 188.845 64.1284 189.417 63.7298L190.509 66.3298C189.85 66.8151 189.087 67.1878 188.221 67.4478C187.371 67.7078 186.453 67.8378 185.465 67.8378ZM197.914 67.8378C196.267 67.8378 195.045 67.3871 194.248 66.4858C193.45 65.5671 193.052 64.1804 193.052 62.3258V54.3698H196.978V62.3258C196.978 63.1578 197.142 63.7731 197.472 64.1718C197.818 64.5704 198.347 64.7698 199.058 64.7698C199.838 64.7698 200.479 64.5011 200.982 63.9638C201.502 63.4091 201.762 62.6724 201.762 61.7538V54.3698H205.688V67.5518H201.866V65.0298H202.23C201.831 65.9138 201.259 66.6071 200.514 67.1098C199.786 67.5951 198.919 67.8378 197.914 67.8378ZM208.923 67.5518V57.8018C208.923 57.2471 208.905 56.6838 208.871 56.1118C208.836 55.5224 208.784 54.9418 208.715 54.3698H212.485L212.771 56.8138H212.459C212.84 55.9818 213.403 55.3231 214.149 54.8378C214.894 54.3524 215.778 54.1098 216.801 54.1098C217.806 54.1098 218.647 54.3524 219.323 54.8378C220.016 55.3058 220.51 56.0424 220.805 57.0478H220.389C220.77 56.1464 221.377 55.4358 222.209 54.9158C223.041 54.3784 223.985 54.1098 225.043 54.1098C226.533 54.1098 227.643 54.5518 228.371 55.4358C229.099 56.3198 229.463 57.7064 229.463 59.5958V67.5518H225.537V59.7258C225.537 58.8071 225.389 58.1484 225.095 57.7498C224.8 57.3511 224.323 57.1518 223.665 57.1518C222.885 57.1518 222.269 57.4291 221.819 57.9838C221.368 58.5384 221.143 59.3011 221.143 60.2718V67.5518H217.217V59.7258C217.217 58.8071 217.069 58.1484 216.775 57.7498C216.48 57.3511 216.003 57.1518 215.345 57.1518C214.565 57.1518 213.949 57.4291 213.499 57.9838C213.065 58.5384 212.849 59.3011 212.849 60.2718V67.5518H208.923Z" fill="white"/>
<rect x="231.775" y="132.537" width="30" height="30" rx="15" fill="url(#paint5_linear_4_3964)"/>
<path d="M244.775 152.537L249.775 147.537L244.775 142.537" stroke="white" stroke-opacity="0.8" stroke-width="2" stroke-linecap="round" stroke-linejoin="round"/>
<path d="M19.696 151.537L15.976 143.077H17.32L20.488 150.493H20.056L23.236 143.077H24.52L20.788 151.537H19.696ZM25.3841 151.537V145.489H26.5961V151.537H25.3841ZM25.2881 144.229V142.969H26.6921V144.229H25.2881ZM31.1684 151.645C30.1924 151.645 29.4244 151.369 28.8644 150.817C28.3044 150.265 28.0244 149.501 28.0244 148.525C28.0244 147.893 28.1444 147.341 28.3844 146.869C28.6324 146.397 28.9724 146.033 29.4044 145.777C29.8444 145.513 30.3524 145.381 30.9284 145.381C31.4964 145.381 31.9724 145.501 32.3564 145.741C32.7404 145.981 33.0324 146.321 33.2324 146.761C33.4324 147.193 33.5324 147.705 33.5324 148.297V148.681H28.9724V147.985H32.7044L32.5004 148.141C32.5004 147.541 32.3644 147.077 32.0924 146.749C31.8284 146.413 31.4444 146.245 30.9404 146.245C30.3804 146.245 29.9484 146.441 29.6444 146.833C29.3404 147.217 29.1884 147.749 29.1884 148.429V148.549C29.1884 149.261 29.3604 149.797 29.7044 150.157C30.0564 150.517 30.5524 150.697 31.1924 150.697C31.5444 150.697 31.8724 150.649 32.1764 150.553C32.4884 150.449 32.7844 150.281 33.0644 150.049L33.4604 150.877C33.1804 151.125 32.8404 151.317 32.4404 151.453C32.0404 151.581 31.6164 151.645 31.1684 151.645ZM36.4851 151.537L34.1931 145.489H35.4531L37.2411 150.529H36.9291L38.7651 145.489H39.7011L41.5251 150.529H41.2251L43.0131 145.489H44.2251L41.9211 151.537H40.8171L38.9211 146.401H39.4851L37.6131 151.537H36.4851ZM48.5403 154.129V146.941C48.5403 146.709 48.5283 146.473 48.5043 146.233C48.4883 145.985 48.4683 145.737 48.4443 145.489H49.6203L49.7403 146.857H49.6083C49.7363 146.401 49.9923 146.041 50.3763 145.777C50.7683 145.513 51.2323 145.381 51.7683 145.381C52.3043 145.381 52.7723 145.509 53.1723 145.765C53.5723 146.013 53.8803 146.369 54.0963 146.833C54.3203 147.297 54.4323 147.857 54.4323 148.513C54.4323 149.161 54.3203 149.721 54.0963 150.193C53.8803 150.665 53.5723 151.025 53.1723 151.273C52.7723 151.521 52.3043 151.645 51.7683 151.645C51.2403 151.645 50.7803 151.517 50.3883 151.261C50.0043 150.997 49.7483 150.641 49.6203 150.193H49.7523V154.129H48.5403ZM51.4683 150.697C51.9963 150.697 52.4163 150.513 52.7283 150.145C53.0483 149.777 53.2083 149.233 53.2083 148.513C53.2083 147.793 53.0483 147.253 52.7283 146.893C52.4163 146.525 51.9963 146.341 51.4683 146.341C50.9403 146.341 50.5163 146.525 50.1963 146.893C49.8843 147.253 49.7283 147.793 49.7283 148.513C49.7283 149.233 49.8843 149.777 50.1963 150.145C50.5163 150.513 50.9403 150.697 51.4683 150.697ZM55.8288 151.537V146.989C55.8288 146.741 55.8208 146.493 55.8048 146.245C55.7968 145.989 55.7808 145.737 55.7568 145.489H56.9328L57.0648 147.049H56.8728C56.9528 146.673 57.0888 146.361 57.2808 146.113C57.4728 145.865 57.7048 145.681 57.9768 145.561C58.2568 145.441 58.5488 145.381 58.8528 145.381C58.9808 145.381 59.0888 145.389 59.1768 145.405C59.2648 145.413 59.3528 145.429 59.4408 145.453L59.4288 146.533C59.2928 146.477 59.1728 146.445 59.0688 146.437C58.9728 146.421 58.8528 146.413 58.7088 146.413C58.3568 146.413 58.0568 146.493 57.8088 146.653C57.5608 146.805 57.3728 147.013 57.2448 147.277C57.1168 147.541 57.0528 147.825 57.0528 148.129V151.537H55.8288ZM62.8863 151.645C62.2863 151.645 61.7663 151.521 61.3263 151.273C60.8863 151.017 60.5463 150.657 60.3063 150.193C60.0663 149.721 59.9463 149.161 59.9463 148.513C59.9463 147.865 60.0663 147.309 60.3063 146.845C60.5463 146.373 60.8863 146.013 61.3263 145.765C61.7663 145.509 62.2863 145.381 62.8863 145.381C63.4863 145.381 64.0063 145.509 64.4463 145.765C64.8943 146.013 65.2383 146.373 65.4783 146.845C65.7263 147.309 65.8503 147.865 65.8503 148.513C65.8503 149.161 65.7263 149.721 65.4783 150.193C65.2383 150.657 64.8943 151.017 64.4463 151.273C64.0063 151.521 63.4863 151.645 62.8863 151.645ZM62.8863 150.697C63.4143 150.697 63.8343 150.513 64.1463 150.145C64.4583 149.777 64.6143 149.233 64.6143 148.513C64.6143 147.793 64.4583 147.253 64.1463 146.893C63.8343 146.525 63.4143 146.341 62.8863 146.341C62.3663 146.341 61.9503 146.525 61.6383 146.893C61.3263 147.253 61.1702 147.793 61.1702 148.513C61.1702 149.233 61.3223 149.777 61.6263 150.145C61.9383 150.513 62.3583 150.697 62.8863 150.697ZM67.2669 154.129V146.941C67.2669 146.709 67.2549 146.473 67.2309 146.233C67.2149 145.985 67.1949 145.737 67.1709 145.489H68.3469L68.4669 146.857H68.3349C68.4629 146.401 68.7189 146.041 69.1029 145.777C69.4949 145.513 69.9589 145.381 70.4949 145.381C71.0309 145.381 71.4989 145.509 71.8989 145.765C72.2989 146.013 72.6069 146.369 72.8229 146.833C73.0469 147.297 73.1589 147.857 73.1589 148.513C73.1589 149.161 73.0469 149.721 72.8229 150.193C72.6069 150.665 72.2989 151.025 71.8989 151.273C71.4989 151.521 71.0309 151.645 70.4949 151.645C69.9669 151.645 69.5069 151.517 69.1149 151.261C68.7309 150.997 68.4749 150.641 68.3469 150.193H68.4789V154.129H67.2669ZM70.1949 150.697C70.7229 150.697 71.1429 150.513 71.4549 150.145C71.7749 149.777 71.9349 149.233 71.9349 148.513C71.9349 147.793 71.7749 147.253 71.4549 146.893C71.1429 146.525 70.7229 146.341 70.1949 146.341C69.6669 146.341 69.2429 146.525 68.9229 146.893C68.6109 147.253 68.4549 147.793 68.4549 148.513C68.4549 149.233 68.6109 149.777 68.9229 150.145C69.2429 150.513 69.6669 150.697 70.1949 150.697ZM77.1714 151.645C76.5714 151.645 76.0514 151.521 75.6114 151.273C75.1714 151.017 74.8314 150.657 74.5914 150.193C74.3514 149.721 74.2314 149.161 74.2314 148.513C74.2314 147.865 74.3514 147.309 74.5914 146.845C74.8314 146.373 75.1714 146.013 75.6114 145.765C76.0514 145.509 76.5714 145.381 77.1714 145.381C77.7714 145.381 78.2914 145.509 78.7314 145.765C79.1794 146.013 79.5234 146.373 79.7634 146.845C80.0114 147.309 80.1354 147.865 80.1354 148.513C80.1354 149.161 80.0114 149.721 79.7634 150.193C79.5234 150.657 79.1794 151.017 78.7314 151.273C78.2914 151.521 77.7714 151.645 77.1714 151.645ZM77.1714 150.697C77.6994 150.697 78.1194 150.513 78.4314 150.145C78.7434 149.777 78.8994 149.233 78.8994 148.513C78.8994 147.793 78.7434 147.253 78.4314 146.893C78.1194 146.525 77.6994 146.341 77.1714 146.341C76.6514 146.341 76.2354 146.525 75.9234 146.893C75.6114 147.253 75.4554 147.793 75.4554 148.513C75.4554 149.233 75.6074 149.777 75.9114 150.145C76.2234 150.513 76.6434 150.697 77.1714 150.697ZM83.6281 151.645C83.1241 151.645 82.6601 151.581 82.2361 151.453C81.8121 151.325 81.4601 151.145 81.1801 150.913L81.5521 150.085C81.8481 150.309 82.1761 150.477 82.5361 150.589C82.8961 150.701 83.2641 150.757 83.6401 150.757C84.0801 150.757 84.4121 150.681 84.6361 150.529C84.8601 150.369 84.9721 150.153 84.9721 149.881C84.9721 149.673 84.9001 149.505 84.7561 149.377C84.6201 149.249 84.3921 149.153 84.0721 149.089L82.9201 148.861C82.4081 148.749 82.0201 148.557 81.7561 148.285C81.4921 148.013 81.3601 147.665 81.3601 147.241C81.3601 146.881 81.4561 146.561 81.6481 146.281C81.8481 146.001 82.1281 145.781 82.4881 145.621C82.8561 145.461 83.2841 145.381 83.7721 145.381C84.2201 145.381 84.6361 145.445 85.0201 145.573C85.4041 145.701 85.7241 145.885 85.9801 146.125L85.5961 146.929C85.3481 146.721 85.0681 146.561 84.7561 146.449C84.4441 146.329 84.1281 146.269 83.8081 146.269C83.3601 146.269 83.0281 146.353 82.8121 146.521C82.5961 146.689 82.4881 146.909 82.4881 147.181C82.4881 147.389 82.5521 147.561 82.6801 147.697C82.8161 147.825 83.0281 147.925 83.3161 147.997L84.4681 148.225C85.0121 148.337 85.4201 148.521 85.6921 148.777C85.9641 149.033 86.1001 149.377 86.1001 149.809C86.1001 150.185 85.9961 150.513 85.7881 150.793C85.5801 151.073 85.2921 151.285 84.9241 151.429C84.5561 151.573 84.1241 151.645 83.6281 151.645ZM89.8446 151.645C89.3086 151.645 88.8406 151.521 88.4406 151.273C88.0406 151.025 87.7286 150.665 87.5046 150.193C87.2886 149.721 87.1806 149.161 87.1806 148.513C87.1806 147.857 87.2886 147.297 87.5046 146.833C87.7286 146.369 88.0406 146.013 88.4406 145.765C88.8406 145.509 89.3086 145.381 89.8446 145.381C90.3726 145.381 90.8326 145.513 91.2246 145.777C91.6166 146.041 91.8766 146.401 92.0046 146.857H91.8726L91.9926 145.489H93.1686C93.1446 145.737 93.1206 145.985 93.0966 146.233C93.0806 146.473 93.0726 146.709 93.0726 146.941V151.537H91.8606V150.193H91.9926C91.8646 150.641 91.6006 150.997 91.2006 151.261C90.8086 151.517 90.3566 151.645 89.8446 151.645ZM90.1446 150.697C90.6646 150.697 91.0806 150.513 91.3926 150.145C91.7126 149.777 91.8726 149.233 91.8726 148.513C91.8726 147.793 91.7126 147.253 91.3926 146.893C91.0806 146.525 90.6646 146.341 90.1446 146.341C89.6166 146.341 89.1926 146.525 88.8726 146.893C88.5606 147.253 88.4046 147.793 88.4046 148.513C88.4046 149.233 88.5606 149.777 88.8726 150.145C89.1846 150.513 89.6086 150.697 90.1446 150.697ZM94.8411 151.537V142.705H96.0531V151.537H94.8411ZM99.9054 151.645C99.4014 151.645 98.9374 151.581 98.5134 151.453C98.0894 151.325 97.7374 151.145 97.4574 150.913L97.8294 150.085C98.1254 150.309 98.4534 150.477 98.8134 150.589C99.1734 150.701 99.5414 150.757 99.9174 150.757C100.357 150.757 100.689 150.681 100.913 150.529C101.137 150.369 101.249 150.153 101.249 149.881C101.249 149.673 101.177 149.505 101.033 149.377C100.897 149.249 100.669 149.153 100.349 149.089L99.1974 148.861C98.6854 148.749 98.2974 148.557 98.0334 148.285C97.7694 148.013 97.6374 147.665 97.6374 147.241C97.6374 146.881 97.7334 146.561 97.9254 146.281C98.1254 146.001 98.4054 145.781 98.7654 145.621C99.1334 145.461 99.5614 145.381 100.049 145.381C100.497 145.381 100.913 145.445 101.297 145.573C101.681 145.701 102.001 145.885 102.257 146.125L101.873 146.929C101.625 146.721 101.345 146.561 101.033 146.449C100.721 146.329 100.405 146.269 100.085 146.269C99.6374 146.269 99.3054 146.353 99.0894 146.521C98.8734 146.689 98.7654 146.909 98.7654 147.181C98.7654 147.389 98.8294 147.561 98.9574 147.697C99.0934 147.825 99.3054 147.925 99.5934 147.997L100.745 148.225C101.289 148.337 101.697 148.521 101.969 148.777C102.241 149.033 102.377 149.377 102.377 149.809C102.377 150.185 102.273 150.513 102.065 150.793C101.857 151.073 101.569 151.285 101.201 151.429C100.833 151.573 100.401 151.645 99.9054 151.645Z" fill="white"/>
<circle cx="48" cy="56.8086" r="32" fill="white"/>
<path d="M47.9978 36.2371L47.7148 37.1747V64.3792L47.9978 64.6546L60.9446 57.1902L47.9978 36.2371Z" fill="#219EE1"/>
<path d="M47.9949 36.2371L35.0479 57.1902L47.9949 64.6546V51.4503V36.2371Z" fill="#32B1F7"/>
<path d="M47.9979 67.0453L47.8384 67.235V76.9257L47.9979 77.3798L60.9525 59.5847L47.9979 67.0453Z" fill="#1D91D0"/>
<path d="M47.9949 77.3798V67.0453L35.0479 59.5847L47.9949 77.3798Z" fill="#21A1E7"/>
<path d="M47.9932 64.6543L60.9399 57.1899L47.9932 51.45V64.6543Z" fill="#1D91D0"/>
<path d="M35.0479 57.1899L47.9949 64.6543V51.45L35.0479 57.1899Z" fill="#21A1E7"/>
<rect x="44.1914" y="44.6165" width="2.28571" height="2.28571" fill="white"/>
<rect x="44.1914" y="48.426" width="2.28571" height="2.28571" fill="white"/>
<defs>
<linearGradient id="paint0_linear_4_3964" x1="37.3862" y1="180.787" x2="217.742" y2="-21.9955" gradientUnits="userSpaceOnUse">
<stop stop-color="#475FBA"/>
<stop offset="1" stop-color="#1D91D0"/>
</linearGradient>
<linearGradient id="paint1_linear_4_3964" x1="37.3862" y1="180.787" x2="217.742" y2="-21.9955" gradientUnits="userSpaceOnUse">
<stop stop-color="#475FBA"/>
<stop offset="1" stop-color="#1D91D0"/>
</linearGradient>
<linearGradient id="paint2_linear_4_3964" x1="108.892" y1="406.398" x2="544.125" y2="121.005" gradientUnits="userSpaceOnUse">
<stop stop-opacity="0.01"/>
<stop offset="1" stop-color="white"/>
</linearGradient>
<linearGradient id="paint3_linear_4_3964" x1="526.724" y1="135.066" x2="311.182" y2="-236.492" gradientUnits="userSpaceOnUse">
<stop stop-opacity="0.01"/>
<stop offset="1" stop-color="white"/>
</linearGradient>
<linearGradient id="paint4_linear_4_3964" x1="226.543" y1="-65.0515" x2="144.871" y2="82.8321" gradientUnits="userSpaceOnUse">
<stop stop-opacity="0.01"/>
<stop offset="1" stop-color="white"/>
</linearGradient>
<linearGradient id="paint5_linear_4_3964" x1="246.775" y1="132.537" x2="246.775" y2="162.537" gradientUnits="userSpaceOnUse">
<stop stop-color="#FA4833"/>
<stop offset="1" stop-color="#E30713"/>
</linearGradient>
</defs>
</svg>
