<svg width="14" height="13" viewBox="0 0 14 13" fill="none" xmlns="http://www.w3.org/2000/svg">
<g clip-path="url(#clip0)">
<path d="M7.005 9.91162L3.11963 8.15015L7.00148 13.0007L7.58467 12.272V9.64799L7.005 9.91162Z" fill="#21A1E7"/>
<path d="M7.00149 0L2.54297 7.42864H11.4601L7.00149 0Z" fill="#32B1F7"/>
<path d="M11.4601 7.43965L7.00146 0V7.43965H11.4601Z" fill="#219EE1"/>
<path d="M5.65234 4.1261H6.52734V4.9386H5.65234V4.1261Z" fill="white"/>
<path d="M7.0018 5.4113L6.98428 5.40356L2.5437 7.43482H2.54765L6.98823 9.46607L7.00575 9.45833L7.58499 9.1951V5.67651L7.0018 5.4113Z" fill="#21A1E7"/>
<path d="M5.65234 2.58929H6.52734V3.4018H5.65234V2.58929Z" fill="white"/>
<path d="M7.00499 9.91044L7.00146 12.9996L10.8861 8.14569L7.00499 9.91044Z" fill="#1D91D0"/>
<path d="M11.4517 7.43482L7.0014 5.4113L6.98389 5.40356L6.98784 9.46607L7.00536 9.45833L11.4557 7.43482H11.4517Z" fill="#1D91D0"/>
</g>
<defs>
<clipPath id="clip0">
<rect width="14" height="13" fill="white"/>
</clipPath>
</defs>
</svg>
