<svg width="92" height="82" viewBox="0 0 92 82" fill="none" xmlns="http://www.w3.org/2000/svg">
<path d="M45.6934 61.6852C62.8259 61.6852 76.7145 47.8765 76.7145 30.8426C76.7145 13.8087 62.8259 0 45.6934 0C28.561 0 14.6724 13.8087 14.6724 30.8426C14.6724 47.8765 28.561 61.6852 45.6934 61.6852Z" fill="#E30613"/>
<path d="M38.6969 25.4788C37.7686 24.5434 36.7157 23.7381 35.5693 23.0753V28.3716C37.5007 30.261 38.6969 32.8936 38.6969 35.7989V35.836C38.6907 37.967 38.0427 39.9492 36.9275 41.597C37.6876 42.8421 38.7281 43.8951 39.9617 44.6694C41.837 42.2164 42.9523 39.1501 42.9585 35.836V35.7989C42.9647 31.7848 41.3386 28.13 38.6969 25.4788ZM31.856 45.5924C30.722 46.0137 29.4884 46.2429 28.205 46.2429C22.4045 46.2429 17.7068 41.5722 17.7068 35.8051C17.7068 30.038 22.4045 25.3673 28.205 25.3673C28.5165 25.3673 28.8155 25.3797 29.1146 25.4106V21.1488C28.8155 21.1302 28.5103 21.124 28.205 21.124C20.0494 21.124 13.439 27.6964 13.439 35.8051C13.439 43.9137 20.0494 50.4861 28.205 50.4861C30.6099 50.4861 32.884 49.9162 34.8902 48.9003C33.7313 47.9464 32.7033 46.8313 31.856 45.5924Z" fill="#E30613" stroke="#E30613" stroke-width="8" stroke-miterlimit="10" stroke-linejoin="round"/>
<path d="M42.9646 13.5049H38.6968V35.8362H42.9646V13.5049Z" fill="#E30613" stroke="#E30613" stroke-width="8" stroke-miterlimit="10" stroke-linejoin="round"/>
<path d="M60.4657 4.99316C52.3101 4.99316 45.6997 11.5656 45.6997 19.6742C45.6997 23.7007 47.3258 27.3492 49.9737 30.0005C51.2385 31.2642 52.7276 32.3111 54.3849 33.0544V28.1731C51.712 26.2838 49.9737 23.1803 49.9737 19.668C49.9737 13.9071 54.6714 9.23022 60.4719 9.23022C66.2662 9.23022 70.9701 13.9009 70.9701 19.668C70.9701 25.3112 66.4718 29.9076 60.8458 30.0934V34.3491C68.8331 34.1508 75.2442 27.6528 75.2442 19.668C75.2317 11.5656 68.6213 4.99316 60.4657 4.99316Z" fill="#E30613" stroke="#E30613" stroke-width="8" stroke-miterlimit="10" stroke-linejoin="round"/>
<path d="M45.7009 42.0107H49.9688V19.6794H45.7009V42.0107Z" fill="#E30613" stroke="#E30613" stroke-width="8" stroke-miterlimit="10" stroke-linejoin="round"/>
<path d="M34.4725 16.7939V20.7151V36.7651H34.4787C34.4787 42.526 39.1765 47.2029 44.9769 47.2029C50.7712 47.2029 55.4751 42.5322 55.4751 36.7651V22.4867H59.7429V36.7651V39.1872V53.4656C59.7429 55.4602 59.3442 57.3619 58.6152 59.0964C56.3972 64.4113 51.1263 68.1466 44.9769 68.1466C40.6717 68.1466 36.7965 66.3192 34.0987 63.3954C33.1205 62.3361 32.2919 61.1344 31.6564 59.8212L34.946 56.5505C35.3946 57.9876 36.1423 59.2946 37.1204 60.3911C39.0394 62.5468 41.8493 63.9034 44.9769 63.9034C50.7712 63.9034 55.4751 59.2327 55.4751 53.4656V47.0852C52.7961 49.7736 49.0828 51.4462 44.9769 51.4462C37.2077 51.4462 30.8527 45.487 30.2608 37.9173H30.2109V21.223C30.2109 21.0558 30.2172 20.8823 30.2234 20.7151H30.2109V16.7939H34.4725Z" fill="#E30613" stroke="#E30613" stroke-width="8" stroke-miterlimit="10" stroke-linejoin="round"/>
<path d="M34.4725 16.7939V20.7151V36.7651H34.4787C34.4787 42.526 39.1765 47.2029 44.9769 47.2029C50.7712 47.2029 55.4751 42.5322 55.4751 36.7651V22.4867H59.7429V36.7651V39.1872V53.4656C59.7429 55.4602 59.3442 57.3619 58.6152 59.0964C56.3972 64.4113 51.1263 68.1466 44.9769 68.1466C40.6717 68.1466 36.7965 66.3192 34.0987 63.3954C33.1205 62.3361 32.2919 61.1344 31.6564 59.8212L34.946 56.5505C35.3946 57.9876 36.1423 59.2946 37.1204 60.3911C39.0394 62.5468 41.8493 63.9034 44.9769 63.9034C50.7712 63.9034 55.4751 59.2327 55.4751 53.4656V47.0852C52.7961 49.7736 49.0828 51.4462 44.9769 51.4462C37.2077 51.4462 30.8527 45.487 30.2608 37.9173H30.2109V21.223C30.2109 21.0558 30.2172 20.8823 30.2234 20.7151H30.2109V16.7939H34.4725Z" fill="#E30613" stroke="#E30613" stroke-width="8" stroke-miterlimit="10" stroke-linejoin="round"/>
<path d="M38.6969 25.4788C37.7686 24.5434 36.7157 23.7381 35.5693 23.0753V28.3716C37.5007 30.261 38.6969 32.8936 38.6969 35.7989V35.836C38.6907 37.967 38.0427 39.9492 36.9275 41.597C37.6876 42.8421 38.7281 43.8951 39.9617 44.6694C41.837 42.2164 42.9523 39.1501 42.9585 35.836V35.7989C42.9647 31.7848 41.3386 28.13 38.6969 25.4788ZM31.856 45.5924C30.722 46.0137 29.4884 46.2429 28.205 46.2429C22.4045 46.2429 17.7068 41.5722 17.7068 35.8051C17.7068 30.038 22.4045 25.3673 28.205 25.3673C28.5165 25.3673 28.8155 25.3797 29.1146 25.4106V21.1488C28.8155 21.1302 28.5103 21.124 28.205 21.124C20.0494 21.124 13.439 27.6964 13.439 35.8051C13.439 43.9137 20.0494 50.4861 28.205 50.4861C30.6099 50.4861 32.884 49.9162 34.8902 48.9003C33.7313 47.9464 32.7033 46.8313 31.856 45.5924Z" fill="white"/>
<path d="M42.9646 13.5049H38.6968V35.8362H42.9646V13.5049Z" fill="white"/>
<path d="M60.4657 4.99316C52.3101 4.99316 45.6997 11.5656 45.6997 19.6742C45.6997 23.7007 47.3258 27.3492 49.9737 30.0005C51.2385 31.2642 52.7276 32.3111 54.3849 33.0544V28.1731C51.712 26.2838 49.9737 23.1803 49.9737 19.668C49.9737 13.9071 54.6714 9.23022 60.4719 9.23022C66.2662 9.23022 70.9701 13.9009 70.9701 19.668C70.9701 25.3112 66.4718 29.9076 60.8458 30.0934V34.3491C68.8331 34.1508 75.2442 27.6528 75.2442 19.668C75.2317 11.5656 68.6213 4.99316 60.4657 4.99316Z" fill="white"/>
<path d="M45.7009 42.0107H49.9688V19.6794H45.7009V42.0107Z" fill="white"/>
<path d="M34.4725 16.7939V20.7151V36.7651H34.4787C34.4787 42.526 39.1765 47.2029 44.9769 47.2029C50.7712 47.2029 55.4751 42.5322 55.4751 36.7651V22.4867H59.7429V36.7651V39.1872V53.4656C59.7429 55.4602 59.3442 57.3619 58.6152 59.0964C56.3972 64.4113 51.1263 68.1466 44.9769 68.1466C40.6717 68.1466 36.7965 66.3192 34.0987 63.3954C33.1205 62.3361 32.2919 61.1344 31.6564 59.8212L34.946 56.5505C35.3946 57.9876 36.1423 59.2946 37.1204 60.3911C39.0394 62.5468 41.8493 63.9034 44.9769 63.9034C50.7712 63.9034 55.4751 59.2327 55.4751 53.4656V47.0852C52.7961 49.7736 49.0828 51.4462 44.9769 51.4462C37.2077 51.4462 30.8527 45.487 30.2608 37.9173H30.2109V21.223C30.2109 21.0558 30.2172 20.8823 30.2234 20.7151H30.2109V16.7939H34.4725Z" fill="white"/>
<path d="M34.4725 16.7939V20.7151V36.7651H34.4787C34.4787 42.526 39.1765 47.2029 44.9769 47.2029C50.7712 47.2029 55.4751 42.5322 55.4751 36.7651V22.4867H59.7429V36.7651V39.1872V53.4656C59.7429 55.4602 59.3442 57.3619 58.6152 59.0964C56.3972 64.4113 51.1263 68.1466 44.9769 68.1466C40.6717 68.1466 36.7965 66.3192 34.0987 63.3954C33.1205 62.3361 32.2919 61.1344 31.6564 59.8212L34.946 56.5505C35.3946 57.9876 36.1423 59.2946 37.1204 60.3911C39.0394 62.5468 41.8493 63.9034 44.9769 63.9034C50.7712 63.9034 55.4751 59.2327 55.4751 53.4656V47.0852C52.7961 49.7736 49.0828 51.4462 44.9769 51.4462C37.2077 51.4462 30.8527 45.487 30.2608 37.9173H30.2109V21.223C30.2109 21.0558 30.2172 20.8823 30.2234 20.7151H30.2109V16.7939H34.4725Z" fill="white"/>
<path d="M4.96561 48.8194C2.75383 49.3212 1.09032 48.4416 0.504661 45.8956L0 43.7089L7.20232 42.0674L7.70698 44.2541C8.29264 46.8062 7.16494 48.3177 4.96561 48.8194ZM4.72886 47.7787C6.52944 47.3699 7.09641 46.2611 6.67897 44.4461L6.41729 43.3125L1.24608 44.4894L1.50775 45.623C1.91896 47.438 2.92828 48.1876 4.72886 47.7787Z" fill="black"/>
<path d="M4.97797 55.7136L4.02472 56.1101L2.19922 51.7987L9.00902 48.9492L10.8221 53.2358L9.85635 53.6385L8.44829 50.312L6.53556 51.1111L7.85017 54.2146L6.88446 54.6172L5.56985 51.5138L3.55744 52.3562L4.97797 55.7136Z" fill="black"/>
<path d="M11.0775 55.7512L9.30802 56.8353L11.1148 59.7591L10.2239 60.3042L8.41708 57.3804L5.67572 59.0529L5.12744 58.1671L11.4201 54.3203L13.8687 58.2786L12.9777 58.8237L11.0775 55.7512Z" fill="black"/>
<path d="M15.3515 60.0931L9.53859 64.6275L8.89062 63.8098L14.7098 59.2754L15.3515 60.0931Z" fill="black"/>
<path d="M22.6722 67.2422L17.6443 68.7164L15.6942 70.9341L14.6475 70.0235L16.5913 67.812L17.4013 62.6582L18.5851 63.6865L17.881 67.397L21.4947 66.2201L22.6722 67.2422Z" fill="black"/>
<path d="M24.7222 68.4436L20.635 74.5638L19.4824 73.8018L23.5695 67.6816L24.7222 68.4436Z" fill="black"/>
<path d="M27.6317 76.8929L27.0336 78.0637L22.772 75.908L26.1177 69.3604L30.3419 71.4975L29.7438 72.6682L26.7532 71.1568L25.9806 72.6744L28.7781 74.0868L28.1799 75.2575L25.3825 73.8452L24.6037 75.369L27.6317 76.8929Z" fill="black"/>
<path d="M34.1426 79.1662L33.7314 80.4113L29.1895 78.9184L31.5072 71.9434L32.828 72.377L30.9277 78.1069L34.1426 79.1662Z" fill="black"/>
<path d="M42.778 78.2617C42.4353 80.5536 41.0708 81.7244 38.3295 81.3155L35.9619 80.9625L37.0522 73.6963L39.4198 74.0494C42.1611 74.4582 43.1206 75.9573 42.778 78.2617ZM38.5226 80.0147C40.5475 80.3182 41.1892 79.4448 41.401 78.0572C41.6129 76.6573 41.2515 75.6476 39.2266 75.344L38.2235 75.1954L37.5195 79.866L38.5226 80.0147Z" fill="black"/>
<path d="M52.5157 76.5952C52.6528 78.1191 51.7556 79.1598 50.0298 79.3146L48.8834 79.4199L49.1015 81.7677L47.2012 81.9411L46.5283 74.6316L49.575 74.3528C51.3008 74.198 52.3787 75.059 52.5157 76.5952ZM50.7027 76.7625C50.6528 76.1988 50.2541 75.9386 49.6248 75.9944L48.5843 76.0873L48.7401 77.7908L49.7806 77.6979C50.4098 77.6421 50.7525 77.3138 50.7027 76.7625Z" fill="black"/>
<path d="M57.2446 77.9898L56.2665 78.25L56.8833 80.5296L55.0391 81.0251L53.1201 73.9324L56.0733 73.1457C57.7431 72.6997 58.9517 73.3625 59.3567 74.8554C59.6059 75.7846 59.4253 76.5961 58.8271 77.1907L61.0701 79.4146L59.1262 79.9349L57.2446 77.9898ZM55.8366 76.6704L56.8459 76.404C57.4565 76.243 57.7368 75.8589 57.5935 75.3262C57.444 74.781 57.0141 74.589 56.4035 74.7563L55.3942 75.0226L55.8366 76.6704Z" fill="black"/>
<path d="M67.6804 72.3651C68.5963 74.2545 68.2349 76.3173 65.9234 77.4199C63.612 78.5287 61.7802 77.519 60.8519 75.6359C59.9423 73.7403 60.2849 71.6652 62.5964 70.5625C64.9079 69.4537 66.7645 70.4758 67.6804 72.3651ZM65.911 73.2138C65.3191 71.9935 64.3409 71.6156 63.3441 72.0926C62.3472 72.5696 62.0357 73.5731 62.6276 74.7872C63.2132 75.9951 64.1976 76.3792 65.1945 75.896C66.1851 75.4252 66.5029 74.4217 65.911 73.2138Z" fill="black"/>
<path d="M71.8551 67.0189L70.3224 68.1215L73.5934 72.6249L72.042 73.7337L68.771 69.2365L67.2384 70.3391L66.1792 68.8834L70.7897 65.5693L71.8551 67.0189Z" fill="black"/>
<path d="M78.9825 62.5832C80.5027 64.039 80.8827 66.0956 79.1071 67.9291C77.3314 69.7627 75.2567 69.453 73.7303 68.0035C72.2163 66.5416 71.8113 64.4788 73.5932 62.6452C75.3688 60.8116 77.4622 61.1275 78.9825 62.5832ZM77.6242 63.9894C76.6461 63.0478 75.5931 63.0355 74.8206 63.8284C74.048 64.6212 74.1103 65.6681 75.0885 66.6035C76.0604 67.5327 77.1133 67.5513 77.8797 66.7584C78.6522 65.9655 78.5962 64.9186 77.6242 63.9894Z" fill="black"/>
<path d="M80.7458 59.97C82.0853 60.8434 83.0386 60.2797 83.5495 59.4992C84.0043 58.8054 84.1476 58.0682 84.16 57.424C84.6522 57.7461 85.7426 58.4523 85.7426 58.4523C85.6678 59.1027 85.4061 59.8523 84.9949 60.4717C83.6616 62.4973 81.643 62.9185 79.6555 61.6239C77.6742 60.3354 77.2443 58.3284 78.5839 56.2966C78.9951 55.6709 79.5745 55.132 80.1477 54.8037C80.1477 54.8037 81.2442 55.5161 81.7364 55.8382C81.1445 56.1046 80.5153 56.5258 80.0605 57.2196C79.5371 58.0063 79.4 59.0965 80.7458 59.97Z" fill="black"/>
<path d="M86.5213 48.6154C88.4714 49.4207 89.5804 51.1985 88.596 53.5525C87.6116 55.9064 85.5681 56.371 83.6117 55.5719C81.6678 54.7542 80.5339 52.9826 81.5183 50.6286C82.5027 48.2685 84.5712 47.8101 86.5213 48.6154ZM85.7674 50.4118C84.5089 49.8915 83.5245 50.257 83.1008 51.2729C82.6772 52.2888 83.1133 53.2427 84.3656 53.7631C85.6117 54.2772 86.6023 53.9117 87.026 52.8958C87.4496 51.8799 87.0135 50.9322 85.7674 50.4118Z" fill="black"/>
<path d="M89.7859 42.5693L91.5491 42.9534L90.4526 47.9214L83.2378 46.348L83.649 44.4958L89.1006 45.6852L89.7859 42.5693Z" fill="black"/>
</svg>
