<svg width="24" height="24" viewBox="0 0 24 24" fill="none" xmlns="http://www.w3.org/2000/svg">
<circle r="12" transform="matrix(1 0 0 -1 12 12)" fill="#219EE1" fill-opacity="0.15"/>
<g clip-path="url(#clip0)">
<path d="M12.0389 16.0998L7.5083 13.9263L12.0348 19.9115L12.7149 19.0122V15.7745L12.0389 16.0998Z" fill="#21A1E7"/>
<path d="M12.0349 3.87036L6.83594 13.0366H17.234L12.0349 3.87036Z" fill="#32B1F7"/>
<path d="M17.2342 13.0502L12.0352 3.87036V13.0502H17.2342Z" fill="#219EE1"/>
<path d="M10.4614 8.96143H11.4817V9.96398H10.4614V8.96143Z" fill="white"/>
<path d="M12.0354 10.547L12.0149 10.5375L6.83691 13.0439H6.84152L12.0196 15.5502L12.04 15.5407L12.7154 15.2159V10.8743L12.0354 10.547Z" fill="#21A1E7"/>
<path d="M10.4614 7.06494H11.4817V8.06749H10.4614V7.06494Z" fill="white"/>
<path d="M12.0393 16.0993L12.0352 19.911L16.5649 13.9218L12.0393 16.0993Z" fill="#1D91D0"/>
<path d="M17.2244 13.0439L12.0351 10.547L12.0146 10.5375L12.0193 15.5502L12.0397 15.5407L17.2291 13.0439H17.2244Z" fill="#1D91D0"/>
</g>
<defs>
<clipPath id="clip0">
<rect width="16.325" height="16.0408" fill="white" transform="translate(3.87061 3.87036)"/>
</clipPath>
</defs>
</svg>
