<svg width="108" height="62" viewBox="0 0 108 62" fill="none" xmlns="http://www.w3.org/2000/svg">
<circle r="31" transform="matrix(1 0 0 -1 77 30.9998)" fill="#219EE1" fill-opacity="0.15"/>
<g clip-path="url(#clip0)">
<path d="M77.1016 41.5917L65.3975 35.9768L77.091 51.4386L78.8477 49.1155V40.7513L77.1016 41.5917Z" fill="#21A1E7"/>
<path d="M77.091 9.99976L63.6604 33.6793H90.522L77.091 9.99976Z" fill="#32B1F7"/>
<path d="M90.522 33.7143L77.0911 9.99976V33.7143H90.522Z" fill="#219EE1"/>
<path d="M73.0278 23.1514H75.6636V25.7413H73.0278V23.1514Z" fill="white"/>
<path d="M77.091 27.2488L77.0382 27.2241L63.6616 33.6989H63.6735L77.0501 40.1737L77.1029 40.1491L78.8478 39.31V28.0942L77.091 27.2488Z" fill="#21A1E7"/>
<path d="M73.0278 18.2527H75.6636V20.8426H73.0278V18.2527Z" fill="white"/>
<path d="M77.1017 41.5916L77.0911 51.4385L88.7929 35.9663L77.1017 41.5916Z" fill="#1D91D0"/>
<path d="M90.4967 33.6989L77.0909 27.2488L77.0381 27.2241L77.05 40.1737L77.1028 40.1491L90.5086 33.6989H90.4967Z" fill="#1D91D0"/>
</g>
<circle r="31" transform="matrix(1 0 0 -1 31 30.9998)" fill="#FBDADC"/>
<path d="M31.1587 47.0018C41.3352 47.0018 49.5848 38.9425 49.5848 29.0008C49.5848 19.0591 41.3352 10.9998 31.1587 10.9998C20.9823 10.9998 12.7327 19.0591 12.7327 29.0008C12.7327 38.9425 20.9823 47.0018 31.1587 47.0018Z" fill="#E30613"/>
<path d="M27.0029 25.8697C26.4514 25.3238 25.826 24.8538 25.1451 24.467V27.5581C26.2923 28.6608 27.0029 30.1974 27.0029 31.893V31.9147C26.9992 33.1584 26.6143 34.3153 25.9518 35.277C26.4033 36.0037 27.0214 36.6183 27.7541 37.0702C28.868 35.6385 29.5305 33.8489 29.5342 31.9147V31.893C29.5379 29.5502 28.572 27.4171 27.0029 25.8697ZM22.9394 37.6089C22.2659 37.8548 21.5331 37.9885 20.7708 37.9885C17.3254 37.9885 14.535 35.2625 14.535 31.8966C14.535 28.5307 17.3254 25.8047 20.7708 25.8047C20.9558 25.8047 21.1335 25.8119 21.3111 25.83V23.3426C21.1335 23.3317 20.9521 23.3281 20.7708 23.3281C15.9265 23.3281 12 27.1641 12 31.8966C12 36.6292 15.9265 40.4651 20.7708 40.4651C22.1993 40.4651 23.5501 40.1325 24.7417 39.5395C24.0534 38.9828 23.4427 38.332 22.9394 37.6089Z" fill="#E30613" stroke="#E30613" stroke-width="8" stroke-miterlimit="10" stroke-linejoin="round"/>
<path d="M29.5379 18.8811H27.0029V31.9147H29.5379V18.8811Z" fill="#E30613" stroke="#E30613" stroke-width="8" stroke-miterlimit="10" stroke-linejoin="round"/>
<path d="M39.9334 13.9138C35.0891 13.9138 31.1626 17.7497 31.1626 22.4823C31.1626 24.8323 32.1285 26.9617 33.7013 28.5091C34.4526 29.2467 35.337 29.8577 36.3214 30.2915V27.4426C34.7338 26.3399 33.7013 24.5286 33.7013 22.4787C33.7013 19.1164 36.4917 16.3867 39.9371 16.3867C43.3788 16.3867 46.1728 19.1127 46.1728 22.4787C46.1728 25.7723 43.5009 28.4549 40.1591 28.5633V31.0471C44.9035 30.9314 48.7115 27.1389 48.7115 22.4787C48.7041 17.7497 44.7777 13.9138 39.9334 13.9138Z" fill="#E30613" stroke="#E30613" stroke-width="8" stroke-miterlimit="10" stroke-linejoin="round"/>
<path d="M31.1635 35.5188H33.6985V22.4854H31.1635V35.5188Z" fill="#E30613" stroke="#E30613" stroke-width="8" stroke-miterlimit="10" stroke-linejoin="round"/>
<path d="M24.4937 20.8008V23.0893V32.4568H24.4974C24.4974 35.8192 27.2878 38.5488 30.7332 38.5488C34.1749 38.5488 36.969 35.8228 36.969 32.4568V24.1233H39.504V32.4568V33.8705V42.204C39.504 43.3681 39.2671 44.478 38.8341 45.4904C37.5167 48.5924 34.3858 50.7725 30.7332 50.7725C28.176 50.7725 25.8741 49.7059 24.2717 47.9994C23.6907 47.3812 23.1985 46.6798 22.821 45.9134L24.775 44.0044C25.0414 44.8432 25.4855 45.6061 26.0665 46.246C27.2064 47.5041 28.8754 48.2959 30.7332 48.2959C34.1749 48.2959 36.969 45.5699 36.969 42.204V38.4801C35.3776 40.0492 33.172 41.0253 30.7332 41.0253C26.1183 41.0253 22.3436 37.5473 21.992 33.1293H21.9624V23.3858C21.9624 23.2882 21.9661 23.1869 21.9698 23.0893H21.9624V20.8008H24.4937Z" fill="#E30613" stroke="#E30613" stroke-width="8" stroke-miterlimit="10" stroke-linejoin="round"/>
<path d="M24.4937 20.8008V23.0893V32.4568H24.4974C24.4974 35.8192 27.2878 38.5488 30.7332 38.5488C34.1749 38.5488 36.969 35.8228 36.969 32.4568V24.1233H39.504V32.4568V33.8705V42.204C39.504 43.3681 39.2671 44.478 38.8341 45.4904C37.5167 48.5924 34.3858 50.7725 30.7332 50.7725C28.176 50.7725 25.8741 49.7059 24.2717 47.9994C23.6907 47.3812 23.1985 46.6798 22.821 45.9134L24.775 44.0044C25.0414 44.8432 25.4855 45.6061 26.0665 46.246C27.2064 47.5041 28.8754 48.2959 30.7332 48.2959C34.1749 48.2959 36.969 45.5699 36.969 42.204V38.4801C35.3776 40.0492 33.172 41.0253 30.7332 41.0253C26.1183 41.0253 22.3436 37.5473 21.992 33.1293H21.9624V23.3858C21.9624 23.2882 21.9661 23.1869 21.9698 23.0893H21.9624V20.8008H24.4937Z" fill="#E30613" stroke="#E30613" stroke-width="8" stroke-miterlimit="10" stroke-linejoin="round"/>
<path d="M27.0029 25.8697C26.4514 25.3238 25.826 24.8538 25.1451 24.467V27.5581C26.2923 28.6608 27.0029 30.1974 27.0029 31.893V31.9147C26.9992 33.1584 26.6143 34.3153 25.9518 35.277C26.4033 36.0037 27.0214 36.6183 27.7541 37.0702C28.868 35.6385 29.5305 33.8489 29.5342 31.9147V31.893C29.5379 29.5502 28.572 27.4171 27.0029 25.8697ZM22.9394 37.6089C22.2659 37.8548 21.5331 37.9885 20.7708 37.9885C17.3254 37.9885 14.535 35.2625 14.535 31.8966C14.535 28.5307 17.3254 25.8047 20.7708 25.8047C20.9558 25.8047 21.1335 25.8119 21.3111 25.83V23.3426C21.1335 23.3317 20.9521 23.3281 20.7708 23.3281C15.9265 23.3281 12 27.1641 12 31.8966C12 36.6292 15.9265 40.4651 20.7708 40.4651C22.1993 40.4651 23.5501 40.1325 24.7417 39.5395C24.0534 38.9828 23.4427 38.332 22.9394 37.6089Z" fill="white"/>
<path d="M29.5379 18.8811H27.0029V31.9147H29.5379V18.8811Z" fill="white"/>
<path d="M39.9334 13.9138C35.0891 13.9138 31.1626 17.7497 31.1626 22.4823C31.1626 24.8323 32.1285 26.9617 33.7013 28.5091C34.4526 29.2467 35.337 29.8577 36.3214 30.2915V27.4426C34.7338 26.3399 33.7013 24.5286 33.7013 22.4787C33.7013 19.1164 36.4917 16.3867 39.9371 16.3867C43.3788 16.3867 46.1728 19.1127 46.1728 22.4787C46.1728 25.7723 43.5009 28.4549 40.1591 28.5633V31.0471C44.9035 30.9314 48.7115 27.1389 48.7115 22.4787C48.7041 17.7497 44.7777 13.9138 39.9334 13.9138Z" fill="white"/>
<path d="M31.1635 35.5188H33.6985V22.4854H31.1635V35.5188Z" fill="white"/>
<path d="M24.4937 20.8008V23.0893V32.4568H24.4974C24.4974 35.8192 27.2878 38.5488 30.7332 38.5488C34.1749 38.5488 36.969 35.8228 36.969 32.4568V24.1233H39.504V32.4568V33.8705V42.204C39.504 43.3681 39.2671 44.478 38.8341 45.4904C37.5167 48.5924 34.3858 50.7725 30.7332 50.7725C28.176 50.7725 25.8741 49.7059 24.2717 47.9994C23.6907 47.3812 23.1985 46.6798 22.821 45.9134L24.775 44.0044C25.0414 44.8432 25.4855 45.6061 26.0665 46.246C27.2064 47.5041 28.8754 48.2959 30.7332 48.2959C34.1749 48.2959 36.969 45.5699 36.969 42.204V38.4801C35.3776 40.0492 33.172 41.0253 30.7332 41.0253C26.1183 41.0253 22.3436 37.5473 21.992 33.1293H21.9624V23.3858C21.9624 23.2882 21.9661 23.1869 21.9698 23.0893H21.9624V20.8008H24.4937Z" fill="white"/>
<path d="M24.4937 20.8008V23.0893V32.4568H24.4974C24.4974 35.8192 27.2878 38.5488 30.7332 38.5488C34.1749 38.5488 36.969 35.8228 36.969 32.4568V24.1233H39.504V32.4568V33.8705V42.204C39.504 43.3681 39.2671 44.478 38.8341 45.4904C37.5167 48.5924 34.3858 50.7725 30.7332 50.7725C28.176 50.7725 25.8741 49.7059 24.2717 47.9994C23.6907 47.3812 23.1985 46.6798 22.821 45.9134L24.775 44.0044C25.0414 44.8432 25.4855 45.6061 26.0665 46.246C27.2064 47.5041 28.8754 48.2959 30.7332 48.2959C34.1749 48.2959 36.969 45.5699 36.969 42.204V38.4801C35.3776 40.0492 33.172 41.0253 30.7332 41.0253C26.1183 41.0253 22.3436 37.5473 21.992 33.1293H21.9624V23.3858C21.9624 23.2882 21.9661 23.1869 21.9698 23.0893H21.9624V20.8008H24.4937Z" fill="white"/>
<defs>
<clipPath id="clip0">
<rect width="42.1729" height="41.4387" fill="white" transform="translate(56 9.99976)"/>
</clipPath>
</defs>
</svg>
