<svg width="34" height="32" viewBox="0 0 34 32" fill="none" xmlns="http://www.w3.org/2000/svg">
<path d="M16.7704 22.2644C22.954 22.2644 27.9668 17.2804 27.9668 11.1324C27.9668 4.98431 22.954 0.000335693 16.7704 0.000335693C10.5868 0.000335693 5.57397 4.98431 5.57397 11.1324C5.57397 17.2804 10.5868 22.2644 16.7704 22.2644Z" fill="#E30613"/>
<path d="M14.2458 9.196C13.9107 8.85839 13.5307 8.56774 13.1169 8.32851V10.2401C13.814 10.922 14.2458 11.8722 14.2458 12.9208V12.9342C14.2435 13.7034 14.0096 14.4188 13.6071 15.0135C13.8815 15.4629 14.257 15.843 14.7022 16.1225C15.3791 15.2371 15.7816 14.1304 15.7839 12.9342V12.9208C15.7861 11.472 15.1992 10.1529 14.2458 9.196ZM11.7766 16.4556C11.3674 16.6077 10.9221 16.6904 10.4589 16.6904C8.36532 16.6904 6.66978 15.0046 6.66978 12.9231C6.66978 10.8415 8.36532 9.15576 10.4589 9.15576C10.5713 9.15576 10.6793 9.16023 10.7872 9.17141V7.63318C10.6793 7.62647 10.5691 7.62424 10.4589 7.62424C7.5153 7.62424 5.12939 9.99641 5.12939 12.9231C5.12939 15.8497 7.5153 18.2219 10.4589 18.2219C11.3269 18.2219 12.1477 18.0162 12.8718 17.6495C12.4535 17.3052 12.0825 16.9028 11.7766 16.4556Z" fill="#E30613" stroke="#E30613" stroke-width="3" stroke-miterlimit="10" stroke-linejoin="round"/>
<path d="M15.7862 4.87445H14.2458V12.9345H15.7862V4.87445Z" fill="#E30613" stroke="#E30613" stroke-width="3" stroke-miterlimit="10" stroke-linejoin="round"/>
<path d="M22.1024 1.8024C19.1589 1.8024 16.7729 4.17458 16.7729 7.10123C16.7729 8.5545 17.3599 9.87138 18.3156 10.8283C18.7721 11.2844 19.3095 11.6623 19.9077 11.9305V10.1687C18.943 9.48682 18.3156 8.36669 18.3156 7.099C18.3156 5.01971 20.0111 3.33168 22.1047 3.33168C24.196 3.33168 25.8938 5.01747 25.8938 7.099C25.8938 9.1358 24.2702 10.7948 22.2396 10.8618V12.3978C25.1225 12.3263 27.4364 9.98094 27.4364 7.099C27.4319 4.17458 25.046 1.8024 22.1024 1.8024Z" fill="#E30613" stroke="#E30613" stroke-width="3" stroke-miterlimit="10" stroke-linejoin="round"/>
<path d="M16.7733 15.1634H18.3137V7.10338H16.7733V15.1634Z" fill="#E30613" stroke="#E30613" stroke-width="3" stroke-miterlimit="10" stroke-linejoin="round"/>
<path d="M12.7212 6.06165V7.4769V13.2698H12.7235C12.7235 15.3491 14.419 17.0372 16.5126 17.0372C18.6039 17.0372 20.3017 15.3514 20.3017 13.2698V8.11634H21.8421V13.2698V14.144V19.2975C21.8421 20.0175 21.6982 20.7039 21.4351 21.3299C20.6345 23.2482 18.7321 24.5964 16.5126 24.5964C14.9587 24.5964 13.56 23.9368 12.5863 22.8815C12.2333 22.4992 11.9342 22.0655 11.7048 21.5915L12.8921 20.411C13.0541 20.9297 13.3239 21.4014 13.677 21.7972C14.3696 22.5752 15.3837 23.0649 16.5126 23.0649C18.6039 23.0649 20.3017 21.3791 20.3017 19.2975V16.9947C19.3348 17.965 17.9945 18.5687 16.5126 18.5687C13.7084 18.5687 11.4147 16.4178 11.2011 13.6857H11.1831V7.66024C11.1831 7.59987 11.1854 7.53727 11.1876 7.4769H11.1831V6.06165H12.7212Z" fill="#E30613" stroke="#E30613" stroke-width="3" stroke-miterlimit="10" stroke-linejoin="round"/>
<path d="M12.7212 6.06165V7.4769V13.2698H12.7235C12.7235 15.3491 14.419 17.0372 16.5126 17.0372C18.6039 17.0372 20.3017 15.3514 20.3017 13.2698V8.11634H21.8421V13.2698V14.144V19.2975C21.8421 20.0175 21.6982 20.7039 21.4351 21.3299C20.6345 23.2482 18.7321 24.5964 16.5126 24.5964C14.9587 24.5964 13.56 23.9368 12.5863 22.8815C12.2333 22.4992 11.9342 22.0655 11.7048 21.5915L12.8921 20.411C13.0541 20.9297 13.3239 21.4014 13.677 21.7972C14.3696 22.5752 15.3837 23.0649 16.5126 23.0649C18.6039 23.0649 20.3017 21.3791 20.3017 19.2975V16.9947C19.3348 17.965 17.9945 18.5687 16.5126 18.5687C13.7084 18.5687 11.4147 16.4178 11.2011 13.6857H11.1831V7.66024C11.1831 7.59987 11.1854 7.53727 11.1876 7.4769H11.1831V6.06165H12.7212Z" fill="#E30613" stroke="#E30613" stroke-width="3" stroke-miterlimit="10" stroke-linejoin="round"/>
<path d="M14.2458 9.196C13.9107 8.85839 13.5307 8.56774 13.1169 8.32851V10.2401C13.814 10.922 14.2458 11.8722 14.2458 12.9208V12.9342C14.2435 13.7034 14.0096 14.4188 13.6071 15.0135C13.8815 15.4629 14.257 15.843 14.7022 16.1225C15.3791 15.2371 15.7816 14.1304 15.7839 12.9342V12.9208C15.7861 11.472 15.1992 10.1529 14.2458 9.196ZM11.7766 16.4556C11.3674 16.6077 10.9221 16.6904 10.4589 16.6904C8.36532 16.6904 6.66978 15.0046 6.66978 12.9231C6.66978 10.8415 8.36532 9.15576 10.4589 9.15576C10.5713 9.15576 10.6793 9.16023 10.7872 9.17141V7.63318C10.6793 7.62647 10.5691 7.62424 10.4589 7.62424C7.5153 7.62424 5.12939 9.99641 5.12939 12.9231C5.12939 15.8497 7.5153 18.2219 10.4589 18.2219C11.3269 18.2219 12.1477 18.0162 12.8718 17.6495C12.4535 17.3052 12.0825 16.9028 11.7766 16.4556Z" fill="white"/>
<path d="M15.7862 4.87445H14.2458V12.9345H15.7862V4.87445Z" fill="white"/>
<path d="M22.1024 1.8024C19.1589 1.8024 16.7729 4.17458 16.7729 7.10123C16.7729 8.5545 17.3599 9.87138 18.3156 10.8283C18.7721 11.2844 19.3095 11.6623 19.9077 11.9305V10.1687C18.943 9.48682 18.3156 8.36669 18.3156 7.099C18.3156 5.01971 20.0111 3.33168 22.1047 3.33168C24.196 3.33168 25.8938 5.01747 25.8938 7.099C25.8938 9.1358 24.2702 10.7948 22.2396 10.8618V12.3978C25.1225 12.3263 27.4364 9.98094 27.4364 7.099C27.4319 4.17458 25.046 1.8024 22.1024 1.8024Z" fill="white"/>
<path d="M16.7733 15.1634H18.3137V7.10338H16.7733V15.1634Z" fill="white"/>
<path d="M12.7212 6.06165V7.4769V13.2698H12.7235C12.7235 15.3491 14.419 17.0372 16.5126 17.0372C18.6039 17.0372 20.3017 15.3514 20.3017 13.2698V8.11634H21.8421V13.2698V14.144V19.2975C21.8421 20.0175 21.6982 20.7039 21.4351 21.3299C20.6345 23.2482 18.7321 24.5964 16.5126 24.5964C14.9587 24.5964 13.56 23.9368 12.5863 22.8815C12.2333 22.4992 11.9342 22.0655 11.7048 21.5915L12.8921 20.411C13.0541 20.9297 13.3239 21.4014 13.677 21.7972C14.3696 22.5752 15.3837 23.0649 16.5126 23.0649C18.6039 23.0649 20.3017 21.3791 20.3017 19.2975V16.9947C19.3348 17.965 17.9945 18.5687 16.5126 18.5687C13.7084 18.5687 11.4147 16.4178 11.2011 13.6857H11.1831V7.66024C11.1831 7.59987 11.1854 7.53727 11.1876 7.4769H11.1831V6.06165H12.7212Z" fill="white"/>
<path d="M12.7212 6.06165V7.4769V13.2698H12.7235C12.7235 15.3491 14.419 17.0372 16.5126 17.0372C18.6039 17.0372 20.3017 15.3514 20.3017 13.2698V8.11634H21.8421V13.2698V14.144V19.2975C21.8421 20.0175 21.6982 20.7039 21.4351 21.3299C20.6345 23.2482 18.7321 24.5964 16.5126 24.5964C14.9587 24.5964 13.56 23.9368 12.5863 22.8815C12.2333 22.4992 11.9342 22.0655 11.7048 21.5915L12.8921 20.411C13.0541 20.9297 13.3239 21.4014 13.677 21.7972C14.3696 22.5752 15.3837 23.0649 16.5126 23.0649C18.6039 23.0649 20.3017 21.3791 20.3017 19.2975V16.9947C19.3348 17.965 17.9945 18.5687 16.5126 18.5687C13.7084 18.5687 11.4147 16.4178 11.2011 13.6857H11.1831V7.66024C11.1831 7.59987 11.1854 7.53727 11.1876 7.4769H11.1831V6.06165H12.7212Z" fill="white"/>
<path d="M1.79224 19.6463C0.99394 19.8274 0.393528 19.51 0.182147 18.591L0 17.8018L2.59954 17.2093L2.78168 17.9986C2.99306 18.9197 2.58604 19.4652 1.79224 19.6463ZM1.70679 19.2707C2.35667 19.1232 2.56131 18.723 2.41064 18.0679L2.3162 17.6587L0.449747 18.0835L0.544193 18.4927C0.692609 19.1478 1.0569 19.4183 1.70679 19.2707Z" fill="white"/>
<path d="M1.79664 22.1345L1.45258 22.2776L0.793701 20.7215L3.25156 19.693L3.90595 21.2402L3.55739 21.3855L3.04918 20.1849L2.35882 20.4733L2.8333 21.5934L2.48475 21.7388L2.01026 20.6186L1.28392 20.9227L1.79664 22.1345Z" fill="white"/>
<path d="M3.99861 22.1482L3.35997 22.5395L4.01211 23.5948L3.69054 23.7915L3.0384 22.7362L2.04896 23.3399L1.85107 23.0202L4.12229 21.6317L5.00604 23.0604L4.68448 23.2572L3.99861 22.1482Z" fill="white"/>
<path d="M5.54092 23.7155L3.44285 25.3521L3.20898 25.057L5.3093 23.4204L5.54092 23.7155Z" fill="white"/>
<path d="M8.18323 26.2958L6.36851 26.828L5.66465 27.6284L5.28687 27.2997L5.98847 26.5015L6.28081 24.6414L6.70807 25.0125L6.45396 26.3517L7.75822 25.9269L8.18323 26.2958Z" fill="white"/>
<path d="M8.92292 26.7294L7.44775 28.9384L7.03174 28.6634L8.50691 26.4544L8.92292 26.7294Z" fill="white"/>
<path d="M9.973 29.779L9.75713 30.2015L8.21899 29.4235L9.42656 27.0602L10.9512 27.8316L10.7353 28.2542L9.65593 27.7086L9.37709 28.2564L10.3868 28.7661L10.1709 29.1887L9.16121 28.679L8.88012 29.229L9.973 29.779Z" fill="white"/>
<path d="M12.3229 30.5995L12.1745 31.0489L10.5352 30.5101L11.3717 27.9926L11.8484 28.1491L11.1626 30.2172L12.3229 30.5995Z" fill="white"/>
<path d="M15.4401 30.2727C15.3164 31.1 14.8239 31.5226 13.8345 31.375L12.98 31.2476L13.3735 28.625L14.228 28.7524C15.2175 28.9 15.5638 29.441 15.4401 30.2727ZM13.9042 30.9055C14.635 31.015 14.8667 30.6998 14.9431 30.199C15.0196 29.6937 14.8892 29.3292 14.1583 29.2197L13.7963 29.166L13.5422 30.8518L13.9042 30.9055Z" fill="white"/>
<path d="M18.9545 29.6712C19.004 30.2212 18.6801 30.5968 18.0572 30.6527L17.6435 30.6907L17.7222 31.5381L17.0363 31.6007L16.7935 28.9624L17.8931 28.8618C18.516 28.8059 18.905 29.1167 18.9545 29.6712ZM18.3001 29.7315C18.2821 29.5281 18.1382 29.4342 17.9111 29.4543L17.5355 29.4878L17.5918 30.1027L17.9673 30.0692C18.1944 30.049 18.3181 29.9305 18.3001 29.7315Z" fill="white"/>
<path d="M20.6615 30.1744L20.3085 30.2683L20.5311 31.0911L19.8655 31.27L19.1729 28.71L20.2387 28.426C20.8414 28.2651 21.2777 28.5043 21.4238 29.0431C21.5138 29.3785 21.4486 29.6714 21.2327 29.886L22.0422 30.6887L21.3406 30.8765L20.6615 30.1744ZM20.1533 29.6982L20.5176 29.6021C20.738 29.5439 20.8392 29.4053 20.7874 29.213C20.7335 29.0163 20.5783 28.947 20.3579 29.0073L19.9936 29.1035L20.1533 29.6982Z" fill="white"/>
<path d="M24.4283 28.1446C24.7589 28.8265 24.6285 29.571 23.7942 29.969C22.9599 30.3692 22.2988 30.0048 21.9637 29.3251C21.6354 28.641 21.7591 27.892 22.5934 27.494C23.4277 27.0938 24.0978 27.4627 24.4283 28.1446ZM23.7897 28.4509C23.5761 28.0105 23.223 27.8741 22.8632 28.0462C22.5034 28.2184 22.391 28.5806 22.6046 29.0188C22.816 29.4548 23.1713 29.5934 23.5311 29.419C23.8886 29.2491 24.0033 28.8869 23.7897 28.4509Z" fill="white"/>
<path d="M25.9351 26.2153L25.3819 26.6133L26.5625 28.2387L26.0025 28.6389L24.8219 27.0158L24.2688 27.4137L23.8865 26.8883L25.5505 25.6922L25.9351 26.2153Z" fill="white"/>
<path d="M28.5077 24.6138C29.0564 25.1392 29.1935 25.8815 28.5527 26.5433C27.9118 27.2051 27.1629 27.0933 26.612 26.5701C26.0656 26.0425 25.9194 25.2979 26.5625 24.6362C27.2034 23.9744 27.959 24.0884 28.5077 24.6138ZM28.0175 25.1213C27.6644 24.7815 27.2844 24.777 27.0055 25.0632C26.7267 25.3494 26.7492 25.7272 27.1022 26.0648C27.453 26.4002 27.8331 26.4069 28.1097 26.1207C28.3885 25.8345 28.3683 25.4567 28.0175 25.1213Z" fill="white"/>
<path d="M29.1432 23.6708C29.6267 23.9861 29.9708 23.7826 30.1552 23.5009C30.3193 23.2505 30.371 22.9844 30.3755 22.7519C30.5532 22.8682 30.9467 23.123 30.9467 23.123C30.9197 23.3578 30.8253 23.6283 30.6769 23.8519C30.1956 24.583 29.467 24.735 28.7497 24.2678C28.0346 23.8027 27.8794 23.0783 28.3629 22.345C28.5113 22.1192 28.7205 21.9246 28.9274 21.8062C28.9274 21.8062 29.3231 22.0633 29.5008 22.1795C29.2871 22.2757 29.06 22.4277 28.8959 22.6781C28.707 22.9621 28.6575 23.3556 29.1432 23.6708Z" fill="white"/>
<path d="M31.2282 19.5726C31.9321 19.8633 32.3324 20.5049 31.9771 21.3545C31.6218 22.2041 30.8842 22.3718 30.1781 22.0834C29.4765 21.7883 29.0672 21.1488 29.4225 20.2992C29.7778 19.4474 30.5244 19.282 31.2282 19.5726ZM30.9561 20.221C30.5019 20.0332 30.1466 20.1651 29.9937 20.5318C29.8408 20.8984 29.9982 21.2427 30.4502 21.4306C30.8999 21.6161 31.2575 21.4842 31.4104 21.1175C31.5633 20.7509 31.4059 20.4088 30.9561 20.221Z" fill="white"/>
<path d="M32.4061 17.3904L33.0425 17.5291L32.6468 19.3222L30.0427 18.7543L30.1911 18.0858L32.1588 18.515L32.4061 17.3904Z" fill="white"/>
</svg>
