<?xml version="1.0" encoding="utf-8"?>
<!-- Generator: Adobe Illustrator 25.1.0, SVG Export Plug-In . SVG Version: 6.00 Build 0)  -->
<svg version="1.1" id="Layer_1" xmlns="http://www.w3.org/2000/svg" xmlns:xlink="http://www.w3.org/1999/xlink" x="0px" y="0px"
	 viewBox="0 0 1027 583" style="enable-background:new 0 0 1027 583;" xml:space="preserve">
<style type="text/css">
	.st0{fill:#FFA1A7;stroke:url(#SVGID_1_);stroke-width:6;}
	.st1{fill:#FFDCDE;}
	.st2{fill-opacity:0.4;}
	.st3{fill:none;stroke:#B9B9B9;stroke-width:3;stroke-linecap:round;stroke-linejoin:round;}
	.st4{fill:none;stroke:#626262;stroke-width:3;stroke-linecap:round;stroke-linejoin:round;}
	.st5{fill:#FFF0F1;}
	.st6{fill:#999999;}
</style>
<linearGradient id="SVGID_1_" gradientUnits="userSpaceOnUse" x1="653.8485" y1="114.61" x2="318.0356" y2="421.797" gradientTransform="matrix(1 0 0 -1 0 584)">
	<stop  offset="0" style="stop-color:#F5868D"/>
	<stop  offset="1" style="stop-color:#FFACB1;stop-opacity:0"/>
</linearGradient>
<path class="st0" d="M472.5,306.5h3v-3V74c44.3,0.6,87.6,14,124.5,38.7c37.7,25.2,67.2,61.1,84.5,103
	c17.4,41.9,21.9,88.1,13.1,132.6c-8.9,44.5-30.7,85.4-62.8,117.5s-73,54-117.5,62.8c-44.5,8.9-90.7,4.3-132.6-13.1
	c-41.9-17.4-77.8-46.8-103-84.5c-24.7-36.9-38.1-80.2-38.7-124.5H472.5z"/>
<path class="st1" d="M460.8,88.3c-35.9,0.1-71.2,9.8-102.2,28c-31,18.2-56.6,44.4-74.1,75.7l176.9,99.1L460.8,88.3z"/>
<path d="M860.8,424.3l-9.6,25.1H845l9.5-24.1h-13.5v-5.4h19.9V424.3z M873.9,435c-1.7,0-3.1,0.7-4.2,2h-4.8v-17h17.3v5.3h-12.3v6
	c1.3-0.9,2.9-1.3,4.8-1.3c2.8,0,5.1,0.9,6.9,2.7c1.8,1.8,2.6,4.2,2.6,7.2c0,3-0.9,5.4-2.8,7.3c-1.9,1.9-4.3,2.8-7.3,2.8
	c-3.1,0-5.6-0.9-7.5-2.6c-1.9-1.8-3-4.1-3.2-7h6c0.2,1.3,0.6,2.4,1.4,3.2c0.8,0.8,1.9,1.2,3.3,1.2c1.3,0,2.4-0.4,3.2-1.3
	c0.8-0.9,1.2-2.1,1.2-3.5c0-1.4-0.4-2.6-1.2-3.5C876.4,435.5,875.3,435,873.9,435z M887.4,448.6c-0.7-0.7-1.1-1.6-1.1-2.7
	c0-1.1,0.4-2,1.1-2.7c0.7-0.7,1.6-1.1,2.7-1.1c1.1,0,1.9,0.4,2.6,1.1c0.7,0.7,1.1,1.6,1.1,2.7c0,1.1-0.4,2-1.1,2.7
	c-0.7,0.7-1.6,1.1-2.6,1.1C889,449.8,888.1,449.4,887.4,448.6z M904.7,436.8V432h1.7c1.3,0,2.4-0.3,3.2-1c0.8-0.6,1.2-1.6,1.2-2.7
	c0-1.1-0.4-1.9-1.1-2.6c-0.7-0.7-1.6-1.1-2.8-1.1c-1.3,0-2.3,0.4-3.1,1.2c-0.7,0.7-1.2,1.7-1.2,2.9h-6c0.3-2.7,1.4-4.9,3.2-6.6
	c1.9-1.8,4.2-2.6,7.1-2.6c2.9,0,5.3,0.8,7,2.4c1.7,1.6,2.6,3.6,2.6,6.2c0,1.4-0.3,2.7-1,3.9c-0.7,1.2-1.5,2-2.6,2.5
	c1.3,0.6,2.3,1.4,3,2.6c0.7,1.2,1.1,2.4,1.1,3.8c0,2.6-0.9,4.8-2.7,6.5c-1.8,1.7-4.3,2.5-7.3,2.5c-3.1,0-5.7-0.9-7.7-2.6
	c-2-1.8-3.1-4.1-3.2-7h6c0.2,1.3,0.6,2.4,1.4,3.2c0.8,0.8,2,1.2,3.4,1.2c1.2,0,2.3-0.4,3.1-1.1c0.8-0.7,1.2-1.7,1.2-2.8
	c0-1.2-0.4-2.2-1.3-2.9c-0.9-0.7-2-1.1-3.4-1.1H904.7z M939.9,445.7c-2.1,2.8-4.9,4.2-8.4,4.2s-6.3-1.4-8.4-4.2
	c-2.1-2.8-3.2-6.5-3.2-11s1.1-8.2,3.2-11c2.1-2.8,4.9-4.2,8.4-4.2s6.3,1.4,8.4,4.2c2.1,2.8,3.2,6.5,3.2,11S942,442.9,939.9,445.7z
	 M935.7,427.6c-0.9-1.8-2.3-2.7-4.2-2.7s-3.3,0.9-4.2,2.7s-1.4,4.1-1.4,7.1c0,2.9,0.5,5.3,1.4,7.1c0.9,1.8,2.3,2.7,4.2,2.7
	s3.3-0.9,4.2-2.7c0.9-1.8,1.4-4.1,1.4-7.1C937.1,431.8,936.6,429.4,935.7,427.6z M949.6,449.4l18.2-29.5h4l-18.2,29.5H949.6z
	 M949.9,426.3c0,0.8,0.3,1.4,0.8,2c0.5,0.5,1.2,0.8,2,0.8c0.8,0,1.4-0.3,2-0.8c0.6-0.5,0.9-1.2,0.9-2c0-0.8-0.3-1.5-0.9-2
	c-0.5-0.6-1.2-0.9-2-0.9c-0.8,0-1.5,0.3-2,0.9C950.2,424.9,949.9,425.5,949.9,426.3z M973.5,438.2c1.3,1.3,2,2.9,2,4.8
	s-0.7,3.5-2,4.8c-1.3,1.3-2.9,2-4.8,2s-3.5-0.7-4.8-2c-1.3-1.3-2-3-2-4.8s0.7-3.5,2-4.8c1.3-1.3,3-2,4.8-2S972.2,436.9,973.5,438.2z
	 M957.5,421.5c1.3,1.3,2,3,2,4.8s-0.7,3.5-2,4.8c-1.3,1.3-2.9,2-4.8,2s-3.5-0.7-4.8-2c-1.3-1.3-2-2.9-2-4.8s0.7-3.5,2-4.8
	c1.3-1.3,3-2,4.8-2S956.2,420.1,957.5,421.5z M971.5,443c0-0.8-0.3-1.4-0.8-2s-1.2-0.8-2-0.8s-1.5,0.3-2.1,0.8
	c-0.5,0.5-0.8,1.2-0.8,2c0,0.8,0.3,1.5,0.8,2.1c0.6,0.5,1.3,0.8,2.1,0.8s1.5-0.3,2-0.8C971.2,444.5,971.5,443.8,971.5,443z"/>
<path class="st2" d="M861.1,475.3c-1.2-1.3-1.7-3-1.7-5s0.6-3.7,1.7-5c1.2-1.3,2.6-2,4.4-2c1.5,0,2.7,0.4,3.7,1.2
	c1,0.8,1.6,1.9,1.8,3.3h-2.2c-0.6-1.6-1.7-2.4-3.3-2.4c-1.2,0-2.1,0.5-2.8,1.4c-0.7,0.9-1,2.1-1,3.5s0.3,2.6,1,3.5
	c0.7,0.9,1.6,1.4,2.8,1.4c1.6,0,2.7-0.8,3.3-2.4h2.2c-0.3,1.4-0.9,2.5-1.8,3.3c-1,0.8-2.2,1.2-3.7,1.2
	C863.7,477.2,862.2,476.6,861.1,475.3z M880.4,468.4c0.9,1,1.3,2.2,1.3,3.7s-0.4,2.7-1.3,3.7c-0.9,1-2,1.4-3.3,1.4
	c-1.4,0-2.5-0.5-3.4-1.4c-0.9-1-1.3-2.2-1.3-3.7s0.4-2.7,1.3-3.7c0.9-1,2-1.4,3.4-1.4C878.5,467,879.6,467.5,880.4,468.4z
	 M878.9,474.4c0.4-0.6,0.6-1.4,0.6-2.3s-0.2-1.7-0.6-2.3c-0.4-0.6-1-0.9-1.8-0.9c-0.8,0-1.4,0.3-1.8,0.9c-0.4,0.6-0.6,1.4-0.6,2.3
	s0.2,1.7,0.6,2.3c0.4,0.6,1,0.9,1.8,0.9C877.9,475.3,878.5,475,878.9,474.4z M891,468.3c0.7-0.9,1.7-1.3,2.9-1.3c1,0,1.8,0.3,2.3,1
	c0.6,0.6,0.8,1.5,0.8,2.6v6.4h-2.2v-6c0-0.6-0.1-1.1-0.4-1.5c-0.3-0.4-0.7-0.5-1.2-0.5c-0.4,0-0.8,0.1-1.1,0.4
	c-0.3,0.2-0.5,0.6-0.6,1.1v6.6h-2.2v-6c0-0.6-0.1-1.1-0.4-1.5c-0.3-0.4-0.7-0.5-1.2-0.5c-0.4,0-0.8,0.1-1.1,0.4
	c-0.3,0.2-0.5,0.6-0.6,1.1v6.6h-2.2v-9.8h2.2v0.8c0.5-0.7,1.3-1,2.4-1c0.5,0,1,0.1,1.5,0.4C890.4,467.6,890.7,467.9,891,468.3z
	 M906.9,468.3c0.7-0.9,1.7-1.3,2.9-1.3c1,0,1.8,0.3,2.3,1c0.6,0.6,0.8,1.5,0.8,2.6v6.4h-2.2v-6c0-0.6-0.1-1.1-0.4-1.5
	c-0.3-0.4-0.7-0.5-1.2-0.5c-0.4,0-0.8,0.1-1.1,0.4c-0.3,0.2-0.5,0.6-0.6,1.1v6.6h-2.2v-6c0-0.6-0.1-1.1-0.4-1.5
	c-0.3-0.4-0.7-0.5-1.2-0.5c-0.4,0-0.8,0.1-1.1,0.4c-0.3,0.2-0.5,0.6-0.6,1.1v6.6h-2.2v-9.8h2.2v0.8c0.5-0.7,1.3-1,2.4-1
	c0.5,0,1,0.1,1.5,0.4C906.3,467.6,906.6,467.9,906.9,468.3z M923.7,467.2v9.8h-2.2v-0.9c-0.7,0.8-1.5,1.1-2.6,1.1s-1.9-0.3-2.5-1
	c-0.6-0.7-0.9-1.5-0.9-2.6v-6.4h2.2v6c0,1.3,0.6,2,1.8,2c0.5,0,0.9-0.1,1.3-0.4c0.4-0.3,0.6-0.7,0.7-1.1v-6.4H923.7z M926.4,477
	v-9.8h2.2v0.9c0.7-0.8,1.5-1.1,2.6-1.1c1.1,0,1.9,0.3,2.5,1c0.6,0.7,0.9,1.5,0.9,2.6v6.4h-2.2v-6c0-0.6-0.2-1.1-0.5-1.5
	c-0.3-0.4-0.8-0.5-1.4-0.5c-0.5,0-0.9,0.1-1.3,0.4c-0.4,0.3-0.6,0.7-0.7,1.1v6.4H926.4z M939.5,467.2v9.8h-2.2v-9.8H939.5z
	 M939.3,463.3c0.3,0.3,0.4,0.6,0.4,0.9s-0.1,0.7-0.4,0.9c-0.3,0.3-0.6,0.4-0.9,0.4s-0.7-0.1-1-0.4c-0.3-0.3-0.4-0.6-0.4-0.9
	s0.1-0.7,0.4-0.9c0.3-0.3,0.6-0.4,1-0.4S939.1,463.1,939.3,463.3z M942.7,474.4v-5.3h-1.5v-1.8h1.5v-2.6h2.2v2.6h2.2v1.8h-2.2v5.1
	c0,0.8,0.4,1.1,1.2,1.1c0.5,0,0.9-0.1,1.3-0.4v2c-0.4,0.2-0.9,0.4-1.6,0.4c-0.9,0-1.6-0.2-2.2-0.7C943,476,942.7,475.3,942.7,474.4z
	 M952.9,480.7h-2.1l1.4-3.5l-3.8-10h2.4l2.6,7.2l2.5-7.2h2.3L952.9,480.7z"/>
<path d="M67.3,33.5V63h-6V40.5l-6.9,3.4v-6l9-4.4H67.3z M92.9,41h-6C86.3,39,85,38.1,83,38.1c-1.7,0-3.1,0.8-4.1,2.5
	s-1.6,3.6-1.6,5.8v0.4c0.5-0.9,1.3-1.7,2.4-2.3c1.1-0.6,2.4-0.9,3.8-0.9c2.9,0,5.2,0.9,7,2.8c1.8,1.9,2.6,4.1,2.6,6.9
	c0,2.9-0.9,5.3-2.8,7.2c-1.9,1.9-4.4,2.9-7.6,2.9c-4,0-7-1.8-8.9-5.3c-1.4-2.4-2.1-5.5-2.1-9.3c0-4.7,1-8.5,3-11.4
	c2-2.9,4.8-4.4,8.3-4.4c2.7,0,4.9,0.7,6.6,2.1S92.3,38.4,92.9,41z M77.9,53.5c0,1.5,0.4,2.7,1.3,3.6c0.9,0.9,2.1,1.3,3.6,1.3
	c1.4,0,2.6-0.4,3.5-1.3c0.9-0.9,1.4-2.1,1.4-3.6c0-1.5-0.4-2.8-1.3-3.7c-0.9-0.9-2.1-1.4-3.5-1.4c-1.5,0-2.7,0.5-3.6,1.4
	C78.3,50.7,77.9,52,77.9,53.5z M96.5,62.2c-0.7-0.7-1.1-1.6-1.1-2.7c0-1.1,0.4-2,1.1-2.7c0.7-0.7,1.6-1.1,2.7-1.1
	c1.1,0,1.9,0.4,2.6,1.1c0.7,0.7,1.1,1.6,1.1,2.7c0,1.1-0.4,2-1.1,2.7c-0.7,0.7-1.6,1.1-2.6,1.1C98.2,63.3,97.3,63,96.5,62.2z
	 M125.7,41h-6c-0.6-1.9-1.9-2.9-3.9-2.9c-1.7,0-3.1,0.8-4.1,2.5s-1.6,3.6-1.6,5.8v0.4c0.5-0.9,1.3-1.7,2.4-2.3
	c1.1-0.6,2.4-0.9,3.8-0.9c2.9,0,5.2,0.9,7,2.8c1.8,1.9,2.6,4.1,2.6,6.9c0,2.9-0.9,5.3-2.8,7.2c-1.9,1.9-4.4,2.9-7.6,2.9
	c-4,0-7-1.8-8.9-5.3c-1.4-2.4-2.1-5.5-2.1-9.3c0-4.7,1-8.5,3-11.4c2-2.9,4.8-4.4,8.3-4.4c2.7,0,4.9,0.7,6.6,2.1S125.2,38.4,125.7,41
	z M110.7,53.5c0,1.5,0.4,2.7,1.3,3.6c0.9,0.9,2.1,1.3,3.6,1.3c1.4,0,2.6-0.4,3.5-1.3c0.9-0.9,1.4-2.1,1.4-3.6c0-1.5-0.4-2.8-1.3-3.7
	c-0.9-0.9-2.1-1.4-3.5-1.4c-1.5,0-2.7,0.5-3.6,1.4C111.2,50.7,110.7,52,110.7,53.5z M148,37.9L138.3,63h-6.2l9.5-24.1H128v-5.4H148
	V37.9z M154.2,63l18.2-29.5h4L158.2,63H154.2z M154.5,39.9c0,0.8,0.3,1.4,0.8,2c0.5,0.5,1.2,0.8,2,0.8c0.8,0,1.4-0.3,2-0.8
	c0.6-0.5,0.9-1.2,0.9-2c0-0.8-0.3-1.5-0.9-2c-0.5-0.6-1.2-0.9-2-0.9c-0.8,0-1.5,0.3-2,0.9C154.8,38.4,154.5,39.1,154.5,39.9z
	 M178.1,51.8c1.3,1.3,2,2.9,2,4.8s-0.7,3.5-2,4.8c-1.3,1.3-2.9,2-4.8,2s-3.5-0.7-4.8-2c-1.3-1.3-2-3-2-4.8s0.7-3.5,2-4.8
	c1.3-1.3,3-2,4.8-2S176.8,50.5,178.1,51.8z M162.2,35.1c1.3,1.3,2,3,2,4.8s-0.7,3.5-2,4.8c-1.3,1.3-2.9,2-4.8,2s-3.5-0.7-4.8-2
	c-1.3-1.3-2-2.9-2-4.8s0.7-3.5,2-4.8c1.3-1.3,3-2,4.8-2S160.9,33.7,162.2,35.1z M176.1,56.6c0-0.8-0.3-1.4-0.8-2
	c-0.5-0.5-1.2-0.8-2-0.8s-1.5,0.3-2.1,0.8c-0.5,0.5-0.8,1.2-0.8,2c0,0.8,0.3,1.5,0.8,2.1c0.6,0.5,1.3,0.8,2.1,0.8s1.5-0.3,2-0.8
	C175.9,58.1,176.1,57.4,176.1,56.6z"/>
<path d="M67,357.6c1.3,0,2.4-0.4,3.3-1.1c0.9-0.8,1.3-1.8,1.3-3.1s-0.4-2.3-1.3-3c-0.9-0.8-2-1.2-3.3-1.2c-1.4,0-2.5,0.4-3.4,1.2
	c-0.9,0.7-1.3,1.7-1.3,3s0.4,2.3,1.3,3.1C64.5,357.3,65.6,357.6,67,357.6z M67,344.3c1.1,0,2.1-0.3,2.8-1s1.2-1.6,1.2-2.7
	c0-1.2-0.4-2.1-1.2-2.7c-0.8-0.7-1.7-1.1-2.8-1.1c-1.2,0-2.1,0.4-2.9,1.1c-0.8,0.7-1.2,1.6-1.2,2.7c0,1.1,0.4,2,1.2,2.7
	C64.9,344,65.8,344.3,67,344.3z M67,362.5c-3,0-5.6-0.8-7.6-2.3c-2-1.5-3-3.6-3-6.2c0-1.8,0.5-3.3,1.4-4.6c1-1.2,2.2-2.1,3.7-2.5
	c-1.3-0.5-2.3-1.4-3.1-2.5c-0.8-1.2-1.2-2.5-1.2-4c0-2.6,0.9-4.6,2.8-6.1c1.9-1.5,4.2-2.2,6.9-2.2s5,0.7,6.9,2.2
	c1.9,1.5,2.8,3.5,2.8,6.1c0,1.5-0.4,2.8-1.2,4c-0.8,1.2-1.8,2-3.1,2.5c1.5,0.4,2.7,1.2,3.6,2.5c1,1.2,1.5,2.8,1.5,4.6
	c0,2.6-1,4.7-3,6.2C72.5,361.7,70,362.5,67,362.5z M81.2,361.2c-0.7-0.7-1.1-1.6-1.1-2.7s0.4-2,1.1-2.7c0.7-0.7,1.6-1.1,2.7-1.1
	s1.9,0.4,2.6,1.1c0.7,0.7,1.1,1.6,1.1,2.7s-0.4,2-1.1,2.7c-0.7,0.7-1.6,1.1-2.6,1.1S81.9,362,81.2,361.2z M109.2,358.3
	c-2.1,2.8-4.9,4.2-8.4,4.2s-6.3-1.4-8.4-4.2c-2.1-2.8-3.2-6.5-3.2-11s1.1-8.2,3.2-11c2.1-2.8,4.9-4.2,8.4-4.2s6.3,1.4,8.4,4.2
	c2.1,2.8,3.2,6.5,3.2,11S111.3,355.4,109.2,358.3z M105,340.2c-0.9-1.8-2.3-2.7-4.2-2.7s-3.3,0.9-4.2,2.7c-0.9,1.8-1.4,4.1-1.4,7.1
	c0,2.9,0.5,5.3,1.4,7.1s2.3,2.7,4.2,2.7s3.3-0.9,4.2-2.7s1.4-4.1,1.4-7.1C106.4,344.4,105.9,342,105,340.2z M123.2,349.4v-4.8h1.7
	c1.3,0,2.4-0.3,3.2-1c0.8-0.6,1.2-1.6,1.2-2.7c0-1.1-0.4-1.9-1.1-2.6c-0.7-0.7-1.6-1.1-2.8-1.1c-1.3,0-2.3,0.4-3.1,1.2
	c-0.7,0.7-1.2,1.7-1.2,2.9h-6c0.3-2.7,1.4-4.9,3.2-6.6c1.9-1.8,4.2-2.6,7.1-2.6c2.9,0,5.3,0.8,7,2.4c1.7,1.6,2.6,3.6,2.6,6.2
	c0,1.4-0.3,2.7-1,3.9c-0.7,1.2-1.5,2-2.6,2.5c1.3,0.6,2.3,1.4,3,2.6c0.7,1.2,1.1,2.4,1.1,3.8c0,2.6-0.9,4.8-2.7,6.5
	c-1.8,1.7-4.3,2.5-7.3,2.5c-3.1,0-5.7-0.9-7.7-2.6s-3.1-4.1-3.2-7h6c0.2,1.3,0.6,2.4,1.4,3.2c0.8,0.8,2,1.2,3.4,1.2
	c1.2,0,2.3-0.4,3.1-1.1c0.8-0.7,1.2-1.7,1.2-2.8c0-1.2-0.4-2.2-1.3-2.9c-0.9-0.7-2-1.1-3.4-1.1H123.2z M141.8,362l18.2-29.5h4
	L145.8,362H141.8z M142.1,338.9c0,0.8,0.3,1.4,0.8,2c0.5,0.5,1.2,0.8,2,0.8c0.8,0,1.4-0.3,2-0.8c0.6-0.5,0.9-1.2,0.9-2
	c0-0.8-0.3-1.5-0.9-2c-0.5-0.6-1.2-0.9-2-0.9c-0.8,0-1.5,0.3-2,0.9C142.4,337.4,142.1,338.1,142.1,338.9z M165.7,350.8
	c1.3,1.3,2,2.9,2,4.8s-0.7,3.5-2,4.8c-1.3,1.3-2.9,2-4.8,2s-3.5-0.7-4.8-2c-1.3-1.3-2-3-2-4.8s0.7-3.5,2-4.8c1.3-1.3,3-2,4.8-2
	S164.4,349.5,165.7,350.8z M149.8,334.1c1.3,1.3,2,3,2,4.8s-0.7,3.5-2,4.8c-1.3,1.3-2.9,2-4.8,2s-3.5-0.7-4.8-2
	c-1.3-1.3-2-2.9-2-4.8s0.7-3.5,2-4.8c1.3-1.3,3-2,4.8-2S148.4,332.7,149.8,334.1z M163.7,355.6c0-0.8-0.3-1.4-0.8-2
	c-0.5-0.5-1.2-0.8-2-0.8s-1.5,0.3-2.1,0.8c-0.5,0.5-0.8,1.2-0.8,2c0,0.8,0.3,1.5,0.8,2.1c0.6,0.5,1.3,0.8,2.1,0.8s1.5-0.3,2-0.8
	C163.5,357.1,163.7,356.4,163.7,355.6z"/>
<path class="st2" d="M89,378.5v-2h11.3v2h-4.5V390h-2.3v-11.5H89z M106.9,387h2c-0.2,1-0.6,1.8-1.3,2.4c-0.7,0.6-1.6,0.9-2.8,0.9
	c-1.4,0-2.5-0.5-3.3-1.4c-0.9-0.9-1.3-2.2-1.3-3.7c0-1.5,0.4-2.7,1.3-3.7c0.9-1,2-1.5,3.3-1.5c1.3,0,2.4,0.4,3.1,1.3
	c0.7,0.9,1.1,2,1.1,3.5v0.8h-6.7c0,0.9,0.3,1.5,0.7,2c0.5,0.5,1,0.7,1.8,0.7C106,388.4,106.7,387.9,106.9,387z M104.8,381.9
	c-0.6,0-1.1,0.2-1.6,0.6c-0.4,0.4-0.7,0.9-0.8,1.6h4.4c0-0.6-0.2-1.1-0.5-1.5C105.9,382.1,105.4,381.9,104.8,381.9z M118.5,390h-2.1
	v-0.5c-0.2,0.2-0.5,0.3-1,0.5c-0.5,0.1-0.9,0.2-1.5,0.2c-1,0-1.9-0.3-2.6-0.9c-0.7-0.6-1-1.4-1-2.3c0-0.9,0.4-1.7,1.1-2.2
	c0.7-0.6,1.6-0.9,2.7-0.9c0.4,0,0.9,0.1,1.3,0.2c0.4,0.1,0.8,0.2,1,0.4v-0.8c0-0.5-0.2-0.9-0.5-1.3c-0.3-0.3-0.8-0.5-1.4-0.5
	c-0.9,0-1.4,0.4-1.7,1.1h-2.1c0.1-0.9,0.6-1.5,1.3-2.1c0.7-0.6,1.6-0.8,2.6-0.8c1.2,0,2.2,0.3,2.9,1c0.7,0.6,1,1.5,1,2.6V390z
	 M116.5,387.4v-0.8c-0.1-0.3-0.4-0.5-0.7-0.7c-0.4-0.2-0.8-0.3-1.3-0.3c-0.5,0-1,0.1-1.4,0.4c-0.4,0.2-0.6,0.6-0.6,1
	c0,0.5,0.2,0.8,0.6,1.1c0.4,0.2,0.9,0.4,1.4,0.4c0.5,0,0.9-0.1,1.3-0.3C116.1,387.9,116.3,387.7,116.5,387.4z M128.4,381.3
	c0.7-0.9,1.7-1.3,2.9-1.3c1,0,1.8,0.3,2.3,1c0.6,0.6,0.8,1.5,0.8,2.6v6.4h-2.2v-6c0-0.6-0.1-1.1-0.4-1.5c-0.3-0.4-0.7-0.5-1.2-0.5
	c-0.4,0-0.8,0.1-1.1,0.4c-0.3,0.2-0.5,0.6-0.6,1.1v6.6h-2.2v-6c0-0.6-0.1-1.1-0.4-1.5c-0.3-0.4-0.7-0.5-1.2-0.5
	c-0.4,0-0.8,0.1-1.1,0.4c-0.3,0.2-0.5,0.6-0.6,1.1v6.6h-2.2v-9.8h2.2v0.8c0.5-0.7,1.3-1,2.4-1c0.5,0,1,0.1,1.5,0.4
	C127.7,380.6,128.1,380.9,128.4,381.3z"/>
<path class="st3" d="M286.5,255.3H154.3L111.8,310"/>
<path class="st3" d="M394.7,138.5L340,64H208.2"/>
<path class="st4" d="M539,363c16,26.7,47.9,80,47.9,80H810"/>
<path class="st5" d="M282.6,178.8c-21.1,33.6-32.3,72.5-32.4,112.2l211.2,0.2L282.6,178.8z"/>
<g>
	<g>
		<path class="st6" d="M88.6,85.4v-8.4h2.9v8.1c0,2.4,1.1,3.6,2.9,3.6c1.9,0,2.9-1.1,2.9-3.6v-8.1h2.9v8.4c0,3.9-2.3,5.9-5.9,5.9
			C91,91.3,88.6,89.3,88.6,85.4z"/>
		<path class="st6" d="M104.9,88c0.2,0.7,0.9,1.1,1.7,1.1c0.9,0,1.4-0.3,1.4-1c0-0.5-0.3-0.7-1-0.9l-2.1-0.5
			c-1.6-0.4-2.7-1.2-2.7-2.9c0-2,1.8-3.3,4.1-3.3c2.6,0,4,1.2,4.4,3.2h-2.7c-0.2-0.6-0.7-1-1.6-1c-0.7,0-1.4,0.3-1.4,1
			c0,0.4,0.3,0.6,0.9,0.8l2.1,0.5c1.8,0.4,2.7,1.4,2.7,3c0,2.1-1.8,3.3-4.2,3.3c-2.5,0-4.3-1.2-4.6-3.3H104.9z"/>
		<path class="st6" d="M121.7,87.7c-0.4,2.2-2,3.6-4.6,3.6c-3,0-5-2.2-5-5.4c0-3.1,2.1-5.4,4.9-5.4c3,0,4.7,2.1,4.7,5.1v0.9h-6.9
			c0.1,1.5,1,2.5,2.2,2.5c1,0,1.7-0.4,1.9-1.3H121.7z M115,84.8h4c0-1.1-0.7-1.9-1.8-1.9C116,82.9,115.2,83.5,115,84.8z"/>
		<path class="st6" d="M129.8,83.6c-0.4-0.2-0.9-0.3-1.4-0.3c-1,0-1.7,0.5-2,1.4V91h-2.9V80.8h2.9v1c0.4-0.7,1.3-1.2,2.3-1.2
			c0.5,0,0.9,0.1,1.1,0.2V83.6z"/>
		<path class="st6" d="M133.7,88c0.2,0.7,0.9,1.1,1.7,1.1c0.9,0,1.4-0.3,1.4-1c0-0.5-0.3-0.7-1-0.9l-2.1-0.5
			c-1.6-0.4-2.7-1.2-2.7-2.9c0-2,1.8-3.3,4.1-3.3c2.6,0,4,1.2,4.4,3.2h-2.7c-0.2-0.6-0.7-1-1.6-1c-0.7,0-1.4,0.3-1.4,1
			c0,0.4,0.3,0.6,0.9,0.8L137,85c1.8,0.4,2.7,1.4,2.7,3c0,2.1-1.8,3.3-4.2,3.3c-2.5,0-4.3-1.2-4.6-3.3H133.7z"/>
	</g>
</g>
</svg>
