<svg width="1027" height="583" viewBox="0 0 1027 583" fill="none" xmlns="http://www.w3.org/2000/svg">
<path d="M472.5 306.5L475.5 306.5L475.5 303.5L475.5 74.0196C519.844 74.5991 563.094 88.0158 600.003 112.678C637.744 137.896 667.16 173.739 684.53 215.674C701.901 257.61 706.446 303.755 697.59 348.273C688.735 392.792 666.877 433.685 634.781 465.781C602.685 497.877 561.792 519.735 517.273 528.59C472.755 537.446 426.61 532.901 384.674 515.53C342.738 498.16 306.895 468.744 281.678 431.003C257.016 394.094 243.599 350.844 243.02 306.5L472.5 306.5Z" fill="#FFA1A7" stroke="url(#paint0_linear)" stroke-width="6"/>
<path d="M460.778 88.3459C424.832 88.453 389.56 98.1118 358.574 116.333C327.588 134.555 302.002 160.684 284.435 192.046L461.382 291.159L460.778 88.3459Z" fill="#FFDCDE"/>
<path d="M860.84 424.312L851.192 449.416H845L854.456 425.32H840.92V419.944H860.84V424.312ZM873.899 435.016C872.235 435.016 870.827 435.672 869.675 436.984H864.875V419.944H882.155V425.272H869.867V431.272C871.179 430.376 872.763 429.928 874.619 429.928C877.467 429.928 879.755 430.84 881.483 432.664C883.243 434.488 884.123 436.872 884.123 439.816C884.123 442.824 883.179 445.256 881.291 447.112C879.435 448.968 877.003 449.896 873.995 449.896C870.923 449.896 868.427 449.032 866.507 447.304C864.587 445.544 863.515 443.208 863.291 440.296H869.243C869.403 441.64 869.883 442.712 870.683 443.512C871.515 444.28 872.619 444.664 873.995 444.664C875.307 444.664 876.363 444.216 877.163 443.32C877.963 442.424 878.363 441.256 878.363 439.816C878.363 438.408 877.963 437.256 877.163 436.36C876.363 435.464 875.275 435.016 873.899 435.016ZM887.411 448.648C886.707 447.912 886.355 447 886.355 445.912C886.355 444.824 886.707 443.928 887.411 443.224C888.147 442.488 889.043 442.12 890.099 442.12C891.155 442.12 892.035 442.488 892.739 443.224C893.475 443.928 893.843 444.824 893.843 445.912C893.843 447 893.475 447.912 892.739 448.648C892.035 449.384 891.155 449.752 890.099 449.752C889.043 449.752 888.147 449.384 887.411 448.648ZM904.677 436.792V432.04H906.357C907.669 432.04 908.725 431.72 909.525 431.08C910.357 430.44 910.773 429.528 910.773 428.344C910.773 427.288 910.421 426.424 909.717 425.752C909.045 425.048 908.117 424.696 906.933 424.696C905.653 424.696 904.629 425.08 903.861 425.848C903.125 426.584 902.709 427.544 902.613 428.728H896.661C896.949 426.04 898.021 423.832 899.877 422.104C901.733 420.344 904.101 419.464 906.981 419.464C909.925 419.464 912.261 420.264 913.989 421.864C915.717 423.432 916.581 425.496 916.581 428.056C916.581 429.464 916.245 430.76 915.573 431.944C914.901 433.096 914.037 433.928 912.981 434.44C914.293 435.016 915.301 435.88 916.005 437.032C916.709 438.184 917.061 439.464 917.061 440.872C917.061 443.496 916.149 445.656 914.325 447.352C912.501 449.048 910.053 449.896 906.981 449.896C903.845 449.896 901.285 449.016 899.301 447.256C897.317 445.496 896.245 443.176 896.085 440.296H902.133C902.293 441.64 902.773 442.712 903.573 443.512C904.405 444.28 905.525 444.664 906.933 444.664C908.181 444.664 909.205 444.312 910.005 443.608C910.805 442.872 911.205 441.928 911.205 440.776C911.205 439.56 910.773 438.6 909.909 437.896C909.045 437.16 907.925 436.792 906.549 436.792H904.677ZM939.892 445.672C937.748 448.488 934.948 449.896 931.492 449.896C928.036 449.896 925.236 448.488 923.092 445.672C920.948 442.856 919.876 439.192 919.876 434.68C919.876 430.168 920.948 426.504 923.092 423.688C925.236 420.872 928.036 419.464 931.492 419.464C934.948 419.464 937.748 420.872 939.892 423.688C942.036 426.504 943.108 430.168 943.108 434.68C943.108 439.192 942.036 442.856 939.892 445.672ZM935.716 427.624C934.788 425.832 933.38 424.936 931.492 424.936C929.604 424.936 928.196 425.832 927.268 427.624C926.34 429.416 925.876 431.768 925.876 434.68C925.876 437.592 926.34 439.944 927.268 441.736C928.196 443.528 929.604 444.424 931.492 444.424C933.38 444.424 934.788 443.528 935.716 441.736C936.644 439.944 937.108 437.592 937.108 434.68C937.108 431.768 936.644 429.416 935.716 427.624ZM949.581 449.416L967.821 419.944H971.853L953.613 449.416H949.581ZM949.917 426.328C949.917 427.096 950.189 427.752 950.733 428.296C951.277 428.84 951.949 429.112 952.749 429.112C953.517 429.112 954.173 428.84 954.717 428.296C955.293 427.752 955.581 427.096 955.581 426.328C955.581 425.528 955.293 424.856 954.717 424.312C954.173 423.736 953.517 423.448 952.749 423.448C951.949 423.448 951.277 423.736 950.733 424.312C950.189 424.856 949.917 425.528 949.917 426.328ZM973.485 438.232C974.829 439.544 975.501 441.144 975.501 443.032C975.501 444.92 974.829 446.536 973.485 447.88C972.173 449.224 970.573 449.896 968.685 449.896C966.797 449.896 965.181 449.224 963.837 447.88C962.525 446.536 961.869 444.92 961.869 443.032C961.869 441.144 962.525 439.544 963.837 438.232C965.181 436.92 966.797 436.264 968.685 436.264C970.573 436.264 972.173 436.92 973.485 438.232ZM957.549 421.48C958.893 422.824 959.565 424.44 959.565 426.328C959.565 428.216 958.893 429.816 957.549 431.128C956.237 432.44 954.637 433.096 952.749 433.096C950.861 433.096 949.245 432.44 947.901 431.128C946.589 429.816 945.933 428.216 945.933 426.328C945.933 424.44 946.589 422.824 947.901 421.48C949.245 420.136 950.861 419.464 952.749 419.464C954.637 419.464 956.237 420.136 957.549 421.48ZM971.517 443.032C971.517 442.264 971.245 441.608 970.701 441.064C970.157 440.52 969.485 440.248 968.685 440.248C967.885 440.248 967.197 440.52 966.621 441.064C966.077 441.608 965.805 442.264 965.805 443.032C965.805 443.832 966.077 444.52 966.621 445.096C967.197 445.64 967.885 445.912 968.685 445.912C969.485 445.912 970.157 445.64 970.701 445.096C971.245 444.52 971.517 443.832 971.517 443.032Z" fill="black"/>
<path d="M861.057 475.284C859.898 473.979 859.319 472.299 859.319 470.246C859.319 468.193 859.898 466.521 861.057 465.23C862.23 463.925 863.697 463.272 865.457 463.272C866.953 463.272 868.177 463.675 869.131 464.482C870.084 465.274 870.693 466.359 870.957 467.738H868.713C868.126 466.139 867.041 465.34 865.457 465.34C864.283 465.34 863.352 465.802 862.663 466.726C861.973 467.635 861.629 468.809 861.629 470.246C861.629 471.683 861.973 472.864 862.663 473.788C863.352 474.697 864.283 475.152 865.457 475.152C867.041 475.152 868.126 474.345 868.713 472.732H870.957C870.693 474.125 870.084 475.225 869.131 476.032C868.177 476.824 866.953 477.22 865.457 477.22C863.697 477.22 862.23 476.575 861.057 475.284ZM880.43 468.442C881.295 469.395 881.728 470.62 881.728 472.116C881.728 473.612 881.295 474.837 880.43 475.79C879.579 476.743 878.464 477.22 877.086 477.22C875.707 477.22 874.585 476.743 873.72 475.79C872.869 474.837 872.444 473.612 872.444 472.116C872.444 470.62 872.869 469.395 873.72 468.442C874.585 467.489 875.707 467.012 877.086 467.012C878.464 467.012 879.579 467.489 880.43 468.442ZM878.89 474.448C879.315 473.847 879.528 473.069 879.528 472.116C879.528 471.163 879.315 470.393 878.89 469.806C878.464 469.205 877.863 468.904 877.086 468.904C876.308 468.904 875.707 469.205 875.282 469.806C874.856 470.393 874.644 471.163 874.644 472.116C874.644 473.069 874.856 473.847 875.282 474.448C875.707 475.035 876.308 475.328 877.086 475.328C877.863 475.328 878.464 475.035 878.89 474.448ZM890.998 468.31C891.746 467.445 892.714 467.012 893.902 467.012C894.899 467.012 895.677 467.342 896.234 468.002C896.791 468.647 897.07 469.527 897.07 470.642V477H894.87V470.994C894.87 470.378 894.731 469.894 894.452 469.542C894.188 469.175 893.792 468.992 893.264 468.992C892.853 468.992 892.479 469.117 892.142 469.366C891.819 469.615 891.614 469.975 891.526 470.444V477H889.326V470.994C889.326 470.378 889.187 469.894 888.908 469.542C888.644 469.175 888.248 468.992 887.72 468.992C887.309 468.992 886.935 469.117 886.598 469.366C886.275 469.615 886.07 469.975 885.982 470.444V477H883.782V467.232H885.982V468.046C886.495 467.357 887.309 467.012 888.424 467.012C888.967 467.012 889.465 467.137 889.92 467.386C890.375 467.621 890.734 467.929 890.998 468.31ZM906.875 468.31C907.623 467.445 908.591 467.012 909.779 467.012C910.776 467.012 911.554 467.342 912.111 468.002C912.668 468.647 912.947 469.527 912.947 470.642V477H910.747V470.994C910.747 470.378 910.608 469.894 910.329 469.542C910.065 469.175 909.669 468.992 909.141 468.992C908.73 468.992 908.356 469.117 908.019 469.366C907.696 469.615 907.491 469.975 907.403 470.444V477H905.203V470.994C905.203 470.378 905.064 469.894 904.785 469.542C904.521 469.175 904.125 468.992 903.597 468.992C903.186 468.992 902.812 469.117 902.475 469.366C902.152 469.615 901.947 469.975 901.859 470.444V477H899.659V467.232H901.859V468.046C902.372 467.357 903.186 467.012 904.301 467.012C904.844 467.012 905.342 467.137 905.797 467.386C906.252 467.621 906.611 467.929 906.875 468.31ZM923.654 467.232V477H921.454V476.076C920.794 476.839 919.921 477.22 918.836 477.22C917.751 477.22 916.907 476.89 916.306 476.23C915.705 475.57 915.404 474.69 915.404 473.59V467.232H917.604V473.216C917.604 474.551 918.213 475.218 919.43 475.218C919.914 475.218 920.339 475.079 920.706 474.8C921.087 474.507 921.337 474.125 921.454 473.656V467.232H923.654ZM926.385 477V467.232H928.585V468.156C929.245 467.393 930.125 467.012 931.225 467.012C932.311 467.012 933.154 467.342 933.755 468.002C934.371 468.662 934.679 469.542 934.679 470.642V477H932.479V471.016C932.479 470.385 932.325 469.894 932.017 469.542C931.709 469.19 931.247 469.014 930.631 469.014C930.147 469.014 929.715 469.161 929.333 469.454C928.952 469.733 928.703 470.107 928.585 470.576V477H926.385ZM939.478 467.232V477H937.278V467.232H939.478ZM939.324 463.338C939.603 463.602 939.742 463.917 939.742 464.284C939.742 464.651 939.603 464.966 939.324 465.23C939.06 465.494 938.745 465.626 938.378 465.626C938.011 465.626 937.689 465.494 937.41 465.23C937.146 464.966 937.014 464.651 937.014 464.284C937.014 463.917 937.146 463.602 937.41 463.338C937.689 463.074 938.011 462.942 938.378 462.942C938.745 462.942 939.06 463.074 939.324 463.338ZM942.704 474.36V469.058H941.164V467.232H942.704V464.614H944.904V467.232H947.104V469.058H944.904V474.118C944.904 474.881 945.293 475.262 946.07 475.262C946.539 475.262 946.957 475.13 947.324 474.866V476.868C946.928 477.103 946.378 477.22 945.674 477.22C944.765 477.22 944.039 476.978 943.496 476.494C942.968 476.01 942.704 475.299 942.704 474.36ZM952.916 480.74H950.782L952.168 477.264L948.384 467.232H950.738L953.29 474.426L955.798 467.232H958.064L952.916 480.74Z" fill="black" fill-opacity="0.4"/>
<path d="M67.2659 33.528V63H61.2659V40.536L54.4019 43.944V37.944L63.3779 33.528H67.2659ZM92.8848 40.968H86.9328C86.3248 39.048 85.0288 38.088 83.0448 38.088C81.3488 38.088 79.9728 38.92 78.9168 40.584C77.8608 42.248 77.3328 44.168 77.3328 46.344V46.776C77.8128 45.848 78.6128 45.096 79.7328 44.52C80.8528 43.944 82.1168 43.656 83.5248 43.656C86.4048 43.656 88.7248 44.6 90.4848 46.488C92.2448 48.344 93.1248 50.632 93.1248 53.352C93.1248 56.232 92.1808 58.648 90.2928 60.6C88.4368 62.52 85.9088 63.48 82.7088 63.48C78.7088 63.48 75.7328 61.704 73.7808 58.152C72.4048 55.752 71.7168 52.664 71.7168 48.888C71.7168 44.216 72.7248 40.408 74.7408 37.464C76.7888 34.52 79.5408 33.048 82.9968 33.048C85.7168 33.048 87.9088 33.736 89.5728 35.112C91.2368 36.488 92.3408 38.44 92.8848 40.968ZM77.8608 53.496C77.8608 54.968 78.3088 56.168 79.2048 57.096C80.1008 57.992 81.2848 58.44 82.7568 58.44C84.1648 58.44 85.3168 57.992 86.2128 57.096C87.1408 56.168 87.6048 54.968 87.6048 53.496C87.6048 51.96 87.1568 50.728 86.2608 49.8C85.3648 48.872 84.1968 48.408 82.7568 48.408C81.2848 48.408 80.1008 48.872 79.2048 49.8C78.3088 50.728 77.8608 51.96 77.8608 53.496ZM96.5317 62.232C95.8277 61.496 95.4757 60.584 95.4757 59.496C95.4757 58.408 95.8277 57.512 96.5317 56.808C97.2677 56.072 98.1637 55.704 99.2197 55.704C100.276 55.704 101.156 56.072 101.86 56.808C102.596 57.512 102.964 58.408 102.964 59.496C102.964 60.584 102.596 61.496 101.86 62.232C101.156 62.968 100.276 63.336 99.2197 63.336C98.1637 63.336 97.2677 62.968 96.5317 62.232ZM125.744 40.968H119.792C119.184 39.048 117.888 38.088 115.904 38.088C114.208 38.088 112.832 38.92 111.776 40.584C110.72 42.248 110.192 44.168 110.192 46.344V46.776C110.672 45.848 111.472 45.096 112.592 44.52C113.712 43.944 114.976 43.656 116.384 43.656C119.264 43.656 121.584 44.6 123.344 46.488C125.104 48.344 125.984 50.632 125.984 53.352C125.984 56.232 125.04 58.648 123.152 60.6C121.296 62.52 118.768 63.48 115.568 63.48C111.568 63.48 108.592 61.704 106.64 58.152C105.264 55.752 104.576 52.664 104.576 48.888C104.576 44.216 105.584 40.408 107.6 37.464C109.648 34.52 112.4 33.048 115.856 33.048C118.576 33.048 120.768 33.736 122.432 35.112C124.096 36.488 125.2 38.44 125.744 40.968ZM110.72 53.496C110.72 54.968 111.168 56.168 112.064 57.096C112.96 57.992 114.144 58.44 115.616 58.44C117.024 58.44 118.176 57.992 119.072 57.096C120 56.168 120.464 54.968 120.464 53.496C120.464 51.96 120.016 50.728 119.12 49.8C118.224 48.872 117.056 48.408 115.616 48.408C114.144 48.408 112.96 48.872 112.064 49.8C111.168 50.728 110.72 51.96 110.72 53.496ZM147.961 37.896L138.313 63H132.121L141.577 38.904H128.041V33.528H147.961V37.896ZM154.202 63L172.442 33.528H176.474L158.234 63H154.202ZM154.538 39.912C154.538 40.68 154.81 41.336 155.354 41.88C155.898 42.424 156.57 42.696 157.37 42.696C158.138 42.696 158.794 42.424 159.338 41.88C159.914 41.336 160.202 40.68 160.202 39.912C160.202 39.112 159.914 38.44 159.338 37.896C158.794 37.32 158.138 37.032 157.37 37.032C156.57 37.032 155.898 37.32 155.354 37.896C154.81 38.44 154.538 39.112 154.538 39.912ZM178.106 51.816C179.45 53.128 180.122 54.728 180.122 56.616C180.122 58.504 179.45 60.12 178.106 61.464C176.794 62.808 175.194 63.48 173.306 63.48C171.418 63.48 169.802 62.808 168.458 61.464C167.146 60.12 166.49 58.504 166.49 56.616C166.49 54.728 167.146 53.128 168.458 51.816C169.802 50.504 171.418 49.848 173.306 49.848C175.194 49.848 176.794 50.504 178.106 51.816ZM162.17 35.064C163.514 36.408 164.186 38.024 164.186 39.912C164.186 41.8 163.514 43.4 162.17 44.712C160.858 46.024 159.258 46.68 157.37 46.68C155.482 46.68 153.866 46.024 152.522 44.712C151.21 43.4 150.554 41.8 150.554 39.912C150.554 38.024 151.21 36.408 152.522 35.064C153.866 33.72 155.482 33.048 157.37 33.048C159.258 33.048 160.858 33.72 162.17 35.064ZM176.138 56.616C176.138 55.848 175.866 55.192 175.322 54.648C174.778 54.104 174.106 53.832 173.306 53.832C172.506 53.832 171.818 54.104 171.242 54.648C170.698 55.192 170.426 55.848 170.426 56.616C170.426 57.416 170.698 58.104 171.242 58.68C171.818 59.224 172.506 59.496 173.306 59.496C174.106 59.496 174.778 59.224 175.322 58.68C175.866 58.104 176.138 57.416 176.138 56.616Z" fill="black"/>
<path d="M80.4686 77.492V91H78.1806V77.492H80.4686ZM83.3337 91V81.232H85.5337V82.156C86.1937 81.3933 87.0737 81.012 88.1737 81.012C89.2591 81.012 90.1024 81.342 90.7037 82.002C91.3197 82.662 91.6277 83.542 91.6277 84.642V91H89.4277V85.016C89.4277 84.3853 89.2737 83.894 88.9657 83.542C88.6577 83.19 88.1957 83.014 87.5797 83.014C87.0957 83.014 86.6631 83.1607 86.2817 83.454C85.9004 83.7327 85.6511 84.1067 85.5337 84.576V91H83.3337ZM99.1129 91H96.8469L93.1509 81.232H95.5049L98.0349 88.382L100.543 81.232H102.831L99.1129 91ZM110.395 87.964H112.419C112.243 88.9613 111.796 89.7533 111.077 90.34C110.373 90.9267 109.449 91.22 108.305 91.22C106.941 91.22 105.826 90.7507 104.961 89.812C104.11 88.8733 103.685 87.6487 103.685 86.138C103.685 84.6713 104.118 83.454 104.983 82.486C105.848 81.5033 106.941 81.012 108.261 81.012C109.61 81.012 110.652 81.452 111.385 82.332C112.133 83.1973 112.507 84.3633 112.507 85.83V86.622H105.841C105.87 87.4727 106.105 88.1473 106.545 88.646C107 89.13 107.586 89.372 108.305 89.372C109.464 89.372 110.16 88.9027 110.395 87.964ZM108.283 82.86C107.667 82.86 107.146 83.0507 106.721 83.432C106.31 83.7987 106.039 84.3267 105.907 85.016H110.329C110.314 84.3853 110.131 83.872 109.779 83.476C109.427 83.0653 108.928 82.86 108.283 82.86ZM113.847 88.184H116.091C116.34 89.0053 116.986 89.416 118.027 89.416C118.54 89.416 118.944 89.3207 119.237 89.13C119.545 88.9247 119.699 88.6313 119.699 88.25C119.699 87.986 119.611 87.7807 119.435 87.634C119.259 87.4727 118.966 87.3407 118.555 87.238L116.531 86.754C114.918 86.3727 114.111 85.478 114.111 84.07C114.111 83.19 114.456 82.464 115.145 81.892C115.849 81.3053 116.736 81.012 117.807 81.012C118.922 81.012 119.809 81.2687 120.469 81.782C121.129 82.2807 121.547 82.9847 121.723 83.894H119.567C119.347 83.1753 118.753 82.816 117.785 82.816C117.36 82.816 116.993 82.9113 116.685 83.102C116.377 83.2927 116.223 83.5713 116.223 83.938C116.223 84.3633 116.56 84.664 117.235 84.84L119.303 85.324C120.975 85.72 121.811 86.644 121.811 88.096C121.811 89.0493 121.452 89.812 120.733 90.384C120.029 90.9413 119.12 91.22 118.005 91.22C116.861 91.22 115.915 90.9487 115.167 90.406C114.434 89.8633 113.994 89.1227 113.847 88.184ZM124.467 88.36V83.058H122.927V81.232H124.467V78.614H126.667V81.232H128.867V83.058H126.667V88.118C126.667 88.8807 127.055 89.262 127.833 89.262C128.302 89.262 128.72 89.13 129.087 88.866V90.868C128.691 91.1027 128.141 91.22 127.437 91.22C126.527 91.22 125.801 90.978 125.259 90.494C124.731 90.01 124.467 89.2987 124.467 88.36ZM138.526 82.442C139.392 83.3953 139.824 84.62 139.824 86.116C139.824 87.612 139.392 88.8367 138.526 89.79C137.676 90.7433 136.561 91.22 135.182 91.22C133.804 91.22 132.682 90.7433 131.816 89.79C130.966 88.8367 130.54 87.612 130.54 86.116C130.54 84.62 130.966 83.3953 131.816 82.442C132.682 81.4887 133.804 81.012 135.182 81.012C136.561 81.012 137.676 81.4887 138.526 82.442ZM136.986 88.448C137.412 87.8467 137.624 87.0693 137.624 86.116C137.624 85.1627 137.412 84.3927 136.986 83.806C136.561 83.2047 135.96 82.904 135.182 82.904C134.405 82.904 133.804 83.2047 133.378 83.806C132.953 84.3927 132.74 85.1627 132.74 86.116C132.74 87.0693 132.953 87.8467 133.378 88.448C133.804 89.0347 134.405 89.328 135.182 89.328C135.96 89.328 136.561 89.0347 136.986 88.448ZM147.335 81.188V83.454C147.027 83.234 146.594 83.124 146.037 83.124C145.567 83.124 145.149 83.2633 144.783 83.542C144.416 83.806 144.181 84.1873 144.079 84.686V91H141.879V81.232H144.079V82.244C144.269 81.8773 144.563 81.584 144.959 81.364C145.355 81.1293 145.787 81.012 146.257 81.012C146.77 81.012 147.129 81.0707 147.335 81.188ZM148.566 88.184H150.81C151.059 89.0053 151.704 89.416 152.746 89.416C153.259 89.416 153.662 89.3207 153.956 89.13C154.264 88.9247 154.418 88.6313 154.418 88.25C154.418 87.986 154.33 87.7807 154.154 87.634C153.978 87.4727 153.684 87.3407 153.274 87.238L151.25 86.754C149.636 86.3727 148.83 85.478 148.83 84.07C148.83 83.19 149.174 82.464 149.864 81.892C150.568 81.3053 151.455 81.012 152.526 81.012C153.64 81.012 154.528 81.2687 155.188 81.782C155.848 82.2807 156.266 82.9847 156.442 83.894H154.286C154.066 83.1753 153.472 82.816 152.504 82.816C152.078 82.816 151.712 82.9113 151.404 83.102C151.096 83.2927 150.942 83.5713 150.942 83.938C150.942 84.3633 151.279 84.664 151.954 84.84L154.022 85.324C155.694 85.72 156.53 86.644 156.53 88.096C156.53 89.0493 156.17 89.812 155.452 90.384C154.748 90.9413 153.838 91.22 152.724 91.22C151.58 91.22 150.634 90.9487 149.886 90.406C149.152 89.8633 148.712 89.1227 148.566 88.184Z" fill="black" fill-opacity="0.4"/>
<path d="M67 357.632C68.344 357.632 69.448 357.264 70.312 356.528C71.208 355.76 71.656 354.736 71.656 353.456C71.656 352.176 71.208 351.168 70.312 350.432C69.448 349.664 68.344 349.28 67 349.28C65.624 349.28 64.488 349.664 63.592 350.432C62.728 351.168 62.296 352.176 62.296 353.456C62.296 354.736 62.728 355.76 63.592 356.528C64.488 357.264 65.624 357.632 67 357.632ZM67 344.288C68.12 344.288 69.064 343.952 69.832 343.28C70.6 342.608 70.984 341.712 70.984 340.592C70.984 339.44 70.6 338.528 69.832 337.856C69.064 337.152 68.12 336.8 67 336.8C65.848 336.8 64.888 337.152 64.12 337.856C63.352 338.528 62.968 339.44 62.968 340.592C62.968 341.712 63.352 342.608 64.12 343.28C64.888 343.952 65.848 344.288 67 344.288ZM67 362.48C63.96 362.48 61.432 361.712 59.416 360.176C57.4 358.64 56.392 356.56 56.392 353.936C56.392 352.144 56.872 350.624 57.832 349.376C58.824 348.128 60.056 347.296 61.528 346.88C60.248 346.336 59.224 345.488 58.456 344.336C57.688 343.184 57.304 341.856 57.304 340.352C57.304 337.76 58.232 335.728 60.088 334.256C61.976 332.784 64.28 332.048 67 332.048C69.72 332.048 72.008 332.784 73.864 334.256C75.72 335.728 76.648 337.76 76.648 340.352C76.648 341.856 76.264 343.184 75.496 344.336C74.728 345.488 73.704 346.336 72.424 346.88C73.896 347.296 75.112 348.128 76.072 349.376C77.064 350.624 77.56 352.144 77.56 353.936C77.56 356.56 76.552 358.64 74.536 360.176C72.52 361.712 70.008 362.48 67 362.48ZM81.2114 361.232C80.5074 360.496 80.1554 359.584 80.1554 358.496C80.1554 357.408 80.5074 356.512 81.2114 355.808C81.9474 355.072 82.8434 354.704 83.8994 354.704C84.9554 354.704 85.8354 355.072 86.5394 355.808C87.2754 356.512 87.6434 357.408 87.6434 358.496C87.6434 359.584 87.2754 360.496 86.5394 361.232C85.8354 361.968 84.9554 362.336 83.8994 362.336C82.8434 362.336 81.9474 361.968 81.2114 361.232ZM109.177 358.256C107.033 361.072 104.233 362.48 100.777 362.48C97.321 362.48 94.521 361.072 92.377 358.256C90.233 355.44 89.161 351.776 89.161 347.264C89.161 342.752 90.233 339.088 92.377 336.272C94.521 333.456 97.321 332.048 100.777 332.048C104.233 332.048 107.033 333.456 109.177 336.272C111.321 339.088 112.393 342.752 112.393 347.264C112.393 351.776 111.321 355.44 109.177 358.256ZM105.001 340.208C104.073 338.416 102.665 337.52 100.777 337.52C98.889 337.52 97.481 338.416 96.553 340.208C95.625 342 95.161 344.352 95.161 347.264C95.161 350.176 95.625 352.528 96.553 354.32C97.481 356.112 98.889 357.008 100.777 357.008C102.665 357.008 104.073 356.112 105.001 354.32C105.929 352.528 106.393 350.176 106.393 347.264C106.393 344.352 105.929 342 105.001 340.208ZM123.181 349.376V344.624H124.861C126.173 344.624 127.229 344.304 128.029 343.664C128.861 343.024 129.277 342.112 129.277 340.928C129.277 339.872 128.925 339.008 128.221 338.336C127.549 337.632 126.621 337.28 125.437 337.28C124.157 337.28 123.133 337.664 122.365 338.432C121.629 339.168 121.213 340.128 121.117 341.312H115.165C115.453 338.624 116.525 336.416 118.381 334.688C120.237 332.928 122.605 332.048 125.485 332.048C128.429 332.048 130.765 332.848 132.493 334.448C134.221 336.016 135.085 338.08 135.085 340.64C135.085 342.048 134.749 343.344 134.077 344.528C133.405 345.68 132.541 346.512 131.485 347.024C132.797 347.6 133.805 348.464 134.509 349.616C135.213 350.768 135.565 352.048 135.565 353.456C135.565 356.08 134.653 358.24 132.829 359.936C131.005 361.632 128.557 362.48 125.485 362.48C122.349 362.48 119.789 361.6 117.805 359.84C115.821 358.08 114.749 355.76 114.589 352.88H120.637C120.797 354.224 121.277 355.296 122.077 356.096C122.909 356.864 124.029 357.248 125.437 357.248C126.685 357.248 127.709 356.896 128.509 356.192C129.309 355.456 129.709 354.512 129.709 353.36C129.709 352.144 129.277 351.184 128.413 350.48C127.549 349.744 126.429 349.376 125.053 349.376H123.181ZM141.788 362L160.028 332.528H164.06L145.82 362H141.788ZM142.124 338.912C142.124 339.68 142.396 340.336 142.94 340.88C143.484 341.424 144.156 341.696 144.956 341.696C145.724 341.696 146.38 341.424 146.924 340.88C147.5 340.336 147.788 339.68 147.788 338.912C147.788 338.112 147.5 337.44 146.924 336.896C146.38 336.32 145.724 336.032 144.956 336.032C144.156 336.032 143.484 336.32 142.94 336.896C142.396 337.44 142.124 338.112 142.124 338.912ZM165.692 350.816C167.036 352.128 167.708 353.728 167.708 355.616C167.708 357.504 167.036 359.12 165.692 360.464C164.38 361.808 162.78 362.48 160.892 362.48C159.004 362.48 157.388 361.808 156.044 360.464C154.732 359.12 154.076 357.504 154.076 355.616C154.076 353.728 154.732 352.128 156.044 350.816C157.388 349.504 159.004 348.848 160.892 348.848C162.78 348.848 164.38 349.504 165.692 350.816ZM149.756 334.064C151.1 335.408 151.772 337.024 151.772 338.912C151.772 340.8 151.1 342.4 149.756 343.712C148.444 345.024 146.844 345.68 144.956 345.68C143.068 345.68 141.452 345.024 140.108 343.712C138.796 342.4 138.14 340.8 138.14 338.912C138.14 337.024 138.796 335.408 140.108 334.064C141.452 332.72 143.068 332.048 144.956 332.048C146.844 332.048 148.444 332.72 149.756 334.064ZM163.724 355.616C163.724 354.848 163.452 354.192 162.908 353.648C162.364 353.104 161.692 352.832 160.892 352.832C160.092 352.832 159.404 353.104 158.828 353.648C158.284 354.192 158.012 354.848 158.012 355.616C158.012 356.416 158.284 357.104 158.828 357.68C159.404 358.224 160.092 358.496 160.892 358.496C161.692 358.496 162.364 358.224 162.908 357.68C163.452 357.104 163.724 356.416 163.724 355.616Z" fill="black"/>
<path d="M89.0057 378.516V376.492H100.27V378.516H95.7817V390H93.4937V378.516H89.0057ZM106.888 386.964H108.912C108.736 387.961 108.289 388.753 107.57 389.34C106.866 389.927 105.942 390.22 104.798 390.22C103.434 390.22 102.319 389.751 101.454 388.812C100.603 387.873 100.178 386.649 100.178 385.138C100.178 383.671 100.611 382.454 101.476 381.486C102.341 380.503 103.434 380.012 104.754 380.012C106.103 380.012 107.145 380.452 107.878 381.332C108.626 382.197 109 383.363 109 384.83V385.622H102.334C102.363 386.473 102.598 387.147 103.038 387.646C103.493 388.13 104.079 388.372 104.798 388.372C105.957 388.372 106.653 387.903 106.888 386.964ZM104.776 381.86C104.16 381.86 103.639 382.051 103.214 382.432C102.803 382.799 102.532 383.327 102.4 384.016H106.822C106.807 383.385 106.624 382.872 106.272 382.476C105.92 382.065 105.421 381.86 104.776 381.86ZM118.546 390H116.456V389.45C116.28 389.626 115.958 389.795 115.488 389.956C115.034 390.103 114.55 390.176 114.036 390.176C112.995 390.176 112.122 389.89 111.418 389.318C110.729 388.731 110.384 387.954 110.384 386.986C110.384 386.077 110.744 385.329 111.462 384.742C112.196 384.141 113.105 383.84 114.19 383.84C114.616 383.84 115.048 383.906 115.488 384.038C115.928 384.155 116.251 384.287 116.456 384.434V383.642C116.456 383.129 116.295 382.711 115.972 382.388C115.65 382.051 115.188 381.882 114.586 381.882C113.721 381.882 113.164 382.234 112.914 382.938H110.802C110.949 382.087 111.374 381.391 112.078 380.848C112.797 380.291 113.648 380.012 114.63 380.012C115.862 380.012 116.823 380.335 117.512 380.98C118.202 381.611 118.546 382.483 118.546 383.598V390ZM116.456 387.404V386.59C116.339 386.297 116.09 386.062 115.708 385.886C115.327 385.695 114.909 385.6 114.454 385.6C113.912 385.6 113.435 385.717 113.024 385.952C112.628 386.187 112.43 386.531 112.43 386.986C112.43 387.441 112.628 387.793 113.024 388.042C113.42 388.277 113.897 388.394 114.454 388.394C114.909 388.394 115.327 388.306 115.708 388.13C116.09 387.939 116.339 387.697 116.456 387.404ZM128.357 381.31C129.105 380.445 130.073 380.012 131.261 380.012C132.259 380.012 133.036 380.342 133.593 381.002C134.151 381.647 134.429 382.527 134.429 383.642V390H132.229V383.994C132.229 383.378 132.09 382.894 131.811 382.542C131.547 382.175 131.151 381.992 130.623 381.992C130.213 381.992 129.839 382.117 129.501 382.366C129.179 382.615 128.973 382.975 128.885 383.444V390H126.685V383.994C126.685 383.378 126.546 382.894 126.267 382.542C126.003 382.175 125.607 381.992 125.079 381.992C124.669 381.992 124.295 382.117 123.957 382.366C123.635 382.615 123.429 382.975 123.341 383.444V390H121.141V380.232H123.341V381.046C123.855 380.357 124.669 380.012 125.783 380.012C126.326 380.012 126.825 380.137 127.279 380.386C127.734 380.621 128.093 380.929 128.357 381.31Z" fill="black" fill-opacity="0.4"/>
<path d="M286.462 255.26H154.331L111.773 309.977" stroke="#B9B9B9" stroke-width="3" stroke-linecap="round" stroke-linejoin="round"/>
<path d="M394.68 138.531L339.963 63.9539H208.237" stroke="#B9B9B9" stroke-width="3" stroke-linecap="round" stroke-linejoin="round"/>
<path d="M539 363C554.963 389.667 586.889 443 586.889 443H810" stroke="#626262" stroke-width="3" stroke-linecap="round" stroke-linejoin="round"/>
<path d="M282.603 178.779C261.483 212.377 250.259 251.246 250.216 290.93L461.382 291.159L282.603 178.779Z" fill="#FFF0F1"/>
<defs>
<linearGradient id="paint0_linear" x1="629.677" y1="495.814" x2="293.864" y2="188.627" gradientUnits="userSpaceOnUse">
<stop stop-color="#F5868D"/>
<stop offset="1" stop-color="#FFACB1" stop-opacity="0"/>
</linearGradient>
</defs>
</svg>
