<svg id="Layer_1" data-name="Layer 1" xmlns="http://www.w3.org/2000/svg" xmlns:xlink="http://www.w3.org/1999/xlink" viewBox="0 0 240.644 70.089"><defs><linearGradient id="New_Gradient_Swatch_2" x1="164.128" y1="38.268" x2="164.128" y2="8.351" gradientUnits="userSpaceOnUse"><stop offset="0" stop-color="#cda146"/><stop offset="1" stop-color="#f1d961"/></linearGradient><linearGradient id="New_Gradient_Swatch_1" x1="66.484" y1="3.589" x2="4.54" y2="65.532" gradientUnits="userSpaceOnUse"><stop offset="0" stop-color="#f1d961"/><stop offset="1" stop-color="#cda146"/></linearGradient></defs><title>Coin98 Wallet</title><path d="M129.1,32.783a10.717,10.717,0,0,1-3.384-2.289,11.319,11.319,0,0,1-2.287-3.384,10.635,10.635,0,0,1,9.827-14.792,10.906,10.906,0,0,1,4.16.829,11.175,11.175,0,0,1,3.371,2.287,10.306,10.306,0,0,1,2.26,3.375,10.538,10.538,0,0,1,0,8.309,10.859,10.859,0,0,1-2.266,3.385,11.25,11.25,0,0,1-3.384,2.289,11.023,11.023,0,0,1-4.158.817,10.7,10.7,0,0,1-4.142-.826M127.581,9.518a14.539,14.539,0,0,0-7.771,7.768,14.726,14.726,0,0,0,0,11.355,14.546,14.546,0,0,0,7.772,7.771,14.7,14.7,0,0,0,11.352,0,14.528,14.528,0,0,0,7.772-7.771,14.729,14.729,0,0,0,0-11.349,14.563,14.563,0,0,0-7.776-7.774,14.791,14.791,0,0,0-11.35,0M96.533,9.509a15.038,15.038,0,0,0-4.653,3.128,14.782,14.782,0,0,0-3.122,4.647,14.645,14.645,0,0,0,0,11.363,14.8,14.8,0,0,0,3.12,4.641,14.959,14.959,0,0,0,4.644,3.13,14.733,14.733,0,0,0,5.682,1.134A14.609,14.609,0,0,0,112.516,33.3a14.866,14.866,0,0,0,3.133-4.662c.158-.378.3-.769.435-1.171h-4.243A10.99,10.99,0,0,1,109.73,30.5a10.442,10.442,0,0,1-7.542,3.106,10.557,10.557,0,0,1-7.529-3.115,11.318,11.318,0,0,1-2.287-3.386,10.914,10.914,0,0,1,.01-8.3,10.618,10.618,0,0,1,9.822-6.489,10.816,10.816,0,0,1,4.161.835,11.377,11.377,0,0,1,3.381,2.281,10.711,10.711,0,0,1,2.106,3.046h4.234c-.127-.405-.275-.8-.432-1.185a14.613,14.613,0,0,0-7.774-7.777,14.814,14.814,0,0,0-11.347-.009M152.24,37.552h3.94V8.384h-3.94ZM200.9,18.664a6.96,6.96,0,1,1,13.92,0,6.96,6.96,0,0,1-13.92,0m-3.543.056c0,5.693,4.7,10.148,10.688,10.148h2.378l-4.647,8.814h3.964l7.228-13.856a11.2,11.2,0,0,0,1.446-5.213,10.531,10.531,0,0,0-21.057.107m27.854,10.2a6.079,6.079,0,0,1,12.156,0,6.078,6.078,0,1,1-12.156,0m2.024-13.347a4.106,4.106,0,0,1,4-4.1,4.1,4.1,0,1,1,0,8.206,4.107,4.107,0,0,1-4-4.1m-3.272,0A7.321,7.321,0,0,0,225.389,20l.811,1.083-1.034.878a9.039,9.039,0,0,0-3.23,6.96,9.354,9.354,0,0,0,18.708,0A9.043,9.043,0,0,0,237.36,21.9l-1.056-.887.849-1.092a6.98,6.98,0,0,0,1.46-4.347,7.324,7.324,0,0,0-14.646,0M187.906,8.384l0,22.628a1.926,1.926,0,0,1-1.877,2.158,2.5,2.5,0,0,1-2.141-1.47l-9.005-19.379A6.264,6.264,0,0,0,169,8.384a6.32,6.32,0,0,0-4.039,1.4,1.754,1.754,0,0,0-.151.124A5.226,5.226,0,0,0,162.9,13.97V37.552h4.176V14.581a1.932,1.932,0,0,1,1.932-2.031,2.339,2.339,0,0,1,2.1,1.5l.081.191c2.116,4.68,6.85,14.971,9.621,20.429.932,1.833,2.524,2.657,5.169,2.67a6.482,6.482,0,0,0,4.126-1.388,4.287,4.287,0,0,0,1.974-3.9V8.384Z" fill="url(#New_Gradient_Swatch_2)"/><path d="M94.147,61.076a.7.7,0,0,1-.69-.586L89.1,46.966a.759.759,0,0,1-.034-.219.946.946,0,0,1,.167-.488.6.6,0,0,1,.557-.27.684.684,0,0,1,.414.132.734.734,0,0,1,.265.408L94.25,58.27l3.577-11.684a.759.759,0,0,1,.327-.454.926.926,0,0,1,.489-.143.994.994,0,0,1,.518.143.712.712,0,0,1,.322.454l3.576,11.684,3.784-11.741a.774.774,0,0,1,.27-.4.672.672,0,0,1,.4-.126.646.646,0,0,1,.586.247.866.866,0,0,1,.161.466.724.724,0,0,1-.046.253L103.853,60.49a.742.742,0,0,1-.759.586h-.046a.731.731,0,0,1-.759-.586L98.62,48.679,94.94,60.49a.8.8,0,0,1-.276.454A.874.874,0,0,1,94.147,61.076Z" fill="#231f20"/><path d="M115.2,48.288l-3.082,7.464H116.4a.691.691,0,0,1,.552.213.753.753,0,0,1,.184.511.732.732,0,0,1-.184.506.7.7,0,0,1-.552.207h-4.864l-1.415,3.427a.64.64,0,0,1-.6.472.955.955,0,0,1-.356-.08.642.642,0,0,1-.391-.955l5.612-13.49A.862.862,0,0,1,115.2,46h.058a.807.807,0,0,1,.782.563l5.658,13.49a.633.633,0,0,1-.391.955,1.038,1.038,0,0,1-.357.068.613.613,0,0,1-.575-.46Z" fill="#231f20"/><path d="M125.438,61.076a.64.64,0,0,1-.725-.724V46.724a.725.725,0,0,1,1.449,0v12.9h6.785a.725.725,0,1,1,0,1.449Z" fill="#231f20"/><path d="M137.248,61.076a.64.64,0,0,1-.724-.724V46.724a.725.725,0,0,1,1.449,0v12.9h6.784a.725.725,0,1,1,0,1.449Z" fill="#231f20"/><path d="M157.557,46a.725.725,0,0,1,0,1.449h-8.5a.776.776,0,0,1-.529-.172.706.706,0,0,1-.195-.553.64.64,0,0,1,.724-.724Zm.724,14.352a.64.64,0,0,1-.724.724h-8.5a.754.754,0,0,1-.529-.178.7.7,0,0,1-.195-.546v-6.9a.666.666,0,0,1,.213-.552.784.784,0,0,1,.511-.173h5.773a.725.725,0,1,1,0,1.45h-5.048v5.45h7.774A.64.64,0,0,1,158.281,60.352Z" fill="#231f20"/><path d="M172.035,46.2a.686.686,0,0,1,.2.528.742.742,0,0,1-.184.529.69.69,0,0,1-.529.2H160.57a.661.661,0,0,1-.725-.725A.676.676,0,0,1,160.57,46h10.948A.629.629,0,0,1,172.035,46.2Zm-6.727,3.426a.87.87,0,0,1,.149-.511.676.676,0,0,1,.587-.213.661.661,0,0,1,.575.213.87.87,0,0,1,.149.511v10.73a.673.673,0,0,1-.724.724.745.745,0,0,1-.535-.19.7.7,0,0,1-.2-.534Z" fill="#231f20"/><rect y="0.017" width="70.056" height="70.056" rx="12.791" fill="url(#New_Gradient_Swatch_1)"/><path d="M46.483,30.675a10.95,10.95,0,1,0,10.94,10.96A10.964,10.964,0,0,0,46.483,30.675Zm0,17.4a6.455,6.455,0,1,1,6.46-6.44A6.453,6.453,0,0,1,46.483,48.075Zm2.26-6.4a2.249,2.249,0,0,1-1.51,2.14v1.64h-1.5v-1.64a2.223,2.223,0,0,1-1.51-2.14,2.26,2.26,0,0,1,4.52,0Zm-15.8,1.53a9.37,9.37,0,1,1-18.74,0h4.5a4.875,4.875,0,1,0,9.75,0Zm-9.37-25.69a10.95,10.95,0,1,0,10.96,10.96A10.966,10.966,0,0,0,23.573,17.515Zm0,17.42a6.465,6.465,0,1,1,6.46-6.46A6.483,6.483,0,0,1,23.573,34.935Zm2.27-6.2a2.265,2.265,0,1,1-3.02-2.12v-1.63h1.51v1.63A2.238,2.238,0,0,1,25.843,28.735Zm30.01-1.85a9.221,9.221,0,0,1-1.15,4.48,12.677,12.677,0,0,0-3.93-2.17,4.873,4.873,0,1,0-9.16-2.31,4.69,4.69,0,0,0,.58,2.31,12.677,12.677,0,0,0-3.93,2.17,9.221,9.221,0,0,1-1.15-4.48,9.37,9.37,0,0,1,18.74,0Z" fill="#252525"/></svg>