<svg width="21" height="25" viewBox="0 0 336 388" fill="none" xmlns="http://www.w3.org/2000/svg" class="logo logox"><path d="M1 97.4L1.1.9l83.5 48.4 83.5 48.3-83.6 48.2L.9 193.9 1 97.4z" fill="#56C6AF"></path> <path d="M251.6 146l-83.5-48.4-.1 96.5-.1 96.5 83.5 48.4 83.5 48.3.1-96.5.2-96.5-83.6-48.3z" fill="#56C6AF"></path> <path d="M168 194.1l-.1 96.5-83.5-48.3L.9 193.9l83.6-48.1 83.6-48.2-.1 96.5z" fill="#DBE5ED"></path> <path d="M335.3 97.8l-.1 96.5-83.6-48.3-83.5-48.4 83.7-48.1 83.6-48.2-.1 96.5z" fill="#FFFFFF"></path> <path d="M.7 290.4l.2-96.5 83.5 48.4 83.5 48.3-83.6 48.2L.6 386.9l.1-96.5z" fill="#FFFFFF"></path></svg>