<svg width="327" height="48" viewBox="0 0 327 48" fill="none" xmlns="http://www.w3.org/2000/svg">
<path d="M0 10C0 4.47715 4.47715 0 10 0L317 0C322.523 0 327 4.47715 327 10V38C327 43.5229 322.523 48 317 48L10 48C4.47716 48 0 43.5229 0 38L0 10Z" fill="url(#paint0_linear_1277_1868)"/>
<path d="M24.63 23.7C24.63 22.464 24.906 21.36 25.458 20.388C26.022 19.404 26.784 18.642 27.744 18.102C28.716 17.55 29.802 17.274 31.002 17.274C32.406 17.274 33.636 17.634 34.692 18.354C35.748 19.074 36.486 20.07 36.906 21.342H34.008C33.72 20.742 33.312 20.292 32.784 19.992C32.268 19.692 31.668 19.542 30.984 19.542C30.252 19.542 29.598 19.716 29.022 20.064C28.458 20.4 28.014 20.88 27.69 21.504C27.378 22.128 27.222 22.86 27.222 23.7C27.222 24.528 27.378 25.26 27.69 25.896C28.014 26.52 28.458 27.006 29.022 27.354C29.598 27.69 30.252 27.858 30.984 27.858C31.668 27.858 32.268 27.708 32.784 27.408C33.312 27.096 33.72 26.64 34.008 26.04H36.906C36.486 27.324 35.748 28.326 34.692 29.046C33.648 29.754 32.418 30.108 31.002 30.108C29.802 30.108 28.716 29.838 27.744 29.298C26.784 28.746 26.022 27.984 25.458 27.012C24.906 26.04 24.63 24.936 24.63 23.7ZM44.2364 30.162C43.2764 30.162 42.4124 29.952 41.6444 29.532C40.8764 29.1 40.2704 28.494 39.8264 27.714C39.3944 26.934 39.1784 26.034 39.1784 25.014C39.1784 23.994 39.4004 23.094 39.8444 22.314C40.3004 21.534 40.9184 20.934 41.6984 20.514C42.4784 20.082 43.3484 19.866 44.3084 19.866C45.2684 19.866 46.1384 20.082 46.9184 20.514C47.6984 20.934 48.3104 21.534 48.7544 22.314C49.2104 23.094 49.4384 23.994 49.4384 25.014C49.4384 26.034 49.2044 26.934 48.7364 27.714C48.2804 28.494 47.6564 29.1 46.8644 29.532C46.0844 29.952 45.2084 30.162 44.2364 30.162ZM44.2364 27.966C44.6924 27.966 45.1184 27.858 45.5144 27.642C45.9224 27.414 46.2464 27.078 46.4864 26.634C46.7264 26.19 46.8464 25.65 46.8464 25.014C46.8464 24.066 46.5944 23.34 46.0904 22.836C45.5984 22.32 44.9924 22.062 44.2724 22.062C43.5524 22.062 42.9464 22.32 42.4544 22.836C41.9744 23.34 41.7344 24.066 41.7344 25.014C41.7344 25.962 41.9684 26.694 42.4364 27.21C42.9164 27.714 43.5164 27.966 44.2364 27.966ZM57.5629 19.884C58.7509 19.884 59.7109 20.262 60.4429 21.018C61.1749 21.762 61.5409 22.806 61.5409 24.15V30H59.0209V24.492C59.0209 23.7 58.8229 23.094 58.4269 22.674C58.0309 22.242 57.4909 22.026 56.8069 22.026C56.1109 22.026 55.5589 22.242 55.1509 22.674C54.7549 23.094 54.5569 23.7 54.5569 24.492V30H52.0369V20.028H54.5569V21.27C54.8929 20.838 55.3189 20.502 55.8349 20.262C56.3629 20.01 56.9389 19.884 57.5629 19.884ZM67.6213 22.098V26.922C67.6213 27.258 67.6993 27.504 67.8553 27.66C68.0233 27.804 68.2993 27.876 68.6833 27.876H69.8533V30H68.2693C66.1453 30 65.0833 28.968 65.0833 26.904V22.098H63.8953V20.028H65.0833V17.562H67.6213V20.028H69.8533V22.098H67.6213ZM73.6938 18.84C73.2498 18.84 72.8778 18.702 72.5778 18.426C72.2898 18.138 72.1458 17.784 72.1458 17.364C72.1458 16.944 72.2898 16.596 72.5778 16.32C72.8778 16.032 73.2498 15.888 73.6938 15.888C74.1378 15.888 74.5038 16.032 74.7918 16.32C75.0918 16.596 75.2418 16.944 75.2418 17.364C75.2418 17.784 75.0918 18.138 74.7918 18.426C74.5038 18.702 74.1378 18.84 73.6938 18.84ZM74.9358 20.028V30H72.4158V20.028H74.9358ZM83.7016 19.884C84.8896 19.884 85.8496 20.262 86.5816 21.018C87.3136 21.762 87.6796 22.806 87.6796 24.15V30H85.1596V24.492C85.1596 23.7 84.9616 23.094 84.5656 22.674C84.1696 22.242 83.6296 22.026 82.9456 22.026C82.2496 22.026 81.6976 22.242 81.2896 22.674C80.8936 23.094 80.6956 23.7 80.6956 24.492V30H78.1756V20.028H80.6956V21.27C81.0316 20.838 81.4576 20.502 81.9736 20.262C82.5016 20.01 83.0776 19.884 83.7016 19.884ZM100.24 20.028V30H97.702V28.74C97.378 29.172 96.952 29.514 96.424 29.766C95.908 30.006 95.344 30.126 94.732 30.126C93.952 30.126 93.262 29.964 92.662 29.64C92.062 29.304 91.588 28.818 91.24 28.182C90.904 27.534 90.736 26.766 90.736 25.878V20.028H93.256V25.518C93.256 26.31 93.454 26.922 93.85 27.354C94.246 27.774 94.786 27.984 95.47 27.984C96.166 27.984 96.712 27.774 97.108 27.354C97.504 26.922 97.702 26.31 97.702 25.518V20.028H100.24ZM112.746 24.798C112.746 25.158 112.722 25.482 112.674 25.77H105.384C105.444 26.49 105.696 27.054 106.14 27.462C106.584 27.87 107.13 28.074 107.778 28.074C108.714 28.074 109.38 27.672 109.776 26.868H112.494C112.206 27.828 111.654 28.62 110.838 29.244C110.022 29.856 109.02 30.162 107.832 30.162C106.872 30.162 106.008 29.952 105.24 29.532C104.484 29.1 103.89 28.494 103.458 27.714C103.038 26.934 102.828 26.034 102.828 25.014C102.828 23.982 103.038 23.076 103.458 22.296C103.878 21.516 104.466 20.916 105.222 20.496C105.978 20.076 106.848 19.866 107.832 19.866C108.78 19.866 109.626 20.07 110.37 20.478C111.126 20.886 111.708 21.468 112.116 22.224C112.536 22.968 112.746 23.826 112.746 24.798ZM110.136 24.078C110.124 23.43 109.89 22.914 109.434 22.53C108.978 22.134 108.42 21.936 107.76 21.936C107.136 21.936 106.608 22.128 106.176 22.512C105.756 22.884 105.498 23.406 105.402 24.078H110.136ZM123.309 22.098V26.922C123.309 27.258 123.387 27.504 123.543 27.66C123.711 27.804 123.987 27.876 124.371 27.876H125.541V30H123.957C121.833 30 120.771 28.968 120.771 26.904V22.098H119.583V20.028H120.771V17.562H123.309V20.028H125.541V22.098H123.309ZM132.531 30.162C131.571 30.162 130.707 29.952 129.939 29.532C129.171 29.1 128.565 28.494 128.121 27.714C127.689 26.934 127.473 26.034 127.473 25.014C127.473 23.994 127.695 23.094 128.139 22.314C128.595 21.534 129.213 20.934 129.993 20.514C130.773 20.082 131.643 19.866 132.603 19.866C133.563 19.866 134.433 20.082 135.213 20.514C135.993 20.934 136.605 21.534 137.049 22.314C137.505 23.094 137.733 23.994 137.733 25.014C137.733 26.034 137.499 26.934 137.031 27.714C136.575 28.494 135.951 29.1 135.159 29.532C134.379 29.952 133.503 30.162 132.531 30.162ZM132.531 27.966C132.987 27.966 133.413 27.858 133.809 27.642C134.217 27.414 134.541 27.078 134.781 26.634C135.021 26.19 135.141 25.65 135.141 25.014C135.141 24.066 134.889 23.34 134.385 22.836C133.893 22.32 133.287 22.062 132.567 22.062C131.847 22.062 131.241 22.32 130.749 22.836C130.269 23.34 130.029 24.066 130.029 25.014C130.029 25.962 130.263 26.694 130.731 27.21C131.211 27.714 131.811 27.966 132.531 27.966ZM148.305 22.098V26.922C148.305 27.258 148.383 27.504 148.539 27.66C148.707 27.804 148.983 27.876 149.367 27.876H150.537V30H148.953C146.829 30 145.767 28.968 145.767 26.904V22.098H144.579V20.028H145.767V17.562H148.305V20.028H150.537V22.098H148.305ZM158.715 19.884C159.471 19.884 160.143 20.052 160.731 20.388C161.319 20.712 161.775 21.198 162.099 21.846C162.435 22.482 162.603 23.25 162.603 24.15V30H160.083V24.492C160.083 23.7 159.885 23.094 159.489 22.674C159.093 22.242 158.553 22.026 157.869 22.026C157.173 22.026 156.621 22.242 156.213 22.674C155.817 23.094 155.619 23.7 155.619 24.492V30H153.099V16.68H155.619V21.27C155.943 20.838 156.375 20.502 156.915 20.262C157.455 20.01 158.055 19.884 158.715 19.884ZM175.02 24.798C175.02 25.158 174.996 25.482 174.948 25.77H167.658C167.718 26.49 167.97 27.054 168.414 27.462C168.858 27.87 169.404 28.074 170.052 28.074C170.988 28.074 171.654 27.672 172.05 26.868H174.768C174.48 27.828 173.928 28.62 173.112 29.244C172.296 29.856 171.294 30.162 170.106 30.162C169.146 30.162 168.282 29.952 167.514 29.532C166.758 29.1 166.164 28.494 165.732 27.714C165.312 26.934 165.102 26.034 165.102 25.014C165.102 23.982 165.312 23.076 165.732 22.296C166.152 21.516 166.74 20.916 167.496 20.496C168.252 20.076 169.122 19.866 170.106 19.866C171.054 19.866 171.9 20.07 172.644 20.478C173.4 20.886 173.982 21.468 174.39 22.224C174.81 22.968 175.02 23.826 175.02 24.798ZM172.41 24.078C172.398 23.43 172.164 22.914 171.708 22.53C171.252 22.134 170.694 21.936 170.034 21.936C169.41 21.936 168.882 22.128 168.45 22.512C168.03 22.884 167.772 23.406 167.676 24.078H172.41ZM188.174 19.884C189.362 19.884 190.322 20.262 191.054 21.018C191.786 21.762 192.152 22.806 192.152 24.15V30H189.632V24.492C189.632 23.7 189.434 23.094 189.038 22.674C188.642 22.242 188.102 22.026 187.418 22.026C186.722 22.026 186.17 22.242 185.762 22.674C185.366 23.094 185.168 23.7 185.168 24.492V30H182.648V20.028H185.168V21.27C185.504 20.838 185.93 20.502 186.446 20.262C186.974 20.01 187.55 19.884 188.174 19.884ZM204.569 24.798C204.569 25.158 204.545 25.482 204.497 25.77H197.207C197.267 26.49 197.519 27.054 197.963 27.462C198.407 27.87 198.953 28.074 199.601 28.074C200.537 28.074 201.203 27.672 201.599 26.868H204.317C204.029 27.828 203.477 28.62 202.661 29.244C201.845 29.856 200.843 30.162 199.655 30.162C198.695 30.162 197.831 29.952 197.063 29.532C196.307 29.1 195.713 28.494 195.281 27.714C194.861 26.934 194.651 26.034 194.651 25.014C194.651 23.982 194.861 23.076 195.281 22.296C195.701 21.516 196.289 20.916 197.045 20.496C197.801 20.076 198.671 19.866 199.655 19.866C200.603 19.866 201.449 20.07 202.193 20.478C202.949 20.886 203.531 21.468 203.939 22.224C204.359 22.968 204.569 23.826 204.569 24.798ZM201.959 24.078C201.947 23.43 201.713 22.914 201.257 22.53C200.801 22.134 200.243 21.936 199.583 21.936C198.959 21.936 198.431 22.128 197.999 22.512C197.579 22.884 197.321 23.406 197.225 24.078H201.959ZM220.982 20.028L218.066 30H215.348L213.53 23.034L211.712 30H208.976L206.042 20.028H208.598L210.362 27.624L212.27 20.028H214.934L216.806 27.606L218.57 20.028H220.982ZM241.959 20.028L239.043 30H236.325L234.507 23.034L232.689 30H229.953L227.019 20.028H229.575L231.339 27.624L233.247 20.028H235.911L237.783 27.606L239.547 20.028H241.959ZM253.342 24.798C253.342 25.158 253.318 25.482 253.27 25.77H245.98C246.04 26.49 246.292 27.054 246.736 27.462C247.18 27.87 247.726 28.074 248.374 28.074C249.31 28.074 249.976 27.672 250.372 26.868H253.09C252.802 27.828 252.25 28.62 251.434 29.244C250.618 29.856 249.616 30.162 248.428 30.162C247.468 30.162 246.604 29.952 245.836 29.532C245.08 29.1 244.486 28.494 244.054 27.714C243.634 26.934 243.424 26.034 243.424 25.014C243.424 23.982 243.634 23.076 244.054 22.296C244.474 21.516 245.062 20.916 245.818 20.496C246.574 20.076 247.444 19.866 248.428 19.866C249.376 19.866 250.222 20.07 250.966 20.478C251.722 20.886 252.304 21.468 252.712 22.224C253.132 22.968 253.342 23.826 253.342 24.798ZM250.732 24.078C250.72 23.43 250.486 22.914 250.03 22.53C249.574 22.134 249.016 21.936 248.356 21.936C247.732 21.936 247.204 22.128 246.772 22.512C246.352 22.884 246.094 23.406 245.998 24.078H250.732ZM258.451 21.486C258.775 21.006 259.219 20.616 259.783 20.316C260.359 20.016 261.013 19.866 261.745 19.866C262.597 19.866 263.365 20.076 264.049 20.496C264.745 20.916 265.291 21.516 265.687 22.296C266.095 23.064 266.299 23.958 266.299 24.978C266.299 25.998 266.095 26.904 265.687 27.696C265.291 28.476 264.745 29.082 264.049 29.514C263.365 29.946 262.597 30.162 261.745 30.162C261.001 30.162 260.347 30.018 259.783 29.73C259.231 29.43 258.787 29.046 258.451 28.578V30H255.931V16.68H258.451V21.486ZM263.725 24.978C263.725 24.378 263.599 23.862 263.347 23.43C263.107 22.986 262.783 22.65 262.375 22.422C261.979 22.194 261.547 22.08 261.079 22.08C260.623 22.08 260.191 22.2 259.783 22.44C259.387 22.668 259.063 23.004 258.811 23.448C258.571 23.892 258.451 24.414 258.451 25.014C258.451 25.614 258.571 26.136 258.811 26.58C259.063 27.024 259.387 27.366 259.783 27.606C260.191 27.834 260.623 27.948 261.079 27.948C261.547 27.948 261.979 27.828 262.375 27.588C262.783 27.348 263.107 27.006 263.347 26.562C263.599 26.118 263.725 25.59 263.725 24.978ZM272.697 30.162C271.881 30.162 271.149 30.018 270.501 29.73C269.853 29.43 269.337 29.028 268.953 28.524C268.581 28.02 268.377 27.462 268.341 26.85H270.879C270.927 27.234 271.113 27.552 271.437 27.804C271.773 28.056 272.187 28.182 272.679 28.182C273.159 28.182 273.531 28.086 273.795 27.894C274.071 27.702 274.209 27.456 274.209 27.156C274.209 26.832 274.041 26.592 273.705 26.436C273.381 26.268 272.859 26.088 272.139 25.896C271.395 25.716 270.783 25.53 270.303 25.338C269.835 25.146 269.427 24.852 269.079 24.456C268.743 24.06 268.575 23.526 268.575 22.854C268.575 22.302 268.731 21.798 269.043 21.342C269.367 20.886 269.823 20.526 270.411 20.262C271.011 19.998 271.713 19.866 272.517 19.866C273.705 19.866 274.653 20.166 275.361 20.766C276.069 21.354 276.459 22.152 276.531 23.16H274.119C274.083 22.764 273.915 22.452 273.615 22.224C273.327 21.984 272.937 21.864 272.445 21.864C271.989 21.864 271.635 21.948 271.383 22.116C271.143 22.284 271.023 22.518 271.023 22.818C271.023 23.154 271.191 23.412 271.527 23.592C271.863 23.76 272.385 23.934 273.093 24.114C273.813 24.294 274.407 24.48 274.875 24.672C275.343 24.864 275.745 25.164 276.081 25.572C276.429 25.968 276.609 26.496 276.621 27.156C276.621 27.732 276.459 28.248 276.135 28.704C275.823 29.16 275.367 29.52 274.767 29.784C274.179 30.036 273.489 30.162 272.697 30.162ZM280.717 18.84C280.273 18.84 279.901 18.702 279.601 18.426C279.313 18.138 279.169 17.784 279.169 17.364C279.169 16.944 279.313 16.596 279.601 16.32C279.901 16.032 280.273 15.888 280.717 15.888C281.161 15.888 281.527 16.032 281.815 16.32C282.115 16.596 282.265 16.944 282.265 17.364C282.265 17.784 282.115 18.138 281.815 18.426C281.527 18.702 281.161 18.84 280.717 18.84ZM281.959 20.028V30H279.439V20.028H281.959ZM288.133 22.098V26.922C288.133 27.258 288.211 27.504 288.367 27.66C288.535 27.804 288.811 27.876 289.195 27.876H290.365V30H288.781C286.657 30 285.595 28.968 285.595 26.904V22.098H284.407V20.028H285.595V17.562H288.133V20.028H290.365V22.098H288.133ZM302.198 24.798C302.198 25.158 302.174 25.482 302.126 25.77H294.836C294.896 26.49 295.148 27.054 295.592 27.462C296.036 27.87 296.582 28.074 297.23 28.074C298.166 28.074 298.832 27.672 299.228 26.868H301.946C301.658 27.828 301.106 28.62 300.29 29.244C299.474 29.856 298.472 30.162 297.284 30.162C296.324 30.162 295.46 29.952 294.692 29.532C293.936 29.1 293.342 28.494 292.91 27.714C292.49 26.934 292.28 26.034 292.28 25.014C292.28 23.982 292.49 23.076 292.91 22.296C293.33 21.516 293.918 20.916 294.674 20.496C295.43 20.076 296.3 19.866 297.284 19.866C298.232 19.866 299.078 20.07 299.822 20.478C300.578 20.886 301.16 21.468 301.568 22.224C301.988 22.968 302.198 23.826 302.198 24.798ZM299.588 24.078C299.576 23.43 299.342 22.914 298.886 22.53C298.43 22.134 297.872 21.936 297.212 21.936C296.588 21.936 296.06 22.128 295.628 22.512C295.208 22.884 294.95 23.406 294.854 24.078H299.588Z" fill="#F7F7FC"/>
<defs>
<linearGradient id="paint0_linear_1277_1868" x1="12.2625" y1="6.48726e-06" x2="215.5" y2="167.066" gradientUnits="userSpaceOnUse">
<stop stop-color="#7770E0"/>
<stop offset="1" stop-color="#554FD8"/>
</linearGradient>
</defs>
</svg>
