<svg width="640" height="88" viewBox="0 0 640 88" fill="none" xmlns="http://www.w3.org/2000/svg">
<path d="M0 44C0 19.6995 19.6995 0 44 0H596C620.301 0 640 19.6995 640 44C640 68.3005 620.301 88 596 88H44C19.6995 88 0 68.3005 0 44Z" fill="url(#paint0_linear_1277_1871)"/>
<path d="M63.8219 32.536C66.1899 32.536 68.2592 33.0053 70.0299 33.944C71.8005 34.8827 73.1659 36.2053 74.1259 37.912C75.1072 39.5973 75.5979 41.5493 75.5979 43.768C75.5979 45.9653 75.1072 47.9173 74.1259 49.624C73.1659 51.3307 71.7899 52.6533 69.9979 53.592C68.2272 54.5307 66.1685 55 63.8219 55H55.4059V32.536H63.8219ZM63.4699 50.264C65.5392 50.264 67.1499 49.6987 68.3019 48.568C69.4539 47.4373 70.0299 45.8373 70.0299 43.768C70.0299 41.6987 69.4539 40.088 68.3019 38.936C67.1499 37.784 65.5392 37.208 63.4699 37.208H60.8779V50.264H63.4699ZM95.4879 45.784C95.4879 46.296 95.4559 46.8293 95.3919 47.384H83.0079C83.0932 48.4933 83.4452 49.3467 84.0639 49.944C84.7039 50.52 85.4825 50.808 86.3999 50.808C87.7652 50.808 88.7145 50.232 89.2479 49.08H95.0719C94.7732 50.2533 94.2292 51.3093 93.4399 52.248C92.6719 53.1867 91.7012 53.9227 90.5279 54.456C89.3545 54.9893 88.0425 55.256 86.5919 55.256C84.8425 55.256 83.2852 54.8827 81.9199 54.136C80.5545 53.3893 79.4879 52.3227 78.7199 50.936C77.9519 49.5493 77.5679 47.928 77.5679 46.072C77.5679 44.216 77.9412 42.5947 78.6879 41.208C79.4559 39.8213 80.5225 38.7547 81.8879 38.008C83.2532 37.2613 84.8212 36.888 86.5919 36.888C88.3199 36.888 89.8559 37.2507 91.1999 37.976C92.5439 38.7013 93.5892 39.736 94.3359 41.08C95.1039 42.424 95.4879 43.992 95.4879 45.784ZM89.8879 44.344C89.8879 43.4053 89.5679 42.6587 88.9279 42.104C88.2879 41.5493 87.4879 41.272 86.5279 41.272C85.6105 41.272 84.8319 41.5387 84.1919 42.072C83.5732 42.6053 83.1892 43.3627 83.0399 44.344H89.8879ZM112.999 32.536V36.92H103.847V41.656H110.695V45.912H103.847V55H98.3746V32.536H112.999ZM118.627 35.288C117.667 35.288 116.877 35.0107 116.259 34.456C115.661 33.88 115.363 33.176 115.363 32.344C115.363 31.4907 115.661 30.7867 116.259 30.232C116.877 29.656 117.667 29.368 118.627 29.368C119.565 29.368 120.333 29.656 120.931 30.232C121.549 30.7867 121.859 31.4907 121.859 32.344C121.859 33.176 121.549 33.88 120.931 34.456C120.333 35.0107 119.565 35.288 118.627 35.288ZM121.347 37.144V55H115.875V37.144H121.347ZM151.357 32.536L143.581 47.576V55H138.109V47.576L130.333 32.536H136.541L140.893 41.944L145.213 32.536H151.357ZM156.314 35.288C155.354 35.288 154.565 35.0107 153.946 34.456C153.349 33.88 153.05 33.176 153.05 32.344C153.05 31.4907 153.349 30.7867 153.946 30.232C154.565 29.656 155.354 29.368 156.314 29.368C157.253 29.368 158.021 29.656 158.618 30.232C159.237 30.7867 159.546 31.4907 159.546 32.344C159.546 33.176 159.237 33.88 158.618 34.456C158.021 35.0107 157.253 35.288 156.314 35.288ZM159.034 37.144V55H153.562V37.144H159.034ZM179.832 45.784C179.832 46.296 179.8 46.8293 179.736 47.384H167.352C167.437 48.4933 167.789 49.3467 168.408 49.944C169.048 50.52 169.826 50.808 170.744 50.808C172.109 50.808 173.058 50.232 173.592 49.08H179.416C179.117 50.2533 178.573 51.3093 177.784 52.248C177.016 53.1867 176.045 53.9227 174.872 54.456C173.698 54.9893 172.386 55.256 170.936 55.256C169.186 55.256 167.629 54.8827 166.264 54.136C164.898 53.3893 163.832 52.3227 163.064 50.936C162.296 49.5493 161.912 47.928 161.912 46.072C161.912 44.216 162.285 42.5947 163.032 41.208C163.8 39.8213 164.866 38.7547 166.232 38.008C167.597 37.2613 169.165 36.888 170.936 36.888C172.664 36.888 174.2 37.2507 175.544 37.976C176.888 38.7013 177.933 39.736 178.68 41.08C179.448 42.424 179.832 43.992 179.832 45.784ZM174.232 44.344C174.232 43.4053 173.912 42.6587 173.272 42.104C172.632 41.5493 171.832 41.272 170.872 41.272C169.954 41.272 169.176 41.5387 168.536 42.072C167.917 42.6053 167.533 43.3627 167.384 44.344H174.232ZM188.19 31.32V55H182.718V31.32H188.19ZM191.068 46.04C191.068 44.2053 191.409 42.5947 192.092 41.208C192.796 39.8213 193.745 38.7547 194.94 38.008C196.135 37.2613 197.468 36.888 198.94 36.888C200.113 36.888 201.18 37.1333 202.14 37.624C203.121 38.1147 203.889 38.776 204.444 39.608V31.32H209.916V55H204.444V52.44C203.932 53.2933 203.196 53.976 202.236 54.488C201.297 55 200.199 55.256 198.94 55.256C197.468 55.256 196.135 54.8827 194.94 54.136C193.745 53.368 192.796 52.2907 192.092 50.904C191.409 49.496 191.068 47.8747 191.068 46.04ZM204.444 46.072C204.444 44.7067 204.06 43.6293 203.292 42.84C202.545 42.0507 201.628 41.656 200.54 41.656C199.452 41.656 198.524 42.0507 197.756 42.84C197.009 43.608 196.636 44.6747 196.636 46.04C196.636 47.4053 197.009 48.4933 197.756 49.304C198.524 50.0933 199.452 50.488 200.54 50.488C201.628 50.488 202.545 50.0933 203.292 49.304C204.06 48.5147 204.444 47.4373 204.444 46.072ZM237.776 39.768C237.776 41.0693 237.477 42.264 236.88 43.352C236.283 44.4187 235.365 45.2827 234.128 45.944C232.891 46.6053 231.355 46.936 229.52 46.936H226.128V55H220.656V32.536H229.52C231.312 32.536 232.827 32.8453 234.064 33.464C235.301 34.0827 236.229 34.936 236.848 36.024C237.467 37.112 237.776 38.36 237.776 39.768ZM229.104 42.584C230.149 42.584 230.928 42.3387 231.44 41.848C231.952 41.3573 232.208 40.664 232.208 39.768C232.208 38.872 231.952 38.1787 231.44 37.688C230.928 37.1973 230.149 36.952 229.104 36.952H226.128V42.584H229.104ZM246.097 40.12C246.737 39.1387 247.537 38.3707 248.497 37.816C249.457 37.24 250.523 36.952 251.697 36.952V42.744H250.193C248.827 42.744 247.803 43.0427 247.121 43.64C246.438 44.216 246.097 45.24 246.097 46.712V55H240.625V37.144H246.097V40.12ZM262.44 55.256C260.691 55.256 259.112 54.8827 257.704 54.136C256.317 53.3893 255.219 52.3227 254.408 50.936C253.619 49.5493 253.224 47.928 253.224 46.072C253.224 44.2373 253.629 42.6267 254.44 41.24C255.251 39.832 256.36 38.7547 257.768 38.008C259.176 37.2613 260.755 36.888 262.504 36.888C264.253 36.888 265.832 37.2613 267.24 38.008C268.648 38.7547 269.757 39.832 270.568 41.24C271.379 42.6267 271.784 44.2373 271.784 46.072C271.784 47.9067 271.368 49.528 270.536 50.936C269.725 52.3227 268.605 53.3893 267.176 54.136C265.768 54.8827 264.189 55.256 262.44 55.256ZM262.44 50.52C263.485 50.52 264.371 50.136 265.096 49.368C265.843 48.6 266.216 47.5013 266.216 46.072C266.216 44.6427 265.853 43.544 265.128 42.776C264.424 42.008 263.549 41.624 262.504 41.624C261.437 41.624 260.552 42.008 259.848 42.776C259.144 43.5227 258.792 44.6213 258.792 46.072C258.792 47.5013 259.133 48.6 259.816 49.368C260.52 50.136 261.395 50.52 262.44 50.52ZM284.639 50.36V55H281.855C279.871 55 278.324 54.52 277.215 53.56C276.106 52.5787 275.551 50.9893 275.551 48.792V41.688H273.375V37.144H275.551V32.792H281.023V37.144H284.607V41.688H281.023V48.856C281.023 49.3893 281.151 49.7733 281.407 50.008C281.663 50.2427 282.09 50.36 282.687 50.36H284.639ZM295.815 55.256C294.066 55.256 292.487 54.8827 291.079 54.136C289.692 53.3893 288.594 52.3227 287.783 50.936C286.994 49.5493 286.599 47.928 286.599 46.072C286.599 44.2373 287.004 42.6267 287.815 41.24C288.626 39.832 289.735 38.7547 291.143 38.008C292.551 37.2613 294.13 36.888 295.879 36.888C297.628 36.888 299.207 37.2613 300.615 38.008C302.023 38.7547 303.132 39.832 303.943 41.24C304.754 42.6267 305.159 44.2373 305.159 46.072C305.159 47.9067 304.743 49.528 303.911 50.936C303.1 52.3227 301.98 53.3893 300.551 54.136C299.143 54.8827 297.564 55.256 295.815 55.256ZM295.815 50.52C296.86 50.52 297.746 50.136 298.471 49.368C299.218 48.6 299.591 47.5013 299.591 46.072C299.591 44.6427 299.228 43.544 298.503 42.776C297.799 42.008 296.924 41.624 295.879 41.624C294.812 41.624 293.927 42.008 293.223 42.776C292.519 43.5227 292.167 44.6213 292.167 46.072C292.167 47.5013 292.508 48.6 293.191 49.368C293.895 50.136 294.77 50.52 295.815 50.52ZM306.974 46.072C306.974 44.216 307.347 42.5947 308.094 41.208C308.862 39.8213 309.918 38.7547 311.262 38.008C312.627 37.2613 314.185 36.888 315.934 36.888C318.174 36.888 320.041 37.4747 321.534 38.648C323.049 39.8213 324.041 41.4747 324.51 43.608H318.686C318.195 42.2427 317.246 41.56 315.838 41.56C314.835 41.56 314.035 41.9547 313.438 42.744C312.841 43.512 312.542 44.6213 312.542 46.072C312.542 47.5227 312.841 48.6427 313.438 49.432C314.035 50.2 314.835 50.584 315.838 50.584C317.246 50.584 318.195 49.9013 318.686 48.536H324.51C324.041 50.6267 323.049 52.2693 321.534 53.464C320.019 54.6587 318.153 55.256 315.934 55.256C314.185 55.256 312.627 54.8827 311.262 54.136C309.918 53.3893 308.862 52.3227 308.094 50.936C307.347 49.5493 306.974 47.928 306.974 46.072ZM335.565 55.256C333.816 55.256 332.237 54.8827 330.829 54.136C329.442 53.3893 328.344 52.3227 327.533 50.936C326.744 49.5493 326.349 47.928 326.349 46.072C326.349 44.2373 326.754 42.6267 327.565 41.24C328.376 39.832 329.485 38.7547 330.893 38.008C332.301 37.2613 333.88 36.888 335.629 36.888C337.378 36.888 338.957 37.2613 340.365 38.008C341.773 38.7547 342.882 39.832 343.693 41.24C344.504 42.6267 344.909 44.2373 344.909 46.072C344.909 47.9067 344.493 49.528 343.661 50.936C342.85 52.3227 341.73 53.3893 340.301 54.136C338.893 54.8827 337.314 55.256 335.565 55.256ZM335.565 50.52C336.61 50.52 337.496 50.136 338.221 49.368C338.968 48.6 339.341 47.5013 339.341 46.072C339.341 44.6427 338.978 43.544 338.253 42.776C337.549 42.008 336.674 41.624 335.629 41.624C334.562 41.624 333.677 42.008 332.973 42.776C332.269 43.5227 331.917 44.6213 331.917 46.072C331.917 47.5013 332.258 48.6 332.941 49.368C333.645 50.136 334.52 50.52 335.565 50.52ZM353.284 31.32V55H347.812V31.32H353.284ZM366.783 35.288C365.823 35.288 365.034 35.0107 364.415 34.456C363.818 33.88 363.519 33.176 363.519 32.344C363.519 31.4907 363.818 30.7867 364.415 30.232C365.034 29.656 365.823 29.368 366.783 29.368C367.722 29.368 368.49 29.656 369.087 30.232C369.706 30.7867 370.015 31.4907 370.015 32.344C370.015 33.176 369.706 33.88 369.087 34.456C368.49 35.0107 367.722 35.288 366.783 35.288ZM369.503 37.144V55H364.031V37.144H369.503ZM380.732 55.256C379.175 55.256 377.788 54.9893 376.572 54.456C375.356 53.9227 374.396 53.1973 373.692 52.28C372.988 51.3413 372.594 50.296 372.508 49.144H377.916C377.98 49.7627 378.268 50.264 378.78 50.648C379.292 51.032 379.922 51.224 380.668 51.224C381.351 51.224 381.874 51.096 382.236 50.84C382.62 50.5627 382.812 50.2107 382.812 49.784C382.812 49.272 382.546 48.8987 382.012 48.664C381.479 48.408 380.615 48.1307 379.42 47.832C378.14 47.5333 377.074 47.224 376.22 46.904C375.367 46.5627 374.631 46.04 374.012 45.336C373.394 44.6107 373.084 43.64 373.084 42.424C373.084 41.4 373.362 40.472 373.916 39.64C374.492 38.7867 375.324 38.1147 376.412 37.624C377.522 37.1333 378.834 36.888 380.348 36.888C382.588 36.888 384.348 37.4427 385.628 38.552C386.93 39.6613 387.676 41.1333 387.868 42.968H382.812C382.727 42.3493 382.45 41.8587 381.98 41.496C381.532 41.1333 380.935 40.952 380.188 40.952C379.548 40.952 379.058 41.08 378.716 41.336C378.375 41.5707 378.204 41.9013 378.204 42.328C378.204 42.84 378.471 43.224 379.004 43.48C379.559 43.736 380.412 43.992 381.564 44.248C382.887 44.5893 383.964 44.9307 384.796 45.272C385.628 45.592 386.354 46.1253 386.972 46.872C387.612 47.5973 387.943 48.5787 387.964 49.816C387.964 50.8613 387.666 51.8 387.068 52.632C386.492 53.4427 385.65 54.0827 384.54 54.552C383.452 55.0213 382.183 55.256 380.732 55.256ZM408.973 36.952C411.064 36.952 412.728 37.6347 413.965 39C415.224 40.344 415.853 42.2 415.853 44.568V55H410.413V45.304C410.413 44.1093 410.104 43.1813 409.485 42.52C408.867 41.8587 408.035 41.528 406.989 41.528C405.944 41.528 405.112 41.8587 404.493 42.52C403.875 43.1813 403.565 44.1093 403.565 45.304V55H398.093V37.144H403.565V39.512C404.12 38.7227 404.867 38.104 405.805 37.656C406.744 37.1867 407.8 36.952 408.973 36.952ZM427.784 55.256C426.035 55.256 424.456 54.8827 423.048 54.136C421.661 53.3893 420.563 52.3227 419.752 50.936C418.963 49.5493 418.568 47.928 418.568 46.072C418.568 44.2373 418.973 42.6267 419.784 41.24C420.595 39.832 421.704 38.7547 423.112 38.008C424.52 37.2613 426.099 36.888 427.848 36.888C429.597 36.888 431.176 37.2613 432.584 38.008C433.992 38.7547 435.101 39.832 435.912 41.24C436.723 42.6267 437.128 44.2373 437.128 46.072C437.128 47.9067 436.712 49.528 435.88 50.936C435.069 52.3227 433.949 53.3893 432.52 54.136C431.112 54.8827 429.533 55.256 427.784 55.256ZM427.784 50.52C428.829 50.52 429.715 50.136 430.44 49.368C431.187 48.6 431.56 47.5013 431.56 46.072C431.56 44.6427 431.197 43.544 430.472 42.776C429.768 42.008 428.893 41.624 427.848 41.624C426.781 41.624 425.896 42.008 425.192 42.776C424.488 43.5227 424.136 44.6213 424.136 46.072C424.136 47.5013 424.477 48.6 425.16 49.368C425.864 50.136 426.739 50.52 427.784 50.52ZM465.663 37.144L460.831 55H454.783L451.967 43.416L449.055 55H443.039L438.175 37.144H443.647L446.175 49.912L449.183 37.144H454.975L458.015 49.848L460.511 37.144H465.663Z" fill="#14142B"/>
<path d="M482.947 32.536C485.315 32.536 487.384 33.0053 489.155 33.944C490.926 34.8827 492.291 36.2053 493.251 37.912C494.232 39.5973 494.723 41.5493 494.723 43.768C494.723 45.9653 494.232 47.9173 493.251 49.624C492.291 51.3307 490.915 52.6533 489.123 53.592C487.352 54.5307 485.294 55 482.947 55H474.531V32.536H482.947ZM482.595 50.264C484.664 50.264 486.275 49.6987 487.427 48.568C488.579 47.4373 489.155 45.8373 489.155 43.768C489.155 41.6987 488.579 40.088 487.427 38.936C486.275 37.784 484.664 37.208 482.595 37.208H480.003V50.264H482.595ZM516.021 37.144L504.821 63.48H498.933L503.029 54.392L495.765 37.144H501.877L506.005 48.312L510.101 37.144H516.021ZM523.472 39.672C524.005 38.84 524.741 38.168 525.68 37.656C526.618 37.144 527.717 36.888 528.976 36.888C530.448 36.888 531.781 37.2613 532.976 38.008C534.17 38.7547 535.109 39.8213 535.792 41.208C536.496 42.5947 536.848 44.2053 536.848 46.04C536.848 47.8747 536.496 49.496 535.792 50.904C535.109 52.2907 534.17 53.368 532.976 54.136C531.781 54.8827 530.448 55.256 528.976 55.256C527.738 55.256 526.64 55 525.68 54.488C524.741 53.976 524.005 53.3147 523.472 52.504V63.512H518V37.144H523.472V39.672ZM531.28 46.04C531.28 44.6747 530.896 43.608 530.128 42.84C529.381 42.0507 528.453 41.656 527.344 41.656C526.256 41.656 525.328 42.0507 524.56 42.84C523.813 43.6293 523.44 44.7067 523.44 46.072C523.44 47.4373 523.813 48.5147 524.56 49.304C525.328 50.0933 526.256 50.488 527.344 50.488C528.432 50.488 529.36 50.0933 530.128 49.304C530.896 48.4933 531.28 47.4053 531.28 46.04ZM542.47 35.288C541.51 35.288 540.721 35.0107 540.102 34.456C539.505 33.88 539.206 33.176 539.206 32.344C539.206 31.4907 539.505 30.7867 540.102 30.232C540.721 29.656 541.51 29.368 542.47 29.368C543.409 29.368 544.177 29.656 544.774 30.232C545.393 30.7867 545.702 31.4907 545.702 32.344C545.702 33.176 545.393 33.88 544.774 34.456C544.177 35.0107 543.409 35.288 542.47 35.288ZM545.19 37.144V55H539.718V37.144H545.19ZM566.788 37.144V55H561.316V52.568C560.761 53.3573 560.004 53.9973 559.044 54.488C558.105 54.9573 557.06 55.192 555.908 55.192C554.543 55.192 553.337 54.8933 552.292 54.296C551.247 53.6773 550.436 52.792 549.86 51.64C549.284 50.488 548.996 49.1333 548.996 47.576V37.144H554.436V46.84C554.436 48.0347 554.745 48.9627 555.364 49.624C555.983 50.2853 556.815 50.616 557.86 50.616C558.927 50.616 559.769 50.2853 560.388 49.624C561.007 48.9627 561.316 48.0347 561.316 46.84V37.144H566.788ZM577.982 55.256C576.425 55.256 575.038 54.9893 573.822 54.456C572.606 53.9227 571.646 53.1973 570.942 52.28C570.238 51.3413 569.844 50.296 569.758 49.144H575.166C575.23 49.7627 575.518 50.264 576.03 50.648C576.542 51.032 577.172 51.224 577.918 51.224C578.601 51.224 579.124 51.096 579.486 50.84C579.87 50.5627 580.062 50.2107 580.062 49.784C580.062 49.272 579.796 48.8987 579.262 48.664C578.729 48.408 577.865 48.1307 576.67 47.832C575.39 47.5333 574.324 47.224 573.47 46.904C572.617 46.5627 571.881 46.04 571.262 45.336C570.644 44.6107 570.334 43.64 570.334 42.424C570.334 41.4 570.612 40.472 571.166 39.64C571.742 38.7867 572.574 38.1147 573.662 37.624C574.772 37.1333 576.084 36.888 577.598 36.888C579.838 36.888 581.598 37.4427 582.878 38.552C584.18 39.6613 584.926 41.1333 585.118 42.968H580.062C579.977 42.3493 579.7 41.8587 579.23 41.496C578.782 41.1333 578.185 40.952 577.438 40.952C576.798 40.952 576.308 41.08 575.966 41.336C575.625 41.5707 575.454 41.9013 575.454 42.328C575.454 42.84 575.721 43.224 576.254 43.48C576.809 43.736 577.662 43.992 578.814 44.248C580.137 44.5893 581.214 44.9307 582.046 45.272C582.878 45.592 583.604 46.1253 584.222 46.872C584.862 47.5973 585.193 48.5787 585.214 49.816C585.214 50.8613 584.916 51.8 584.318 52.632C583.742 53.4427 582.9 54.0827 581.79 54.552C580.702 55.0213 579.433 55.256 577.982 55.256Z" fill="url(#paint1_linear_1277_1871)"/>
<defs>
<linearGradient id="paint0_linear_1277_1871" x1="354.437" y1="88" x2="354.437" y2="-2.49511e-06" gradientUnits="userSpaceOnUse">
<stop stop-color="#EFF0F6"/>
<stop offset="1" stop-color="#EFF0F6"/>
</linearGradient>
<linearGradient id="paint1_linear_1277_1871" x1="320" y1="37.25" x2="320" y2="56.75" gradientUnits="userSpaceOnUse">
<stop stop-color="#7770E0"/>
<stop offset="1" stop-color="#554FD8"/>
</linearGradient>
</defs>
</svg>
